<svg id="Layer_6" data-name="Layer 6" xmlns="http://www.w3.org/2000/svg" viewBox="0 0 250.03 360"><defs><style>.cls-1{fill:#fff;}</style></defs><path d="M300.87,143.07c5.5-20,6-39.83-1.47-59.67C293.29,67.21,284.21,53,273.6,39.48c-10.24-13-22.82-22.66-38.56-27.94C228,9.16,220.74,7.31,213.67,5c-17.34-5.77-35.06-6-52.83-3.3C153,2.82,145.3,5.29,137.61,7.42,120.86,12.06,104.94,18.58,93,31.75,80,46.13,69.17,62.09,61.58,80.11A84.36,84.36,0,0,0,55,115.34c.24,10.5,3.08,20.41,6.05,30.31A74.83,74.83,0,0,1,64,177.86a241,241,0,0,0-2.31,28.64,54.21,54.21,0,0,0,5.4,25.43c3.39,6.74,8.47,11.29,16.24,11.89,8.14.62,11.39,5.43,12.07,11.75.83,7.81.88,15.71,1.26,23.58l-.53,0c0,3.31,0,6.63,0,9.93,0,16.37,5.79,30,19.14,40,5.64,4.21,11.83,7.92,16.67,12.92,14.8,15.29,33.47,18.27,53.33,18,2.64,0,5.26-.8,7.89-1.25,10.88-1.82,21.17-5,29.39-12.91,1.92-1.84,3.79-3.76,5.85-5.43,6.53-5.31,13.44-10.2,19.65-15.86,9-8.23,14.24-18.52,14.21-31.06,0-9.6-.22-19.21.05-28.8a65.93,65.93,0,0,1,1.88-13.24c.8-3.43,2.9-6.33,6.84-6.76a17.69,17.69,0,0,0,10.75-5.21c13.71-13.62,19.35-29.93,14.52-48.94-2.4-9.43-3.32-18.63-.77-28.05C297.26,156,299.1,149.54,300.87,143.07ZM96.34,238l-.71-.76L105.5,228c.2.21.4.43.61.64Zm162.39,41.61c1.57,12.92-1.75,24.77-6.36,36.44a16.49,16.49,0,0,1-4.78,5.9c-5.18,4.47-10.57,8.67-15.9,13a1.76,1.76,0,0,1-1.71.27c1.37-1.8,2.73-3.62,4.09-5.43l-.36-.56a41.83,41.83,0,0,0-4.41,3.38,60.47,60.47,0,0,0-6.22,6.89c-7.27,9.92-17.13,14.69-29.24,15.42-3.72.22-7.44,1.41-11.11,1.22a261.21,261.21,0,0,1-26.08-2.33c-9.26-1.42-15.66-7.81-21.67-14.44-2.43-2.69-4.65-5.58-7.06-8.29a28.39,28.39,0,0,0-3.17-2.68l-.66.69,4.17,5.77c-.47.11-.74.25-.83.18-6.31-5.25-12.71-10.4-18.84-15.85a14.87,14.87,0,0,1-3.43-5.69c-4.88-12.57-6.16-25.63-5-39,.79-9.14,1.77-18.31-1.5-27.23a4.06,4.06,0,0,1,0-1.21l.84-.21c.78,2.66,1.54,5.33,2.36,8,.31,1,.46,2.37,1.18,2.85,4,2.73,5,7,6,11.25s2.28,8.77,3.44,13.16l1.39-.28c-1.21-6.76-2.13-13.59-3.73-20.26s-3.93-13.39-5.77-19.52c7.22,8.3,9.62,18.8,11.27,30,1.19,8,5.17,15.65,8,23.42a4.66,4.66,0,0,0,2.24,2.18q-2.5-7.6-5-15.25l.83-.29c.92,2.32,1.71,4.71,2.83,6.94a12.75,12.75,0,0,0,2.52,2.69,12.37,12.37,0,0,0,.3-3.55,73.08,73.08,0,0,1-1.67-9.09l6.45,18.63,1.41-.27V286l8.68,5.57c.05-.18.21-.73.48-1.63l2.94,4c.31-.65.53-1.14.76-1.63l8,5.3h0l.06,0h0s0,0,0-.05l2.8,2.14c.27-.62.52-1.23.93-2.17l3.2,4c.29-.86.53-1.6,1-2.87l5.24,6.54c.22-1.78.35-2.85.59-4.69l4.9,4.54c.24-.72.54-1.61,1-3.07l2.42,4.68c.93-2.15,1.7-3.95,2.47-5.75h.91l2.21,5.56L184.7,302c.33,1.32.56,2.22.81,3.18l5.13-4.81c.2,1.79.33,2.88.54,4.67,1.84-2.17,3.4-4,5.18-6.06.34,1.06.54,1.72.84,2.66l3.28-3.61,2.2,2c.5-.55,1-1.1,1.48-1.66.82-2.13,2.73-2.34,4.63-2.93,1.48-.45,1.93-3.72,4.49-1.55l2.46-3.23c.25.69.43,1.21.54,1.52l8.19-5.72c2.47,3.4.55,7.23.55,10.86l.95.15c1.42-6.44,2.84-12.9,4.25-19.34l.59.11-2.47,13.58c1.39.13,2.15-2.88,3.63-.47.9-1,2.17-1.83,2.62-3,1.55-3.94,2.81-8,4.35-12,0,7.52-4.9,13.61-5.82,21.07q2.37-3.69,4.75-7.38l.06-.08h0l-.09.1c.42-1.31.76-2.65,1.27-3.93A83.47,83.47,0,0,0,245,261.71c.62-8.26,5.56-14.55,10-21.07a178.4,178.4,0,0,0-10.06,40.72l1,.37c.93-2.58,2.06-5.11,2.74-7.75s.67-5.54,1.47-8.17c.66-2.16,1.61-4.71,3.27-6,2.56-1.95,3.55-4.31,4.18-7.18.44-2,1.17-4,1.77-6l1,.25c-.63,3.24-1.72,6.45-1.82,9.7C258.3,264.29,257.82,272,258.73,279.58ZM115.26,232.74c9.44,1.65,16,17.25,15.78,30.85C128.87,251.86,126.07,240.41,115.26,232.74Zm21.4,43.43c-2.77-2.79-2.81-5.35-.45-8.71C139.27,270.46,135.62,273,136.66,276.17Zm6,2.9c-1.1-1.19-2.61-2.21-3.21-3.61-1-2.37-.13-4.55,2.59-7,.75,3.68,1.37,6.75,2,9.82Zm2.58,2.85c.26.93.84,1.89.71,2.76a31,31,0,0,1-1.39,4.52l-.9.19a38.14,38.14,0,0,1-.33-5.63C143.38,283.1,144.57,282.53,145.24,281.92Zm-5.83,4.54-1.57-7.1C141.44,280.61,141.72,281.79,139.41,286.46Zm11.06-5.13c-3.11-.6-4.09-2.41-4.31-4.62-.25-2.54.3-4.86,3.06-6.18C152.53,273.8,150.23,277.5,150.47,281.33Zm.31,4.84c-.22,1.95-.75,3.87-1.22,6.11-2.21-1.85-3-5.43-1.67-7.15.37-.48,1.41-1,1.75-.79A2.37,2.37,0,0,1,150.78,286.17Zm9.58-3.47c-1.3-4,2-6.11,4.21-8.95,2.34,3.3,2.79,7.11,1.68,12.92C163.44,286.58,161.22,285.34,160.36,282.7Zm4.76,17.06c-2.67-2.77-2.49-5.94-2.17-9.21C165.87,291.33,166.44,293.72,165.12,299.76Zm-4.07-2.56c-3.43-1.86-4.21-4.85-2.49-9C162.42,290.6,160.22,294,161.05,297.2ZM158,284l-.88.71c-1.26-1.26-3-2.32-3.66-3.84-1.23-2.64.61-6.48,3.9-8.94C160.68,276.05,156.25,280.15,158,284Zm-3.77,2.41c.62.41,1.4,1.13,1.44,1.78.17,2.42.07,4.86.07,7.6-3-1.57-4.53-6.32-3-8.77C153,286.67,153.94,286.28,154.21,286.45Zm22.54,1c-.12.54-1.38,1.37-1.75,1.21-1.57-.66-3.86-1.35-4.29-2.59a11.51,11.51,0,0,1-.05-6.73c.82-2.77,2.5-5.3,4.2-8.71C178.19,276.64,178,282,176.75,287.47Zm.63,5.69c.05,2.59-.16,5.18-.28,7.78l-1.78.23c-.55-2.59-1.23-5.16-1.53-7.78-.07-.5,1.23-1.39,2.06-1.68C176.17,291.59,177.36,292.63,177.38,293.16Zm-6.35-.54c.41,2.58.52,5.2.78,8.23-3.57-2.16-5.14-5.56-4.07-8.42.24-.66,1-1.13,1.51-1.69C169.87,291.36,170.91,291.92,171,292.62Zm17.55-8.33c-.31,3.19-2.37,4.1-4.93,4.39a2.52,2.52,0,0,1-2-1.43c-.65-5.3-.85-10.59,1.8-16.2C186.66,275.32,189.07,279.17,188.58,284.29Zm1.21,6.5c2.35,3.3,1.46,7-2.36,9.9C186.39,297,187.62,291.82,189.79,290.79ZM185,293.67c-.46,2.55-1.2,5-1.83,7.55-.58,0-1.15-.07-1.73-.09,0-2.75-.09-5.5.11-8.24,0-.41,1.46-1.05,2.19-1A2.18,2.18,0,0,1,185,293.67ZM205.16,286c2.29,4.29,1.53,7.84-2.52,10.21C204.09,292.71,201.43,288.87,205.16,286Zm.52-6a4.73,4.73,0,0,1-4.38,4.3c-.25-2.12-.58-4.13-.7-6.15s0-3.91,0-6.24C204.19,274.05,206.09,277.27,205.68,280.08Zm-7.16,17c-1.51-4.54-1.17-6.47,1.42-8.24C202,291.44,201.4,294.67,198.52,297.09Zm-.55-14.4c-.43,2.92-2.66,3.86-6.37,4.24.49-4.74.92-9,1.42-14C197.12,275.84,198.53,278.89,198,282.69ZM196,293c-.45,2.39-1.2,4.73-1.85,7.08l-1-.27c0-2.42-.13-4.85.09-7.24.07-.66,1.18-1.24,1.81-1.85C195.36,291.43,196.12,292.28,196,293Zm23.44-17.82c-.22,1.51-1.92,2.81-3,4.2l-1.63-.66c.5-3,1-6.05,1.48-9.08l1.88-.13C218.67,271.36,219.69,273.34,219.43,275.13ZM221,280c-.7,2.64-1.25,4.73-1.81,6.83C216.86,281.71,217.15,280.56,221,280Zm-5.92,1.72v7.59C212,284.29,212.1,283,215.05,281.69Zm-2.35-4.64c-.34,1.68-2.16,3.07-3.32,4.6l-.88-.61c-.16-3.39-2.12-6.92.95-10.24A5.41,5.41,0,0,1,212.7,277.05Zm-3.41,15.57a55.6,55.6,0,0,1-1.27-5.83c-.09-.73.57-1.55.89-2.34.7.45,1.76.75,2,1.38C212,288.32,211.83,290.64,209.29,292.62Zm12.12-24.34c3.65,2.3,3.76,4.94.86,8C221.94,273.16,221.68,270.71,221.41,268.28Zm22.77-35.71c-8.85,7.5-10.6,10.64-15.72,27.88C227.65,250.9,234.1,235.67,244.18,232.57Zm19.35,6.8-8.21-8.09.52-.55,8.51,7.9Zm26.7-107.72q-1.53,5.86-3.08,11.74c-.28-7.46,2.32-14.2,4.22-21.32a65.24,65.24,0,0,0-4.08,7.52c-4.33,11-5.37,22.64-4.16,34.31C284,172,286,180,287.37,188.09a24.66,24.66,0,0,0,1.6,6.58l.4-7c3.93,8.94,5.49,17.54,3.36,26.57-1.61,6.8-3.88,13.35-8.72,18.64-6.25,6.83-12.21,7.12-19.12,1a29,29,0,0,1-4.24-4.51l9.21,5.26.57-1c-5.08-4.06-9.27-9.5-16.79-9.64a11.92,11.92,0,0,1-4.54-1.34c-10.58-4.74-22.22-.82-28.07,10.14l5-2.44-3.69,5.91c2.75,1.94,4.13-1.13,6.33-1.32-.14.67-.32,1.5-.68,3.25l4.89-5.22.56.33-8.31,14.83-10.24-13c-.34,5.35,4.5,7.09,5.92,11.65l-2.38-2.22-.73.35c3.4,6.7,8.59,12.88,7,22l-4.34-6.16v7.33l-1.05.32-3.76-6.17c-.28,1.64-.52,3-.73,4.32s-.42,2.85-.63,4.28l-.83.34-5.39-6.53c-.44,2.54-.91,5.22-1.56,9L199.64,266c-.35,2.55-.72,5.18-1.09,7.81l-1.05.3-5.6-8.22c-.24,2.79-.49,5.66-.79,9.28-4.15-4.47-7.39-8.52-8.52-14.13-.79,3.72-1.6,7.44-2.39,11.16l-1.56.07c-.74-3.56-1.49-7.12-2.19-10.43l-7.52,12.84-1.19-.23c-.25-2.95-.51-5.88-.78-8.9q-2.72,4.2-5.42,8.42l-1.12-.06-1.24-8.13-6,6.74-1-.33c-.43-2.58-.87-5.16-1.33-7.93-1.73,2.22-3.47,4.46-5.2,6.71l-.91-.14c-.45-2.81-.91-5.64-1.44-8.95l-3.94,6.8v-8.9l-.79-.05c-1.27,2.1-2.54,4.21-3.82,6.31-3-12.82,6.35-21.43,10.7-31.69l-1.12-.45c-1.2,2.18-2.39,4.36-3.69,6.75-.26-.77-.44-1.34-.82-2.47-.81,1.55-1.48,2.68-2,3.87-1.61,3.45-4.37,3.89-6.51.73a51.14,51.14,0,0,1-5.63-11c1.55,1.79,3.09,3.59,5.25,6.1-.46-1.65-.68-2.44-.89-3.21l6.19,2.28.6-.66c-1.16-2-2.32-3.9-3.84-6.43l4.28,2.59.56-.35a23.94,23.94,0,0,0-2-3.68,21.47,21.47,0,0,0-23.31-7.07c-3.54,1.09-7.19,1.83-10.8,2.68-5.51,1.29-8.77,5.69-12.93,8.84.17.3.35.6.54.91l8.14-4.45c-2.8,3.52-5.81,6.91-10.3,8.1-4.83,1.28-8.56-1.08-11.5-4.65-6.38-7.78-9.41-16.86-9.92-26.84-.28-5.61.24-11.06,3.85-16.46.43,1.63.72,2.77,1,3.63.91-2,2-4.22,2.83-6.49.22-.61-.72-1.7-.46-2.24,1.9-3.9,2.23-8.27,3.78-12.2.45-1.13,3.23-1.33,5.06-2.4l-4.92-.29c.47-16.5,1.4-33.13-8.83-47.66,1.08,3.18,2.14,6.37,3.49,10.37l-2.47-2c-1.23,9.17,1.37,17.68,1.35,26.83-.61-.68-1.57-1.28-1.78-2.07-1.53-5.76-3.22-11.5-4.29-17.34-2.21-12-2.91-24.12-.47-36.3l.39,5h.46V97.73l.72,2C67.93,77.27,78,58.81,94.18,43.21l-4.54,3c8.59-12.91,21.62-20,35.28-27.18l-3.49-.36a50,50,0,0,1,4.9-1.82,94.46,94.46,0,0,0,16.22-5.49c6.71-3.07,14.14-4.61,21.32-6.56,4-1.1,8.17-1.55,12.19-2.58,4.81-1.22,9.33.21,13.82,1.27,8.39,2,16.91,3.75,24.94,6.77,6.85,2.57,13.45,5.79,20.64,7.44A6.3,6.3,0,0,1,238,19.19l-2.67-.25c6.85,4.18,13.22,8,19.5,11.92s11.82,8.74,15.31,15.66l-3.42-2.63-.52.43a35.38,35.38,0,0,0,3.17,3.81c13.46,12.48,20.85,28.12,24,46,.77,4.39,1.21,8.85,1.93,14.28.43-2.13.69-3.42.94-4.71,3.43,20.69-1.18,40.41-6.93,60q1-15.87,2-31.78Z" transform="translate(-54.98 0)"/><path class="cls-1" d="M164,199.71h0S164,199.7,164,199.71Zm124.94-5a24.66,24.66,0,0,1-1.6-6.58C286,180,284,172,283.13,163.9c-1.21-11.67-.17-23.26,4.16-34.31a65.24,65.24,0,0,1,4.08-7.52c-1.9,7.12-4.5,13.86-4.22,21.32q1.55-5.87,3.08-11.74l1.09.25q-1,15.9-2,31.78c5.75-19.59,10.36-39.31,6.93-60-.25,1.29-.51,2.58-.94,4.71-.72-5.43-1.16-9.89-1.93-14.28-3.11-17.86-10.5-33.5-24-46a35.38,35.38,0,0,1-3.17-3.81l.52-.43,3.42,2.63c-3.49-6.92-9-11.7-15.31-15.66s-12.65-7.74-19.5-11.92l2.67.25a6.3,6.3,0,0,0-2.56-1.46c-7.19-1.65-13.79-4.87-20.64-7.44-8-3-16.55-4.79-24.94-6.77-4.49-1.06-9-2.49-13.82-1.27-4,1-8.19,1.48-12.19,2.58-7.18,2-14.61,3.49-21.32,6.56a94.46,94.46,0,0,1-16.22,5.49,50,50,0,0,0-4.9,1.82l3.49.36c-13.66,7.13-26.69,14.27-35.28,27.18l4.54-3C78,58.81,67.93,77.27,65.48,99.73l-.72-2v8.54H64.3l-.39-5c-2.44,12.18-1.74,24.28.47,36.3,1.07,5.84,2.76,11.58,4.29,17.34.21.79,1.17,1.39,1.78,2.07,0-9.15-2.58-17.66-1.35-26.83l2.47,2c-1.35-4-2.41-7.19-3.49-10.37,10.23,14.53,9.3,31.16,8.83,47.66l4.92.29c-1.83,1.07-4.61,1.27-5.06,2.4-1.55,3.93-1.88,8.3-3.78,12.2-.26.54.68,1.63.46,2.24-.84,2.27-1.92,4.46-2.83,6.49-.23-.86-.52-2-1-3.63-3.61,5.4-4.13,10.85-3.85,16.46.51,10,3.54,19.06,9.92,26.84,2.94,3.57,6.67,5.93,11.5,4.65,4.49-1.19,7.5-4.58,10.3-8.1l-8.14,4.45c-.19-.31-.37-.61-.54-.91,4.16-3.15,7.42-7.55,12.93-8.84,3.61-.85,7.26-1.59,10.8-2.68a21.47,21.47,0,0,1,23.31,7.07,23.94,23.94,0,0,1,2,3.68l-.56.35L133,229.84c1.52,2.53,2.68,4.48,3.84,6.43l-.6.66-6.19-2.28c.21.77.43,1.56.89,3.21-2.16-2.51-3.7-4.31-5.25-6.1a51.14,51.14,0,0,0,5.63,11c2.14,3.16,4.9,2.72,6.51-.73.55-1.19,1.22-2.32,2-3.87.38,1.13.56,1.7.82,2.47,1.3-2.39,2.49-4.57,3.69-6.75l1.12.45c-4.35,10.26-13.72,18.87-10.7,31.69,1.28-2.1,2.55-4.21,3.82-6.31l.79.05v8.9l3.94-6.8c.53,3.31,1,6.14,1.44,8.95l.91.14c1.73-2.25,3.47-4.49,5.2-6.71.46,2.77.9,5.35,1.33,7.93l1,.33,6-6.74,1.24,8.13,1.12.06q2.72-4.22,5.42-8.42c.27,3,.53,5.95.78,8.9l1.19.23,7.52-12.84c.7,3.31,1.45,6.87,2.19,10.43l1.56-.07c.79-3.72,1.6-7.44,2.39-11.16,1.13,5.61,4.37,9.66,8.52,14.13.3-3.62.55-6.49.79-9.28l5.6,8.22,1.05-.3c.37-2.63.74-5.26,1.09-7.81l6.71,7.63c.65-3.74,1.12-6.42,1.56-9l5.39,6.53.83-.34c.21-1.43.41-2.86.63-4.28s.45-2.68.73-4.32l3.76,6.17,1.05-.32v-7.33l4.34,6.16c1.61-9.17-3.58-15.35-7-22l.73-.35,2.38,2.22c-1.42-4.56-6.26-6.3-5.92-11.65l10.24,13,8.31-14.83-.56-.33L228,238.21c.36-1.75.54-2.58.68-3.25-2.2.19-3.58,3.26-6.33,1.32l3.69-5.91-5,2.44c5.85-11,17.49-14.88,28.07-10.14a11.92,11.92,0,0,0,4.54,1.34c7.52.14,11.71,5.58,16.79,9.64l-.57,1-9.21-5.26a29,29,0,0,0,4.24,4.51c6.91,6.14,12.87,5.85,19.12-1,4.84-5.29,7.11-11.84,8.72-18.64,2.13-9,.57-17.63-3.36-26.57Zm-3-72.94c3.74-12.57,1.65-25-.86-37.74C289.71,89.67,290.32,114.4,286,121.73Zm-2.52-18.35q-3.42-14.11-6.82-28.22C280.57,84.18,284.61,93.17,283.5,103.38Zm-15.13,37.87c5.29,3.09,7.83,7.24,7.15,14.23-.86-2.59-1.37-4.31-2-6-1.36-3.54-3.88-5.65-7.31-7.5-8.11-4.37-16.71-4.42-25.47-4.43-3.62,0-7.24-.57-10.87-.88,0-.39,0-.78.07-1.17,5,0,10,.3,15-.07C253.43,134.83,261.05,137,268.37,141.25Zm-24-28.73L253.2,95.8l.79.43C251.66,102.15,249.57,108.21,244.33,112.52ZM248.7,37.3a23.56,23.56,0,0,0,4.67,6.83c6.15,6.27,8.3,13.9,7.4,22.3-.71,6.6-2.28,13.11-3.47,19.65l-.85-.14c.27-3.68.95-7.38.73-11-.41-6.33-.18-13.09-2.38-18.84a113.35,113.35,0,0,0-12.52-23.14,25.59,25.59,0,0,0-20.5-11.44,31.71,31.71,0,0,1-4.35-.88C229.88,19.22,244.76,28.23,248.7,37.3ZM124.91,26.49c-10,7.77-14.27,18.67-20.13,28.24C103.48,46.47,114.68,30.15,124.91,26.49ZM105.26,68.64c-.31,5.64-.51,11.29-.94,16.92a32,32,0,0,0,4.74,19.86c.92,1.5,1.67,3.1,2.79,5.18C101.72,104.8,98.71,85.42,105.26,68.64Zm25.93,64.19c.12.26.25.52.37.77-1.36.46-2.71,1.26-4.1,1.33-6.17.3-12.34.5-18.51.54a27.33,27.33,0,0,0-13.87,4.18,26.4,26.4,0,0,1-6.83,2.79C100.62,130.83,116.29,133.52,131.19,132.83ZM74,85.84C72.63,97.92,70.3,110,74.1,122,69.47,109.92,71,97.88,74,85.84Zm2.23,15.28q3-13.58,6-27.16l1.33.25q-3.17,13.58-6.35,27.12Zm9.15,42.77c-.72,3.35-2,6.76-2.07,10.23s.83,7.06,1.27,10.3C78.72,157.62,79,148.61,85.42,143.89Zm-9.9,85.93c-4.41-6.8-7.87-13.85-5.88-22.48.66-2.92.1-6.11.1-9.17l1-.11q1,9.36,2,18.66c.87,0,1.8-.25,1.89-.07,1.4,3.12,2.4,6.46,4.09,9.41,1.92,3.34,4.43,6.35,6.78,9.64C81.25,235.74,77.86,233.44,75.52,229.82Zm32.18-13.93a25.14,25.14,0,0,1-19.23-10,9.11,9.11,0,0,0-1.41-1.2l0,.08a.5.5,0,0,0,.05.13c2.44,5.68,5.23,11,12.55,11.52-.07.32-.15.65-.22,1L92,216.71c3.35,3.47,7.66,2.28,11.83,2.8a8,8,0,0,1-2.45.65c-3.49-.2-7-.4-10.47-.88-4.49-.62-6.3-3.83-7-7.93-.68-3.86-1.39-7.71-2.1-11.58-3.77-7-2.19-14,.51-21a80,80,0,0,1,.36,9.39c-.55,7.64,1.93,13.53,8.76,17.45,3.2,1.84,6,4.41,9.31,6s6.95,2.52,10.44,4.27C110,215.9,108.86,216,107.7,215.89Zm31.07,37.64c.33-5.13,1.91-9.62,6.52-12.53Zm7.6,14.82-1.1-.16c-.19-1.43-.37-2.86-.44-3.35l4.31-3C148.15,264.18,147.26,266.27,146.37,268.35Zm4.64-12-1.47-.2c.49-3.49,1-7,1.46-10.49l1.49.2C152,249.32,151.5,252.81,151,256.31Zm3.24,13.54-1.16-.26v-6.75c.14,0,.29,0,.43-.09.36.93.72,1.86,1.17,3,.56-1,1-1.75,1.45-2.54l.67.3Q155.54,266.7,154.25,269.85Zm-2.4-28.53a5,5,0,0,1-1.62-3.72,88,88,0,0,1,1.45-9.06c.31,0,.61-.09.91-.15.12,1.49.64,3.08.3,4.46-1,4.05-.63,7.38,3.65,9.31.84.39,1.62.94,2.43,1.42l-.93,1.13A41.1,41.1,0,0,1,151.85,241.32Zm6.38,18.53q.65-4.44,1.3-8.9l.92.28C161.55,254.46,160.56,257.28,158.23,259.85Zm4.13,11.8-1.52-.18c-.17-2.35-.35-4.69-.53-7l1-.09c.14.87.28,1.75.59,3.65,1.36-1.66,2.23-2.73,3.11-3.82l.61.25Zm7.28.58-1.4-.29c-.12-1.73-.23-3.46-.33-4.95,4.21,0,3.25-3.95,4.75-5.85l.86.22Q171.58,266.79,169.64,272.23Zm-1.27-10q.82-3.13,1.64-6.25l1.35.55c-.63,2-1.27,4-1.9,6Zm-6.26-13.62c4.3.17,6.92,5.29,11.63,2.88C170.52,256,164.84,254.57,162.11,248.59Zm16.81,17.15-.88,0V251.61h.82C179.09,256.32,181.08,261,178.92,265.74Zm11.58,6.69c-4.16-3.41-3.76-7.95-5-11.84,4.39,6.33,4.39,6.33,5.38,5.52C190.78,268.16,190.66,270,190.5,272.43Zm1.37-19.9c-3.3,3.29-7.25,2.34-9.65-2.92,5.1,3,9.37,3,12.63-1.8-1.67.67-3.3,1.47-5,2-3.84,1.12-6.14,0-7.61-3.72a19.56,19.56,0,0,0-2.29-4.77q-.47,3.44-.92,6.88l-.65,0c-.14-1.16-.27-2.33-.46-4-.72.92-1.25,1.51-1.68,2.16-2.8,4.19-5,4.95-9.39,2.58-7.36-4-14.39-10.65-10.84-22.21,1.87-6.08,4.26-12,6.44-18,.51-1.39,1.13-2.73,1.7-4.09l-3.46,5.06-.24-.11,3.6-9.87c1.06-.87,2.13-1.77,3.89-3.23-.92,2.43-1.51,4-2.11,5.6,1.28-1.56,2.43-3.24,3.85-4.67,3.25-3.28,6.34-2.7,8.3,1.46.49,1,.92,2.11,1.67,3.84.81-1.71,1.34-2.88,1.9-4,1.92-3.91,4.69-4.41,7.84-1.36,1.29,1.25,2.44,2.61,3.65,3.92-.43-1.25-.87-2.5-1.49-4.28,4.31,2.77,5,6.9,6.57,10.87L195,205c2.56,6.75,5.36,13.42,7.64,20.25,3,8.93.61,16.37-7.14,21.93l1,.2C194.94,249.11,193.5,250.91,191.87,252.53Zm-22.26-57.64c1.28-4,2.39-4.87,6.51-5.32Zm28.47,76.49-1.56.36-3.34-7.23.62-.37,3,4.16c.36-2,.52-2.85.68-3.71l.95.08C198.35,266.91,198.21,269.14,198.08,271.38Zm-.57-20.59c1.14,3.81,2.18,7.26,3.22,10.71C197.5,258.55,196.85,254.93,197.51,250.79Zm2.67-6.74c7-2.72,6.23-8.42,6.21-13.83a3.28,3.28,0,0,1,.27-1.23,2.7,2.7,0,0,1,.6-.66c.54,2.75,1.08,5.47,1.59,8.2s-.39,5-3.19,6.13c-1.54.62-3.07,1.27-4.6,1.9Zm5.65,26-1.12.31c-1-2.51-2-5-3-7.54l.65-.31c.52,1,1.05,2,1.79,3.44l1.14-3.17.55.08Zm-.15-23.24,1.84-.82q2.14,5.39,4.28,10.78l-1.1.49Q208.2,252,205.68,246.79Zm7.83,21.58-1.16.21c-.84-2.18-1.68-4.36-2.72-7.08l3.62,3.37.95-.59Zm5.8-14.27-1.08.66q-3.14-6.24-6.29-12.48l.8-.41C216.57,245,217,250.09,219.31,254.1Zm45.07-32.72,3.93,6.74c-6.36-5.4-6.36-5.4-10.65-6.63-.24-1.75-.09-3.21-.66-4.27a38.4,38.4,0,0,0-4-5.63,2.26,2.26,0,0,0-1.91-.45c-6.5,1.49-13,3.06-20.43,4.83l5,.65c-1.32,2.17-1.34,2.16-7.77.79a53.72,53.72,0,0,0-8.63-1.25l2.5,1.4c-2.05.24-3.94.54-5.84.63-.35,0-.76-.83-1.1-1.31s-.79-1.66-1.16-1.66a2.55,2.55,0,0,0-2,1.06c-.21.49.37,1.53.88,2.05A9.71,9.71,0,0,1,215,221l-3.73-1.33c-.26,1.07-.5,2-.74,3l-.68,0a21,21,0,0,0-.3-3.19,4.66,4.66,0,0,0-1.77-2.57c-.07,1-.14,2-.22,3.05l-.66.25a22.82,22.82,0,0,1-1.75-4.14c-1.76-8.39-7.25-14.61-12.16-21.13-.6-.81-1.79-2.78-3.53-.82-.13.14-1.42-.59-2-1.07a16,16,0,0,1-3.69-3.69l4.58,1.45c-2.25-2.94-4.29-5.58-6.55-8.52h3c1.5-4.23-3.84-3.49-4.51-6.57h6.05L181,171.64l4.61-.35-4.9-3.58c2.08-1.11,2.75-2.87,1.23-5.46a18.71,18.71,0,0,1-1.37-4.37l-4.6,8.2,3.8,2.24c-4.7-.49-7.31,1-8.62,4.57l6.28-1.92-6.79,6.13.51.71,7.24-1.45c-2.17,1.55-3.87,2.5-5.14,3.86-.25.27,1.13,2.06,2.22,4-2.31,2.67-5.18,5.72-7.73,9a56.53,56.53,0,0,0-3.84,6.58l0,0,.06,0c-1.67,2.52-3.52,4.93-5,7.57-3.59,6.54-6.76,13.28-13.23,17.79-1.58,1.1-2,3.88-2.9,5.9a3.18,3.18,0,0,1-1.3,1.78l.47-4.75-2.27,1.66-.7-.68c1.28-1.34,2.64-2.61,3.8-4.06s2.27-3.2,3.39-4.82l-.94-.82-5.66,5.52c.85-3.34,1.56-6.18,2.21-8.71-7.2.31-14.48.71-21.78.9-4.06.1-8.5-1.86-13.21-6l6.49,2.26A41.93,41.93,0,0,0,120,215.5a19,19,0,0,0,7.23-.47c-7.81-3.14-16.48-3.24-23.9-7.61,10.65,1.22,20.52,7,32.33,4.15-4.06-1.32-8.17.65-11.53-2.81l4.35-.21a2.11,2.11,0,0,1,0-.26c-5.08-.72-10.2-1.2-15.19-2.26-3.51-.74-7.24-1.7-10.14-3.64s-5.95-1.1-8.66-2.42c-.14-.07-.51.32-1.26.83,3.36,2.87,6.56,5.62,9.76,8.38l-.61.67c-6.76-3.64-12.88-8.06-16.35-15.26-.83-1.73-.84-3.93-.93-5.92-.14-2.88.29-5.81,0-8.65-.73-6.28,1.36-11.53,5.26-16.24.57-.69,1.06-1.44,1.92-2.62l-4.62,2.18c2.57-5.45,7.22-8,12.47-9.55,2-.58,2.91-1.24,3.26-3.47a17.91,17.91,0,0,1,3.35-7.38c-.42,2.83-.84,5.66-1.33,9,3.4-.35,6.14-.5,8.81-1a3.2,3.2,0,0,0,1.83-2c.62-2.15.82-4.4,1.39-6.56a6,6,0,0,1,2.21-3.19v11.61l10.39.65-3.6-2c9.15-1.09,16.18,3.5,23.49,8.78-.47-1.51-.8-2.6-1.22-3.95,3,2.43,5.52,5,8.5,6.72a19.5,19.5,0,0,0,8.05,2.48c2.18.17,4.42-1,4-4.14a6.33,6.33,0,0,1,.57-2.24l1.15.29-1.94,7.69c4.1-2.78,5.29-9.46,2-13.9-3.59-4.77-8.85-6.91-14.32-8.5-3.74-1.08-7.61-1.68-11.83-2.58l2.77-1.5c-4.43-1.06-8.79-1.5-10.75-6.54a29.13,29.13,0,0,1,4.12,1.27c3.79,1.78,7.56,3.07,11.8,1.55.53-.2,1.37.38,2,.66,3.6,1.52,7.19,3.07,10.93,4.28-3.87-6.49-11-7-17.52-9.28,6.89-2.51,16,2.05,24.85,12.44-.94-2.19-1.56-3.64-2.17-5.08l1-.57,5.72,9.46c1-2.34,2-4.48,3.11-7v15.22l.33.08,3.33-11.68,1.1.33c-.21,1.08-.41,2.16-.7,3.68l5.29-8.1,1,.55c-.7,1.42-1.39,2.84-1.7,3.49,2.91-2.41,6.09-5.58,9.79-8,3.9-2.51,8.51-3.15,13.13-3,.09.29.17.58.26.86a58.73,58.73,0,0,1-5.77,1.59c-5.79,1-9.73,4.38-12.33,9.69,1.59-1.07,3.12-2.26,4.79-3.2,3.54-2,7.54-2.66,11.47-3.22,3.7-.54,7.5-.44,11.25-.61.1.26.21.51.3.77a23.55,23.55,0,0,1-4.38,1.72c-5.23,1-10.53,1.64-15.75,2.65a18.35,18.35,0,0,0-10.71,6.55c-3.12,3.74-3.62,7.58-1.44,10.86,2,3,6.12,4.45,10.35,2.65,3.14-1.34,5.81-3.8,8.65-5.82a7.08,7.08,0,0,1,3.05-1.71l-2.31,3.14a4,4,0,0,0,.2.35,55.75,55.75,0,0,1,4.83-3.1c1-.48,2.09-2.61,3.45-.24a19.4,19.4,0,0,0,2.52-.94l13.46-4.4c.2.4.4.79.61,1.18l-2.23,2.1c9.89.88,10.19.62,16.7-14.07a28.76,28.76,0,0,1,.36,5.29c-.55,4.91-.38,5.58,4.12,7.73,5.28,2.53,10.65,4.88,15.33,7l4.6,5.31-.43.69L269,163.39c2.14,3.47,4.23,6.89,6.32,10.29a.35.35,0,0,1,.05.08c.16-1.64.33-3.29.56-5.64,2.62,3.77,2.38,7.47,1.81,11.32-.81-1.9-1.6-3.82-2.42-5.75.17,2.59.44,5.2.65,7.8a.62.62,0,0,1,0,.13c.05.56.09,1.13.13,1.69a57.28,57.28,0,0,1,.12,6.28c-.3,7.09-4.47,12.28-10,16.37a60.08,60.08,0,0,1-6.81,4.19c-2.54,1.4-1.31,3.24-.72,5,.68,2,1.93,2.09,3.77,1.29,5.76-2.5,9.87-6.47,11.46-13.09l-6.33,4c2.78-3.59,7.65-5.37,8.56-10.42.83-4.59,1.54-9.21,2.38-14.28,1.37,5.09,1.58,9.63-.32,14.34-1.72,4.29-2.86,8.81-4.27,13.23l1.08.39,4.16-10.76C279.16,210.23,273.27,218.75,264.38,221.38Zm17.76,11.25a11.25,11.25,0,0,1-8.94,3.67c9.87-10.79,15.67-23,15.08-37.93l.92.35c.23,5,.57,9.92.69,14.89C290.06,221,287,227.29,282.14,232.63Z" transform="translate(-54.98 0)"/><path class="cls-1" d="M258.53,256.65c.1-3.25,1.19-6.46,1.82-9.7l-1-.25c-.6,2-1.33,3.94-1.77,6-.63,2.87-1.62,5.23-4.18,7.18-1.66,1.26-2.61,3.81-3.27,6-.8,2.63-.78,5.5-1.47,8.17s-1.81,5.17-2.74,7.75l-1-.37A178.4,178.4,0,0,1,255,240.64c-4.43,6.52-9.37,12.81-10,21.07a83.47,83.47,0,0,1-5.88,24.46c-.51,1.28-.85,2.62-1.27,3.93,0,0,0,0,0,0l-4.74,7.38c.92-7.46,5.8-13.55,5.82-21.07-1.54,4-2.8,8-4.35,12-.45,1.16-1.72,2-2.62,3-1.48-2.41-2.24.6-3.63.47l2.47-13.58-.59-.11c-1.41,6.44-2.83,12.9-4.25,19.34l-.95-.15c0-3.63,1.92-7.46-.55-10.86l-8.19,5.72c-.11-.31-.29-.83-.54-1.52l-2.46,3.23c-2.56-2.17-3,1.1-4.49,1.55-1.9.59-3.81.8-4.63,2.93l2.34-.76-4,9.89-.75-.17q.47-3.65.91-7.3l-2.2-2-3.28,3.61c-.3-.94-.5-1.6-.84-2.66-1.78,2.08-3.34,3.89-5.18,6.06-.21-1.79-.34-2.88-.54-4.67l-5.13,4.81c-.25-1-.48-1.86-.81-3.18L182,306.57,179.78,301h-.91c-.77,1.8-1.54,3.6-2.47,5.75L174,302.07c-.48,1.46-.78,2.35-1,3.07l-4.9-4.54c-.24,1.84-.37,2.91-.59,4.69l-5.24-6.54c-.43,1.27-.67,2-1,2.87l-3.2-4c-.41.94-.66,1.55-.93,2.17l-2.8-2.14v0a.08.08,0,0,1,0,0l-8-5.3c-.23.49-.45,1-.76,1.63l-2.94-4c-.27.9-.43,1.45-.48,1.63L133.52,286V296.4l-1.41.27L125.66,278a73.08,73.08,0,0,0,1.67,9.09,12.37,12.37,0,0,1-.3,3.55,12.75,12.75,0,0,1-2.52-2.69c-1.12-2.23-1.91-4.62-2.83-6.94l-.83.29q2.5,7.64,5,15.25a4.66,4.66,0,0,1-2.24-2.18c-2.83-7.77-6.81-15.39-8-23.42-1.65-11.23-4-21.73-11.27-30,1.84,6.13,4.14,12.74,5.77,19.52s2.52,13.5,3.73,20.26l-1.39.28c-1.16-4.39-2.38-8.76-3.44-13.16s-2-8.52-6-11.25c-.72-.48-.87-1.86-1.18-2.85-.82-2.65-1.58-5.32-2.36-8l-.84.21a4.06,4.06,0,0,0,0,1.21c3.27,8.92,2.29,18.09,1.5,27.23-1.15,13.37.13,26.43,5,39a14.87,14.87,0,0,0,3.43,5.69c6.13,5.45,12.53,10.6,18.84,15.85.09.07.36-.07.83-.18L124.09,329l.66-.69a28.39,28.39,0,0,1,3.17,2.68c2.41,2.71,4.63,5.6,7.06,8.29,6,6.63,12.41,13,21.67,14.44a261.21,261.21,0,0,0,26.08,2.33c3.67.19,7.39-1,11.11-1.22,12.11-.73,22-5.5,29.24-15.42a60.47,60.47,0,0,1,6.22-6.89,41.83,41.83,0,0,1,4.41-3.38l.36.56c-1.36,1.81-2.72,3.63-4.09,5.43a1.76,1.76,0,0,0,1.71-.27c5.33-4.29,10.72-8.49,15.9-13a16.49,16.49,0,0,0,4.78-5.9c4.61-11.67,7.93-23.52,6.36-36.44C257.82,272,258.3,264.29,258.53,256.65Zm-96.24,53.81-.78.06c-.84-2.88-1.68-5.76-2.74-9.37C162.55,304,161.35,307.55,162.29,310.46Zm-7.94-12.74c.92,3,1.83,5.94,2.75,8.91l-1.24.41c-1.23-3.05-2.45-6.09-3.74-9.31Zm-2.55,9c-1.68-3.17-3.47-6.55-5.17-9.74C149.74,297.08,151.76,300.69,151.8,306.68Zm-8.41-4.92c-1.24-3-2.37-5.65-3.56-8.47C142.41,294.57,143.47,297,143.39,301.76Zm-33.12,11.53c1.31,1.48,2.08,2.49,3,3.35a21.11,21.11,0,0,1,2.66,2.51c-8.84-3.62-12.89-10.94-12-19.89.34-3.28-.42-6.67-.7-10.18l2.11,1.25c-.78-5.3-1.51-10.22-2.24-15.13a24.26,24.26,0,0,1,5.52,19c-.5,4.19-1.21,8.42,1.13,12.52v-18.9h1.31c0,2.65.33,5.35-.07,7.94-1.25,8.12,1.18,14.92,6.73,20.8,1.5,1.59,2.74,3.4,4.6,5.73C117,320.42,116,314.42,110.27,313.29Zm12.28-3.24c-4.31-6.65-3.31-14.07-3.4-21.34l1.26-.23,3.45,17.82.34,0c.09-1.25.18-2.52.26-3.77,1.79,9.1,8.68,14.67,14.4,21.18C134.36,322.35,125.65,314.83,122.55,310.05Zm29,37.42c-5-2.83-8.79-6.52-10.56-12.18-.77-2.47-2.21-4.73-2.87-7.57,1.38,1.7,3.26,3.2,4,5.13,3.27,8.06,10.18,11.38,17.63,14a4,4,0,0,0,3.18-.64c2.54-1.89,4.87-4.05,7.22-6.05C167.32,351.51,162.22,353.49,151.55,347.47Zm19.32-31.11c-.59-3.75-1.17-7.46-1.73-11.05C171.78,306.39,172.07,308.09,170.87,316.36Zm47.8-22.5L215,302.58C215.4,296.1,216.24,294.33,218.67,293.86Zm-6.86,3.39-5.13,9.68C207.07,300.53,208.49,297.86,211.81,297.25Zm-11.91,3.82c-1.08,3.47-2.05,6.57-3,9.67C197.22,307.39,196.13,303.57,199.9,301.07Zm-10.53,3.42c-.59,4.76-1.08,8.64-1.56,12.51C188,313.07,185.51,308.72,189.37,304.49Zm10.49,46c-4.69.89-7.34,0-9.47-4.19-1-2-1.81-4.23-2.7-6.35l.43-.23c1.77,1.92,3.52,3.85,5.31,5.74a5.43,5.43,0,0,0,6.41,1.35c6.94-2.65,13-6.3,16.32-13.4a24.46,24.46,0,0,1,4.71-6C216.62,337.68,212.61,348.11,199.86,350.53ZM229.5,317.9c-2.8,2.31-6.1,4-9.29,6,4.49-6.89,12.12-11.7,13.7-20.58.08,1.18.15,2.35.23,3.52l.47.09c1.1-5.63,2.21-11.28,3.3-16.91l1.43-.84C240.76,300.38,238.59,310.4,229.5,317.9Zm24.18-26c.45-.76.91-1.52,1.35-2.28l.56.09c0,.86.07,1.72,0,2.56-.31,3.14-1,6.28-.93,9.4.13,8.14-4.25,15.06-12.44,18.56L248,314l-.67-.75c-1.67,1.45-3.48,2.78-5,4.38-1.68,1.77-3.09,3.79-4.62,5.71l-1.17-1.06c1.27-1.59,2.47-3.23,3.82-4.75,5.18-5.88,7.83-12.57,7-20.53-.28-2.79,0-5.65,0-8.47l1.44-.1c.27,1.85.55,3.71.81,5.56.17-6.66,1.22-13,6.12-19l-2.52,16.76Z" transform="translate(-54.98 0)"/><path class="cls-1" d="M174.85,270.65c3.34,6,3.18,11.37,1.91,16.82-.13.54-1.39,1.37-1.76,1.21-1.57-.66-3.86-1.35-4.29-2.59a11.65,11.65,0,0,1-.06-6.72C171.47,276.59,173.16,274.06,174.85,270.65Z" transform="translate(-54.98 0)"/><path class="cls-1" d="M183.44,271.05c3.22,4.27,5.63,8.12,5.14,13.24-.31,3.19-2.37,4.1-4.93,4.39a2.52,2.52,0,0,1-2-1.43C181,282,180.79,276.66,183.44,271.05Z" transform="translate(-54.98 0)"/><path class="cls-1" d="M191.6,286.93c.48-4.74.92-9,1.43-14,4.09,2.89,5.5,5.94,4.94,9.74C197.54,285.61,195.31,286.55,191.6,286.93Z" transform="translate(-54.98 0)"/><path class="cls-1" d="M164.57,273.75c2.34,3.3,2.79,7.11,1.68,12.92-2.81-.09-5-1.33-5.89-4C159.06,278.69,162.37,276.59,164.57,273.75Z" transform="translate(-54.98 0)"/><path class="cls-1" d="M131.05,263.59c-2.18-11.73-5-23.19-15.79-30.85C124.7,234.39,131.27,250,131.05,263.59Z" transform="translate(-54.98 0)"/><path class="cls-1" d="M200.57,272c3.63,2.05,5.52,5.28,5.11,8.09a4.74,4.74,0,0,1-4.38,4.31c-.25-2.13-.58-4.14-.7-6.16S200.57,274.32,200.57,272Z" transform="translate(-54.98 0)"/><path class="cls-1" d="M157.34,272c3.35,4.08-1.1,8.17.64,12.07l-.88.71c-1.25-1.27-3-2.32-3.66-3.84C152.21,278.27,154.05,274.42,157.34,272Z" transform="translate(-54.98 0)"/><path class="cls-1" d="M244.18,232.57c-8.85,7.49-10.6,10.64-15.72,27.87C227.65,250.91,234.1,235.67,244.18,232.57Z" transform="translate(-54.98 0)"/><path class="cls-1" d="M150.47,281.33c-3.11-.6-4.09-2.41-4.31-4.62-.25-2.54.3-4.85,3.06-6.18C152.53,273.8,150.23,277.5,150.47,281.33Z" transform="translate(-54.98 0)"/><path class="cls-1" d="M208.49,281.05c-.15-3.4-2.12-6.94,1-10.25a5.41,5.41,0,0,1,3.25,6.25c-.34,1.68-2.16,3.07-3.32,4.59Z" transform="translate(-54.98 0)"/><path class="cls-1" d="M218.21,269.46c.47,1.9,1.48,3.88,1.22,5.67-.22,1.51-1.91,2.81-3,4.2l-1.63-.66c.49-3,1-6.05,1.48-9.08Z" transform="translate(-54.98 0)"/><path class="cls-1" d="M142,268.46c.74,3.68,1.37,6.75,2,9.82-.46.26-.92.52-1.37.79-1.1-1.19-2.6-2.21-3.21-3.61C138.43,273.09,139.33,270.91,142,268.46Z" transform="translate(-54.98 0)"/><path class="cls-1" d="M175.33,301.17c-.55-2.59-1.23-5.16-1.55-7.77-.06-.51,1.25-1.4,2.07-1.69.32-.12,1.51.92,1.52,1.45.06,2.59-.15,5.18-.27,7.77Z" transform="translate(-54.98 0)"/><path class="cls-1" d="M171.81,300.84c-3.57-2.15-5.14-5.55-4.07-8.41.24-.66,1-1.13,1.51-1.69.62.62,1.66,1.18,1.77,1.88C171.44,295.2,171.55,297.82,171.81,300.84Z" transform="translate(-54.98 0)"/><path class="cls-1" d="M181.42,301.13c0-2.75-.09-5.51.11-8.24,0-.41,1.46-1.05,2.19-1a2.18,2.18,0,0,1,1.26,1.76c-.46,2.54-1.19,5-1.83,7.55Z" transform="translate(-54.98 0)"/><path class="cls-1" d="M187.42,300.69c-1-3.69.2-8.86,2.37-9.9C192.14,294.08,191.25,297.8,187.42,300.69Z" transform="translate(-54.98 0)"/><path class="cls-1" d="M155.72,295.83c-3-1.57-4.54-6.32-3-8.77.25-.39,1.22-.79,1.49-.61.62.41,1.4,1.13,1.44,1.78C155.82,290.65,155.72,293.09,155.72,295.83Z" transform="translate(-54.98 0)"/><path class="cls-1" d="M205.16,286c2.29,4.29,1.53,7.84-2.52,10.21C204.09,292.71,201.43,288.87,205.16,286Z" transform="translate(-54.98 0)"/><path class="cls-1" d="M198.52,297.09c-1.5-4.54-1.17-6.47,1.42-8.23C202,291.44,201.4,294.67,198.52,297.09Z" transform="translate(-54.98 0)"/><path class="cls-1" d="M158.55,288.24c3.87,2.37,1.68,5.79,2.5,9C157.62,295.34,156.84,292.35,158.55,288.24Z" transform="translate(-54.98 0)"/><path class="cls-1" d="M193.12,299.76c0-2.42-.14-4.84.08-7.24.07-.67,1.18-1.24,1.81-1.85.36.76,1.11,1.61,1,2.28-.46,2.39-1.22,4.73-1.86,7.08Z" transform="translate(-54.98 0)"/><path class="cls-1" d="M149.56,292.28c-2.21-1.85-3-5.43-1.67-7.15.36-.48,1.4-1,1.75-.79a2.38,2.38,0,0,1,1.14,1.83C150.56,288.12,150,290,149.56,292.28Z" transform="translate(-54.98 0)"/><path class="cls-1" d="M209.3,292.63a56.51,56.51,0,0,1-1.28-5.84c-.09-.73.58-1.56.9-2.34.69.45,1.75.75,2,1.38C212,288.32,211.82,290.63,209.3,292.63Z" transform="translate(-54.98 0)"/><path class="cls-1" d="M165.12,299.75c-2.68-2.76-2.49-5.93-2.17-9.2C165.87,291.33,166.44,293.72,165.12,299.75Z" transform="translate(-54.98 0)"/><path d="M204.15,298.37l2.36-.77c-1.46,3.61-2.73,6.75-4,9.89l-.75-.17.91-7.29Z" transform="translate(-54.98 0)"/><path class="cls-1" d="M136.21,267.46c3.06,3-.59,5.57.44,8.71C133.89,273.38,133.85,270.82,136.21,267.46Z" transform="translate(-54.98 0)"/><path class="cls-1" d="M143.66,289.39a36.9,36.9,0,0,1-.33-5.63c0-.66,1.24-1.23,1.91-1.84.26.92.84,1.9.71,2.76a31,31,0,0,1-1.39,4.52Z" transform="translate(-54.98 0)"/><path class="cls-1" d="M222.27,276.23c-.33-3.08-.59-5.52-.85-8C225.06,270.59,225.17,273.22,222.27,276.23Z" transform="translate(-54.98 0)"/><path class="cls-1" d="M215.05,289.28c-3-5-3-6.24,0-7.59Z" transform="translate(-54.98 0)"/><path class="cls-1" d="M221,280c-.7,2.64-1.25,4.73-1.81,6.83C216.86,281.71,217.15,280.56,221,280Z" transform="translate(-54.98 0)"/><path class="cls-1" d="M137.84,279.36c3.6,1.25,3.88,2.43,1.57,7.1Z" transform="translate(-54.98 0)"/><path class="cls-1" d="M263.53,239.37l-8.21-8.09.52-.55,8.51,7.9Z" transform="translate(-54.98 0)"/><path class="cls-1" d="M95.63,237.21l9.87-9.27.6.65L96.34,238Z" transform="translate(-54.98 0)"/><path d="M274,210.22c1.41-4.42,2.55-8.94,4.27-13.23,1.9-4.71,1.69-9.25.32-14.34-.84,5.07-1.55,9.69-2.38,14.28-.91,5-5.78,6.83-8.56,10.42l6.33-4c-1.59,6.62-5.7,10.59-11.46,13.09-1.84.8-3.09.67-3.77-1.29-.59-1.72-1.82-3.56.72-5A60.08,60.08,0,0,0,266.3,206c5.5-4.09,9.67-9.28,10-16.37a57.28,57.28,0,0,0-.12-6.28c0-.56-.09-1.13-.13-1.69a.62.62,0,0,0,0-.13c-.21-2.6-.49-5.21-.66-7.82h0c-2.09-3.4-4.18-6.82-6.32-10.29l4.26,1.88.43-.69-4.6-5.31c-4.68-2.14-10.05-4.49-15.33-7-4.5-2.15-4.67-2.82-4.12-7.73a28.76,28.76,0,0,0-.36-5.29c-6.51,14.69-6.81,15-16.7,14.07l2.23-2.1c-.21-.39-.41-.78-.61-1.18l-13.46,4.4a19.4,19.4,0,0,1-2.52.94c-1.36-2.37-2.48-.24-3.45.24a55.75,55.75,0,0,0-4.83,3.1,4,4,0,0,1-.2-.35l2.31-3.14a7.08,7.08,0,0,0-3.05,1.71c-2.84,2-5.51,4.48-8.65,5.82-4.23,1.8-8.34.37-10.35-2.65-2.18-3.28-1.68-7.12,1.44-10.86a18.35,18.35,0,0,1,10.71-6.55c5.22-1,10.52-1.68,15.75-2.65a23.55,23.55,0,0,0,4.38-1.72c-.09-.26-.2-.51-.3-.77-3.75.17-7.55.07-11.25.61-3.93.56-7.93,1.24-11.47,3.22-1.67.94-3.2,2.13-4.79,3.2,2.6-5.31,6.54-8.7,12.33-9.69a58.73,58.73,0,0,0,5.77-1.59c-.09-.28-.17-.57-.26-.86-4.62-.13-9.23.51-13.13,3-3.7,2.38-6.88,5.55-9.79,8,.31-.65,1-2.07,1.7-3.49l-1-.55-5.29,8.1c.29-1.52.49-2.6.7-3.68l-1.1-.33-3.33,11.68-.33-.08V139.84c-1.12,2.49-2.07,4.63-3.11,7L172,137.35l-1,.57c.61,1.44,1.23,2.89,2.17,5.08-8.86-10.39-18-14.95-24.85-12.44,6.5,2.28,13.65,2.79,17.52,9.28-3.74-1.21-7.33-2.76-10.93-4.28-.66-.28-1.5-.86-2-.66-4.24,1.52-8,.23-11.8-1.55a29.13,29.13,0,0,0-4.12-1.27c2,5,6.32,5.48,10.75,6.54l-2.77,1.5c4.22.9,8.09,1.5,11.83,2.58,5.47,1.59,10.73,3.73,14.32,8.5,3.33,4.44,2.14,11.12-2,13.9l1.94-7.69-1.15-.29a6.33,6.33,0,0,0-.57,2.24c.39,3.14-1.85,4.31-4,4.14a19.5,19.5,0,0,1-8.05-2.48c-3-1.74-5.5-4.29-8.5-6.72.42,1.35.75,2.44,1.22,3.95-7.31-5.28-14.34-9.87-23.49-8.78l3.6,2-10.39-.65V139.17a6,6,0,0,0-2.21,3.19c-.57,2.16-.77,4.41-1.39,6.56a3.2,3.2,0,0,1-1.83,2c-2.67.49-5.41.64-8.81,1,.49-3.35.91-6.18,1.33-9a17.91,17.91,0,0,0-3.35,7.38c-.35,2.23-1.27,2.89-3.26,3.47-5.25,1.53-9.9,4.1-12.47,9.55l4.62-2.18c-.86,1.18-1.35,1.93-1.92,2.62-3.9,4.71-6,10-5.26,16.24.33,2.84-.1,5.77,0,8.65.09,2,.1,4.19.93,5.92,3.47,7.2,9.59,11.62,16.35,15.26l.61-.67c-3.2-2.76-6.4-5.51-9.76-8.38.75-.51,1.12-.9,1.26-.83,2.71,1.32,5.84.54,8.66,2.42s6.63,2.9,10.14,3.64c5,1.06,10.11,1.54,15.19,2.26a2.11,2.11,0,0,0,0,.26l-4.35.21c3.36,3.46,7.47,1.49,11.53,2.81-11.81,2.86-21.68-2.93-32.33-4.15,7.42,4.37,16.09,4.47,23.9,7.61a19,19,0,0,1-7.23.47,41.93,41.93,0,0,1-6.64-2.26L106.91,211c4.71,4.17,9.15,6.13,13.21,6,7.3-.19,14.58-.59,21.78-.9-.65,2.53-1.36,5.37-2.21,8.71l5.66-5.52.94.82c-1.12,1.62-2.16,3.3-3.39,4.82s-2.52,2.72-3.8,4.06l.7.68,2.27-1.66-.47,4.75a3.18,3.18,0,0,0,1.3-1.78c.92-2,1.32-4.8,2.9-5.9,6.47-4.51,9.64-11.25,13.23-17.79,1.46-2.64,3.31-5.05,5-7.57l0,0s0,0,0,0l-.09.08,0,0a56.53,56.53,0,0,1,3.84-6.58c2.55-3.29,5.42-6.34,7.73-9-1.09-1.92-2.47-3.71-2.22-4,1.27-1.36,3-2.31,5.14-3.86l-7.24,1.45-.51-.71,6.79-6.13-6.28,1.92c1.31-3.59,3.92-5.06,8.62-4.57l-3.8-2.24,4.6-8.2a18.71,18.71,0,0,0,1.37,4.37c1.52,2.59.85,4.35-1.23,5.46l4.9,3.58-4.61.35,5.25,4.09h-6.05c.67,3.08,6,2.34,4.51,6.57h-3c2.26,2.94,4.3,5.58,6.55,8.52l-4.58-1.45a16,16,0,0,0,3.69,3.69c.62.48,1.91,1.21,2,1.07,1.74-2,2.93,0,3.53.82,4.91,6.52,10.4,12.74,12.16,21.13a22.82,22.82,0,0,0,1.75,4.14l.66-.25c.08-1,.15-2,.22-3.05a4.66,4.66,0,0,1,1.77,2.57,21,21,0,0,1,.3,3.19l.68,0c.24-.95.48-1.91.74-3L215,221a9.71,9.71,0,0,0-2.45-2.68c-.51-.52-1.09-1.56-.88-2.05a2.55,2.55,0,0,1,2-1.06c.37,0,.74,1.09,1.16,1.66s.75,1.32,1.1,1.31c1.9-.09,3.79-.39,5.84-.63l-2.5-1.4a53.72,53.72,0,0,1,8.63,1.25c6.43,1.37,6.45,1.38,7.77-.79l-5-.65c7.45-1.77,13.93-3.34,20.43-4.83a2.26,2.26,0,0,1,1.91.45,38.4,38.4,0,0,1,4,5.63c.57,1.06.42,2.52.66,4.27,4.29,1.23,4.29,1.23,10.65,6.63l-3.93-6.74c8.89-2.63,14.78-11.15,14.88-21.53l-4.16,10.76Zm-14.88-6.73c.45-1.23,1.32-2.67,3.53-1.7,1.11.5,2.84-.42,4.29-.71l.49.93-9.25,7.86C258.56,207.13,258.5,205.17,259.14,203.49Zm-34.72,8.74c4.23-.75,8.47.8,12-2.52l-6.13-.52c11.37-2.27,17.56-2.11,20.72.46C242.07,212.45,230.15,214.6,224.42,212.23Zm51-38.47a.35.35,0,0,0-.05-.08h0Z" transform="translate(-54.98 0)"/><path d="M202.66,225.23c-2.28-6.83-5.08-13.5-7.64-20.25-.66-1.25-1.33-2.5-2-3.75-1.21-1.31-2.36-2.67-3.65-3.92-3.15-3.05-5.92-2.55-7.84,1.36-.56,1.15-1.09,2.32-1.9,4-.75-1.73-1.18-2.8-1.67-3.84-2-4.16-5.05-4.74-8.3-1.46-1.42,1.43-2.57,3.11-3.85,4.67-.55.85-1.12,1.69-1.68,2.55-.57,1.36-1.19,2.7-1.7,4.09-2.18,6-4.57,11.92-6.44,18-3.55,11.56,3.48,18.24,10.84,22.21,4.41,2.37,6.59,1.61,9.39-2.58.43-.65,1-1.24,1.68-2.16.19,1.64.32,2.81.46,4l.65,0q.45-3.45.92-6.88a19.56,19.56,0,0,1,2.29,4.77c1.47,3.68,3.77,4.84,7.61,3.72,1.72-.5,3.35-1.3,5-2l.67-.65C203.27,241.6,205.64,234.16,202.66,225.23Zm-43.87,1.5c-.32,4.58-1.25,9.27,2.32,13.18C156.86,237.22,156.32,234.06,158.79,226.73Zm27.79,19.72c-.46.12-1.52-2-2.31-3.09.19-.29.37-.59.55-.88,2.7,6,5.28,0,7.92.28l.35.86A42.88,42.88,0,0,1,186.58,246.45Z" transform="translate(-54.98 0)"/><path d="M256.45,85.94c.27-3.68.95-7.38.72-11-.39-6.34-.17-13.09-2.37-18.85a113.05,113.05,0,0,0-12.52-23.13,25.59,25.59,0,0,0-20.5-11.44,33.31,33.31,0,0,1-4.35-.88c12.45-1.39,27.33,7.62,31.27,16.69a23.58,23.58,0,0,0,4.67,6.82c6.15,6.29,8.29,13.91,7.4,22.31-.71,6.6-2.28,13.1-3.46,19.65Z" transform="translate(-54.98 0)"/><path d="M289.2,198.72c.24,5,.57,9.92.69,14.89.17,7.43-2.88,13.68-7.75,19a11.28,11.28,0,0,1-8.94,3.67c9.87-10.79,15.67-23,15.08-37.93Z" transform="translate(-54.98 0)"/><path d="M85.53,235.7c-4.28,0-7.67-2.26-10-5.88-4.41-6.8-7.87-13.85-5.88-22.48.66-2.92.1-6.11.1-9.17l1-.11c.68,6.23,1.36,12.47,2,18.66.87,0,1.81-.25,1.89-.07,1.4,3.12,2.4,6.46,4.09,9.41C80.67,229.4,83.18,232.41,85.53,235.7Z" transform="translate(-54.98 0)"/><path d="M81.82,199.78c-3.77-7-2.19-14,.51-21a82,82,0,0,1,.37,9.38c-.56,7.64,1.91,13.53,8.75,17.45,3.2,1.84,6,4.41,9.31,6s6.95,2.51,10.44,4.27c-1.17,0-2.34,0-3.5,0a25.14,25.14,0,0,1-19.23-10,8.59,8.59,0,0,0-1.41-1.2l.08.13-4.77-5.18Z" transform="translate(-54.98 0)"/><path d="M275.52,155.48c-.86-2.59-1.37-4.31-2-6-1.36-3.54-3.88-5.65-7.31-7.5-8.11-4.38-16.71-4.42-25.47-4.43-3.62,0-7.24-.57-10.87-.88,0-.39,0-.78.07-1.18,5,0,10,.3,15-.06,8.51-.63,16.13,1.52,23.44,5.79C273.66,144.34,276.2,148.49,275.52,155.48Z" transform="translate(-54.98 0)"/><path d="M105.26,68.64c-.31,5.64-.51,11.29-1,16.92a32.16,32.16,0,0,0,4.74,19.86c.93,1.5,1.68,3.1,2.79,5.18C101.72,104.8,98.71,85.42,105.26,68.64Z" transform="translate(-54.98 0)"/><path d="M131.56,133.6c-1.36.46-2.72,1.26-4.1,1.33-6.17.3-12.34.5-18.51.54a27.23,27.23,0,0,0-13.87,4.18,26,26,0,0,1-6.83,2.79c12.37-11.62,28-8.92,42.94-9.61Z" transform="translate(-54.98 0)"/><path d="M124.91,26.49c-10,7.77-14.27,18.67-20.13,28.24C103.48,46.48,114.68,30.15,124.91,26.49Z" transform="translate(-54.98 0)"/><path d="M81.82,199.78l.55-.11a83.65,83.65,0,0,0,3.47,8.53A89.37,89.37,0,0,0,91,216l1,.7c3.35,3.47,7.66,2.28,11.83,2.81a8.39,8.39,0,0,1-2.45.64c-3.49-.2-7-.4-10.46-.88-4.5-.62-6.31-3.84-7-7.93C83.24,207.49,82.52,203.63,81.82,199.78Z" transform="translate(-54.98 0)"/><path d="M276.68,75.16c3.89,9,7.93,18,6.82,28.22Z" transform="translate(-54.98 0)"/><path d="M84.63,164.42c-5.91-6.79-5.63-15.81.79-20.53-.72,3.34-2,6.77-2.08,10.23S84.18,161.19,84.63,164.42Z" transform="translate(-54.98 0)"/><path d="M286,121.73c3.74-12.57,1.65-25-.86-37.74C289.71,89.67,290.32,114.4,286,121.73Z" transform="translate(-54.98 0)"/><path d="M74.1,122C69.47,109.92,71,97.87,74,85.84,72.63,97.92,70.3,110,74.1,122Z" transform="translate(-54.98 0)"/><path d="M152.59,228.39c.12,1.49.63,3.08.3,4.46-1,4.05-.63,7.38,3.64,9.31a23.69,23.69,0,0,1,2.43,1.42l-.92,1.13a42.27,42.27,0,0,1-6.18-3.38,5,5,0,0,1-1.63-3.73,88,88,0,0,1,1.45-9.06Z" transform="translate(-54.98 0)"/><path d="M200.18,244.06c7-2.73,6.24-8.43,6.21-13.84a3.24,3.24,0,0,1,.27-1.23,2.7,2.7,0,0,1,.6-.66c.54,2.75,1.08,5.47,1.59,8.2s-.39,5-3.2,6.13c-1.53.62-3.06,1.27-4.59,1.9Z" transform="translate(-54.98 0)"/><path d="M83.55,74.22q-3.17,13.55-6.35,27.1l-.93-.2q3-13.58,6-27.15Z" transform="translate(-54.98 0)"/><path d="M92,216.71l-1-.7a57.65,57.65,0,0,1-2.88-5.92,32.33,32.33,0,0,1-1-5.24l-.08-.13c2.45,5.75,5.23,11.17,12.64,11.73-.07.32-.15.64-.22,1Z" transform="translate(-54.98 0)"/><path d="M194.85,247.82l.67-.66,1,.2c-1.55,1.74-3,3.55-4.62,5.18-3.3,3.28-7.25,2.33-9.65-2.93C187.32,252.63,191.59,252.6,194.85,247.82Z" transform="translate(-54.98 0)"/><path d="M244.33,112.52,253.2,95.8l.79.43C251.65,102.15,249.57,108.21,244.33,112.52Z" transform="translate(-54.98 0)"/><path d="M162.11,248.59c4.3.17,6.92,5.29,11.63,2.88C170.51,256,164.84,254.57,162.11,248.59Z" transform="translate(-54.98 0)"/><path d="M178,265.72V251.61h.82c.23,4.71,2.22,9.4,0,14.13Z" transform="translate(-54.98 0)"/><path d="M218.23,254.76q-3.14-6.24-6.29-12.48l.8-.41c3.83,3.18,4.26,8.22,6.57,12.23Z" transform="translate(-54.98 0)"/><path d="M185.54,260.59c4.38,6.33,4.38,6.33,5.37,5.52-.13,2.05-.25,3.88-.41,6.32C186.34,269,186.74,264.48,185.54,260.59Z" transform="translate(-54.98 0)"/><path d="M145.29,241l-6.52,12.53C139.1,248.4,140.68,243.92,145.29,241Z" transform="translate(-54.98 0)"/><path d="M207.52,246q2.14,5.39,4.28,10.78l-1.09.49q-2.52-5.22-5-10.44Z" transform="translate(-54.98 0)"/><path d="M173.52,261.36l-3.88,10.86-1.4-.29c-.11-1.72-.23-3.45-.33-4.94,4.21,0,3.25-3.95,4.75-5.85Z" transform="translate(-54.98 0)"/><path d="M165.81,202.07l-1.68,2.55-3.46,5.06-.24-.12q1.8-4.94,3.61-9.88l-.11.11,4-3.32C167,198.91,166.41,200.49,165.81,202.07Z" transform="translate(-54.98 0)"/><path d="M161.33,264.34c.14.87.28,1.75.59,3.65l3.11-3.82.61.25-3.27,7.24-1.53-.19c-.18-2.35-.35-4.69-.53-7Z" transform="translate(-54.98 0)"/><path d="M196.52,271.74l-3.34-7.23.62-.37,3,4.16c.36-2,.52-2.85.67-3.71l1,.08-.4,6.71Z" transform="translate(-54.98 0)"/><path d="M275.41,173.76c.16-1.65.33-3.29.56-5.64,2.62,3.76,2.37,7.46,1.81,11.32-.81-1.91-1.61-3.83-2.42-5.76Z" transform="translate(-54.98 0)"/><path d="M195,205l-2-3.75c-.44-1.25-.88-2.5-1.5-4.28,4.31,2.77,5,6.89,6.57,10.86Z" transform="translate(-54.98 0)"/><path d="M204.14,265.93c.46-1.28.8-2.23,1.15-3.17l.54.08V270l-1.12.32-3-7.54.65-.31C202.87,263.5,203.4,264.51,204.14,265.93Z" transform="translate(-54.98 0)"/><path d="M152.49,245.82c-.5,3.5-1,7-1.48,10.49l-1.47-.2c.49-3.49,1-7,1.46-10.49Z" transform="translate(-54.98 0)"/><path d="M156.81,263.55l-2.55,6.3-1.17-.26v-6.75l.43-.08c.36.92.72,1.85,1.17,3,.56-1,1-1.75,1.45-2.53Z" transform="translate(-54.98 0)"/><path d="M160.45,251.23c1.1,3.22.11,6-2.22,8.62.43-3,.87-5.93,1.3-8.9Z" transform="translate(-54.98 0)"/><path d="M209.63,261.49l3.62,3.38.95-.59-.69,4.09-1.16.21Z" transform="translate(-54.98 0)"/><path d="M197.51,250.8c1.14,3.81,2.18,7.25,3.22,10.7C197.5,258.55,196.85,254.93,197.51,250.8Z" transform="translate(-54.98 0)"/><path d="M144.83,264.84l4.31-3c-1,2.31-1.88,4.39-2.77,6.47l-1.1-.17C145.08,266.75,144.89,265.32,144.83,264.84Z" transform="translate(-54.98 0)"/><path d="M169.61,194.9c1.28-4,2.38-4.88,6.51-5.33Z" transform="translate(-54.98 0)"/><path d="M171.36,256.52c-.63,2-1.27,4-1.9,6l-1.09-.31c.55-2.08,1.1-4.17,1.64-6.25Z" transform="translate(-54.98 0)"/><path d="M248.84,288.43l.81,5.56c.17-6.66,1.22-13,6.11-19-.91,6.12-1.71,11.44-2.51,16.76l.43.13c.45-.76.9-1.52,1.36-2.27l.55.09c0,.85.07,1.71,0,2.56-.31,3.13-1,6.27-.93,9.39.14,8.14-4.25,15.06-12.44,18.56L248,314l-.67-.74a63,63,0,0,0-5,4.38c-1.68,1.77-3.09,3.79-4.62,5.7l-1.17-1.06c1.27-1.58,2.47-3.23,3.82-4.75,5.18-5.88,7.83-12.56,7-20.53-.28-2.79-.05-5.64-.05-8.47Z" transform="translate(-54.98 0)"/><path d="M110.27,313.29c1.31,1.48,2.08,2.49,3,3.35a21.07,21.07,0,0,1,2.66,2.51c-8.84-3.62-12.89-10.94-12-19.9.34-3.27-.42-6.66-.7-10.17l2.11,1.25c-.78-5.3-1.51-10.22-2.23-15.13a24.28,24.28,0,0,1,5.51,19c-.5,4.19-1.21,8.42,1.13,12.52v-18.9h1.31c0,2.65.33,5.35-.07,7.94-1.25,8.13,1.18,14.92,6.73,20.8,1.5,1.59,2.75,3.4,4.6,5.73C117,320.42,116,314.42,110.27,313.29Z" transform="translate(-54.98 0)"/><path d="M188.12,339.76c1.77,1.91,3.52,3.85,5.31,5.74a5.43,5.43,0,0,0,6.41,1.35c6.94-2.64,13-6.29,16.32-13.4a24,24,0,0,1,4.71-6c-4.25,10.23-8.26,20.66-21,23.08-4.69.89-7.34,0-9.47-4.2-1-2-1.81-4.22-2.7-6.34Z" transform="translate(-54.98 0)"/><path d="M170.19,340.19c-2.87,11.32-8,13.3-18.64,7.28-5-2.83-8.79-6.52-10.56-12.18-.77-2.47-2.21-4.73-2.86-7.57,1.37,1.7,3.24,3.2,4,5.13,3.28,8.06,10.18,11.38,17.63,14a4,4,0,0,0,3.19-.64C165.51,344.35,167.84,342.2,170.19,340.19Z" transform="translate(-54.98 0)"/><path d="M237.82,290.1l1.52-.89c1.42,11.17-.75,21.19-9.84,28.69-2.79,2.3-6.1,4-9.28,6,4.48-6.88,12.11-11.68,13.69-20.57.08,1.18.15,2.35.22,3.52l.48.09q1.66-8.49,3.32-17Z" transform="translate(-54.98 0)"/><path d="M120.41,288.48q1.73,8.91,3.46,17.82l.33,0,.26-3.77c1.79,9.09,8.68,14.67,14.39,21.19-4.49-1.35-13.2-8.87-16.3-13.65-4.31-6.65-3.31-14.06-3.4-21.34Z" transform="translate(-54.98 0)"/><path d="M154.33,297.63l2.77,9-1.25.41-3.73-9.31h2.3Z" transform="translate(-54.98 0)"/><path d="M146.63,296.94c3.11.14,5.13,3.74,5.17,9.74C150.12,303.51,148.32,300.14,146.63,296.94Z" transform="translate(-54.98 0)"/><path d="M187.81,317c.17-3.93-2.29-8.28,1.56-12.51C188.78,309.26,188.29,313.13,187.81,317Z" transform="translate(-54.98 0)"/><path d="M211.81,297.25l-5.13,9.68C207.07,300.52,208.49,297.86,211.81,297.25Z" transform="translate(-54.98 0)"/><path d="M170.88,316.36c-.59-3.75-1.18-7.46-1.74-11.05C171.78,306.39,172.08,308.09,170.88,316.36Z" transform="translate(-54.98 0)"/><path d="M161.5,310.52c-.84-2.88-1.68-5.76-2.72-9.36,3.77,2.82,2.57,6.39,3.51,9.3Z" transform="translate(-54.98 0)"/><path d="M196.88,310.74c.34-3.34-.75-7.17,3-9.67Z" transform="translate(-54.98 0)"/><path d="M139.83,293.29c2.58,1.28,3.65,3.69,3.56,8.47C142.15,298.8,141,296.11,139.83,293.29Z" transform="translate(-54.98 0)"/><path d="M218.67,293.86q-1.72,4.06-3.68,8.72C215.41,296.1,216.25,294.33,218.67,293.86Z" transform="translate(-54.98 0)"/><path class="cls-1" d="M224.42,212.23c4.23-.75,8.46.8,12-2.51l-6.13-.53c11.37-2.27,17.56-2.11,20.73.46C242.07,212.45,230.15,214.6,224.42,212.23Z" transform="translate(-54.98 0)"/><path class="cls-1" d="M267.45,202l-9.25,7.86c.36-2.74.3-4.69.94-6.38.46-1.23,1.32-2.67,3.53-1.69,1.11.49,2.84-.43,4.28-.71C267.12,201.39,267.29,201.7,267.45,202Z" transform="translate(-54.98 0)"/><path class="cls-1" d="M158.78,226.73c-.31,4.58-1.24,9.27,2.33,13.18C156.86,237.22,156.32,234.06,158.78,226.73Z" transform="translate(-54.98 0)"/><path class="cls-1" d="M184.82,242.48c2.7,6,5.28,0,7.92.28l.35.86a41.85,41.85,0,0,1-6.51,2.82c-.45.13-1.52-2-2.31-3.08Z" transform="translate(-54.98 0)"/><path class="cls-1" d="M87.14,204.85a32.33,32.33,0,0,0,1,5.24A57.65,57.65,0,0,0,91,216a89.37,89.37,0,0,1-5.17-7.81,83.65,83.65,0,0,1-3.47-8.53Z" transform="translate(-54.98 0)"/></svg>