<svg id="Layer_4" data-name="Layer 4" xmlns="http://www.w3.org/2000/svg" viewBox="0 0 354.18 354.18"><defs><style>.cls-1{fill:#fff;}</style></defs><path d="M131.21,103.81c-2.87-3.41-3.51-7.55-3.89-11.73-.33-3.57-.35-7.17-.46-10.76-.18-5.58-.45-11.17-.43-16.75s.6-11.41.41-17.1c-.2-6,1.25-11.68,2.14-17.47a84.84,84.84,0,0,1,3.13-12.19,9.33,9.33,0,0,0-1.56-8.88c-1.89-2.6-3.15-2.8-5.57-.64-.42.36-.75.83-1.19,1.15s-.93.58-1.2.45c-1.67-.79-3.72-1.09-4.28-3.34a3.8,3.8,0,0,0-2.9-2.93A6.59,6.59,0,0,1,114.26,3h-.6c-3,.47-4.76,2.79-6.65,4.85-.19.2-.4.38-.6.58v2.72c1.1.89,2.06,2.23,3.3,2.58,3.87,1.07,5.72,3.81,5.05,7.74a9.1,9.1,0,0,0,.48,3.61c.4,1.58,1.34,3.1,1.4,4.68.22,5.38.23,10.76.18,16.14s-.23,10.75-.42,16.12q-.39,10.55-.9,21.09-.33,7-.81,14.08c-.25,3.78-.81,7.48-3.73,10.33a3.87,3.87,0,0,0-.84,1.41c-.53,1.44,1.26,5.84,2.64,6.59,3.23,1.76,5.38,1.3,7.71-1.63,1.35-1.69,1.84-1.74,3.5-.26a5.18,5.18,0,0,0,3.41,1.67c3.47,0,4.76-.74,6.21-3.93v-.61C133.05,108.38,132.88,105.79,131.21,103.81Zm.39-90.59c.84,1.69.35,3.26-.06,4.76-.92,3.41-2.09,6.76-3,10.19-.46,1.82-.5,3.75-.91,5.6A16.84,16.84,0,0,1,129,22c-.15.68-.31,1.37-.46,2.06C130.5,20.75,131.08,17.11,131.6,13.22Zm-16,84.16c.08-3,.12-6.08.3-9.12.28-4.75.73-9.49,1-14.24.19-3.56.13-7.13.24-10.68.11-3.8.32-7.6.45-11.39.06-1.61,0-3.22,0-4.82.09-4.76.22-9.52.27-14.27,0-1.65-.19-3.31-.18-5,0-.44.4-1.21.71-1.27,1.6-.29,2.32-1.44,3.08-3-1.22.27-2.29-1.2-3.54.09a2.14,2.14,0,0,1-1.19-.75c-.39-.62-.73-1.46.28-1.89.81-.35,1.67-.55,2.55-.84-1.77-1.9-3.43-3.91-3.92-6.65a1.43,1.43,0,0,0-1.85-1.26c-.81.16-1.69,0-2.64.22a10.49,10.49,0,0,1,2.31.91,10.2,10.2,0,0,1,1.62,1.86l-5.54-2.65.45-.21c-1.51-1.14-1.21-3.59.62-4.8,1-.65,2.08-1.15,3.45-1.9l-4.8.59c1.61-2.1,3.7-2.29,5.71-2s2.72,2.1,1.8,4.47a16.53,16.53,0,0,0-1,2.78c1.13-.6,2.25-1.23,3.4-1.78a1.6,1.6,0,0,1,.95.1c.66.22,1.3.48,2,.75l-1,.49,3,.38a3.26,3.26,0,0,1-2.19,3.6c-.66,1.29,1.21,2.9-.65,4,2.41.17,3.47-.76,5-4.14,0,.51-.09,1-.15,1.76A9.32,9.32,0,0,1,128,15.32c.83-.37,1-.88.43-1.4-.33-.3-1.06-.17-2-.27a4.59,4.59,0,0,1,.08-5.22,4.25,4.25,0,0,1,2.29,3.28,4.69,4.69,0,0,0,.54,2.12,3.66,3.66,0,0,1,.25,3.44c-1.2,3.45-2.49,6.88-3.42,10.4a27.35,27.35,0,0,0-.4,5.82c-.06,1.36,0,2.73,0,4.1h-.42v-7.7l-.32,0a21.47,21.47,0,0,0-.56,3.61c0,6.59.32,13.19.29,19.79,0,5.51-.42,11-.53,16.54-.09,4.58-.2,9.18.07,13.75.21,3.72.94,7.41,1.48,11.11a36.45,36.45,0,0,0,.77,4.17,8.47,8.47,0,0,0,3.58,5.29c-.69,1.39-2.07,1.49-3.35,1.79h0c-.1-.23-.15-.6-.31-.66-2.63-.94-2.51-3.41-2.93-5.47-.75-3.68-1.31-7.39-2-11.48-.24,1.7-.49,3.07-.6,4.45-.25,3-.34,6.08-.68,9.11a4.38,4.38,0,0,1-2.47,3.55,11.72,11.72,0,0,1-.84-6.1c.21-3,.64-6,.59-9-.09-6.08,1-12,1.43-18.06.23-3.09,0-6.21.13-9.32.09-2.59.37-5.17.49-7.76a8.55,8.55,0,0,0-.45-2.94C119.1,53.13,119,54,119,55c-.11-.23-.19-.41-.27-.59l-.34,0c-.15,1.49-.38,3-.44,4.48-.21,4.84-.41,9.68-.49,14.52,0,1.87.49,3.75.4,5.6-.16,2.84-.68,5.66-1,8.49-.29,3-.48,6-.73,9.08a23.89,23.89,0,0,1-.61,4C115.54,99.46,115.51,98.42,115.55,97.38Zm10.53-12.27h-.56q-.37-11.37-.74-22.76l.58,0Zm5,28.89a6,6,0,0,1-7.77-2.9,5.75,5.75,0,0,0-.43-.94,6.8,6.8,0,0,0-.8-.81,8,8,0,0,0-.8,1,5.05,5.05,0,0,1-1.06,1.49,9.88,9.88,0,0,0,.68-2.28,9.58,9.58,0,0,0-.58-2.41c-.33.38-.47.47-.51.59-.42,1.6-.87,3.19-1.24,4.81s-1.54,3-3,3.14c-1.73.11-2.71-.7-3.32-2.76-.08-.28-.14-.57-.21-.86-1.28-1-1.55-1.88-.85-3.15s1.3-2.25,2-3.35a1.27,1.27,0,0,1,.85-.49,3.6,3.6,0,0,1-1,2.9,4.2,4.2,0,0,0-.92,4,7.56,7.56,0,0,0,1,1.42c.72.64,1.55,1.17,2.33,1.75l.54-.62a2.8,2.8,0,0,1-.8-.37c-1.67-1.62-1.26-5.28.93-5.92,3.66-1.07,4.67-3.68,5-6.94a10,10,0,0,1,.33-1.08c.31.59.49.87.61,1.17a24.48,24.48,0,0,0,1.36,3.25c.23.4,1,.52,1.54.71s1.19.37,1.79.55l-.33.06-.34.06-.51.09-.35.06-.28.07-.22.05-.15,0a1.25,1.25,0,0,0-.25.09l-.23.1a1.75,1.75,0,0,0-.63,2.76c.81,1.18,1.6,2.39,2.52,3.49a4.85,4.85,0,0,0,2,1.31c-2.33-1-1.9-3.69-3.19-5.28-.12-.16-.12-.66,0-.71a11.85,11.85,0,0,1,2.77-1.25,1.55,1.55,0,0,1,2.08,1A16.65,16.65,0,0,0,131,111v-1.82a2.68,2.68,0,0,1-.83,4.22Z" transform="translate(-2.91 -3.03)"/><path class="cls-1" d="M126.58,98.82a36.45,36.45,0,0,1-.77-4.17c-.54-3.7-1.27-7.39-1.48-11.11-.27-4.57-.16-9.17-.07-13.75.11-5.52.5-11,.53-16.54,0-6.6-.24-13.2-.29-19.79a21.47,21.47,0,0,1,.56-3.61l.32,0v7.7h.42c0-1.37,0-2.74,0-4.1a27.35,27.35,0,0,1,.4-5.82c.93-3.52,2.22-7,3.42-10.4a3.66,3.66,0,0,0-.25-3.44,4.69,4.69,0,0,1-.54-2.12,4.25,4.25,0,0,0-2.29-3.28,4.59,4.59,0,0,0-.08,5.22c.92.1,1.65,0,2,.27.58.52.4,1-.43,1.4a9.32,9.32,0,0,0-1.87,1.52c.06-.74.11-1.25.15-1.76-1.56,3.38-2.62,4.31-5,4.14,1.86-1.14,0-2.75.65-4a3.26,3.26,0,0,0,2.19-3.6l-3-.38,1-.49c-.71-.27-1.35-.53-2-.75a1.6,1.6,0,0,0-.95-.1c-1.15.55-2.27,1.18-3.4,1.78a16.53,16.53,0,0,1,1-2.78c.92-2.37.29-4.18-1.8-4.47s-4.1-.1-5.71,2L114,5.8c-1.37.75-2.46,1.25-3.45,1.9-1.83,1.21-2.13,3.66-.62,4.8l-.45.21,5.54,2.65a10.2,10.2,0,0,0-1.62-1.86,10.49,10.49,0,0,0-2.31-.91c1-.19,1.83-.06,2.64-.22a1.43,1.43,0,0,1,1.85,1.26c.49,2.74,2.15,4.75,3.92,6.65-.88.29-1.74.49-2.55.84-1,.43-.67,1.27-.28,1.89a2.14,2.14,0,0,0,1.19.75c1.25-1.29,2.32.18,3.54-.09-.76,1.52-1.48,2.67-3.08,3-.31.06-.71.83-.71,1.27,0,1.65.2,3.31.18,5,0,4.75-.18,9.51-.27,14.27,0,1.6,0,3.21,0,4.82-.13,3.79-.34,7.59-.45,11.39-.11,3.55,0,7.12-.24,10.68-.24,4.75-.69,9.49-1,14.24-.18,3-.22,6.08-.3,9.12,0,1,0,2.08,0,3.12a23.89,23.89,0,0,0,.61-4c.25-3,.44-6.06.73-9.08.28-2.83.8-5.65,1-8.49.09-1.85-.44-3.73-.4-5.6.08-4.84.28-9.68.49-14.52.06-1.5.29-3,.44-4.48l.34,0c.08.18.16.36.27.59.06-1,.12-1.82.17-2.68a8.55,8.55,0,0,1,.45,2.94c-.12,2.59-.4,5.17-.49,7.76-.1,3.11.1,6.23-.13,9.32-.47,6-1.52,12-1.43,18.06,0,3-.38,6-.59,9a11.72,11.72,0,0,0,.84,6.1,4.38,4.38,0,0,0,2.47-3.55c.34-3,.43-6.08.68-9.11.11-1.38.36-2.75.6-4.45.71,4.09,1.27,7.8,2,11.48.42,2.06.3,4.53,2.93,5.47.16.06.21.43.31.66,1.28-.3,2.66-.4,3.35-1.79A8.47,8.47,0,0,1,126.58,98.82ZM119.4,49.94V29.78l.48-.06.45,2.09.25,0c.15-1.58.31-3.15.47-4.73C121.91,34.76,120.74,42.35,119.4,49.94Zm-2.23-34.86,3.5,3.1C118.73,18.7,118.73,18.7,117.17,15.08Zm6.23,65.34-.52,0c-.15-3.86-.09-7.74-.51-11.56-.54-4.95.42-9.78.63-14.66.07-1.6,0-3.2.21-4.8C124,59.76,122.57,70.1,123.4,80.42ZM118,21.83c0-.17.05-.34.08-.51l4.28.68L121,20.77c1.68.43,2.94.56,4.1-.5.39-.35,1.1-.34,1.66-.49.07.15.13.3.2.46l1.47-1.74.26.16c-.73,1.43-1.46,2.86-2,4l-2.37.13.36.25-.06.28Z" transform="translate(-2.91 -3.03)"/><path class="cls-1" d="M112.18,112a6.88,6.88,0,0,0,1,1.42c.71.64,1.54,1.17,2.32,1.75l.54-.62a2.8,2.8,0,0,1-.8-.37c-1.67-1.62-1.26-5.28.93-5.92,3.66-1.07,4.67-3.68,5-6.94a10,10,0,0,1,.33-1.08c.31.59.49.87.61,1.17a24.48,24.48,0,0,0,1.36,3.25c.23.4,1,.52,1.54.71s1.2.37,1.8.55h0a11.07,11.07,0,0,0-2.67.63,1.75,1.75,0,0,0-.63,2.76c.81,1.18,1.6,2.39,2.52,3.49a4.89,4.89,0,0,0,2,1.31c-2.33-1-1.9-3.69-3.18-5.28-.13-.16-.13-.66,0-.71a12.52,12.52,0,0,1,2.77-1.26,1.56,1.56,0,0,1,2.08,1A16.65,16.65,0,0,0,131,111V109.2a2.7,2.7,0,0,1-.82,4.24l1,.56a6,6,0,0,1-7.77-2.9,5.75,5.75,0,0,0-.43-.94,6.8,6.8,0,0,0-.8-.81,8,8,0,0,0-.8,1,5.05,5.05,0,0,1-1.06,1.49,9.32,9.32,0,0,0,.67-2.29,9.13,9.13,0,0,0-.57-2.4c-.33.38-.47.47-.51.59-.42,1.6-.88,3.19-1.24,4.81s-1.54,3-3,3.13c-1.73.12-2.71-.69-3.32-2.75-.08-.28-.14-.57-.21-.86Z" transform="translate(-2.91 -3.03)"/><path class="cls-1" d="M131.6,13.22c.84,1.69.35,3.26-.06,4.76-.92,3.41-2.1,6.76-3,10.19-.46,1.82-.5,3.74-.91,5.6A16.84,16.84,0,0,1,129,22L128.53,24C130.5,20.75,131.09,17.11,131.6,13.22Z" transform="translate(-2.91 -3.03)"/><path class="cls-1" d="M125.52,85.13l-.75-22.77.59,0,.72,22.77Z" transform="translate(-2.91 -3.03)"/><path class="cls-1" d="M112.12,112c-1.28-1-1.55-1.88-.84-3.15s1.29-2.25,2-3.35a1.27,1.27,0,0,1,.84-.49,3.55,3.55,0,0,1-1,2.9,4.19,4.19,0,0,0-.92,4Z" transform="translate(-2.91 -3.03)"/><path d="M119.88,29.72l.45,2.09.25,0,.46-4.73c.87,7.71-.3,15.3-1.64,22.89V29.78Z" transform="translate(-2.91 -3.03)"/><path d="M122.88,80.47c-.15-3.86-.09-7.74-.51-11.56-.54-4.95.42-9.78.63-14.66.07-1.6,0-3.2.21-4.81.79,10.32-.64,20.66.19,31Z" transform="translate(-2.91 -3.03)"/><path d="M121,20.77c1.68.44,2.94.56,4.1-.5.39-.35,1.1-.34,1.66-.49l.2.45,1.47-1.73.26.16-2,4-2.37.13.36.25-.06.28L118,21.83l.08-.51,4.27.68Z" transform="translate(-2.91 -3.03)"/><path d="M117.17,15.08l3.5,3.1C118.73,18.7,118.73,18.7,117.17,15.08Z" transform="translate(-2.91 -3.03)"/><path d="M108.79,136.49c2.87,3.42,3.51,7.56,3.89,11.73.33,3.57.35,7.17.46,10.76.18,5.59.45,11.18.43,16.76s-.6,11.41-.41,17.09c.2,6-1.25,11.68-2.14,17.47a84.84,84.84,0,0,1-3.13,12.19,9.32,9.32,0,0,0,1.56,8.88c1.89,2.61,3.15,2.8,5.57.65a16,16,0,0,1,1.19-1.15c.35-.25.93-.58,1.2-.45,1.67.78,3.72,1.09,4.28,3.33a3.8,3.8,0,0,0,2.9,2.94,6.59,6.59,0,0,1,1.15.59h.6c3-.47,4.76-2.8,6.65-4.85.19-.2.4-.39.6-.59v-2.71c-1.1-.89-2.06-2.24-3.3-2.58-3.87-1.07-5.72-3.81-5-7.75a9,9,0,0,0-.48-3.6c-.4-1.59-1.34-3.11-1.4-4.69-.22-5.37-.23-10.76-.18-16.14s.23-10.75.42-16.12q.39-10.55.9-21.09.33-7,.81-14.07c.25-3.78.81-7.48,3.73-10.33a3.87,3.87,0,0,0,.84-1.41c.53-1.45-1.26-5.84-2.64-6.6-3.23-1.76-5.38-1.3-7.71,1.63-1.35,1.7-1.84,1.74-3.5.27a5.13,5.13,0,0,0-3.41-1.67c-3.47,0-4.76.73-6.21,3.93v.6C107,131.93,107.12,134.51,108.79,136.49Zm-.39,90.6c-.84-1.69-.35-3.27.06-4.76.92-3.42,2.09-6.77,3-10.2.46-1.82.5-3.74.91-5.6A16.88,16.88,0,0,1,111,218.34c.15-.69.31-1.38.46-2.06C109.5,219.55,108.92,223.19,108.4,227.09Zm16-84.17c-.08,3-.12,6.09-.3,9.13-.28,4.75-.73,9.49-1,14.24-.19,3.55-.13,7.12-.24,10.68-.11,3.8-.32,7.59-.45,11.39-.06,1.6,0,3.21,0,4.82-.09,4.76-.22,9.51-.27,14.27,0,1.65.19,3.3.18,5,0,.45-.4,1.22-.71,1.28-1.6.29-2.32,1.44-3.08,2.95,1.22-.26,2.29,1.2,3.54-.08a2.17,2.17,0,0,1,1.19.74c.39.63.73,1.46-.28,1.9-.81.34-1.67.55-2.55.83,1.77,1.9,3.43,3.92,3.92,6.65a1.43,1.43,0,0,0,1.85,1.26c.81-.16,1.69,0,2.64-.22a9.59,9.59,0,0,1-2.31-.91,9.58,9.58,0,0,1-1.62-1.86l5.54,2.65-.45.22c1.51,1.13,1.21,3.59-.62,4.79-1,.66-2.08,1.16-3.45,1.9l4.8-.59c-1.61,2.11-3.7,2.29-5.71,2s-2.72-2.11-1.8-4.48a15.9,15.9,0,0,0,1-2.78c-1.13.6-2.25,1.23-3.4,1.78a1.46,1.46,0,0,1-.95-.1c-.66-.21-1.3-.48-2-.75l1-.48-3-.39a3.25,3.25,0,0,1,2.19-3.59c.66-1.29-1.21-2.9.65-4-2.41-.17-3.47.76-5,4.14,0-.51.09-1,.15-1.75A9.24,9.24,0,0,1,112,225c-.83.37-1,.88-.43,1.41.33.3,1.06.16,2,.27a4.59,4.59,0,0,1-.08,5.22,4.25,4.25,0,0,1-2.29-3.29,4.73,4.73,0,0,0-.54-2.12,3.64,3.64,0,0,1-.25-3.43c1.2-3.45,2.49-6.88,3.42-10.4a27.4,27.4,0,0,0,.4-5.82c.06-1.37,0-2.74,0-4.11h.42v7.69l.32.05a21.63,21.63,0,0,0,.56-3.61c0-6.6-.32-13.2-.29-19.79,0-5.52.42-11,.53-16.55.09-4.58.2-9.18-.07-13.75-.21-3.72-.94-7.41-1.48-11.11a36.45,36.45,0,0,0-.77-4.17,8.47,8.47,0,0,0-3.58-5.29c.69-1.39,2.07-1.49,3.35-1.78h0c.1.23.15.59.31.65,2.63.95,2.51,3.41,2.93,5.48.75,3.67,1.31,7.39,2,11.48.24-1.71.49-3.07.6-4.45.25-3,.34-6.09.68-9.11a4.39,4.39,0,0,1,2.47-3.56A11.74,11.74,0,0,1,123,141c-.21,3-.64,6-.59,8.95.09,6.08-1,12-1.43,18.06-.23,3.1,0,6.22-.13,9.32-.09,2.59-.37,5.18-.49,7.77a8.62,8.62,0,0,0,.45,2.94c.05-.87.11-1.73.17-2.69l.27.59.34,0c.15-1.49.38-3,.44-4.47.21-4.84.41-9.68.49-14.53,0-1.86-.49-3.74-.4-5.6.16-2.84.68-5.65,1-8.48.29-3,.48-6.06.73-9.08a23.89,23.89,0,0,1,.61-4C124.46,140.84,124.49,141.88,124.45,142.92ZM113.92,155.2l.56,0q.38,11.38.74,22.77h-.58Zm-5-28.9a6,6,0,0,1,7.77,2.9,6.27,6.27,0,0,0,.43,1,6.72,6.72,0,0,0,.8.8,8,8,0,0,0,.8-1,5,5,0,0,1,1.06-1.48,9.73,9.73,0,0,0-.68,2.28,9.78,9.78,0,0,0,.58,2.41c.33-.38.47-.47.51-.59.42-1.6.87-3.2,1.24-4.81.4-1.78,1.54-3,3-3.14,1.73-.12,2.71.69,3.32,2.75.08.28.14.58.21.86,1.28,1,1.55,1.88.85,3.15s-1.3,2.25-2,3.35a1.28,1.28,0,0,1-.85.5,3.62,3.62,0,0,1,1-2.91,4.18,4.18,0,0,0,.92-4,7.56,7.56,0,0,0-1-1.42c-.72-.64-1.55-1.17-2.33-1.74l-.54.62a2.54,2.54,0,0,1,.8.36c1.67,1.63,1.26,5.28-.93,5.92-3.66,1.07-4.67,3.68-5,6.95a10.15,10.15,0,0,1-.33,1.07c-.31-.59-.49-.87-.61-1.17a23.8,23.8,0,0,0-1.36-3.24c-.23-.41-1-.52-1.54-.72s-1.19-.36-1.79-.54l.33-.07.34-.06.51-.08.35-.07.28-.06.22-.06.15,0,.25-.1a2.18,2.18,0,0,0,.23-.09,1.75,1.75,0,0,0,.63-2.76c-.81-1.19-1.6-2.4-2.52-3.5a4.84,4.84,0,0,0-2-1.3c2.33,1,1.9,3.68,3.19,5.28.12.15.12.65,0,.7a12.32,12.32,0,0,1-2.77,1.26,1.55,1.55,0,0,1-2.08-1,16.91,16.91,0,0,0-1.28-3.21v1.83a2.69,2.69,0,0,1,.83-4.23C109.5,126.66,109.21,126.5,108.88,126.3Z" transform="translate(-2.91 -3.03)"/><path class="cls-1" d="M113.42,141.48a36.45,36.45,0,0,1,.77,4.17c.54,3.7,1.27,7.39,1.48,11.11.27,4.57.16,9.17.07,13.75-.11,5.52-.5,11-.53,16.55,0,6.59.24,13.19.29,19.79a21.63,21.63,0,0,1-.56,3.61l-.32-.05v-7.69h-.42c0,1.37,0,2.74,0,4.11a27.4,27.4,0,0,1-.4,5.82c-.93,3.52-2.22,7-3.42,10.4a3.64,3.64,0,0,0,.25,3.43,4.73,4.73,0,0,1,.54,2.12,4.25,4.25,0,0,0,2.29,3.29,4.59,4.59,0,0,0,.08-5.22c-.92-.11-1.65,0-2-.27-.58-.53-.4-1,.43-1.41a9.24,9.24,0,0,0,1.87-1.51c-.06.73-.11,1.24-.15,1.75,1.56-3.38,2.62-4.31,5-4.14-1.86,1.15,0,2.76-.65,4a3.25,3.25,0,0,0-2.19,3.59l3,.39-1,.48c.71.27,1.35.54,2,.75a1.46,1.46,0,0,0,.95.1c1.15-.55,2.27-1.18,3.4-1.78a15.9,15.9,0,0,1-1,2.78c-.92,2.37-.29,4.18,1.8,4.48s4.1.1,5.71-2l-4.8.59c1.37-.74,2.46-1.24,3.45-1.9,1.83-1.2,2.13-3.66.62-4.79l.45-.22-5.54-2.65a9.58,9.58,0,0,0,1.62,1.86,9.59,9.59,0,0,0,2.31.91c-1,.19-1.83.06-2.64.22a1.43,1.43,0,0,1-1.85-1.26c-.49-2.73-2.15-4.75-3.92-6.65.88-.28,1.74-.49,2.55-.83,1-.44.67-1.27.28-1.9a2.17,2.17,0,0,0-1.19-.74c-1.25,1.28-2.32-.18-3.54.08.76-1.51,1.48-2.66,3.08-2.95.31-.06.71-.83.71-1.28,0-1.65-.2-3.3-.18-5,0-4.76.18-9.51.27-14.27,0-1.61,0-3.22,0-4.82.13-3.8.34-7.59.45-11.39.11-3.56,0-7.13.24-10.68.24-4.75.69-9.49,1-14.24.18-3,.22-6.09.3-9.13,0-1,0-2.08,0-3.11a23.89,23.89,0,0,0-.61,4c-.25,3-.44,6.05-.73,9.08-.28,2.83-.8,5.64-1,8.48-.09,1.86.44,3.74.4,5.6-.08,4.85-.28,9.69-.49,14.53-.06,1.49-.29,3-.44,4.47l-.34,0-.27-.59c-.06,1-.12,1.82-.17,2.69a8.62,8.62,0,0,1-.45-2.94c.12-2.59.4-5.18.49-7.77.1-3.1-.1-6.22.13-9.32.47-6,1.52-12,1.43-18.06,0-3,.38-6,.59-8.95a11.74,11.74,0,0,0-.84-6.1,4.39,4.39,0,0,0-2.47,3.56c-.34,3-.43,6.07-.68,9.11-.11,1.38-.36,2.74-.6,4.45-.71-4.09-1.27-7.81-2-11.48-.42-2.07-.3-4.53-2.93-5.48-.16-.06-.21-.42-.31-.65-1.28.29-2.66.39-3.35,1.78A8.47,8.47,0,0,1,113.42,141.48Zm7.18,48.89v20.15l-.48.06-.45-2.09-.25,0c-.15,1.57-.31,3.15-.47,4.72C118.09,205.54,119.26,198,120.6,190.37Zm2.23,34.85-3.5-3.09C121.27,221.6,121.27,221.6,122.83,225.22Zm-6.23-65.33.52,0c.15,3.85.09,7.73.51,11.56.54,4.94-.42,9.77-.63,14.66-.07,1.6,0,3.2-.21,4.8C116,180.54,117.43,170.2,116.6,159.89ZM122,218.48c0,.17-.05.33-.08.5l-4.28-.68,1.33,1.24c-1.68-.44-2.94-.56-4.1.49-.39.35-1.1.34-1.66.5-.07-.16-.13-.31-.2-.46l-1.47,1.73-.26-.15c.73-1.44,1.46-2.87,2-4l2.37-.13-.36-.25.06-.29Z" transform="translate(-2.91 -3.03)"/><path class="cls-1" d="M127.82,128.32a6.81,6.81,0,0,0-1-1.41,26.57,26.57,0,0,0-2.32-1.75l-.54.62a2.79,2.79,0,0,1,.8.36c1.67,1.62,1.26,5.28-.93,5.92-3.66,1.07-4.67,3.68-5,6.95a10.15,10.15,0,0,1-.33,1.07c-.31-.59-.49-.87-.61-1.17a23.8,23.8,0,0,0-1.36-3.24c-.23-.41-1-.52-1.54-.72s-1.2-.36-1.8-.54h0a12.1,12.1,0,0,0,2.67-.63,1.75,1.75,0,0,0,.63-2.76c-.81-1.19-1.6-2.4-2.52-3.5a4.87,4.87,0,0,0-2-1.3c2.33,1,1.9,3.68,3.18,5.28.13.15.13.65,0,.7a12.52,12.52,0,0,1-2.77,1.26,1.55,1.55,0,0,1-2.08-1,16.91,16.91,0,0,0-1.28-3.21v1.83a2.69,2.69,0,0,1,.82-4.23l-1-.56a6,6,0,0,1,7.77,2.89,5.85,5.85,0,0,0,.43,1,6.72,6.72,0,0,0,.8.8,7.9,7.9,0,0,0,.8-.95,4.81,4.81,0,0,1,1.06-1.49,9.25,9.25,0,0,0-.67,2.28,9.28,9.28,0,0,0,.57,2.41c.33-.38.47-.47.51-.59.42-1.6.88-3.2,1.24-4.81.4-1.78,1.54-3,3-3.14,1.73-.12,2.71.69,3.32,2.75.08.28.14.58.21.86Z" transform="translate(-2.91 -3.03)"/><path class="cls-1" d="M108.4,227.09c-.84-1.7-.35-3.27.06-4.76.92-3.42,2.1-6.77,3-10.2.46-1.81.5-3.74.91-5.6a16.84,16.84,0,0,1-1.33,11.8l.46-2.05C109.5,219.55,108.91,223.2,108.4,227.09Z" transform="translate(-2.91 -3.03)"/><path class="cls-1" d="M114.48,155.18l.75,22.77h-.59l-.72-22.76Z" transform="translate(-2.91 -3.03)"/><path class="cls-1" d="M127.88,128.27c1.28,1,1.55,1.88.84,3.15s-1.29,2.25-2,3.35a1.28,1.28,0,0,1-.84.5,3.58,3.58,0,0,1,1-2.91,4.18,4.18,0,0,0,.92-4Z" transform="translate(-2.91 -3.03)"/><path d="M120.12,210.58l-.45-2.09-.25,0-.46,4.72c-.87-7.71.3-15.29,1.64-22.88v20.15Z" transform="translate(-2.91 -3.03)"/><path d="M117.12,159.84c.15,3.85.09,7.73.51,11.56.54,4.94-.42,9.77-.63,14.66-.07,1.59,0,3.2-.21,4.8-.79-10.32.64-20.66-.19-31Z" transform="translate(-2.91 -3.03)"/><path d="M119,219.54c-1.68-.44-2.94-.57-4.1.49-.39.35-1.1.34-1.66.5l-.2-.46-1.47,1.73-.26-.16,2-4,2.37-.13-.36-.25.06-.29,6.61,1.53-.08.5-4.27-.68Z" transform="translate(-2.91 -3.03)"/><path d="M122.83,225.22l-3.5-3.09C121.27,221.6,121.27,221.6,122.83,225.22Z" transform="translate(-2.91 -3.03)"/><path d="M108.79,256.42c2.87,3.41,3.51,7.55,3.89,11.73.33,3.57.35,7.17.46,10.76.18,5.58.45,11.17.43,16.75s-.6,11.41-.41,17.1c.2,6-1.25,11.68-2.14,17.46a85,85,0,0,1-3.13,12.2,9.33,9.33,0,0,0,1.56,8.88c1.89,2.6,3.15,2.8,5.57.64.42-.37.75-.83,1.19-1.15s.93-.58,1.2-.45c1.67.79,3.72,1.09,4.28,3.34a3.8,3.8,0,0,0,2.9,2.93,6.59,6.59,0,0,1,1.15.59h.6c3-.47,4.76-2.79,6.65-4.85.19-.2.4-.39.6-.58v-2.72c-1.1-.89-2.06-2.24-3.3-2.58-3.87-1.07-5.72-3.81-5-7.74a9.08,9.08,0,0,0-.48-3.61c-.4-1.58-1.34-3.1-1.4-4.68-.22-5.38-.23-10.76-.18-16.14s.23-10.75.42-16.12q.39-10.56.9-21.09.33-7.05.81-14.08c.25-3.78.81-7.48,3.73-10.33a3.87,3.87,0,0,0,.84-1.41c.53-1.45-1.26-5.84-2.64-6.59-3.23-1.76-5.38-1.31-7.71,1.63-1.35,1.69-1.84,1.74-3.5.26a5.18,5.18,0,0,0-3.41-1.67c-3.47,0-4.76.74-6.21,3.93v.61C107,251.85,107.12,254.44,108.79,256.42ZM108.4,347c-.84-1.69-.35-3.26.06-4.76.92-3.41,2.09-6.76,3-10.19.46-1.82.5-3.75.91-5.6a16.84,16.84,0,0,1-1.33,11.8c.15-.69.31-1.37.46-2.06C109.5,339.48,108.92,343.12,108.4,347Zm16-84.16c-.08,3-.12,6.08-.3,9.12-.28,4.75-.73,9.49-1,14.24-.19,3.56-.13,7.12-.24,10.68-.11,3.8-.32,7.6-.45,11.39-.06,1.61,0,3.22,0,4.82-.09,4.76-.22,9.52-.27,14.27,0,1.65.19,3.31.18,5,0,.44-.4,1.21-.71,1.27-1.6.29-2.32,1.44-3.08,3,1.22-.27,2.29,1.2,3.54-.09a2.14,2.14,0,0,1,1.19.75c.39.62.73,1.46-.28,1.89-.81.34-1.67.55-2.55.83,1.77,1.91,3.43,3.92,3.92,6.66a1.42,1.42,0,0,0,1.85,1.25c.81-.15,1.69,0,2.64-.22a10,10,0,0,1-2.31-.9,10.2,10.2,0,0,1-1.62-1.86l5.54,2.64-.45.22c1.51,1.13,1.21,3.59-.62,4.8-1,.65-2.08,1.15-3.45,1.9l4.8-.59c-1.61,2.1-3.7,2.28-5.71,2s-2.72-2.1-1.8-4.48a16.09,16.09,0,0,0,1-2.77c-1.13.59-2.25,1.22-3.4,1.78a1.6,1.6,0,0,1-.95-.1c-.66-.22-1.3-.48-2-.75l1-.49-3-.38a3.26,3.26,0,0,1,2.19-3.6c.66-1.29-1.21-2.9.65-4-2.41-.17-3.47.76-5,4.14,0-.51.09-1,.15-1.76a9.68,9.68,0,0,1-1.87,1.52c-.83.37-1,.88-.43,1.4.33.3,1.06.17,2,.27a4.59,4.59,0,0,1-.08,5.22,4.25,4.25,0,0,1-2.29-3.28,4.77,4.77,0,0,0-.54-2.13,3.64,3.64,0,0,1-.25-3.43c1.2-3.45,2.49-6.88,3.42-10.4a27.35,27.35,0,0,0,.4-5.82c.06-1.36,0-2.74,0-4.11h.42v7.7l.32,0a21.47,21.47,0,0,0,.56-3.61c0-6.6-.32-13.19-.29-19.79,0-5.51.42-11,.53-16.54.09-4.59.2-9.18-.07-13.75-.21-3.72-.94-7.42-1.48-11.12a37.27,37.27,0,0,0-.77-4.17,8.47,8.47,0,0,0-3.58-5.29c.69-1.38,2.07-1.48,3.35-1.78h0c.1.23.15.6.31.66,2.63.94,2.51,3.4,2.93,5.47.75,3.68,1.31,7.39,2,11.48.24-1.7.49-3.07.6-4.45.25-3,.34-6.09.68-9.11a4.38,4.38,0,0,1,2.47-3.55,11.72,11.72,0,0,1,.84,6.1c-.21,3-.64,6-.59,8.95.09,6.08-1,12-1.43,18.06-.23,3.09,0,6.21-.13,9.31-.09,2.59-.37,5.18-.49,7.77a8.55,8.55,0,0,0,.45,2.94c.05-.86.11-1.73.17-2.68.11.23.19.41.27.59.11,0,.23,0,.34,0,.15-1.5.38-3,.44-4.48.21-4.84.41-9.68.49-14.52,0-1.87-.49-3.75-.4-5.61.16-2.83.68-5.65,1-8.48.29-3,.48-6.05.73-9.08a23.89,23.89,0,0,1,.61-4C124.46,260.77,124.49,261.81,124.45,262.85Zm-10.53,12.27.56,0q.38,11.38.74,22.77l-.58,0Zm-5-28.89a6,6,0,0,1,7.77,2.9,6.16,6.16,0,0,0,.43.94,6.8,6.8,0,0,0,.8.81,8,8,0,0,0,.8-1,5.05,5.05,0,0,1,1.06-1.49,9.88,9.88,0,0,0-.68,2.28,9.68,9.68,0,0,0,.58,2.41c.33-.38.47-.47.51-.59.42-1.6.87-3.19,1.24-4.81.4-1.77,1.54-3,3-3.14,1.73-.11,2.71.7,3.32,2.75.08.29.14.58.21.87,1.28,1,1.55,1.88.85,3.15s-1.3,2.25-2,3.35a1.27,1.27,0,0,1-.85.49,3.6,3.6,0,0,1,1-2.9,4.2,4.2,0,0,0,.92-4,7.25,7.25,0,0,0-1-1.42c-.72-.65-1.55-1.17-2.33-1.75l-.54.62a2.56,2.56,0,0,1,.8.37c1.67,1.62,1.26,5.28-.93,5.92-3.66,1.07-4.67,3.68-5,6.94a10,10,0,0,1-.33,1.08c-.31-.59-.49-.88-.61-1.18a24.91,24.91,0,0,0-1.36-3.24c-.23-.4-1-.52-1.54-.72s-1.19-.36-1.79-.54l.33-.07.34,0c.17,0,.34-.06.51-.09l.35-.07A1.27,1.27,0,0,0,115,254a1.41,1.41,0,0,0,.22-.06l.15,0,.25-.09.23-.1a1.75,1.75,0,0,0,.63-2.76c-.81-1.18-1.6-2.39-2.52-3.5a4.93,4.93,0,0,0-2-1.3c2.33,1,1.9,3.68,3.19,5.28.12.15.12.66,0,.71a11.85,11.85,0,0,1-2.77,1.25,1.55,1.55,0,0,1-2.08-1,16.83,16.83,0,0,0-1.28-3.2V251a2.69,2.69,0,0,1,.83-4.23Z" transform="translate(-2.91 -3.03)"/><path class="cls-1" d="M113.42,261.4a37.27,37.27,0,0,1,.77,4.17c.54,3.7,1.27,7.4,1.48,11.12.27,4.57.16,9.16.07,13.75-.11,5.52-.5,11-.53,16.54,0,6.6.24,13.19.29,19.79a21.47,21.47,0,0,1-.56,3.61l-.32,0v-7.7h-.42c0,1.37,0,2.75,0,4.11a27.35,27.35,0,0,1-.4,5.82c-.93,3.52-2.22,6.95-3.42,10.4a3.64,3.64,0,0,0,.25,3.43,4.77,4.77,0,0,1,.54,2.13,4.25,4.25,0,0,0,2.29,3.28,4.59,4.59,0,0,0,.08-5.22c-.92-.1-1.65,0-2-.27-.58-.52-.4-1,.43-1.4a9.68,9.68,0,0,0,1.87-1.52c-.06.74-.11,1.25-.15,1.76,1.56-3.38,2.62-4.31,5-4.14-1.86,1.14,0,2.75-.65,4a3.26,3.26,0,0,0-2.19,3.6l3,.38-1,.49c.71.27,1.35.53,2,.75a1.6,1.6,0,0,0,.95.1c1.15-.56,2.27-1.19,3.4-1.78a16.09,16.09,0,0,1-1,2.77c-.92,2.38-.29,4.19,1.8,4.48s4.1.1,5.71-2l-4.8.59c1.37-.75,2.46-1.25,3.45-1.9,1.83-1.21,2.13-3.67.62-4.8l.45-.22-5.54-2.64a10.2,10.2,0,0,0,1.62,1.86,10,10,0,0,0,2.31.9c-1,.19-1.83.07-2.64.22a1.42,1.42,0,0,1-1.85-1.25c-.49-2.74-2.15-4.75-3.92-6.66.88-.28,1.74-.49,2.55-.83,1-.43.67-1.27.28-1.89a2.14,2.14,0,0,0-1.19-.75c-1.25,1.29-2.32-.18-3.54.09.76-1.52,1.48-2.67,3.08-3,.31-.06.71-.83.71-1.27,0-1.65-.2-3.31-.18-5,0-4.75.18-9.51.27-14.27,0-1.6,0-3.21,0-4.82.13-3.79.34-7.59.45-11.39.11-3.56,0-7.12.24-10.68.24-4.75.69-9.49,1-14.24.18-3,.22-6.08.3-9.12,0-1,0-2.08,0-3.12a23.89,23.89,0,0,0-.61,4c-.25,3-.44,6.06-.73,9.08-.28,2.83-.8,5.65-1,8.48-.09,1.86.44,3.74.4,5.61-.08,4.84-.28,9.68-.49,14.52-.06,1.5-.29,3-.44,4.48-.11,0-.23,0-.34,0-.08-.18-.16-.36-.27-.59-.06,1-.12,1.82-.17,2.68a8.55,8.55,0,0,1-.45-2.94c.12-2.59.4-5.18.49-7.77.1-3.1-.1-6.22.13-9.31.47-6,1.52-12,1.43-18.06,0-3,.38-6,.59-8.95a11.72,11.72,0,0,0-.84-6.1,4.38,4.38,0,0,0-2.47,3.55c-.34,3-.43,6.08-.68,9.11-.11,1.38-.36,2.75-.6,4.45-.71-4.09-1.27-7.8-2-11.48-.42-2.07-.3-4.53-2.93-5.47-.16-.06-.21-.43-.31-.66-1.28.3-2.66.4-3.35,1.78A8.47,8.47,0,0,1,113.42,261.4Zm7.18,48.89v20.16l-.48.06-.45-2.09-.25,0c-.15,1.57-.31,3.15-.47,4.73C118.09,325.46,119.26,317.88,120.6,310.29Zm2.23,34.86-3.5-3.1C121.27,341.52,121.27,341.52,122.83,345.15Zm-6.23-65.34.52-.05c.15,3.86.09,7.74.51,11.56.54,4.95-.42,9.78-.63,14.66-.07,1.6,0,3.2-.21,4.8C116,300.47,117.43,290.13,116.6,279.81ZM122,338.4c0,.17-.05.34-.08.5l-4.28-.67,1.33,1.23c-1.68-.44-2.94-.56-4.1.49-.39.36-1.1.35-1.66.5-.07-.15-.13-.3-.2-.46l-1.47,1.73-.26-.15c.73-1.43,1.46-2.87,2-4l2.37-.13-.36-.25.06-.28Z" transform="translate(-2.91 -3.03)"/><path class="cls-1" d="M127.82,248.25a6.88,6.88,0,0,0-1-1.42,28.73,28.73,0,0,0-2.32-1.75l-.54.62a2.56,2.56,0,0,1,.8.37c1.67,1.62,1.26,5.28-.93,5.92-3.66,1.06-4.67,3.68-5,6.94a10,10,0,0,1-.33,1.08c-.31-.59-.49-.87-.61-1.18a24.91,24.91,0,0,0-1.36-3.24c-.23-.4-1-.52-1.54-.72s-1.2-.36-1.8-.54h0a12.1,12.1,0,0,0,2.67-.63,1.75,1.75,0,0,0,.63-2.76c-.81-1.19-1.6-2.39-2.52-3.5a4.87,4.87,0,0,0-2-1.3c2.33,1,1.9,3.68,3.18,5.28.13.16.13.66,0,.71a12,12,0,0,1-2.77,1.25,1.55,1.55,0,0,1-2.08-1,16.83,16.83,0,0,0-1.28-3.2V251a2.69,2.69,0,0,1,.82-4.23l-1-.56a6,6,0,0,1,7.77,2.9,6.16,6.16,0,0,0,.43.94,6,6,0,0,0,.8.8,7.19,7.19,0,0,0,.8-1,5.05,5.05,0,0,1,1.06-1.49,9.38,9.38,0,0,0-.67,2.28,9.19,9.19,0,0,0,.57,2.41c.33-.38.47-.47.51-.59.42-1.6.88-3.19,1.24-4.81.4-1.77,1.54-3,3-3.14,1.73-.12,2.71.7,3.32,2.76.08.28.14.57.21.86Z" transform="translate(-2.91 -3.03)"/><path class="cls-1" d="M108.4,347c-.84-1.69-.35-3.26.06-4.76.92-3.41,2.1-6.76,3-10.19.46-1.82.5-3.75.91-5.6a16.84,16.84,0,0,1-1.33,11.8l.46-2.06C109.5,339.48,108.91,343.12,108.4,347Z" transform="translate(-2.91 -3.03)"/><path class="cls-1" d="M114.48,275.1l.75,22.77-.59,0-.72-22.77Z" transform="translate(-2.91 -3.03)"/><path class="cls-1" d="M127.88,248.2c1.28,1,1.55,1.88.84,3.15s-1.29,2.24-2,3.35a1.27,1.27,0,0,1-.84.49,3.55,3.55,0,0,1,1-2.9,4.2,4.2,0,0,0,.92-4Z" transform="translate(-2.91 -3.03)"/><path d="M120.12,330.51l-.45-2.09-.25,0-.46,4.73c-.87-7.72.3-15.3,1.64-22.89v20.16Z" transform="translate(-2.91 -3.03)"/><path d="M117.12,279.76c.15,3.86.09,7.74.51,11.56.54,4.95-.42,9.78-.63,14.66-.07,1.6,0,3.2-.21,4.8-.79-10.31.64-20.65-.19-31Z" transform="translate(-2.91 -3.03)"/><path d="M119,339.46c-1.68-.44-2.94-.56-4.1.49-.39.35-1.1.35-1.66.5l-.2-.46-1.47,1.74-.26-.16,2-4,2.37-.13-.36-.25.06-.29L122,338.4l-.08.5-4.27-.67Z" transform="translate(-2.91 -3.03)"/><path d="M122.83,345.15l-3.5-3.1C121.27,341.53,121.27,341.53,122.83,345.15Z" transform="translate(-2.91 -3.03)"/><path d="M228.79,256.42c2.87,3.41,3.51,7.55,3.89,11.73.33,3.57.35,7.17.46,10.76.18,5.58.45,11.17.43,16.75s-.6,11.41-.41,17.1c.2,6-1.25,11.68-2.14,17.46a85,85,0,0,1-3.13,12.2,9.33,9.33,0,0,0,1.56,8.88c1.89,2.6,3.15,2.8,5.57.64.42-.37.75-.83,1.19-1.15s.93-.58,1.2-.45c1.67.79,3.72,1.09,4.28,3.34a3.8,3.8,0,0,0,2.9,2.93,6.59,6.59,0,0,1,1.15.59h.6c3-.47,4.76-2.79,6.65-4.85.19-.2.4-.39.6-.58v-2.72c-1.1-.89-2.06-2.24-3.3-2.58-3.87-1.07-5.72-3.81-5-7.74a9.08,9.08,0,0,0-.48-3.61c-.4-1.58-1.34-3.1-1.4-4.68-.22-5.38-.23-10.76-.18-16.14s.23-10.75.42-16.12q.39-10.56.9-21.09.33-7.05.81-14.08c.25-3.78.81-7.48,3.73-10.33a3.87,3.87,0,0,0,.84-1.41c.53-1.45-1.26-5.84-2.64-6.59-3.23-1.76-5.38-1.31-7.71,1.63-1.35,1.69-1.84,1.74-3.5.26a5.18,5.18,0,0,0-3.41-1.67c-3.47,0-4.76.74-6.21,3.93v.61C227,251.85,227.12,254.44,228.79,256.42ZM228.4,347c-.84-1.69-.35-3.26.06-4.76.92-3.41,2.09-6.76,3-10.19.46-1.82.5-3.75.91-5.6a16.84,16.84,0,0,1-1.33,11.8c.15-.69.31-1.37.46-2.06C229.5,339.48,228.92,343.12,228.4,347Zm16-84.16c-.08,3-.12,6.08-.3,9.12-.28,4.75-.73,9.49-1,14.24-.19,3.56-.13,7.12-.24,10.68-.11,3.8-.32,7.6-.45,11.39-.06,1.61,0,3.22-.05,4.82-.09,4.76-.22,9.52-.27,14.27,0,1.65.19,3.31.18,5,0,.44-.4,1.21-.71,1.27-1.6.29-2.32,1.44-3.08,3,1.22-.27,2.29,1.2,3.54-.09a2.14,2.14,0,0,1,1.19.75c.39.62.73,1.46-.28,1.89-.81.34-1.67.55-2.55.83,1.77,1.91,3.43,3.92,3.92,6.66a1.42,1.42,0,0,0,1.85,1.25c.81-.15,1.69,0,2.64-.22a10,10,0,0,1-2.31-.9,10.2,10.2,0,0,1-1.62-1.86l5.54,2.64-.45.22c1.51,1.13,1.21,3.59-.62,4.8-1,.65-2.08,1.15-3.45,1.9l4.8-.59c-1.61,2.1-3.7,2.28-5.71,2s-2.72-2.1-1.8-4.48a16.09,16.09,0,0,0,1-2.77c-1.13.59-2.25,1.22-3.4,1.78a1.6,1.6,0,0,1-.95-.1c-.66-.22-1.3-.48-2-.75l1-.49-3-.38a3.26,3.26,0,0,1,2.19-3.6c.66-1.29-1.21-2.9.65-4-2.41-.17-3.47.76-5,4.14,0-.51.09-1,.15-1.76a9.68,9.68,0,0,1-1.87,1.52c-.83.37-1,.88-.43,1.4.33.3,1.06.17,2,.27a4.59,4.59,0,0,1-.08,5.22,4.25,4.25,0,0,1-2.29-3.28,4.77,4.77,0,0,0-.54-2.13,3.64,3.64,0,0,1-.25-3.43c1.2-3.45,2.49-6.88,3.42-10.4a27.35,27.35,0,0,0,.4-5.82c.06-1.36,0-2.74,0-4.11h.42v7.7l.32,0a21.47,21.47,0,0,0,.56-3.61c-.05-6.6-.32-13.19-.29-19.79,0-5.51.42-11,.53-16.54.09-4.59.2-9.18-.07-13.75-.21-3.72-.94-7.42-1.48-11.12a37.27,37.27,0,0,0-.77-4.17,8.47,8.47,0,0,0-3.58-5.29c.69-1.38,2.07-1.48,3.35-1.78h0c.1.23.15.6.31.66,2.63.94,2.51,3.4,2.93,5.47.75,3.68,1.31,7.39,2,11.48.24-1.7.49-3.07.6-4.45.25-3,.34-6.09.68-9.11a4.38,4.38,0,0,1,2.47-3.55,11.72,11.72,0,0,1,.84,6.1c-.21,3-.64,6-.59,8.95.09,6.08-1,12-1.43,18.06-.23,3.09,0,6.21-.13,9.31-.09,2.59-.37,5.18-.49,7.77a8.55,8.55,0,0,0,.45,2.94c.05-.86.11-1.73.17-2.68.11.23.19.41.27.59.11,0,.23,0,.34,0,.15-1.5.38-3,.44-4.48.21-4.84.41-9.68.49-14.52,0-1.87-.49-3.75-.4-5.61.16-2.83.68-5.65,1-8.48.29-3,.48-6.05.73-9.08a23.89,23.89,0,0,1,.61-4C244.46,260.77,244.49,261.81,244.45,262.85Zm-10.53,12.27.56,0q.38,11.38.74,22.77l-.58,0Zm-5-28.89a6,6,0,0,1,7.77,2.9,6.16,6.16,0,0,0,.43.94,6.8,6.8,0,0,0,.8.81,8,8,0,0,0,.8-1,5.05,5.05,0,0,1,1.06-1.49,9.88,9.88,0,0,0-.68,2.28,9.68,9.68,0,0,0,.58,2.41c.33-.38.47-.47.51-.59.42-1.6.87-3.19,1.24-4.81.4-1.77,1.54-3,3-3.14,1.73-.11,2.71.7,3.32,2.75.08.29.14.58.21.87,1.28,1,1.55,1.88.85,3.15s-1.3,2.25-2,3.35a1.27,1.27,0,0,1-.85.49,3.6,3.6,0,0,1,1-2.9,4.2,4.2,0,0,0,.92-4,7.25,7.25,0,0,0-1-1.42c-.72-.65-1.55-1.17-2.33-1.75l-.54.62a2.56,2.56,0,0,1,.8.37c1.67,1.62,1.26,5.28-.93,5.92-3.66,1.07-4.67,3.68-5,6.94a10,10,0,0,1-.33,1.08c-.31-.59-.49-.88-.61-1.18a24.91,24.91,0,0,0-1.36-3.24c-.23-.4-1-.52-1.54-.72s-1.19-.36-1.79-.54l.33-.07.34,0c.17,0,.34-.06.51-.09l.35-.07A1.27,1.27,0,0,0,235,254a1.41,1.41,0,0,0,.22-.06l.15,0,.25-.09.23-.1a1.75,1.75,0,0,0,.63-2.76c-.81-1.18-1.6-2.39-2.52-3.5a4.93,4.93,0,0,0-2-1.3c2.33,1,1.9,3.68,3.19,5.28.12.15.12.66,0,.71a11.85,11.85,0,0,1-2.77,1.25,1.55,1.55,0,0,1-2.08-1,16.83,16.83,0,0,0-1.28-3.2V251a2.69,2.69,0,0,1,.83-4.23Z" transform="translate(-2.91 -3.03)"/><path class="cls-1" d="M233.42,261.4a37.27,37.27,0,0,1,.77,4.17c.54,3.7,1.27,7.4,1.48,11.12.27,4.57.16,9.16.07,13.75-.11,5.52-.5,11-.53,16.54,0,6.6.24,13.19.29,19.79a21.47,21.47,0,0,1-.56,3.61l-.32,0v-7.7h-.42c0,1.37.05,2.75,0,4.11a27.35,27.35,0,0,1-.4,5.82c-.93,3.52-2.22,6.95-3.42,10.4a3.64,3.64,0,0,0,.25,3.43,4.77,4.77,0,0,1,.54,2.13,4.25,4.25,0,0,0,2.29,3.28,4.59,4.59,0,0,0,.08-5.22c-.92-.1-1.65,0-2-.27-.58-.52-.4-1,.43-1.4a9.68,9.68,0,0,0,1.87-1.52c-.06.74-.11,1.25-.15,1.76,1.56-3.38,2.62-4.31,5-4.14-1.86,1.14,0,2.75-.65,4a3.26,3.26,0,0,0-2.19,3.6l3,.38-1,.49c.71.27,1.35.53,2,.75a1.6,1.6,0,0,0,.95.1c1.15-.56,2.27-1.19,3.4-1.78a16.09,16.09,0,0,1-1,2.77c-.92,2.38-.29,4.19,1.8,4.48s4.1.1,5.71-2l-4.8.59c1.37-.75,2.46-1.25,3.45-1.9,1.83-1.21,2.13-3.67.62-4.8l.45-.22-5.54-2.64a10.2,10.2,0,0,0,1.62,1.86,10,10,0,0,0,2.31.9c-1,.19-1.83.07-2.64.22a1.42,1.42,0,0,1-1.85-1.25c-.49-2.74-2.15-4.75-3.92-6.66.88-.28,1.74-.49,2.55-.83,1-.43.67-1.27.28-1.89a2.14,2.14,0,0,0-1.19-.75c-1.25,1.29-2.32-.18-3.54.09.76-1.52,1.48-2.67,3.08-3,.31-.06.71-.83.71-1.27,0-1.65-.2-3.31-.18-5,.05-4.75.18-9.51.27-14.27,0-1.6,0-3.21.05-4.82.13-3.79.34-7.59.45-11.39.11-3.56.05-7.12.24-10.68.24-4.75.69-9.49,1-14.24.18-3,.22-6.08.3-9.12,0-1,0-2.08,0-3.12a23.89,23.89,0,0,0-.61,4c-.25,3-.44,6.06-.73,9.08-.28,2.83-.8,5.65-1,8.48-.09,1.86.44,3.74.4,5.61-.08,4.84-.28,9.68-.49,14.52-.06,1.5-.29,3-.44,4.48-.11,0-.23,0-.34,0-.08-.18-.16-.36-.27-.59-.06,1-.12,1.82-.17,2.68a8.55,8.55,0,0,1-.45-2.94c.12-2.59.4-5.18.49-7.77.1-3.1-.1-6.22.13-9.31.47-6,1.52-12,1.43-18.06,0-3,.38-6,.59-8.95a11.72,11.72,0,0,0-.84-6.1,4.38,4.38,0,0,0-2.47,3.55c-.34,3-.43,6.08-.68,9.11-.11,1.38-.36,2.75-.6,4.45-.71-4.09-1.27-7.8-2-11.48-.42-2.07-.3-4.53-2.93-5.47-.16-.06-.21-.43-.31-.66-1.28.3-2.66.4-3.35,1.78A8.47,8.47,0,0,1,233.42,261.4Zm7.18,48.89v20.16l-.48.06-.45-2.09-.25,0c-.15,1.57-.31,3.15-.47,4.73C238.09,325.46,239.26,317.88,240.6,310.29Zm2.23,34.86-3.5-3.1C241.27,341.52,241.27,341.52,242.83,345.15Zm-6.23-65.34.52-.05c.15,3.86.09,7.74.51,11.56.54,4.95-.42,9.78-.63,14.66-.07,1.6,0,3.2-.21,4.8C236,300.47,237.43,290.13,236.6,279.81ZM242,338.4c0,.17,0,.34-.08.5l-4.28-.67,1.33,1.23c-1.68-.44-2.94-.56-4.1.49-.39.36-1.1.35-1.66.5-.07-.15-.13-.3-.2-.46l-1.47,1.73-.26-.15c.73-1.43,1.46-2.87,2-4l2.37-.13-.36-.25.06-.28Z" transform="translate(-2.91 -3.03)"/><path class="cls-1" d="M247.82,248.25a6.88,6.88,0,0,0-1-1.42,28.73,28.73,0,0,0-2.32-1.75l-.54.62a2.56,2.56,0,0,1,.8.37c1.67,1.62,1.26,5.28-.93,5.92-3.66,1.06-4.67,3.68-5,6.94a10,10,0,0,1-.33,1.08c-.31-.59-.49-.87-.61-1.18a24.91,24.91,0,0,0-1.36-3.24c-.23-.4-1-.52-1.54-.72s-1.2-.36-1.8-.54h0a12.1,12.1,0,0,0,2.67-.63,1.75,1.75,0,0,0,.63-2.76c-.81-1.19-1.6-2.39-2.52-3.5a4.87,4.87,0,0,0-2-1.3c2.33,1,1.9,3.68,3.18,5.28.13.16.13.66,0,.71a12,12,0,0,1-2.77,1.25,1.55,1.55,0,0,1-2.08-1,16.83,16.83,0,0,0-1.28-3.2V251a2.69,2.69,0,0,1,.82-4.23l-1-.56a6,6,0,0,1,7.77,2.9,6.16,6.16,0,0,0,.43.94,6,6,0,0,0,.8.8,7.19,7.19,0,0,0,.8-1,5.05,5.05,0,0,1,1.06-1.49,9.38,9.38,0,0,0-.67,2.28,9.19,9.19,0,0,0,.57,2.41c.33-.38.47-.47.51-.59.42-1.6.88-3.19,1.24-4.81.4-1.77,1.54-3,3-3.14,1.73-.12,2.71.7,3.32,2.76.08.28.14.57.21.86Z" transform="translate(-2.91 -3.03)"/><path class="cls-1" d="M228.4,347c-.84-1.69-.35-3.26.06-4.76.92-3.41,2.1-6.76,3-10.19.46-1.82.5-3.75.91-5.6a16.84,16.84,0,0,1-1.33,11.8l.46-2.06C229.5,339.48,228.91,343.12,228.4,347Z" transform="translate(-2.91 -3.03)"/><path class="cls-1" d="M234.48,275.1l.75,22.77-.59,0-.72-22.77Z" transform="translate(-2.91 -3.03)"/><path class="cls-1" d="M247.88,248.2c1.28,1,1.55,1.88.84,3.15s-1.29,2.24-2,3.35a1.27,1.27,0,0,1-.84.49,3.55,3.55,0,0,1,1-2.9,4.2,4.2,0,0,0,.92-4Z" transform="translate(-2.91 -3.03)"/><path d="M240.12,330.51l-.45-2.09-.25,0-.46,4.73c-.87-7.72.3-15.3,1.64-22.89v20.16Z" transform="translate(-2.91 -3.03)"/><path d="M237.12,279.76c.15,3.86.09,7.74.51,11.56.54,4.95-.42,9.78-.63,14.66-.07,1.6,0,3.2-.21,4.8-.79-10.31.64-20.65-.19-31Z" transform="translate(-2.91 -3.03)"/><path d="M239,339.46c-1.68-.44-2.94-.56-4.1.49-.39.35-1.1.35-1.66.5l-.2-.46-1.47,1.74-.26-.16,2-4,2.37-.13-.36-.25.06-.29L242,338.4l-.08.5-4.27-.67Z" transform="translate(-2.91 -3.03)"/><path d="M242.83,345.15l-3.5-3.1C241.27,341.53,241.27,341.53,242.83,345.15Z" transform="translate(-2.91 -3.03)"/><path d="M251.21,223.74c-2.87-3.42-3.51-7.56-3.89-11.73-.33-3.58-.35-7.18-.46-10.76-.18-5.59-.45-11.18-.43-16.76s.6-11.41.41-17.1c-.2-6,1.25-11.68,2.14-17.46a84.51,84.51,0,0,1,3.13-12.19,9.32,9.32,0,0,0-1.56-8.88c-1.89-2.61-3.15-2.81-5.57-.65a16,16,0,0,1-1.19,1.15c-.35.25-.93.58-1.2.45-1.67-.78-3.72-1.09-4.28-3.33a3.8,3.8,0,0,0-2.9-2.94,6.59,6.59,0,0,1-1.15-.59h-.6c-3,.47-4.76,2.79-6.65,4.85-.19.2-.4.39-.6.59v2.71c1.1.89,2.06,2.24,3.3,2.58,3.87,1.07,5.72,3.81,5,7.74a9.06,9.06,0,0,0,.48,3.61c.4,1.59,1.34,3.11,1.4,4.68.22,5.38.23,10.77.18,16.15s-.23,10.75-.42,16.12q-.39,10.54-.9,21.08-.33,7-.81,14.08c-.25,3.78-.81,7.48-3.73,10.33a3.87,3.87,0,0,0-.84,1.41c-.53,1.45,1.26,5.84,2.64,6.59,3.23,1.76,5.38,1.31,7.71-1.63,1.35-1.69,1.84-1.73,3.5-.26a5.18,5.18,0,0,0,3.41,1.67c3.47,0,4.76-.73,6.21-3.93v-.6C253.05,228.3,252.88,225.72,251.21,223.74Zm.39-90.6c.84,1.69.35,3.27-.06,4.76-.92,3.41-2.09,6.77-3,10.2-.46,1.81-.5,3.74-.91,5.6A16.88,16.88,0,0,1,249,141.89c-.15.69-.31,1.38-.46,2.06C250.5,140.67,251.08,137,251.6,133.14Zm-16,84.17c.08-3.05.12-6.09.3-9.13.28-4.75.73-9.49,1-14.24.19-3.55.13-7.12.24-10.68.11-3.8.32-7.59.45-11.39.06-1.6,0-3.21.05-4.82.09-4.76.22-9.51.27-14.27,0-1.65-.19-3.3-.18-4.95,0-.45.4-1.22.71-1.28,1.6-.29,2.32-1.44,3.08-3-1.22.27-2.29-1.19-3.54.09a2.17,2.17,0,0,1-1.19-.74c-.39-.63-.73-1.46.28-1.9.81-.34,1.67-.55,2.55-.83-1.77-1.91-3.43-3.92-3.92-6.65a1.42,1.42,0,0,0-1.85-1.26c-.81.16-1.69,0-2.64.22a5.22,5.22,0,0,1,3.93,2.77l-5.54-2.65.45-.22c-1.51-1.13-1.21-3.59.62-4.79,1-.66,2.08-1.16,3.45-1.9l-4.8.59c1.61-2.11,3.7-2.29,5.71-2s2.72,2.11,1.8,4.48a15.9,15.9,0,0,0-1,2.78c1.13-.6,2.25-1.23,3.4-1.78a1.46,1.46,0,0,1,.95.1c.66.21,1.3.48,2,.74l-1,.49,3,.39a3.25,3.25,0,0,1-2.19,3.59c-.66,1.29,1.21,2.9-.65,4,2.41.17,3.47-.75,5-4.13,0,.5-.09,1-.15,1.75a9.24,9.24,0,0,1,1.87-1.51c.83-.38,1-.89.43-1.41-.33-.3-1.06-.16-2-.27a4.59,4.59,0,0,1,.08-5.22,4.25,4.25,0,0,1,2.29,3.29,4.73,4.73,0,0,0,.54,2.12,3.64,3.64,0,0,1,.25,3.43c-1.2,3.45-2.49,6.88-3.42,10.4a27.35,27.35,0,0,0-.4,5.82c-.06,1.37,0,2.74,0,4.11h-.42v-7.7l-.32,0a21.63,21.63,0,0,0-.56,3.61c.05,6.6.32,13.19.29,19.79,0,5.52-.42,11-.53,16.54-.09,4.59-.2,9.19.07,13.76.21,3.72.94,7.41,1.48,11.11a36.45,36.45,0,0,0,.77,4.17,8.47,8.47,0,0,0,3.58,5.29c-.69,1.38-2.07,1.48-3.35,1.78h0c-.1-.23-.15-.6-.31-.65-2.63-.95-2.51-3.41-2.93-5.48-.75-3.67-1.31-7.39-2-11.48-.24,1.7-.49,3.07-.6,4.45-.25,3-.34,6.09-.68,9.11a4.39,4.39,0,0,1-2.47,3.56,11.75,11.75,0,0,1-.84-6.1c.21-3,.64-6,.59-8.95-.09-6.08,1-12,1.43-18.06.23-3.1,0-6.22.13-9.32.09-2.59.37-5.18.49-7.77a8.59,8.59,0,0,0-.45-2.94c-.05.87-.11,1.73-.17,2.68l-.27-.58c-.11,0-.23,0-.34,0-.15,1.49-.38,3-.44,4.47-.21,4.84-.41,9.68-.49,14.53,0,1.86.49,3.74.4,5.6-.16,2.84-.68,5.65-1,8.48-.29,3-.48,6.06-.73,9.08a23.89,23.89,0,0,1-.61,4C235.54,219.39,235.51,218.35,235.55,217.31ZM246.08,205l-.56,0q-.37-11.38-.74-22.77h.58Zm5,28.89a6,6,0,0,1-7.77-2.89,5.85,5.85,0,0,0-.43-.95,6.72,6.72,0,0,0-.8-.8,6.68,6.68,0,0,0-.8,1,5.14,5.14,0,0,1-1.06,1.48,9.73,9.73,0,0,0,.68-2.28,9.78,9.78,0,0,0-.58-2.41c-.33.38-.47.47-.51.59-.42,1.6-.87,3.2-1.24,4.81-.4,1.78-1.54,3-3,3.14-1.73.12-2.71-.7-3.32-2.75-.08-.28-.14-.58-.21-.87-1.28-.95-1.55-1.87-.85-3.14s1.3-2.25,2-3.36a1.31,1.31,0,0,1,.85-.49,3.62,3.62,0,0,1-1,2.91,4.18,4.18,0,0,0-.92,4,7.49,7.49,0,0,0,1,1.41,28.32,28.32,0,0,0,2.33,1.75l.54-.62a2.79,2.79,0,0,1-.8-.36c-1.67-1.63-1.26-5.28.93-5.92,3.66-1.07,4.67-3.68,5-6.95a10.82,10.82,0,0,1,.33-1.08c.31.6.49.88.61,1.18a23.8,23.8,0,0,0,1.36,3.24c.23.41,1,.52,1.54.72s1.19.36,1.79.54l-.33.07-.34.06-.51.08-.35.07-.28.06-.22.06-.15,0-.25.09-.23.1a1.75,1.75,0,0,0-.63,2.76c.81,1.19,1.6,2.4,2.52,3.5a4.93,4.93,0,0,0,2,1.3c-2.33-1-1.9-3.68-3.19-5.28-.12-.15-.12-.65,0-.7a12.32,12.32,0,0,1,2.77-1.26,1.55,1.55,0,0,1,2.08,1A16.57,16.57,0,0,0,251,231v-1.82a2.69,2.69,0,0,1-.83,4.23Z" transform="translate(-2.91 -3.03)"/><path class="cls-1" d="M246.58,218.75a36.45,36.45,0,0,1-.77-4.17c-.54-3.7-1.27-7.39-1.48-11.11-.27-4.57-.16-9.17-.07-13.76.11-5.51.5-11,.53-16.54,0-6.6-.24-13.19-.29-19.79a21.63,21.63,0,0,1,.56-3.61l.32,0v7.7h.42c0-1.37-.05-2.74,0-4.11a27.35,27.35,0,0,1,.4-5.82c.93-3.52,2.22-7,3.42-10.4a3.64,3.64,0,0,0-.25-3.43,4.73,4.73,0,0,1-.54-2.12,4.25,4.25,0,0,0-2.29-3.29,4.59,4.59,0,0,0-.08,5.22c.92.11,1.65,0,2,.27.58.52.4,1-.43,1.41a9.24,9.24,0,0,0-1.87,1.51c.06-.74.11-1.25.15-1.75-1.56,3.38-2.62,4.3-5,4.13,1.86-1.14,0-2.75.65-4a3.25,3.25,0,0,0,2.19-3.59l-3-.39,1-.49c-.71-.26-1.35-.53-2-.74a1.46,1.46,0,0,0-.95-.1c-1.15.55-2.27,1.18-3.4,1.78a15.9,15.9,0,0,1,1-2.78c.92-2.37.29-4.18-1.8-4.48s-4.1-.1-5.71,2l4.8-.59c-1.37.74-2.46,1.24-3.45,1.9-1.83,1.2-2.13,3.66-.62,4.79l-.45.22,5.54,2.65a5.22,5.22,0,0,0-3.93-2.77c1-.19,1.83-.06,2.64-.22a1.42,1.42,0,0,1,1.85,1.26c.49,2.73,2.15,4.74,3.92,6.65-.88.28-1.74.49-2.55.83-1,.44-.67,1.27-.28,1.9a2.17,2.17,0,0,0,1.19.74c1.25-1.28,2.32.18,3.54-.09-.76,1.52-1.48,2.67-3.08,3-.31.06-.71.83-.71,1.28,0,1.65.2,3.3.18,4.95-.05,4.76-.18,9.51-.27,14.27,0,1.61,0,3.22-.05,4.82-.13,3.8-.34,7.59-.45,11.39-.11,3.56-.05,7.13-.24,10.68-.24,4.75-.69,9.49-1,14.24-.18,3-.22,6.08-.3,9.13,0,1,0,2.08,0,3.11a23.89,23.89,0,0,0,.61-4c.25-3,.44-6,.73-9.08.28-2.83.8-5.64,1-8.48.09-1.86-.44-3.74-.4-5.6.08-4.85.28-9.69.49-14.53.06-1.49.29-3,.44-4.47.11,0,.23,0,.34,0l.27.58c.06-1,.12-1.81.17-2.68a8.59,8.59,0,0,1,.45,2.94c-.12,2.59-.4,5.18-.49,7.77-.1,3.1.1,6.22-.13,9.32-.47,6-1.52,12-1.43,18.06,0,3-.38,6-.59,8.95a11.75,11.75,0,0,0,.84,6.1,4.39,4.39,0,0,0,2.47-3.56c.34-3,.43-6.08.68-9.11.11-1.38.36-2.75.6-4.45.71,4.09,1.27,7.81,2,11.48.42,2.07.3,4.53,2.93,5.48.16.05.21.42.31.65,1.28-.3,2.66-.4,3.35-1.78A8.47,8.47,0,0,1,246.58,218.75Zm-7.18-48.89V149.7l.48,0,.45,2.09.25,0c.15-1.57.31-3.15.47-4.72C241.91,154.69,240.74,162.27,239.4,169.86ZM237.17,135l3.5,3.09C238.73,138.63,238.73,138.63,237.17,135Zm6.23,65.33-.52,0c-.15-3.85-.09-7.73-.51-11.56-.54-5,.42-9.77.63-14.66.07-1.6,0-3.2.21-4.8C244,179.69,242.57,190,243.4,200.34ZM238,141.75c0-.17,0-.34.08-.5l4.28.68L241,140.69c1.68.44,2.94.56,4.1-.49.39-.35,1.1-.34,1.66-.5.07.15.13.31.2.46l1.47-1.73.26.15c-.73,1.44-1.46,2.87-2,4l-2.37.13.36.25-.06.29Z" transform="translate(-2.91 -3.03)"/><path class="cls-1" d="M232.18,231.91a7.09,7.09,0,0,0,1,1.41,26.57,26.57,0,0,0,2.32,1.75l.54-.62a2.79,2.79,0,0,1-.8-.36c-1.67-1.63-1.26-5.28.93-5.92,3.66-1.07,4.67-3.68,5-6.95a10.15,10.15,0,0,1,.33-1.07c.31.59.49.87.61,1.17a23.8,23.8,0,0,0,1.36,3.24c.23.41,1,.52,1.54.72s1.2.36,1.8.54h0a12.1,12.1,0,0,0-2.67.63,1.75,1.75,0,0,0-.63,2.76c.81,1.19,1.6,2.4,2.52,3.5a4.87,4.87,0,0,0,2,1.3c-2.33-1-1.9-3.68-3.18-5.28-.13-.15-.13-.65,0-.7a12.52,12.52,0,0,1,2.77-1.26,1.55,1.55,0,0,1,2.08,1A16.91,16.91,0,0,0,251,231v-1.83a2.69,2.69,0,0,1-.82,4.23l1,.56a6,6,0,0,1-7.77-2.89,5.85,5.85,0,0,0-.43-.95,6.72,6.72,0,0,0-.8-.8,7.19,7.19,0,0,0-.8.95,4.93,4.93,0,0,1-1.06,1.49,9.25,9.25,0,0,0,.67-2.28,9.28,9.28,0,0,0-.57-2.41c-.33.38-.47.47-.51.59-.42,1.6-.88,3.2-1.24,4.81-.4,1.78-1.54,3-3,3.14-1.73.12-2.71-.7-3.32-2.75-.08-.29-.14-.58-.21-.87Z" transform="translate(-2.91 -3.03)"/><path class="cls-1" d="M251.6,133.14c.84,1.69.35,3.27-.06,4.76-.92,3.42-2.1,6.77-3,10.2-.46,1.81-.5,3.74-.91,5.6A16.87,16.87,0,0,1,249,141.89l-.46,2.06C250.5,140.68,251.09,137,251.6,133.14Z" transform="translate(-2.91 -3.03)"/><path class="cls-1" d="M245.52,205.05l-.75-22.77.59,0,.72,22.77Z" transform="translate(-2.91 -3.03)"/><path class="cls-1" d="M232.12,232c-1.28-.95-1.55-1.87-.84-3.14s1.29-2.25,2-3.35a1.24,1.24,0,0,1,.84-.5,3.58,3.58,0,0,1-1,2.91,4.18,4.18,0,0,0-.92,4Z" transform="translate(-2.91 -3.03)"/><path d="M239.88,149.65l.45,2.09.25,0L241,147c.87,7.71-.3,15.29-1.64,22.88V149.71Z" transform="translate(-2.91 -3.03)"/><path d="M242.88,200.39c-.15-3.85-.09-7.73-.51-11.56-.54-5,.42-9.77.63-14.66.07-1.6,0-3.2.21-4.8.79,10.32-.64,20.65.19,31Z" transform="translate(-2.91 -3.03)"/><path d="M241,140.69c1.68.44,2.94.56,4.1-.49.39-.35,1.1-.34,1.66-.5l.2.46,1.47-1.73.26.15-2,4-2.37.13.36.25-.06.29L238,141.75l.08-.5,4.27.68Z" transform="translate(-2.91 -3.03)"/><path d="M237.17,135l3.5,3.1C238.73,138.63,238.73,138.63,237.17,135Z" transform="translate(-2.91 -3.03)"/><path d="M251.21,103.81c-2.87-3.41-3.51-7.55-3.89-11.73-.33-3.57-.35-7.17-.46-10.76-.18-5.58-.45-11.17-.43-16.75s.6-11.41.41-17.1c-.2-6,1.25-11.68,2.14-17.47a84.84,84.84,0,0,1,3.13-12.19,9.33,9.33,0,0,0-1.56-8.88c-1.89-2.6-3.15-2.8-5.57-.64-.42.36-.75.83-1.19,1.15s-.93.58-1.2.45c-1.67-.79-3.72-1.09-4.28-3.34a3.8,3.8,0,0,0-2.9-2.93A6.59,6.59,0,0,1,234.26,3h-.6c-3,.47-4.76,2.79-6.65,4.85-.19.2-.4.38-.6.58v2.72c1.1.89,2.06,2.23,3.3,2.58,3.87,1.07,5.72,3.81,5,7.74a9.1,9.1,0,0,0,.48,3.61c.4,1.58,1.34,3.1,1.4,4.68.22,5.38.23,10.76.18,16.14s-.23,10.75-.42,16.12q-.39,10.55-.9,21.09-.33,7-.81,14.08c-.25,3.78-.81,7.48-3.73,10.33a3.87,3.87,0,0,0-.84,1.41c-.53,1.44,1.26,5.84,2.64,6.59,3.23,1.76,5.38,1.3,7.71-1.63,1.35-1.69,1.84-1.74,3.5-.26a5.18,5.18,0,0,0,3.41,1.67c3.47,0,4.76-.74,6.21-3.93v-.61C253.05,108.38,252.88,105.79,251.21,103.81Zm.39-90.59c.84,1.69.35,3.26-.06,4.76-.92,3.41-2.09,6.76-3,10.19-.46,1.82-.5,3.75-.91,5.6A16.84,16.84,0,0,1,249,22c-.15.68-.31,1.37-.46,2.06C250.5,20.75,251.08,17.11,251.6,13.22Zm-16,84.16c.08-3,.12-6.08.3-9.12.28-4.75.73-9.49,1-14.24.19-3.56.13-7.13.24-10.68.11-3.8.32-7.6.45-11.39.06-1.61,0-3.22.05-4.82.09-4.76.22-9.52.27-14.27,0-1.65-.19-3.31-.18-5,0-.44.4-1.21.71-1.27,1.6-.29,2.32-1.44,3.08-3-1.22.27-2.29-1.2-3.54.09a2.14,2.14,0,0,1-1.19-.75c-.39-.62-.73-1.46.28-1.89.81-.35,1.67-.55,2.55-.84-1.77-1.9-3.43-3.91-3.92-6.65a1.43,1.43,0,0,0-1.85-1.26c-.81.16-1.69,0-2.64.22a10.49,10.49,0,0,1,2.31.91,10.2,10.2,0,0,1,1.62,1.86l-5.54-2.65.45-.21c-1.51-1.14-1.21-3.59.62-4.8,1-.65,2.08-1.15,3.45-1.9l-4.8.59c1.61-2.1,3.7-2.29,5.71-2s2.72,2.1,1.8,4.47a16.53,16.53,0,0,0-1,2.78c1.13-.6,2.25-1.23,3.4-1.78a1.6,1.6,0,0,1,.95.1c.66.22,1.3.48,2,.75l-1,.49,3,.38a3.26,3.26,0,0,1-2.19,3.6c-.66,1.29,1.21,2.9-.65,4,2.41.17,3.47-.76,5-4.14,0,.51-.09,1-.15,1.76A9.32,9.32,0,0,1,248,15.32c.83-.37,1-.88.43-1.4-.33-.3-1.06-.17-2-.27a4.59,4.59,0,0,1,.08-5.22,4.25,4.25,0,0,1,2.29,3.28,4.69,4.69,0,0,0,.54,2.12,3.66,3.66,0,0,1,.25,3.44c-1.2,3.45-2.49,6.88-3.42,10.4a27.35,27.35,0,0,0-.4,5.82c-.06,1.36,0,2.73,0,4.1h-.42v-7.7l-.32,0a21.47,21.47,0,0,0-.56,3.61c.05,6.59.32,13.19.29,19.79,0,5.51-.42,11-.53,16.54-.09,4.58-.2,9.18.07,13.75.21,3.72.94,7.41,1.48,11.11a36.45,36.45,0,0,0,.77,4.17,8.47,8.47,0,0,0,3.58,5.29c-.69,1.39-2.07,1.49-3.35,1.79h0c-.1-.23-.15-.6-.31-.66-2.63-.94-2.51-3.41-2.93-5.47-.75-3.68-1.31-7.39-2-11.48-.24,1.7-.49,3.07-.6,4.45-.25,3-.34,6.08-.68,9.11a4.38,4.38,0,0,1-2.47,3.55,11.72,11.72,0,0,1-.84-6.1c.21-3,.64-6,.59-9-.09-6.08,1-12,1.43-18.06.23-3.09,0-6.21.13-9.32.09-2.59.37-5.17.49-7.76a8.55,8.55,0,0,0-.45-2.94C239.1,53.13,239,54,239,55c-.11-.23-.19-.41-.27-.59l-.34,0c-.15,1.49-.38,3-.44,4.48-.21,4.84-.41,9.68-.49,14.52,0,1.87.49,3.75.4,5.6-.16,2.84-.68,5.66-1,8.49-.29,3-.48,6-.73,9.08a23.89,23.89,0,0,1-.61,4C235.54,99.46,235.51,98.42,235.55,97.38Zm10.53-12.27h-.56q-.37-11.37-.74-22.76l.58,0Zm5,28.89a6,6,0,0,1-7.77-2.9,5.75,5.75,0,0,0-.43-.94,6.8,6.8,0,0,0-.8-.81,8,8,0,0,0-.8,1,5.05,5.05,0,0,1-1.06,1.49,9.88,9.88,0,0,0,.68-2.28,9.58,9.58,0,0,0-.58-2.41c-.33.38-.47.47-.51.59-.42,1.6-.87,3.19-1.24,4.81s-1.54,3-3,3.14c-1.73.11-2.71-.7-3.32-2.76-.08-.28-.14-.57-.21-.86-1.28-1-1.55-1.88-.85-3.15s1.3-2.25,2-3.35a1.27,1.27,0,0,1,.85-.49,3.6,3.6,0,0,1-1,2.9,4.2,4.2,0,0,0-.92,4,7.56,7.56,0,0,0,1,1.42c.72.64,1.55,1.17,2.33,1.75l.54-.62a2.8,2.8,0,0,1-.8-.37c-1.67-1.62-1.26-5.28.93-5.92,3.66-1.07,4.67-3.68,5-6.94a10,10,0,0,1,.33-1.08c.31.59.49.87.61,1.17a24.48,24.48,0,0,0,1.36,3.25c.23.4,1,.52,1.54.71s1.19.37,1.79.55l-.33.06-.34.06-.51.09-.35.06-.28.07-.22.05-.15,0a1.25,1.25,0,0,0-.25.09l-.23.1a1.75,1.75,0,0,0-.63,2.76c.81,1.18,1.6,2.39,2.52,3.49a4.85,4.85,0,0,0,2,1.31c-2.33-1-1.9-3.69-3.19-5.28-.12-.16-.12-.66,0-.71a11.85,11.85,0,0,1,2.77-1.25,1.55,1.55,0,0,1,2.08,1A16.65,16.65,0,0,0,251,111v-1.82a2.68,2.68,0,0,1-.83,4.22Z" transform="translate(-2.91 -3.03)"/><path class="cls-1" d="M246.58,98.82a36.45,36.45,0,0,1-.77-4.17c-.54-3.7-1.27-7.39-1.48-11.11-.27-4.57-.16-9.17-.07-13.75.11-5.52.5-11,.53-16.54,0-6.6-.24-13.2-.29-19.79a21.47,21.47,0,0,1,.56-3.61l.32,0v7.7h.42c0-1.37-.05-2.74,0-4.1a27.35,27.35,0,0,1,.4-5.82c.93-3.52,2.22-7,3.42-10.4a3.66,3.66,0,0,0-.25-3.44,4.69,4.69,0,0,1-.54-2.12,4.25,4.25,0,0,0-2.29-3.28,4.59,4.59,0,0,0-.08,5.22c.92.1,1.65,0,2,.27.58.52.4,1-.43,1.4a9.32,9.32,0,0,0-1.87,1.52c.06-.74.11-1.25.15-1.76-1.56,3.38-2.62,4.31-5,4.14,1.86-1.14,0-2.75.65-4a3.26,3.26,0,0,0,2.19-3.6l-3-.38,1-.49c-.71-.27-1.35-.53-2-.75a1.6,1.6,0,0,0-.95-.1c-1.15.55-2.27,1.18-3.4,1.78a16.53,16.53,0,0,1,1-2.78c.92-2.37.29-4.18-1.8-4.47s-4.1-.1-5.71,2L234,5.8c-1.37.75-2.46,1.25-3.45,1.9-1.83,1.21-2.13,3.66-.62,4.8l-.45.21,5.54,2.65a10.2,10.2,0,0,0-1.62-1.86,10.49,10.49,0,0,0-2.31-.91c1-.19,1.83-.06,2.64-.22a1.43,1.43,0,0,1,1.85,1.26c.49,2.74,2.15,4.75,3.92,6.65-.88.29-1.74.49-2.55.84-1,.43-.67,1.27-.28,1.89a2.14,2.14,0,0,0,1.19.75c1.25-1.29,2.32.18,3.54-.09-.76,1.52-1.48,2.67-3.08,3-.31.06-.71.83-.71,1.27,0,1.65.2,3.31.18,5-.05,4.75-.18,9.51-.27,14.27,0,1.6,0,3.21-.05,4.82-.13,3.79-.34,7.59-.45,11.39-.11,3.55-.05,7.12-.24,10.68-.24,4.75-.69,9.49-1,14.24-.18,3-.22,6.08-.3,9.12,0,1,0,2.08,0,3.12a23.89,23.89,0,0,0,.61-4c.25-3,.44-6.06.73-9.08.28-2.83.8-5.65,1-8.49.09-1.85-.44-3.73-.4-5.6.08-4.84.28-9.68.49-14.52.06-1.5.29-3,.44-4.48l.34,0c.08.18.16.36.27.59.06-1,.12-1.82.17-2.68a8.55,8.55,0,0,1,.45,2.94c-.12,2.59-.4,5.17-.49,7.76-.1,3.11.1,6.23-.13,9.32-.47,6-1.52,12-1.43,18.06,0,3-.38,6-.59,9a11.72,11.72,0,0,0,.84,6.1,4.38,4.38,0,0,0,2.47-3.55c.34-3,.43-6.08.68-9.11.11-1.38.36-2.75.6-4.45.71,4.09,1.27,7.8,2,11.48.42,2.06.3,4.53,2.93,5.47.16.06.21.43.31.66,1.28-.3,2.66-.4,3.35-1.79A8.47,8.47,0,0,1,246.58,98.82ZM239.4,49.94V29.78l.48-.06.45,2.09.25,0c.15-1.58.31-3.15.47-4.73C241.91,34.76,240.74,42.35,239.4,49.94Zm-2.23-34.86,3.5,3.1C238.73,18.7,238.73,18.7,237.17,15.08Zm6.23,65.34-.52,0c-.15-3.86-.09-7.74-.51-11.56-.54-4.95.42-9.78.63-14.66.07-1.6,0-3.2.21-4.8C244,59.76,242.57,70.1,243.4,80.42ZM238,21.83c0-.17,0-.34.08-.51l4.28.68L241,20.77c1.68.43,2.94.56,4.1-.5.39-.35,1.1-.34,1.66-.49.07.15.13.3.2.46l1.47-1.74.26.16c-.73,1.43-1.46,2.86-2,4l-2.37.13.36.25-.06.28Z" transform="translate(-2.91 -3.03)"/><path class="cls-1" d="M232.18,112a6.88,6.88,0,0,0,1,1.42c.71.64,1.54,1.17,2.32,1.75l.54-.62a2.8,2.8,0,0,1-.8-.37c-1.67-1.62-1.26-5.28.93-5.92,3.66-1.07,4.67-3.68,5-6.94a10,10,0,0,1,.33-1.08c.31.59.49.87.61,1.17a24.48,24.48,0,0,0,1.36,3.25c.23.4,1,.52,1.54.71s1.2.37,1.8.55h0a11.07,11.07,0,0,0-2.67.63,1.75,1.75,0,0,0-.63,2.76c.81,1.18,1.6,2.39,2.52,3.49a4.89,4.89,0,0,0,2,1.31c-2.33-1-1.9-3.69-3.18-5.28-.13-.16-.13-.66,0-.71a12.52,12.52,0,0,1,2.77-1.26,1.56,1.56,0,0,1,2.08,1A16.65,16.65,0,0,0,251,111V109.2a2.7,2.7,0,0,1-.82,4.24l1,.56a6,6,0,0,1-7.77-2.9,5.75,5.75,0,0,0-.43-.94,6.8,6.8,0,0,0-.8-.81,8,8,0,0,0-.8,1,5.05,5.05,0,0,1-1.06,1.49,9.32,9.32,0,0,0,.67-2.29,9.13,9.13,0,0,0-.57-2.4c-.33.38-.47.47-.51.59-.42,1.6-.88,3.19-1.24,4.81s-1.54,3-3,3.13c-1.73.12-2.71-.69-3.32-2.75-.08-.28-.14-.57-.21-.86Z" transform="translate(-2.91 -3.03)"/><path class="cls-1" d="M251.6,13.22c.84,1.69.35,3.26-.06,4.76-.92,3.41-2.1,6.76-3,10.19-.46,1.82-.5,3.74-.91,5.6A16.84,16.84,0,0,1,249,22L248.53,24C250.5,20.75,251.09,17.11,251.6,13.22Z" transform="translate(-2.91 -3.03)"/><path class="cls-1" d="M245.52,85.13l-.75-22.77.59,0,.72,22.77Z" transform="translate(-2.91 -3.03)"/><path class="cls-1" d="M232.12,112c-1.28-1-1.55-1.88-.84-3.15s1.29-2.25,2-3.35a1.27,1.27,0,0,1,.84-.49,3.55,3.55,0,0,1-1,2.9,4.19,4.19,0,0,0-.92,4Z" transform="translate(-2.91 -3.03)"/><path d="M239.88,29.72l.45,2.09.25,0,.46-4.73c.87,7.71-.3,15.3-1.64,22.89V29.78Z" transform="translate(-2.91 -3.03)"/><path d="M242.88,80.47c-.15-3.86-.09-7.74-.51-11.56-.54-4.95.42-9.78.63-14.66.07-1.6,0-3.2.21-4.81.79,10.32-.64,20.66.19,31Z" transform="translate(-2.91 -3.03)"/><path d="M241,20.77c1.68.44,2.94.56,4.1-.5.39-.35,1.1-.34,1.66-.49l.2.45,1.47-1.73.26.16-2,4-2.37.13.36.25-.06.28L238,21.83l.08-.51,4.27.68Z" transform="translate(-2.91 -3.03)"/><path d="M237.17,15.08l3.5,3.1C238.73,18.7,238.73,18.7,237.17,15.08Z" transform="translate(-2.91 -3.03)"/><path d="M256.3,131.21c3.42-2.87,7.56-3.51,11.73-3.89,3.57-.33,7.17-.35,10.76-.46,5.59-.18,11.18-.45,16.76-.43s11.41.6,17.1.41c6-.2,11.67,1.25,17.46,2.14a84.84,84.84,0,0,1,12.19,3.13,9.32,9.32,0,0,0,8.88-1.56c2.61-1.89,2.8-3.15.65-5.57a16,16,0,0,1-1.15-1.19c-.25-.35-.58-.93-.45-1.2.78-1.67,1.09-3.72,3.33-4.28a3.8,3.8,0,0,0,2.94-2.9,6.59,6.59,0,0,1,.59-1.15v-.6c-.47-3-2.8-4.76-4.85-6.65-.2-.19-.39-.4-.59-.6h-2.71c-.89,1.1-2.24,2.06-2.58,3.3-1.07,3.87-3.81,5.72-7.75,5.05a9,9,0,0,0-3.6.48c-1.59.4-3.11,1.34-4.69,1.4-5.37.22-10.76.23-16.14.18s-10.75-.23-16.12-.42q-10.55-.39-21.09-.9-7-.33-14.07-.81c-3.78-.25-7.48-.81-10.33-3.73a3.87,3.87,0,0,0-1.41-.84c-1.45-.53-5.84,1.26-6.6,2.64-1.75,3.23-1.3,5.38,1.63,7.71,1.7,1.35,1.74,1.84.27,3.5a5.13,5.13,0,0,0-1.67,3.41c0,3.47.73,4.76,3.93,6.21h.6C251.74,133.05,254.32,132.88,256.3,131.21Zm90.6.39c-1.69.84-3.27.35-4.76-.06-3.42-.92-6.77-2.09-10.2-3-1.82-.46-3.74-.5-5.6-.91A16.88,16.88,0,0,1,338.15,129l-2.06-.46C339.36,130.5,343,131.08,346.9,131.6Zm-84.17-16c3,.08,6.09.12,9.13.3,4.75.28,9.49.73,14.24,1,3.55.19,7.12.13,10.68.24,3.8.11,7.59.32,11.39.45,1.6.06,3.21,0,4.82,0,4.76.09,9.51.22,14.27.27,1.65,0,3.3-.19,4.95-.18.45,0,1.22.4,1.28.71.29,1.6,1.44,2.32,2.95,3.08-.26-1.22,1.2-2.29-.08-3.54a2.17,2.17,0,0,1,.74-1.19c.63-.39,1.46-.73,1.9.28.34.81.55,1.67.83,2.55,1.9-1.77,3.92-3.43,6.65-3.92a1.43,1.43,0,0,0,1.26-1.85c-.16-.81,0-1.69-.22-2.64a9.59,9.59,0,0,1-.91,2.31,9.58,9.58,0,0,1-1.86,1.62l2.65-5.54s.11.24.22.45c1.13-1.51,3.59-1.21,4.79.62.66,1,1.16,2.08,1.9,3.45-.21-1.76-.38-3.17-.59-4.8,2.11,1.61,2.29,3.7,2,5.71s-2.11,2.72-4.48,1.8a15.9,15.9,0,0,0-2.78-1c.6,1.13,1.23,2.25,1.78,3.4a1.46,1.46,0,0,1-.1.95c-.21.66-.48,1.3-.75,2-.09-.19-.19-.4-.48-1-.16,1.25-.27,2.14-.39,3a3.25,3.25,0,0,1-3.59-2.19c-1.29-.66-2.9,1.21-4.05-.65-.16,2.41.76,3.47,4.14,5l-1.75-.15a9.24,9.24,0,0,1,1.51,1.87c.37.83.88,1,1.41.43.3-.33.16-1.06.27-2a4.59,4.59,0,0,1,5.22.08,4.25,4.25,0,0,1-3.29,2.29,4.73,4.73,0,0,0-2.12.54,3.64,3.64,0,0,1-3.43.25c-3.45-1.2-6.88-2.49-10.4-3.42a27.4,27.4,0,0,0-5.82-.4c-1.37-.06-2.74,0-4.11,0,0-.14,0-.28,0-.42h7.69c0-.11,0-.21,0-.32a21.63,21.63,0,0,0-3.61-.56c-6.6,0-13.2.32-19.79.29-5.52,0-11-.42-16.55-.53-4.58-.09-9.18-.2-13.75.07-3.72.21-7.41.94-11.11,1.48a36.45,36.45,0,0,0-4.17.77,8.47,8.47,0,0,0-5.29,3.58c-1.39-.69-1.48-2.07-1.78-3.35h0c.23-.1.59-.15.65-.31.95-2.63,3.41-2.51,5.48-2.93,3.67-.75,7.39-1.31,11.48-2-1.71-.24-3.07-.49-4.45-.6-3-.25-6.09-.34-9.11-.68a4.39,4.39,0,0,1-3.56-2.47,11.74,11.74,0,0,1,6.1-.84c3,.21,6,.64,8.95.59,6.08-.09,12,1,18.06,1.43,3.1.23,6.22,0,9.32.13,2.59.09,5.18.37,7.77.49a8.62,8.62,0,0,0,2.94-.45l-2.69-.17.59-.27,0-.34c-1.49-.15-3-.38-4.47-.44-4.84-.21-9.68-.41-14.53-.49-1.86,0-3.74.49-5.6.4-2.84-.16-5.65-.68-8.48-1-3-.29-6.06-.48-9.08-.73a23.89,23.89,0,0,1-4-.61C260.65,115.54,261.69,115.51,262.73,115.55ZM275,126.08c0-.19,0-.37,0-.56l22.77-.74c0,.19,0,.38,0,.58Zm-28.9,5a6,6,0,0,1,2.9-7.77,6.27,6.27,0,0,0,1-.43,6.72,6.72,0,0,0,.8-.8,8,8,0,0,0-1-.8,5,5,0,0,1-1.48-1.06,9.73,9.73,0,0,0,2.28.68,9.78,9.78,0,0,0,2.41-.58c-.38-.33-.47-.47-.59-.51-1.6-.42-3.2-.87-4.81-1.24-1.78-.4-3-1.54-3.14-3-.12-1.73.69-2.71,2.75-3.32.28-.08.58-.14.86-.21,1-1.28,1.88-1.55,3.15-.85s2.25,1.3,3.35,2a1.28,1.28,0,0,1,.5.85,3.62,3.62,0,0,1-2.91-1,4.18,4.18,0,0,0-4-.92,7.56,7.56,0,0,0-1.42,1c-.64.72-1.17,1.55-1.74,2.33l.62.54a2.54,2.54,0,0,1,.36-.8c1.63-1.67,5.28-1.26,5.92.93,1.07,3.66,3.68,4.67,6.95,5a10.15,10.15,0,0,1,1.07.33c-.59.31-.87.49-1.17.61a23.8,23.8,0,0,0-3.24,1.36c-.41.23-.52,1-.72,1.54s-.36,1.19-.54,1.79c0-.11-.05-.22-.07-.33l-.06-.34c0-.17-.05-.34-.08-.51s0-.24-.07-.35l-.06-.28-.06-.22s0-.1,0-.15l-.09-.25c0-.08-.07-.15-.1-.23a1.75,1.75,0,0,0-2.76-.63c-1.19.81-2.4,1.6-3.5,2.52a4.84,4.84,0,0,0-1.3,2c1-2.33,3.68-1.9,5.28-3.19.15-.12.65-.12.7,0a12.32,12.32,0,0,1,1.26,2.77,1.55,1.55,0,0,1-1,2.08,16.91,16.91,0,0,0-3.21,1.28h1.83a2.69,2.69,0,0,1-4.23-.83C246.47,130.5,246.31,130.79,246.11,131.12Z" transform="translate(-2.91 -3.03)"/><path class="cls-1" d="M261.29,126.58a36.45,36.45,0,0,1,4.17-.77c3.7-.54,7.39-1.27,11.11-1.48,4.57-.27,9.17-.16,13.75-.07,5.52.11,11,.5,16.55.53,6.59,0,13.19-.24,19.79-.29a21.63,21.63,0,0,1,3.61.56c0,.11,0,.21,0,.32h-7.69c0,.14,0,.28,0,.42,1.37,0,2.74,0,4.11,0a27.4,27.4,0,0,1,5.82.4c3.52.93,6.95,2.22,10.4,3.42a3.64,3.64,0,0,0,3.43-.25,4.73,4.73,0,0,1,2.12-.54,4.25,4.25,0,0,0,3.29-2.29,4.59,4.59,0,0,0-5.22-.08c-.11.92,0,1.65-.27,2-.53.58-1,.4-1.41-.43a9.24,9.24,0,0,0-1.51-1.87l1.75.15c-3.38-1.56-4.3-2.62-4.14-5,1.15,1.86,2.76,0,4.05.65a3.25,3.25,0,0,0,3.59,2.19c.12-.87.23-1.76.39-3,.29.58.39.79.48,1,.27-.71.54-1.35.75-2a1.46,1.46,0,0,0,.1-.95c-.55-1.15-1.18-2.27-1.78-3.4a15.9,15.9,0,0,1,2.78,1c2.37.92,4.18.29,4.48-1.8s.1-4.1-2-5.71c.21,1.63.38,3,.59,4.8-.74-1.37-1.24-2.46-1.9-3.45-1.2-1.83-3.66-2.13-4.79-.62-.11-.21-.2-.41-.22-.45l-2.65,5.54a9.58,9.58,0,0,0,1.86-1.62,9.59,9.59,0,0,0,.91-2.31c.19,1,.06,1.83.22,2.64a1.43,1.43,0,0,1-1.26,1.85c-2.73.49-4.75,2.15-6.65,3.92-.28-.88-.49-1.74-.83-2.55-.44-1-1.27-.67-1.9-.28a2.17,2.17,0,0,0-.74,1.19c1.28,1.25-.18,2.32.08,3.54-1.51-.76-2.66-1.48-2.95-3.08-.06-.31-.83-.71-1.28-.71-1.65,0-3.3.2-4.95.18-4.76,0-9.51-.18-14.27-.27-1.61,0-3.22,0-4.82,0-3.8-.13-7.59-.34-11.39-.45-3.56-.11-7.13,0-10.68-.24-4.75-.24-9.49-.69-14.24-1-3-.18-6.09-.22-9.13-.3-1,0-2.08,0-3.11,0a23.89,23.89,0,0,0,4,.61c3,.25,6.05.44,9.08.73,2.83.28,5.64.8,8.48,1,1.86.09,3.74-.44,5.6-.4,4.85.08,9.69.28,14.53.49,1.49.06,3,.29,4.47.44l0,.34-.59.27,2.69.17a8.62,8.62,0,0,1-2.94.45c-2.59-.12-5.18-.4-7.77-.49-3.1-.1-6.22.1-9.32-.13-6-.47-12-1.52-18.06-1.43-3,0-6-.38-8.95-.59a11.74,11.74,0,0,0-6.1.84,4.39,4.39,0,0,0,3.56,2.47c3,.34,6.07.43,9.11.68,1.38.11,2.74.36,4.45.6-4.09.71-7.81,1.27-11.48,2-2.07.42-4.53.3-5.48,2.93-.06.16-.42.21-.65.31.3,1.28.39,2.66,1.78,3.35A8.47,8.47,0,0,1,261.29,126.58Zm48.89-7.18h20.15l.06.48-2.09.45c0,.09,0,.16,0,.25l4.72.47C325.35,121.91,317.77,120.74,310.18,119.4ZM345,117.17l-3.09,3.5C341.41,118.73,341.41,118.73,345,117.17ZM279.7,123.4l-.05-.52c3.85-.15,7.73-.09,11.56-.51,4.94-.54,9.77.42,14.66.63,1.6.07,3.2,0,4.8.21C300.35,124,290,122.57,279.7,123.4ZM338.29,118l.5.08c-.22,1.36-.43,2.72-.68,4.28l1.24-1.33c-.44,1.68-.56,2.94.49,4.1.35.39.34,1.1.5,1.66l-.46.2,1.73,1.47-.15.26-4-2c-.05-1-.09-1.67-.13-2.37l-.25.36-.29-.06Z" transform="translate(-2.91 -3.03)"/><path class="cls-1" d="M248.13,112.18a6.81,6.81,0,0,0-1.41,1,26.57,26.57,0,0,0-1.75,2.32l.62.54a2.79,2.79,0,0,1,.36-.8c1.62-1.67,5.28-1.26,5.92.93,1.07,3.66,3.68,4.67,6.95,5a10.15,10.15,0,0,1,1.07.33c-.59.31-.87.49-1.17.61a23.8,23.8,0,0,0-3.24,1.36c-.41.23-.52,1-.72,1.54s-.36,1.2-.54,1.8h0a12.1,12.1,0,0,0-.63-2.67,1.75,1.75,0,0,0-2.76-.63c-1.19.81-2.4,1.6-3.5,2.52a4.87,4.87,0,0,0-1.3,2c1-2.33,3.68-1.9,5.28-3.18.15-.13.65-.13.7,0a12.52,12.52,0,0,1,1.26,2.77,1.55,1.55,0,0,1-1,2.08,16.91,16.91,0,0,0-3.21,1.28h1.83a2.69,2.69,0,0,1-4.23-.82l-.56,1a6,6,0,0,1,2.89-7.77,5.85,5.85,0,0,0,1-.43,6.72,6.72,0,0,0,.8-.8,7.9,7.9,0,0,0-.95-.8,4.81,4.81,0,0,1-1.49-1.06,4.74,4.74,0,0,0,4.69.1c-.38-.33-.47-.47-.59-.51-1.6-.42-3.2-.88-4.81-1.24-1.78-.4-3-1.54-3.14-3-.12-1.73.69-2.71,2.75-3.32.28-.08.58-.14.86-.21Z" transform="translate(-2.91 -3.03)"/><path class="cls-1" d="M346.9,131.6c-1.7.84-3.27.35-4.76-.06-3.42-.92-6.77-2.1-10.2-3-1.81-.46-3.74-.5-5.6-.91a16.84,16.84,0,0,1,11.8,1.33l-2.05-.46C339.36,130.5,343,131.09,346.9,131.6Z" transform="translate(-2.91 -3.03)"/><path class="cls-1" d="M275,125.52l22.77-.75v.59l-22.76.72Z" transform="translate(-2.91 -3.03)"/><path class="cls-1" d="M248.08,112.12c1-1.28,1.88-1.55,3.15-.84s2.25,1.29,3.35,2a1.28,1.28,0,0,1,.5.84,3.58,3.58,0,0,1-2.91-1,4.18,4.18,0,0,0-4-.92Z" transform="translate(-2.91 -3.03)"/><path d="M330.39,119.88l-2.09.45,0,.25,4.72.46c-7.71.87-15.29-.3-22.88-1.64h20.15Z" transform="translate(-2.91 -3.03)"/><path d="M279.65,122.88c3.85-.15,7.73-.09,11.56-.51,4.94-.54,9.77.42,14.66.63,1.59.07,3.2,0,4.8.21-10.32.79-20.66-.64-31,.19Z" transform="translate(-2.91 -3.03)"/><path d="M339.35,121c-.44,1.68-.57,2.94.49,4.1.35.39.34,1.1.5,1.66l-.46.2,1.73,1.47-.16.26-4-2-.13-2.37-.25.36-.29-.06,1.53-6.61.5.08-.68,4.27Z" transform="translate(-2.91 -3.03)"/><path d="M345,117.17l-3.09,3.5C341.41,118.73,341.41,118.73,345,117.17Z" transform="translate(-2.91 -3.03)"/><path d="M223.62,108.79c-3.41,2.87-7.55,3.51-11.73,3.89-3.57.33-7.17.35-10.76.46-5.58.18-11.17.45-16.75.43s-11.41-.6-17.1-.41c-6,.2-11.68-1.25-17.47-2.14a84.84,84.84,0,0,1-12.19-3.13,9.33,9.33,0,0,0-8.88,1.56c-2.6,1.89-2.8,3.15-.64,5.57.36.42.83.75,1.15,1.19s.58.93.45,1.2c-.79,1.67-1.09,3.72-3.34,4.28a3.8,3.8,0,0,0-2.93,2.9,6.59,6.59,0,0,1-.59,1.15v.6c.47,3,2.79,4.76,4.85,6.65.2.19.38.4.58.6H131c.89-1.1,2.23-2.06,2.58-3.3,1.07-3.87,3.81-5.72,7.74-5a9.1,9.1,0,0,0,3.61-.48c1.58-.4,3.1-1.34,4.68-1.4,5.38-.22,10.76-.23,16.14-.18s10.75.23,16.12.42q10.54.39,21.09.9,7,.33,14.08.81c3.78.25,7.48.81,10.33,3.73a3.87,3.87,0,0,0,1.41.84c1.44.53,5.84-1.26,6.59-2.64,1.76-3.23,1.3-5.38-1.63-7.71-1.69-1.35-1.74-1.84-.26-3.5a5.18,5.18,0,0,0,1.67-3.41c0-3.47-.74-4.76-3.93-6.21h-.61C228.19,107,225.6,107.12,223.62,108.79ZM133,108.4c1.69-.84,3.26-.35,4.76.06,3.41.92,6.76,2.09,10.19,3,1.82.46,3.75.5,5.6.91a16.84,16.84,0,0,1-11.8-1.33l2.06.46C140.56,109.5,136.92,108.92,133,108.4Zm84.16,16c-3-.08-6.08-.12-9.12-.3-4.75-.28-9.49-.73-14.24-1-3.56-.19-7.13-.13-10.68-.24-3.8-.11-7.6-.32-11.39-.45-1.61-.06-3.22,0-4.82,0-4.76-.09-9.52-.22-14.27-.27-1.65,0-3.31.19-5,.18-.44,0-1.21-.4-1.27-.71-.29-1.6-1.44-2.32-3-3.08.27,1.22-1.2,2.29.09,3.54a2.14,2.14,0,0,1-.75,1.19c-.62.39-1.46.73-1.89-.28-.35-.81-.55-1.67-.84-2.55-1.9,1.77-3.91,3.43-6.65,3.92a1.43,1.43,0,0,0-1.26,1.85c.16.81,0,1.69.22,2.64a10.49,10.49,0,0,1,.91-2.31,10.2,10.2,0,0,1,1.86-1.62q-1.38,2.9-2.65,5.54s-.11-.24-.21-.45c-1.14,1.51-3.59,1.21-4.8-.62-.65-1-1.15-2.08-1.9-3.45.22,1.76.39,3.17.59,4.8-2.1-1.61-2.29-3.7-2-5.71s2.1-2.72,4.47-1.8a16.53,16.53,0,0,0,2.78,1c-.6-1.13-1.23-2.25-1.78-3.4a1.6,1.6,0,0,1,.1-.95c.22-.66.48-1.3.75-2l.49,1c.15-1.25.27-2.14.38-3a3.26,3.26,0,0,1,3.6,2.19c1.29.66,2.9-1.21,4,.65.17-2.41-.76-3.47-4.14-5l1.76.15a9.32,9.32,0,0,1-1.52-1.87c-.37-.83-.88-1-1.4-.43-.3.33-.17,1.06-.27,2a4.59,4.59,0,0,1-5.22-.08,4.25,4.25,0,0,1,3.28-2.29,4.69,4.69,0,0,0,2.12-.54,3.66,3.66,0,0,1,3.44-.25c3.45,1.2,6.88,2.49,10.4,3.42a27.35,27.35,0,0,0,5.82.4c1.36.06,2.73,0,4.1,0v.42h-7.7c0,.11,0,.21,0,.32a21.47,21.47,0,0,0,3.61.56c6.59,0,13.19-.32,19.79-.29,5.51,0,11,.42,16.54.53,4.58.09,9.18.2,13.75-.07,3.72-.21,7.41-.94,11.11-1.48a36.45,36.45,0,0,0,4.17-.77,8.47,8.47,0,0,0,5.29-3.58c1.39.69,1.49,2.07,1.79,3.35h0c-.23.1-.6.15-.66.31-.94,2.63-3.41,2.51-5.47,2.93-3.68.75-7.39,1.31-11.48,2,1.7.24,3.07.49,4.45.6,3,.25,6.08.34,9.11.68a4.38,4.38,0,0,1,3.55,2.47,11.72,11.72,0,0,1-6.1.84c-3-.21-6-.64-9-.59-6.08.09-12-1-18.06-1.43-3.09-.23-6.21,0-9.32-.13-2.59-.09-5.17-.37-7.76-.49a8.55,8.55,0,0,0-2.94.45l2.68.17-.59.27,0,.34c1.49.15,3,.38,4.48.44,4.84.21,9.68.41,14.52.49,1.87,0,3.75-.49,5.6-.4,2.84.16,5.66.68,8.49,1,3,.29,6.05.48,9.08.73a23.89,23.89,0,0,1,4,.61C219.27,124.46,218.23,124.49,217.19,124.45Zm-12.27-10.53c0,.19,0,.37,0,.56l-22.76.74c0-.19,0-.38,0-.58Zm28.89-5a6,6,0,0,1-2.9,7.77,5.75,5.75,0,0,0-.94.43,6.8,6.8,0,0,0-.81.8,8,8,0,0,0,1,.8,5.05,5.05,0,0,1,1.49,1.06,9.88,9.88,0,0,0-2.28-.68,9.58,9.58,0,0,0-2.41.58c.38.33.47.47.59.51,1.6.42,3.19.87,4.81,1.24,1.77.4,3,1.54,3.14,3,.11,1.73-.7,2.71-2.76,3.32-.28.08-.57.14-.86.21-1,1.28-1.88,1.55-3.15.85s-2.25-1.3-3.35-2a1.27,1.27,0,0,1-.49-.85,3.6,3.6,0,0,1,2.9,1,4.2,4.2,0,0,0,4,.92,7.56,7.56,0,0,0,1.42-1c.64-.72,1.17-1.55,1.75-2.33l-.62-.54a2.8,2.8,0,0,1-.37.8c-1.62,1.67-5.28,1.26-5.92-.93-1.07-3.66-3.68-4.67-6.94-5a10,10,0,0,1-1.08-.33c.59-.31.87-.49,1.17-.61a24.48,24.48,0,0,0,3.25-1.36c.4-.23.52-1,.71-1.54s.37-1.19.55-1.79l.06.33a2,2,0,0,1,.06.34l.09.51.06.35a2.29,2.29,0,0,0,.07.28,1.42,1.42,0,0,0,0,.22s0,.1.05.15a1.25,1.25,0,0,0,.09.25,2.29,2.29,0,0,0,.1.23,1.75,1.75,0,0,0,2.76.63c1.18-.81,2.39-1.6,3.49-2.52a4.85,4.85,0,0,0,1.31-2c-1,2.33-3.69,1.9-5.28,3.19-.16.12-.66.12-.71,0a11.85,11.85,0,0,1-1.25-2.77,1.55,1.55,0,0,1,1-2.08,16.65,16.65,0,0,0,3.21-1.28H229a2.68,2.68,0,0,1,4.22.83Z" transform="translate(-2.91 -3.03)"/><path class="cls-1" d="M218.63,113.42a36.45,36.45,0,0,1-4.17.77c-3.7.54-7.39,1.27-11.11,1.48-4.57.27-9.17.16-13.75.07-5.52-.11-11-.5-16.54-.53-6.6,0-13.2.24-19.79.29a21.47,21.47,0,0,1-3.61-.56c0-.11,0-.21,0-.32h7.7v-.42c-1.37,0-2.74,0-4.1,0a27.35,27.35,0,0,1-5.82-.4c-3.52-.93-6.95-2.22-10.4-3.42a3.66,3.66,0,0,0-3.44.25,4.69,4.69,0,0,1-2.12.54,4.25,4.25,0,0,0-3.28,2.29,4.59,4.59,0,0,0,5.22.08c.1-.92,0-1.65.27-2,.52-.58,1-.4,1.4.43a9.32,9.32,0,0,0,1.52,1.87l-1.76-.15c3.38,1.56,4.31,2.62,4.14,5-1.14-1.86-2.75,0-4-.65a3.26,3.26,0,0,0-3.6-2.19c-.11.87-.23,1.76-.38,3l-.49-1c-.27.71-.53,1.35-.75,2a1.6,1.6,0,0,0-.1.95c.55,1.15,1.18,2.27,1.78,3.4a16.53,16.53,0,0,1-2.78-1c-2.37-.92-4.18-.29-4.47,1.8s-.1,4.1,2,5.71c-.2-1.63-.37-3-.59-4.8.75,1.37,1.25,2.46,1.9,3.45,1.21,1.83,3.66,2.13,4.8.62.1.21.2.41.21.45q1.28-2.64,2.65-5.54a10.2,10.2,0,0,0-1.86,1.62,10.49,10.49,0,0,0-.91,2.31c-.19-1-.06-1.83-.22-2.64a1.43,1.43,0,0,1,1.26-1.85c2.74-.49,4.75-2.15,6.65-3.92.29.88.49,1.74.84,2.55.43,1,1.27.67,1.89.28a2.14,2.14,0,0,0,.75-1.19c-1.29-1.25.18-2.32-.09-3.54,1.52.76,2.67,1.48,3,3.08.06.31.83.71,1.27.71,1.65,0,3.31-.2,5-.18,4.75,0,9.51.18,14.27.27,1.6,0,3.21,0,4.82,0,3.79.13,7.59.34,11.39.45,3.55.11,7.12,0,10.68.24,4.75.24,9.49.69,14.24,1,3,.18,6.08.22,9.12.3,1,0,2.08,0,3.12,0a23.89,23.89,0,0,0-4-.61c-3-.25-6.06-.44-9.08-.73-2.83-.28-5.65-.8-8.49-1-1.85-.09-3.73.44-5.6.4-4.84-.08-9.68-.28-14.52-.49-1.5-.06-3-.29-4.48-.44l0-.34.59-.27-2.68-.17a8.55,8.55,0,0,1,2.94-.45c2.59.12,5.17.4,7.76.49,3.11.1,6.23-.1,9.32.13,6,.47,12,1.52,18.06,1.43,3,0,6,.38,9,.59a11.72,11.72,0,0,0,6.1-.84,4.38,4.38,0,0,0-3.55-2.47c-3-.34-6.08-.43-9.11-.68-1.38-.11-2.75-.36-4.45-.6,4.09-.71,7.8-1.27,11.48-2,2.06-.42,4.53-.3,5.47-2.93.06-.16.43-.21.66-.31-.3-1.28-.4-2.66-1.79-3.35A8.47,8.47,0,0,1,218.63,113.42Zm-48.88,7.18H149.59l-.06-.48,2.09-.45,0-.25-4.73-.47C154.57,118.09,162.16,119.26,169.75,120.6Zm-34.86,2.23,3.1-3.5C138.51,121.27,138.51,121.27,134.89,122.83Zm65.34-6.23.05.52c-3.86.15-7.74.09-11.56.51-4.95.54-9.78-.42-14.66-.63-1.6-.07-3.2,0-4.8-.21C179.57,116,189.91,117.43,200.23,116.6ZM141.64,122l-.51-.08c.22-1.36.44-2.72.68-4.28L140.58,119c.43-1.68.56-2.94-.5-4.1-.35-.39-.34-1.1-.49-1.66l.46-.2-1.74-1.47.16-.26c1.43.73,2.86,1.46,4,2,.05,1,.09,1.67.13,2.37l.25-.36.28.06Q142.4,118.75,141.64,122Z" transform="translate(-2.91 -3.03)"/><path class="cls-1" d="M231.79,127.82a6.88,6.88,0,0,0,1.42-1c.64-.71,1.17-1.54,1.75-2.32l-.62-.54a2.8,2.8,0,0,1-.37.8c-1.62,1.67-5.28,1.26-5.92-.93-1.07-3.66-3.68-4.67-6.94-5a10,10,0,0,1-1.08-.33c.59-.31.87-.49,1.17-.61a24.48,24.48,0,0,0,3.25-1.36c.4-.23.52-1,.71-1.54s.37-1.2.55-1.8h0a11.07,11.07,0,0,0,.63,2.67,1.75,1.75,0,0,0,2.76.63c1.18-.81,2.39-1.6,3.49-2.52a4.79,4.79,0,0,0,1.31-2c-1,2.33-3.69,1.9-5.28,3.18-.16.13-.66.13-.71,0a12.52,12.52,0,0,1-1.26-2.77,1.56,1.56,0,0,1,1-2.08,16.65,16.65,0,0,0,3.21-1.28H229a2.7,2.7,0,0,1,4.24.82l.56-1a6,6,0,0,1-2.9,7.77,5.75,5.75,0,0,0-.94.43,6.8,6.8,0,0,0-.81.8,8,8,0,0,0,1,.8,5.05,5.05,0,0,1,1.49,1.06,9.32,9.32,0,0,0-2.29-.67,9.13,9.13,0,0,0-2.4.57c.38.33.47.47.59.51,1.6.42,3.19.88,4.81,1.24,1.77.4,3,1.54,3.13,3,.12,1.73-.69,2.71-2.75,3.32-.28.08-.57.14-.86.21Z" transform="translate(-2.91 -3.03)"/><path class="cls-1" d="M133,108.4c1.69-.84,3.26-.35,4.76.06,3.41.92,6.76,2.1,10.19,3,1.82.46,3.74.5,5.6.91a16.84,16.84,0,0,1-11.8-1.33l2.06.46C140.56,109.5,136.92,108.91,133,108.4Z" transform="translate(-2.91 -3.03)"/><path class="cls-1" d="M204.94,114.48l-22.77.75,0-.59,22.77-.72Z" transform="translate(-2.91 -3.03)"/><path class="cls-1" d="M231.84,127.88c-1,1.28-1.88,1.55-3.15.84s-2.25-1.29-3.35-2a1.27,1.27,0,0,1-.49-.84,3.55,3.55,0,0,1,2.9,1,4.19,4.19,0,0,0,4,.92Z" transform="translate(-2.91 -3.03)"/><path d="M149.53,120.12l2.09-.45,0-.25-4.73-.46c7.71-.87,15.3.3,22.89,1.64H149.59Z" transform="translate(-2.91 -3.03)"/><path d="M200.28,117.12c-3.86.15-7.74.09-11.56.51-4.95.54-9.78-.42-14.66-.63-1.6-.07-3.2,0-4.81-.21,10.32-.79,20.66.64,31-.19Z" transform="translate(-2.91 -3.03)"/><path d="M140.58,119c.44-1.68.56-2.94-.5-4.1-.35-.39-.34-1.1-.49-1.66l.46-.2-1.74-1.47.16-.26,4,2,.13,2.37.25-.36.28.06L141.64,122l-.51-.08.68-4.27Z" transform="translate(-2.91 -3.03)"/><path d="M134.89,122.83l3.1-3.5C138.51,121.27,138.51,121.27,134.89,122.83Z" transform="translate(-2.91 -3.03)"/><path d="M103.7,108.79c-3.42,2.87-7.56,3.51-11.73,3.89-3.57.33-7.17.35-10.76.46-5.59.18-11.18.45-16.76.43s-11.41-.6-17.1-.41c-6,.2-11.67-1.25-17.46-2.14a84.84,84.84,0,0,1-12.19-3.13,9.32,9.32,0,0,0-8.88,1.56C6.21,111.34,6,112.6,8.17,115a16,16,0,0,1,1.15,1.19c.25.35.58.93.45,1.2-.78,1.67-1.09,3.72-3.33,4.28a3.8,3.8,0,0,0-2.94,2.9,6.59,6.59,0,0,1-.59,1.15v.6c.47,3,2.8,4.76,4.85,6.65.2.19.39.4.59.6h2.71c.89-1.1,2.24-2.06,2.58-3.3,1.07-3.87,3.81-5.72,7.75-5a9,9,0,0,0,3.6-.48c1.59-.4,3.11-1.34,4.69-1.4,5.37-.22,10.76-.23,16.14-.18s10.75.23,16.12.42q10.55.39,21.09.9,7,.33,14.07.81c3.78.25,7.48.81,10.33,3.73a3.87,3.87,0,0,0,1.41.84c1.45.53,5.84-1.26,6.6-2.64,1.75-3.23,1.3-5.38-1.63-7.71-1.7-1.35-1.74-1.84-.27-3.5a5.13,5.13,0,0,0,1.67-3.41c0-3.47-.73-4.76-3.93-6.21h-.6C108.26,107,105.68,107.12,103.7,108.79Zm-90.6-.39c1.69-.84,3.27-.35,4.76.06,3.42.92,6.77,2.09,10.2,3,1.82.46,3.74.5,5.6.91A16.88,16.88,0,0,1,21.85,111l2.06.46C20.64,109.5,17,108.92,13.1,108.4Zm84.17,16c-3-.08-6.09-.12-9.13-.3-4.75-.28-9.49-.73-14.24-1-3.55-.19-7.12-.13-10.68-.24-3.8-.11-7.59-.32-11.39-.45-1.6-.06-3.21,0-4.82,0-4.76-.09-9.51-.22-14.27-.27-1.65,0-3.3.19-5,.18-.45,0-1.22-.4-1.28-.71-.29-1.6-1.44-2.32-3-3.08.26,1.22-1.2,2.29.08,3.54a2.17,2.17,0,0,1-.74,1.19c-.63.39-1.46.73-1.9-.28-.34-.81-.55-1.67-.83-2.55-1.9,1.77-3.92,3.43-6.65,3.92a1.43,1.43,0,0,0-1.26,1.85c.16.81,0,1.69.22,2.64a9.59,9.59,0,0,1,.91-2.31,9.58,9.58,0,0,1,1.86-1.62l-2.65,5.54s-.11-.24-.22-.45c-1.13,1.51-3.59,1.21-4.79-.62-.66-1-1.16-2.08-1.9-3.45.21,1.76.38,3.17.59,4.8-2.11-1.61-2.29-3.7-2-5.71s2.11-2.72,4.48-1.8a15.9,15.9,0,0,0,2.78,1c-.6-1.13-1.23-2.25-1.78-3.4a1.46,1.46,0,0,1,.1-.95c.21-.66.48-1.3.75-2,.09.19.19.4.48,1,.16-1.25.27-2.14.39-3a3.25,3.25,0,0,1,3.59,2.19c1.29.66,2.9-1.21,4,.65.16-2.41-.76-3.47-4.14-5l1.75.15A9.24,9.24,0,0,1,15.21,112c-.37-.83-.88-1-1.41-.43-.3.33-.16,1.06-.27,2a4.59,4.59,0,0,1-5.22-.08,4.25,4.25,0,0,1,3.29-2.29,4.73,4.73,0,0,0,2.12-.54,3.64,3.64,0,0,1,3.43-.25c3.45,1.2,6.88,2.49,10.4,3.42a27.4,27.4,0,0,0,5.82.4c1.37.06,2.74,0,4.11,0,0,.14,0,.28,0,.42H29.78c0,.11,0,.21-.05.32a21.63,21.63,0,0,0,3.61.56c6.6,0,13.2-.32,19.79-.29,5.52,0,11,.42,16.55.53,4.58.09,9.18.2,13.75-.07,3.72-.21,7.41-.94,11.11-1.48a36.45,36.45,0,0,0,4.17-.77,8.47,8.47,0,0,0,5.29-3.58c1.39.69,1.48,2.07,1.78,3.35h0c-.23.1-.59.15-.65.31-.95,2.63-3.41,2.51-5.48,2.93-3.67.75-7.39,1.31-11.48,2,1.71.24,3.07.49,4.45.6,3,.25,6.09.34,9.11.68a4.39,4.39,0,0,1,3.56,2.47,11.74,11.74,0,0,1-6.1.84c-3-.21-6-.64-9-.59-6.08.09-12-1-18.06-1.43-3.1-.23-6.22,0-9.32-.13-2.59-.09-5.18-.37-7.77-.49a8.62,8.62,0,0,0-2.94.45l2.69.17-.59.27,0,.34c1.49.15,3,.38,4.47.44,4.84.21,9.68.41,14.53.49,1.86,0,3.74-.49,5.6-.4,2.84.16,5.65.68,8.48,1,3,.29,6.06.48,9.08.73a23.89,23.89,0,0,1,4,.61C99.35,124.46,98.31,124.49,97.27,124.45ZM85,113.92c0,.19,0,.37,0,.56l-22.77.74c0-.19,0-.38,0-.58Zm28.9-5a6,6,0,0,1-2.9,7.77,6.27,6.27,0,0,0-.95.43,6.72,6.72,0,0,0-.8.8,8,8,0,0,0,1,.8,5,5,0,0,1,1.48,1.06,9.73,9.73,0,0,0-2.28-.68,9.78,9.78,0,0,0-2.41.58c.38.33.47.47.59.51,1.6.42,3.2.87,4.81,1.24,1.78.4,3,1.54,3.14,3,.12,1.73-.69,2.71-2.75,3.32-.28.08-.58.14-.86.21-1,1.28-1.88,1.55-3.15.85s-2.25-1.3-3.35-2a1.28,1.28,0,0,1-.5-.85,3.62,3.62,0,0,1,2.91,1,4.18,4.18,0,0,0,4,.92,7.56,7.56,0,0,0,1.42-1c.64-.72,1.17-1.55,1.74-2.33l-.62-.54a2.54,2.54,0,0,1-.36.8c-1.63,1.67-5.28,1.26-5.92-.93-1.07-3.66-3.68-4.67-6.95-5a10.15,10.15,0,0,1-1.07-.33c.59-.31.87-.49,1.17-.61a23.8,23.8,0,0,0,3.24-1.36c.41-.23.52-1,.72-1.54s.36-1.19.54-1.79c0,.11,0,.22.07.33l.06.34c0,.17,0,.34.08.51s.05.24.07.35l.06.28.06.22s0,.1,0,.15l.09.25c0,.08.07.15.1.23a1.75,1.75,0,0,0,2.76.63c1.19-.81,2.4-1.6,3.5-2.52a4.84,4.84,0,0,0,1.3-2c-1,2.33-3.68,1.9-5.28,3.19-.15.12-.65.12-.7,0a12.32,12.32,0,0,1-1.26-2.77,1.55,1.55,0,0,1,1-2.08,16.91,16.91,0,0,0,3.21-1.28h-1.83a2.69,2.69,0,0,1,4.23.83C113.53,109.5,113.69,109.21,113.89,108.88Z" transform="translate(-2.91 -3.03)"/><path class="cls-1" d="M98.71,113.42a36.45,36.45,0,0,1-4.17.77c-3.7.54-7.39,1.27-11.11,1.48-4.57.27-9.17.16-13.75.07-5.52-.11-11-.5-16.55-.53-6.59,0-13.19.24-19.79.29a21.63,21.63,0,0,1-3.61-.56c0-.11,0-.21.05-.32h7.69c0-.14,0-.28,0-.42-1.37,0-2.74,0-4.11,0a27.4,27.4,0,0,1-5.82-.4c-3.52-.93-6.95-2.22-10.4-3.42a3.64,3.64,0,0,0-3.43.25,4.73,4.73,0,0,1-2.12.54,4.25,4.25,0,0,0-3.29,2.29,4.59,4.59,0,0,0,5.22.08c.11-.92,0-1.65.27-2,.53-.58,1-.4,1.41.43a9.24,9.24,0,0,0,1.51,1.87L15,113.7c3.38,1.56,4.3,2.62,4.14,5-1.15-1.86-2.76,0-4-.65a3.25,3.25,0,0,0-3.59-2.19c-.12.87-.23,1.76-.39,3-.29-.58-.39-.79-.48-1-.27.71-.54,1.35-.75,2a1.46,1.46,0,0,0-.1.95c.55,1.15,1.18,2.27,1.78,3.4a15.9,15.9,0,0,1-2.78-1c-2.37-.92-4.18-.29-4.48,1.8s-.1,4.1,2,5.71c-.21-1.63-.38-3-.59-4.8.74,1.37,1.24,2.46,1.9,3.45,1.2,1.83,3.66,2.13,4.79.62.11.21.2.41.22.45l2.65-5.54a9.58,9.58,0,0,0-1.86,1.62,9.59,9.59,0,0,0-.91,2.31c-.19-1-.06-1.83-.22-2.64a1.43,1.43,0,0,1,1.26-1.85c2.73-.49,4.75-2.15,6.65-3.92.28.88.49,1.74.83,2.55.44,1,1.27.67,1.9.28a2.17,2.17,0,0,0,.74-1.19c-1.28-1.25.18-2.32-.08-3.54,1.51.76,2.66,1.48,3,3.08.06.31.83.71,1.28.71,1.65,0,3.3-.2,5-.18,4.76,0,9.51.18,14.27.27,1.61,0,3.22,0,4.82,0,3.8.13,7.59.34,11.39.45,3.56.11,7.13,0,10.68.24,4.75.24,9.49.69,14.24,1,3,.18,6.09.22,9.13.3,1,0,2.08,0,3.11,0a23.89,23.89,0,0,0-4-.61c-3-.25-6-.44-9.08-.73-2.83-.28-5.64-.8-8.48-1-1.86-.09-3.74.44-5.6.4-4.85-.08-9.69-.28-14.53-.49-1.49-.06-3-.29-4.47-.44l0-.34.59-.27-2.69-.17a8.62,8.62,0,0,1,2.94-.45c2.59.12,5.18.4,7.77.49,3.1.1,6.22-.1,9.32.13,6,.47,12,1.52,18.06,1.43,3,0,6,.38,9,.59a11.74,11.74,0,0,0,6.1-.84,4.39,4.39,0,0,0-3.56-2.47c-3-.34-6.07-.43-9.11-.68-1.38-.11-2.74-.36-4.45-.6,4.09-.71,7.81-1.27,11.48-2,2.07-.42,4.53-.3,5.48-2.93.06-.16.42-.21.65-.31-.3-1.28-.39-2.66-1.78-3.35A8.47,8.47,0,0,1,98.71,113.42ZM49.82,120.6H29.67l-.06-.48,2.09-.45c0-.09,0-.16,0-.25L26.94,119C34.65,118.09,42.23,119.26,49.82,120.6ZM15,122.83l3.09-3.5C18.59,121.27,18.59,121.27,15,122.83ZM80.3,116.6l0,.52c-3.85.15-7.73.09-11.56.51-4.94.54-9.77-.42-14.66-.63-1.6-.07-3.2,0-4.8-.21C59.65,116,70,117.43,80.3,116.6ZM21.71,122l-.5-.08c.22-1.36.43-2.72.68-4.28L20.65,119c.44-1.68.56-2.94-.49-4.1-.35-.39-.34-1.1-.5-1.66l.46-.2-1.73-1.47.15-.26,4,2c.05,1,.09,1.67.13,2.37l.25-.36.29.06Z" transform="translate(-2.91 -3.03)"/><path class="cls-1" d="M111.87,127.82a6.81,6.81,0,0,0,1.41-1,26.57,26.57,0,0,0,1.75-2.32l-.62-.54a2.79,2.79,0,0,1-.36.8c-1.62,1.67-5.28,1.26-5.92-.93-1.07-3.66-3.68-4.67-6.95-5a10.15,10.15,0,0,1-1.07-.33c.59-.31.87-.49,1.17-.61a23.8,23.8,0,0,0,3.24-1.36c.41-.23.52-1,.72-1.54s.36-1.2.54-1.8h0a12.1,12.1,0,0,0,.63,2.67,1.75,1.75,0,0,0,2.76.63c1.19-.81,2.4-1.6,3.5-2.52a4.87,4.87,0,0,0,1.3-2c-1,2.33-3.68,1.9-5.28,3.18-.15.13-.65.13-.7,0a12.52,12.52,0,0,1-1.26-2.77,1.55,1.55,0,0,1,1-2.08,16.91,16.91,0,0,0,3.21-1.28h-1.83a2.69,2.69,0,0,1,4.23.82l.56-1a6,6,0,0,1-2.89,7.77,5.85,5.85,0,0,0-.95.43,6.72,6.72,0,0,0-.8.8,7.9,7.9,0,0,0,1,.8,4.81,4.81,0,0,1,1.49,1.06,9.25,9.25,0,0,0-2.28-.67,9.28,9.28,0,0,0-2.41.57c.38.33.47.47.59.51,1.6.42,3.2.88,4.81,1.24,1.78.4,3,1.54,3.14,3,.12,1.73-.69,2.71-2.75,3.32-.28.08-.58.14-.86.21Z" transform="translate(-2.91 -3.03)"/><path class="cls-1" d="M13.1,108.4c1.7-.84,3.27-.35,4.76.06,3.42.92,6.77,2.1,10.2,3,1.81.46,3.74.5,5.6.91A16.84,16.84,0,0,1,21.86,111l2.05.46C20.64,109.5,17,108.91,13.1,108.4Z" transform="translate(-2.91 -3.03)"/><path class="cls-1" d="M85,114.48l-22.77.75v-.59L85,113.92Z" transform="translate(-2.91 -3.03)"/><path class="cls-1" d="M111.92,127.88c-1,1.28-1.88,1.55-3.15.84s-2.25-1.29-3.35-2a1.28,1.28,0,0,1-.5-.84,3.58,3.58,0,0,1,2.91,1,4.18,4.18,0,0,0,4,.92Z" transform="translate(-2.91 -3.03)"/><path d="M29.61,120.12l2.09-.45,0-.25L26.94,119c7.71-.87,15.29.3,22.88,1.64H29.67Z" transform="translate(-2.91 -3.03)"/><path d="M80.35,117.12c-3.85.15-7.73.09-11.56.51-4.94.54-9.77-.42-14.66-.63-1.59-.07-3.2,0-4.8-.21,10.32-.79,20.66.64,31-.19Z" transform="translate(-2.91 -3.03)"/><path d="M20.65,119c.44-1.68.57-2.94-.49-4.1-.35-.39-.34-1.1-.5-1.66l.46-.2-1.73-1.47.16-.26,4,2,.13,2.37.25-.36.29.06L21.71,122l-.5-.08.68-4.27Z" transform="translate(-2.91 -3.03)"/><path d="M15,122.83l3.09-3.5C18.59,121.27,18.59,121.27,15,122.83Z" transform="translate(-2.91 -3.03)"/><path d="M103.7,228.79c-3.42,2.87-7.56,3.51-11.73,3.89-3.57.33-7.17.35-10.76.46-5.59.18-11.18.45-16.76.43s-11.41-.6-17.1-.41c-6,.2-11.67-1.25-17.46-2.14a84.84,84.84,0,0,1-12.19-3.13,9.32,9.32,0,0,0-8.88,1.56C6.21,231.34,6,232.6,8.17,235a16,16,0,0,1,1.15,1.19c.25.35.58.93.45,1.2-.78,1.67-1.09,3.72-3.33,4.28a3.8,3.8,0,0,0-2.94,2.9,6.59,6.59,0,0,1-.59,1.15v.6c.47,3,2.8,4.76,4.85,6.65.2.19.39.4.59.6h2.71c.89-1.1,2.24-2.06,2.58-3.3,1.07-3.87,3.81-5.72,7.75-5a9,9,0,0,0,3.6-.48c1.59-.4,3.11-1.34,4.69-1.4,5.37-.22,10.76-.23,16.14-.18s10.75.23,16.12.42q10.55.39,21.09.9,7,.33,14.07.81c3.78.25,7.48.81,10.33,3.73a3.87,3.87,0,0,0,1.41.84c1.45.53,5.84-1.26,6.6-2.64,1.75-3.23,1.3-5.38-1.63-7.71-1.7-1.35-1.74-1.84-.27-3.5a5.13,5.13,0,0,0,1.67-3.41c0-3.47-.73-4.76-3.93-6.21h-.6C108.26,227,105.68,227.12,103.7,228.79Zm-90.6-.39c1.69-.84,3.27-.35,4.76.06,3.42.92,6.77,2.09,10.2,3,1.82.46,3.74.5,5.6.91A16.88,16.88,0,0,1,21.85,231l2.06.46C20.64,229.5,17,228.92,13.1,228.4Zm84.17,16c-3-.08-6.09-.12-9.13-.3-4.75-.28-9.49-.73-14.24-1-3.55-.19-7.12-.13-10.68-.24-3.8-.11-7.59-.32-11.39-.45-1.6-.06-3.21,0-4.82-.05-4.76-.09-9.51-.22-14.27-.27-1.65,0-3.3.19-5,.18-.45,0-1.22-.4-1.28-.71-.29-1.6-1.44-2.32-3-3.08.26,1.22-1.2,2.29.08,3.54a2.17,2.17,0,0,1-.74,1.19c-.63.39-1.46.73-1.9-.28-.34-.81-.55-1.67-.83-2.55-1.9,1.77-3.92,3.43-6.65,3.92a1.43,1.43,0,0,0-1.26,1.85c.16.81,0,1.69.22,2.64a9.59,9.59,0,0,1,.91-2.31,9.58,9.58,0,0,1,1.86-1.62l-2.65,5.54s-.11-.24-.22-.45c-1.13,1.51-3.59,1.21-4.79-.62-.66-1-1.16-2.08-1.9-3.45.21,1.76.38,3.17.59,4.8-2.11-1.61-2.29-3.7-2-5.71s2.11-2.72,4.48-1.8a15.9,15.9,0,0,0,2.78,1c-.6-1.13-1.23-2.25-1.78-3.4a1.46,1.46,0,0,1,.1-.95c.21-.66.48-1.3.75-2,.09.19.19.4.48,1,.16-1.25.27-2.14.39-3a3.25,3.25,0,0,1,3.59,2.19c1.29.66,2.9-1.21,4,.65.16-2.41-.76-3.47-4.14-5l1.75.15A9.24,9.24,0,0,1,15.21,232c-.37-.83-.88-1-1.41-.43-.3.33-.16,1.06-.27,2a4.59,4.59,0,0,1-5.22-.08,4.25,4.25,0,0,1,3.29-2.29,4.73,4.73,0,0,0,2.12-.54,3.64,3.64,0,0,1,3.43-.25c3.45,1.2,6.88,2.49,10.4,3.42a27.4,27.4,0,0,0,5.82.4c1.37.06,2.74,0,4.11,0,0,.14,0,.28,0,.42H29.78c0,.11,0,.21-.05.32a21.63,21.63,0,0,0,3.61.56c6.6-.05,13.2-.32,19.79-.29,5.52,0,11,.42,16.55.53,4.58.09,9.18.2,13.75-.07,3.72-.21,7.41-.94,11.11-1.48a36.45,36.45,0,0,0,4.17-.77,8.47,8.47,0,0,0,5.29-3.58c1.39.69,1.48,2.07,1.78,3.35h0c-.23.1-.59.15-.65.31-.95,2.63-3.41,2.51-5.48,2.93-3.67.75-7.39,1.31-11.48,2,1.71.24,3.07.49,4.45.6,3,.25,6.09.34,9.11.68a4.39,4.39,0,0,1,3.56,2.47,11.74,11.74,0,0,1-6.1.84c-3-.21-6-.64-9-.59-6.08.09-12-1-18.06-1.43-3.1-.23-6.22,0-9.32-.13-2.59-.09-5.18-.37-7.77-.49a8.62,8.62,0,0,0-2.94.45l2.69.17-.59.27,0,.34c1.49.15,3,.38,4.47.44,4.84.21,9.68.41,14.53.49,1.86,0,3.74-.49,5.6-.4,2.84.16,5.65.68,8.48,1,3,.29,6.06.48,9.08.73a23.89,23.89,0,0,1,4,.61C99.35,244.46,98.31,244.49,97.27,244.45ZM85,233.92c0,.19,0,.37,0,.56l-22.77.74c0-.19,0-.38,0-.58Zm28.9-5a6,6,0,0,1-2.9,7.77,6.27,6.27,0,0,0-.95.43,6.72,6.72,0,0,0-.8.8,8,8,0,0,0,1,.8,5,5,0,0,1,1.48,1.06,9.73,9.73,0,0,0-2.28-.68,9.78,9.78,0,0,0-2.41.58c.38.33.47.47.59.51,1.6.42,3.2.87,4.81,1.24,1.78.4,3,1.54,3.14,3,.12,1.73-.69,2.71-2.75,3.32-.28.08-.58.14-.86.21-1,1.28-1.88,1.55-3.15.85s-2.25-1.3-3.35-2a1.28,1.28,0,0,1-.5-.85,3.62,3.62,0,0,1,2.91,1,4.18,4.18,0,0,0,4,.92,7.56,7.56,0,0,0,1.42-1c.64-.72,1.17-1.55,1.74-2.33l-.62-.54a2.54,2.54,0,0,1-.36.8c-1.63,1.67-5.28,1.26-5.92-.93-1.07-3.66-3.68-4.67-6.95-5a10.15,10.15,0,0,1-1.07-.33c.59-.31.87-.49,1.17-.61a23.8,23.8,0,0,0,3.24-1.36c.41-.23.52-1,.72-1.54s.36-1.19.54-1.79c0,.11,0,.22.07.33l.06.34c0,.17,0,.34.08.51s.05.24.07.35l.06.28.06.22c0,.05,0,.1,0,.15l.09.25c0,.08.07.15.1.23a1.75,1.75,0,0,0,2.76.63c1.19-.81,2.4-1.6,3.5-2.52a4.84,4.84,0,0,0,1.3-2c-1,2.33-3.68,1.9-5.28,3.19-.15.12-.65.12-.7,0a12.32,12.32,0,0,1-1.26-2.77,1.55,1.55,0,0,1,1-2.08,16.91,16.91,0,0,0,3.21-1.28h-1.83a2.69,2.69,0,0,1,4.23.83C113.53,229.5,113.69,229.21,113.89,228.88Z" transform="translate(-2.91 -3.03)"/><path class="cls-1" d="M98.71,233.42a36.45,36.45,0,0,1-4.17.77c-3.7.54-7.39,1.27-11.11,1.48-4.57.27-9.17.16-13.75.07-5.52-.11-11-.5-16.55-.53-6.59,0-13.19.24-19.79.29a21.63,21.63,0,0,1-3.61-.56c0-.11,0-.21.05-.32h7.69c0-.14,0-.28,0-.42-1.37,0-2.74.05-4.11,0a27.4,27.4,0,0,1-5.82-.4c-3.52-.93-6.95-2.22-10.4-3.42a3.64,3.64,0,0,0-3.43.25,4.73,4.73,0,0,1-2.12.54,4.25,4.25,0,0,0-3.29,2.29,4.59,4.59,0,0,0,5.22.08c.11-.92,0-1.65.27-2,.53-.58,1-.4,1.41.43a9.24,9.24,0,0,0,1.51,1.87L15,233.7c3.38,1.56,4.3,2.62,4.14,5-1.15-1.86-2.76,0-4-.65a3.25,3.25,0,0,0-3.59-2.19c-.12.87-.23,1.76-.39,3-.29-.58-.39-.79-.48-1-.27.71-.54,1.35-.75,2a1.46,1.46,0,0,0-.1.95c.55,1.15,1.18,2.27,1.78,3.4a15.9,15.9,0,0,1-2.78-1c-2.37-.92-4.18-.29-4.48,1.8s-.1,4.1,2,5.71c-.21-1.63-.38-3-.59-4.8.74,1.37,1.24,2.46,1.9,3.45,1.2,1.83,3.66,2.13,4.79.62.11.21.2.41.22.45l2.65-5.54a9.58,9.58,0,0,0-1.86,1.62,9.59,9.59,0,0,0-.91,2.31c-.19-1-.06-1.83-.22-2.64a1.43,1.43,0,0,1,1.26-1.85c2.73-.49,4.75-2.15,6.65-3.92.28.88.49,1.74.83,2.55.44,1,1.27.67,1.9.28a2.17,2.17,0,0,0,.74-1.19c-1.28-1.25.18-2.32-.08-3.54,1.51.76,2.66,1.48,3,3.08.06.31.83.71,1.28.71,1.65,0,3.3-.2,5-.18,4.76.05,9.51.18,14.27.27,1.61,0,3.22,0,4.82.05,3.8.13,7.59.34,11.39.45,3.56.11,7.13.05,10.68.24,4.75.24,9.49.69,14.24,1,3,.18,6.09.22,9.13.3,1,0,2.08,0,3.11,0a23.89,23.89,0,0,0-4-.61c-3-.25-6-.44-9.08-.73-2.83-.28-5.64-.8-8.48-1-1.86-.09-3.74.44-5.6.4-4.85-.08-9.69-.28-14.53-.49-1.49-.06-3-.29-4.47-.44l0-.34.59-.27-2.69-.17a8.62,8.62,0,0,1,2.94-.45c2.59.12,5.18.4,7.77.49,3.1.1,6.22-.1,9.32.13,6,.47,12,1.52,18.06,1.43,3,0,6,.38,9,.59a11.74,11.74,0,0,0,6.1-.84,4.39,4.39,0,0,0-3.56-2.47c-3-.34-6.07-.43-9.11-.68-1.38-.11-2.74-.36-4.45-.6,4.09-.71,7.81-1.27,11.48-2,2.07-.42,4.53-.3,5.48-2.93.06-.16.42-.21.65-.31-.3-1.28-.39-2.66-1.78-3.35A8.47,8.47,0,0,1,98.71,233.42ZM49.82,240.6H29.67l-.06-.48,2.09-.45c0-.09,0-.16,0-.25L26.94,239C34.65,238.09,42.23,239.26,49.82,240.6ZM15,242.83l3.09-3.5C18.59,241.27,18.59,241.27,15,242.83ZM80.3,236.6l0,.52c-3.85.15-7.73.09-11.56.51-4.94.54-9.77-.42-14.66-.63-1.6-.07-3.2,0-4.8-.21C59.65,236,70,237.43,80.3,236.6ZM21.71,242l-.5-.08c.22-1.36.43-2.72.68-4.28L20.65,239c.44-1.68.56-2.94-.49-4.1-.35-.39-.34-1.1-.5-1.66l.46-.2-1.73-1.47.15-.26,4,2c.05,1,.09,1.67.13,2.37l.25-.36.29.06Z" transform="translate(-2.91 -3.03)"/><path class="cls-1" d="M111.87,247.82a6.81,6.81,0,0,0,1.41-1,26.57,26.57,0,0,0,1.75-2.32l-.62-.54a2.79,2.79,0,0,1-.36.8c-1.62,1.67-5.28,1.26-5.92-.93-1.07-3.66-3.68-4.67-6.95-5a10.15,10.15,0,0,1-1.07-.33c.59-.31.87-.49,1.17-.61a23.8,23.8,0,0,0,3.24-1.36c.41-.23.52-1,.72-1.54s.36-1.2.54-1.8h0a12.1,12.1,0,0,0,.63,2.67,1.75,1.75,0,0,0,2.76.63c1.19-.81,2.4-1.6,3.5-2.52a4.87,4.87,0,0,0,1.3-2c-1,2.33-3.68,1.9-5.28,3.18-.15.13-.65.13-.7,0a12.52,12.52,0,0,1-1.26-2.77,1.55,1.55,0,0,1,1-2.08,16.91,16.91,0,0,0,3.21-1.28h-1.83a2.69,2.69,0,0,1,4.23.82l.56-1a6,6,0,0,1-2.89,7.77,5.85,5.85,0,0,0-.95.43,6.72,6.72,0,0,0-.8.8,7.9,7.9,0,0,0,1,.8,4.81,4.81,0,0,1,1.49,1.06,9.25,9.25,0,0,0-2.28-.67,9.28,9.28,0,0,0-2.41.57c.38.33.47.47.59.51,1.6.42,3.2.88,4.81,1.24,1.78.4,3,1.54,3.14,3,.12,1.73-.69,2.71-2.75,3.32-.28.08-.58.14-.86.21Z" transform="translate(-2.91 -3.03)"/><path class="cls-1" d="M13.1,228.4c1.7-.84,3.27-.35,4.76.06,3.42.92,6.77,2.1,10.2,3,1.81.46,3.74.5,5.6.91A16.84,16.84,0,0,1,21.86,231l2.05.46C20.64,229.5,17,228.91,13.1,228.4Z" transform="translate(-2.91 -3.03)"/><path class="cls-1" d="M85,234.48l-22.77.75v-.59L85,233.92Z" transform="translate(-2.91 -3.03)"/><path class="cls-1" d="M111.92,247.88c-1,1.28-1.88,1.55-3.15.84s-2.25-1.29-3.35-2a1.28,1.28,0,0,1-.5-.84,3.58,3.58,0,0,1,2.91,1,4.18,4.18,0,0,0,4,.92Z" transform="translate(-2.91 -3.03)"/><path d="M29.61,240.12l2.09-.45,0-.25L26.94,239c7.71-.87,15.29.3,22.88,1.64H29.67Z" transform="translate(-2.91 -3.03)"/><path d="M80.35,237.12c-3.85.15-7.73.09-11.56.51-4.94.54-9.77-.42-14.66-.63-1.59-.07-3.2,0-4.8-.21,10.32-.79,20.66.64,31-.19Z" transform="translate(-2.91 -3.03)"/><path d="M20.65,239c.44-1.68.57-2.94-.49-4.1-.35-.39-.34-1.1-.5-1.66l.46-.2-1.73-1.47.16-.26,4,2,.13,2.37.25-.36.29.06L21.71,242l-.5-.08.68-4.27Z" transform="translate(-2.91 -3.03)"/><path d="M15,242.83l3.09-3.5C18.59,241.27,18.59,241.27,15,242.83Z" transform="translate(-2.91 -3.03)"/><path d="M136.38,251.21c3.41-2.87,7.55-3.51,11.73-3.89,3.57-.33,7.17-.35,10.76-.46,5.58-.18,11.17-.45,16.75-.43s11.41.6,17.1.41c6-.2,11.68,1.25,17.47,2.14a84.84,84.84,0,0,1,12.19,3.13,9.33,9.33,0,0,0,8.88-1.56c2.6-1.89,2.8-3.15.64-5.57-.36-.42-.83-.75-1.15-1.19s-.58-.93-.45-1.2c.79-1.67,1.09-3.72,3.34-4.28a3.8,3.8,0,0,0,2.93-2.9,6.59,6.59,0,0,1,.59-1.15v-.6c-.47-3-2.79-4.76-4.85-6.65-.2-.19-.38-.4-.58-.6H229c-.89,1.1-2.23,2.06-2.58,3.3-1.07,3.87-3.81,5.72-7.74,5a9.1,9.1,0,0,0-3.61.48c-1.58.4-3.1,1.34-4.68,1.4-5.38.22-10.76.23-16.14.18s-10.75-.23-16.12-.42q-10.54-.39-21.09-.9-7-.33-14.08-.81c-3.78-.25-7.48-.81-10.33-3.73a3.87,3.87,0,0,0-1.41-.84c-1.44-.53-5.84,1.26-6.59,2.64-1.76,3.23-1.3,5.38,1.63,7.71,1.69,1.35,1.74,1.84.26,3.5a5.18,5.18,0,0,0-1.67,3.41c0,3.47.74,4.76,3.93,6.21h.61C131.81,253.05,134.4,252.88,136.38,251.21Zm90.59.39c-1.69.84-3.26.35-4.76-.06-3.41-.92-6.76-2.09-10.19-3-1.82-.46-3.75-.5-5.6-.91a16.84,16.84,0,0,1,11.8,1.33l-2.06-.46C219.44,250.5,223.08,251.08,227,251.6Zm-84.16-16c3,.08,6.08.12,9.12.3,4.75.28,9.49.73,14.24,1,3.56.19,7.13.13,10.68.24,3.8.11,7.6.32,11.39.45,1.61.06,3.22,0,4.82.05,4.76.09,9.52.22,14.27.27,1.65,0,3.31-.19,5-.18.44,0,1.21.4,1.27.71.29,1.6,1.44,2.32,3,3.08-.27-1.22,1.2-2.29-.09-3.54a2.14,2.14,0,0,1,.75-1.19c.62-.39,1.46-.73,1.89.28.35.81.55,1.67.84,2.55,1.9-1.77,3.91-3.43,6.65-3.92a1.43,1.43,0,0,0,1.26-1.85c-.16-.81,0-1.69-.22-2.64a10.49,10.49,0,0,1-.91,2.31,10.2,10.2,0,0,1-1.86,1.62q1.38-2.9,2.65-5.54s.11.24.21.45c1.14-1.51,3.59-1.21,4.8.62.65,1,1.15,2.08,1.9,3.45-.22-1.76-.39-3.17-.59-4.8,2.1,1.61,2.29,3.7,2,5.71s-2.1,2.72-4.47,1.8a16.53,16.53,0,0,0-2.78-1c.6,1.13,1.23,2.25,1.78,3.4a1.6,1.6,0,0,1-.1.95c-.22.66-.48,1.3-.75,2-.09-.19-.2-.4-.49-1-.15,1.25-.27,2.14-.38,3a3.26,3.26,0,0,1-3.6-2.19c-1.29-.66-2.9,1.21-4-.65-.17,2.41.76,3.47,4.14,5l-1.76-.15a9.32,9.32,0,0,1,1.52,1.87c.37.83.88,1,1.4.43.3-.33.17-1.06.27-2a4.59,4.59,0,0,1,5.22.08,4.25,4.25,0,0,1-3.28,2.29,4.69,4.69,0,0,0-2.12.54,3.66,3.66,0,0,1-3.44.25c-3.45-1.2-6.88-2.49-10.4-3.42a27.35,27.35,0,0,0-5.82-.4c-1.36-.06-2.73,0-4.1,0v-.42h7.7c0-.11,0-.21,0-.32a21.47,21.47,0,0,0-3.61-.56c-6.59.05-13.19.32-19.79.29-5.51,0-11-.42-16.54-.53-4.58-.09-9.18-.2-13.75.07-3.72.21-7.41.94-11.11,1.48a36.45,36.45,0,0,0-4.17.77,8.47,8.47,0,0,0-5.29,3.58c-1.39-.69-1.49-2.07-1.79-3.35h0c.23-.1.6-.15.66-.31.94-2.63,3.41-2.51,5.47-2.93,3.68-.75,7.39-1.31,11.48-2-1.7-.24-3.07-.49-4.45-.6-3-.25-6.08-.34-9.11-.68a4.38,4.38,0,0,1-3.55-2.47,11.72,11.72,0,0,1,6.1-.84c3,.21,6,.64,9,.59,6.08-.09,12,1,18.06,1.43,3.09.23,6.21,0,9.32.13,2.59.09,5.17.37,7.76.49a8.55,8.55,0,0,0,2.94-.45l-2.68-.17.59-.27,0-.34c-1.49-.15-3-.38-4.48-.44-4.84-.21-9.68-.41-14.52-.49-1.87,0-3.75.49-5.6.4-2.84-.16-5.66-.68-8.49-1-3-.29-6.05-.48-9.08-.73a23.89,23.89,0,0,1-4-.61C140.73,235.54,141.77,235.51,142.81,235.55Zm12.27,10.53c0-.19,0-.37,0-.56l22.76-.74c0,.19,0,.38,0,.58Zm-28.89,5a6,6,0,0,1,2.9-7.77,5.75,5.75,0,0,0,.94-.43,6.8,6.8,0,0,0,.81-.8,8,8,0,0,0-1-.8,5.05,5.05,0,0,1-1.49-1.06,9.88,9.88,0,0,0,2.28.68,9.58,9.58,0,0,0,2.41-.58c-.38-.33-.47-.47-.59-.51-1.6-.42-3.19-.87-4.81-1.24-1.77-.4-3-1.54-3.14-3-.11-1.73.7-2.71,2.76-3.32.28-.08.57-.14.86-.21,1-1.28,1.88-1.55,3.15-.85s2.25,1.3,3.35,2a1.27,1.27,0,0,1,.49.85,3.6,3.6,0,0,1-2.9-1,4.2,4.2,0,0,0-4-.92,7.56,7.56,0,0,0-1.42,1c-.64.72-1.17,1.55-1.75,2.33l.62.54a2.8,2.8,0,0,1,.37-.8c1.62-1.67,5.28-1.26,5.92.93,1.07,3.66,3.68,4.67,6.94,5a10,10,0,0,1,1.08.33c-.59.31-.87.49-1.17.61a24.48,24.48,0,0,0-3.25,1.36c-.4.23-.52,1-.71,1.54s-.37,1.19-.55,1.79l-.06-.33a2,2,0,0,1-.06-.34l-.09-.51-.06-.35A2.29,2.29,0,0,0,134,245a1.42,1.42,0,0,0,0-.22c0-.05,0-.1-.05-.15a1.25,1.25,0,0,0-.09-.25,2.29,2.29,0,0,0-.1-.23,1.75,1.75,0,0,0-2.76-.63c-1.18.81-2.39,1.6-3.49,2.52a4.85,4.85,0,0,0-1.31,2c1-2.33,3.69-1.9,5.28-3.19.16-.12.66-.12.71,0a11.85,11.85,0,0,1,1.25,2.77,1.55,1.55,0,0,1-1,2.08,16.65,16.65,0,0,0-3.21,1.28H131a2.68,2.68,0,0,1-4.22-.83Z" transform="translate(-2.91 -3.03)"/><path class="cls-1" d="M141.37,246.58a36.45,36.45,0,0,1,4.17-.77c3.7-.54,7.39-1.27,11.11-1.48,4.57-.27,9.17-.16,13.75-.07,5.52.11,11,.5,16.54.53,6.6,0,13.2-.24,19.79-.29a21.47,21.47,0,0,1,3.61.56c0,.11,0,.21,0,.32h-7.7v.42c1.37,0,2.74-.05,4.1,0a27.35,27.35,0,0,1,5.82.4c3.52.93,6.95,2.22,10.4,3.42a3.66,3.66,0,0,0,3.44-.25,4.69,4.69,0,0,1,2.12-.54,4.25,4.25,0,0,0,3.28-2.29,4.59,4.59,0,0,0-5.22-.08c-.1.92,0,1.65-.27,2-.52.58-1,.4-1.4-.43a9.32,9.32,0,0,0-1.52-1.87l1.76.15c-3.38-1.56-4.31-2.62-4.14-5,1.14,1.86,2.75,0,4,.65a3.26,3.26,0,0,0,3.6,2.19c.11-.87.23-1.76.38-3,.29.58.4.79.49,1,.27-.71.53-1.35.75-2a1.6,1.6,0,0,0,.1-.95c-.55-1.15-1.18-2.27-1.78-3.4a16.53,16.53,0,0,1,2.78,1c2.37.92,4.18.29,4.47-1.8s.1-4.1-2-5.71c.2,1.63.37,3,.59,4.8-.75-1.37-1.25-2.46-1.9-3.45-1.21-1.83-3.66-2.13-4.8-.62-.1-.21-.2-.41-.21-.45q-1.28,2.64-2.65,5.54a10.2,10.2,0,0,0,1.86-1.62,10.49,10.49,0,0,0,.91-2.31c.19,1,.06,1.83.22,2.64a1.43,1.43,0,0,1-1.26,1.85c-2.74.49-4.75,2.15-6.65,3.92-.29-.88-.49-1.74-.84-2.55-.43-1-1.27-.67-1.89-.28a2.14,2.14,0,0,0-.75,1.19c1.29,1.25-.18,2.32.09,3.54-1.52-.76-2.67-1.48-3-3.08-.06-.31-.83-.71-1.27-.71-1.65,0-3.31.2-5,.18-4.75-.05-9.51-.18-14.27-.27-1.6,0-3.21,0-4.82-.05-3.79-.13-7.59-.34-11.39-.45-3.55-.11-7.12-.05-10.68-.24-4.75-.24-9.49-.69-14.24-1-3-.18-6.08-.22-9.12-.3-1,0-2.08,0-3.12,0a23.89,23.89,0,0,0,4,.61c3,.25,6.06.44,9.08.73,2.83.28,5.65.8,8.49,1,1.85.09,3.73-.44,5.6-.4,4.84.08,9.68.28,14.52.49,1.5.06,3,.29,4.48.44l0,.34-.59.27,2.68.17a8.55,8.55,0,0,1-2.94.45c-2.59-.12-5.17-.4-7.76-.49-3.11-.1-6.23.1-9.32-.13-6-.47-12-1.52-18.06-1.43-3,0-6-.38-9-.59a11.72,11.72,0,0,0-6.1.84,4.38,4.38,0,0,0,3.55,2.47c3,.34,6.08.43,9.11.68,1.38.11,2.75.36,4.45.6-4.09.71-7.8,1.27-11.48,2-2.06.42-4.53.3-5.47,2.93-.06.16-.43.21-.66.31.3,1.28.4,2.66,1.79,3.35A8.47,8.47,0,0,1,141.37,246.58Zm48.88-7.18h20.16l.06.48-2.09.45,0,.25,4.73.47C205.43,241.91,197.84,240.74,190.25,239.4Zm34.86-2.23-3.1,3.5C221.49,238.73,221.49,238.73,225.11,237.17Zm-65.34,6.23-.05-.52c3.86-.15,7.74-.09,11.56-.51,4.95-.54,9.78.42,14.66.63,1.6.07,3.2,0,4.8.21C180.43,244,170.09,242.57,159.77,243.4ZM218.36,238l.51.08c-.22,1.36-.44,2.72-.68,4.28l1.23-1.33c-.43,1.68-.56,2.94.5,4.1.35.39.34,1.1.49,1.66l-.46.2,1.74,1.47-.16.26c-1.43-.73-2.86-1.46-4-2-.05-1-.09-1.67-.13-2.37l-.25.36-.28-.06Q217.61,241.26,218.36,238Z" transform="translate(-2.91 -3.03)"/><path class="cls-1" d="M128.21,232.18a6.88,6.88,0,0,0-1.42,1c-.64.71-1.17,1.54-1.75,2.32l.62.54a2.8,2.8,0,0,1,.37-.8c1.62-1.67,5.28-1.26,5.92.93,1.07,3.66,3.68,4.67,6.94,5a10,10,0,0,1,1.08.33c-.59.31-.87.49-1.17.61a24.48,24.48,0,0,0-3.25,1.36c-.4.23-.52,1-.71,1.54s-.37,1.2-.55,1.8h0a11.07,11.07,0,0,0-.63-2.67,1.75,1.75,0,0,0-2.76-.63c-1.18.81-2.39,1.6-3.49,2.52a4.79,4.79,0,0,0-1.31,2c1-2.33,3.69-1.9,5.28-3.18.16-.13.66-.13.71,0a12.52,12.52,0,0,1,1.26,2.77,1.56,1.56,0,0,1-1,2.08,16.65,16.65,0,0,0-3.21,1.28H131a2.7,2.7,0,0,1-4.24-.82l-.56,1a6,6,0,0,1,2.9-7.77,5.75,5.75,0,0,0,.94-.43,6.8,6.8,0,0,0,.81-.8,8,8,0,0,0-1-.8,5.05,5.05,0,0,1-1.49-1.06,9.32,9.32,0,0,0,2.29.67,9.13,9.13,0,0,0,2.4-.57c-.38-.33-.47-.47-.59-.51-1.6-.42-3.19-.88-4.81-1.24-1.77-.4-3-1.54-3.13-3-.12-1.73.69-2.71,2.75-3.32.28-.08.57-.14.86-.21Z" transform="translate(-2.91 -3.03)"/><path class="cls-1" d="M227,251.6c-1.69.84-3.26.35-4.76-.06-3.41-.92-6.76-2.1-10.19-3-1.82-.46-3.74-.5-5.6-.91a16.84,16.84,0,0,1,11.8,1.33l-2.06-.46C219.44,250.5,223.08,251.09,227,251.6Z" transform="translate(-2.91 -3.03)"/><path class="cls-1" d="M155.06,245.52l22.77-.75,0,.59-22.77.72Z" transform="translate(-2.91 -3.03)"/><path class="cls-1" d="M128.16,232.12c1-1.28,1.88-1.55,3.15-.84s2.25,1.29,3.35,2a1.27,1.27,0,0,1,.49.84,3.55,3.55,0,0,1-2.9-1,4.19,4.19,0,0,0-4-.92Z" transform="translate(-2.91 -3.03)"/><path d="M210.47,239.88l-2.09.45,0,.25,4.73.46c-7.71.87-15.3-.3-22.89-1.64h20.16Z" transform="translate(-2.91 -3.03)"/><path d="M159.72,242.88c3.86-.15,7.74-.09,11.56-.51,4.95-.54,9.78.42,14.66.63,1.6.07,3.2,0,4.81.21-10.32.79-20.66-.64-31,.19Z" transform="translate(-2.91 -3.03)"/><path d="M219.42,241c-.44,1.68-.56,2.94.5,4.1.35.39.34,1.1.49,1.66l-.46.2,1.74,1.47-.16.26-4-2-.13-2.37-.25.36-.28-.06,1.52-6.61.51.08-.68,4.27Z" transform="translate(-2.91 -3.03)"/><path d="M225.11,237.17l-3.1,3.5C221.49,238.73,221.49,238.73,225.11,237.17Z" transform="translate(-2.91 -3.03)"/><path d="M256.3,251.21c3.42-2.87,7.56-3.51,11.73-3.89,3.57-.33,7.17-.35,10.76-.46,5.59-.18,11.18-.45,16.76-.43s11.41.6,17.1.41c6-.2,11.67,1.25,17.46,2.14a84.84,84.84,0,0,1,12.19,3.13,9.32,9.32,0,0,0,8.88-1.56c2.61-1.89,2.8-3.15.65-5.57a16,16,0,0,1-1.15-1.19c-.25-.35-.58-.93-.45-1.2.78-1.67,1.09-3.72,3.33-4.28a3.8,3.8,0,0,0,2.94-2.9,6.59,6.59,0,0,1,.59-1.15v-.6c-.47-3-2.8-4.76-4.85-6.65-.2-.19-.39-.4-.59-.6h-2.71c-.89,1.1-2.24,2.06-2.58,3.3-1.07,3.87-3.81,5.72-7.75,5a9,9,0,0,0-3.6.48c-1.59.4-3.11,1.34-4.69,1.4-5.37.22-10.76.23-16.14.18s-10.75-.23-16.12-.42q-10.55-.39-21.09-.9-7-.33-14.07-.81c-3.78-.25-7.48-.81-10.33-3.73a3.87,3.87,0,0,0-1.41-.84c-1.45-.53-5.84,1.26-6.6,2.64-1.75,3.23-1.3,5.38,1.63,7.71,1.7,1.35,1.74,1.84.27,3.5a5.13,5.13,0,0,0-1.67,3.41c0,3.47.73,4.76,3.93,6.21h.6C251.74,253.05,254.32,252.88,256.3,251.21Zm90.6.39c-1.69.84-3.27.35-4.76-.06-3.42-.92-6.77-2.09-10.2-3-1.82-.46-3.74-.5-5.6-.91A16.88,16.88,0,0,1,338.15,249l-2.06-.46C339.36,250.5,343,251.08,346.9,251.6Zm-84.17-16c3,.08,6.09.12,9.13.3,4.75.28,9.49.73,14.24,1,3.55.19,7.12.13,10.68.24,3.8.11,7.59.32,11.39.45,1.6.06,3.21,0,4.82.05,4.76.09,9.51.22,14.27.27,1.65,0,3.3-.19,4.95-.18.45,0,1.22.4,1.28.71.29,1.6,1.44,2.32,2.95,3.08-.26-1.22,1.2-2.29-.08-3.54a2.17,2.17,0,0,1,.74-1.19c.63-.39,1.46-.73,1.9.28.34.81.55,1.67.83,2.55,1.9-1.77,3.92-3.43,6.65-3.92a1.43,1.43,0,0,0,1.26-1.85c-.16-.81,0-1.69-.22-2.64a5.22,5.22,0,0,1-2.77,3.93l2.65-5.54s.11.24.22.45c1.13-1.51,3.59-1.21,4.79.62.66,1,1.16,2.08,1.9,3.45-.21-1.76-.38-3.17-.59-4.8,2.11,1.61,2.29,3.7,2,5.71s-2.11,2.72-4.48,1.8a15.9,15.9,0,0,0-2.78-1c.6,1.13,1.23,2.25,1.78,3.4a1.46,1.46,0,0,1-.1.95c-.21.66-.48,1.3-.75,2-.09-.19-.19-.4-.48-1-.16,1.25-.27,2.14-.39,3a3.25,3.25,0,0,1-3.59-2.19c-1.29-.66-2.9,1.21-4.05-.65-.16,2.41.76,3.47,4.14,5l-1.75-.15a9.24,9.24,0,0,1,1.51,1.87c.37.83.88,1,1.41.43.3-.33.16-1.06.27-2a4.59,4.59,0,0,1,5.22.08,4.25,4.25,0,0,1-3.29,2.29,4.73,4.73,0,0,0-2.12.54,3.64,3.64,0,0,1-3.43.25c-3.45-1.2-6.88-2.49-10.4-3.42a27.4,27.4,0,0,0-5.82-.4c-1.37-.06-2.74,0-4.11,0,0-.14,0-.28,0-.42h7.69c0-.11,0-.21,0-.32a21.63,21.63,0,0,0-3.61-.56c-6.6.05-13.2.32-19.79.29-5.52,0-11-.42-16.55-.53-4.58-.09-9.18-.2-13.75.07-3.72.21-7.41.94-11.11,1.48a36.45,36.45,0,0,0-4.17.77,8.47,8.47,0,0,0-5.29,3.58c-1.39-.69-1.48-2.07-1.78-3.35h0c.23-.1.59-.15.65-.31.95-2.63,3.41-2.51,5.48-2.93,3.67-.75,7.39-1.31,11.48-2-1.71-.24-3.07-.49-4.45-.6-3-.25-6.09-.34-9.11-.68a4.39,4.39,0,0,1-3.56-2.47,11.74,11.74,0,0,1,6.1-.84c3,.21,6,.64,8.95.59,6.08-.09,12,1,18.06,1.43,3.1.23,6.22,0,9.32.13,2.59.09,5.18.37,7.77.49a8.62,8.62,0,0,0,2.94-.45l-2.69-.17.59-.27,0-.34c-1.49-.15-3-.38-4.47-.44-4.84-.21-9.68-.41-14.53-.49-1.86,0-3.74.49-5.6.4-2.84-.16-5.65-.68-8.48-1-3-.29-6.06-.48-9.08-.73a23.89,23.89,0,0,1-4-.61C260.65,235.54,261.69,235.51,262.73,235.55ZM275,246.08c0-.19,0-.37,0-.56l22.77-.74c0,.19,0,.38,0,.58Zm-28.9,5a6,6,0,0,1,2.9-7.77,6.27,6.27,0,0,0,1-.43,6.72,6.72,0,0,0,.8-.8,8,8,0,0,0-1-.8,5,5,0,0,1-1.48-1.06,9.73,9.73,0,0,0,2.28.68,9.78,9.78,0,0,0,2.41-.58c-.38-.33-.47-.47-.59-.51-1.6-.42-3.2-.87-4.81-1.24-1.78-.4-3-1.54-3.14-3-.12-1.73.69-2.71,2.75-3.32.28-.08.58-.14.86-.21,1-1.28,1.88-1.55,3.15-.85s2.25,1.3,3.35,2a1.28,1.28,0,0,1,.5.85,3.62,3.62,0,0,1-2.91-1,4.18,4.18,0,0,0-4-.92,7.56,7.56,0,0,0-1.42,1c-.64.72-1.17,1.55-1.74,2.33l.62.54a2.54,2.54,0,0,1,.36-.8c1.63-1.67,5.28-1.26,5.92.93,1.07,3.66,3.68,4.67,6.95,5a10.15,10.15,0,0,1,1.07.33c-.59.31-.87.49-1.17.61a23.8,23.8,0,0,0-3.24,1.36c-.41.23-.52,1-.72,1.54s-.36,1.19-.54,1.79c0-.11-.05-.22-.07-.33l-.06-.34c0-.17-.05-.34-.08-.51s0-.24-.07-.35l-.06-.28-.06-.22c0-.05,0-.1,0-.15l-.09-.25c0-.08-.07-.15-.1-.23a1.75,1.75,0,0,0-2.76-.63c-1.19.81-2.4,1.6-3.5,2.52a4.84,4.84,0,0,0-1.3,2c1-2.33,3.68-1.9,5.28-3.19.15-.12.65-.12.7,0a12.32,12.32,0,0,1,1.26,2.77,1.55,1.55,0,0,1-1,2.08,16.91,16.91,0,0,0-3.21,1.28h1.83a2.69,2.69,0,0,1-4.23-.83C246.47,250.5,246.31,250.79,246.11,251.12Z" transform="translate(-2.91 -3.03)"/><path class="cls-1" d="M261.29,246.58a36.45,36.45,0,0,1,4.17-.77c3.7-.54,7.39-1.27,11.11-1.48,4.57-.27,9.17-.16,13.75-.07,5.52.11,11,.5,16.55.53,6.59,0,13.19-.24,19.79-.29a21.63,21.63,0,0,1,3.61.56c0,.11,0,.21,0,.32h-7.69c0,.14,0,.28,0,.42,1.37,0,2.74-.05,4.11,0a27.4,27.4,0,0,1,5.82.4c3.52.93,6.95,2.22,10.4,3.42a3.64,3.64,0,0,0,3.43-.25,4.73,4.73,0,0,1,2.12-.54,4.25,4.25,0,0,0,3.29-2.29,4.59,4.59,0,0,0-5.22-.08c-.11.92,0,1.65-.27,2-.53.58-1,.4-1.41-.43a9.24,9.24,0,0,0-1.51-1.87l1.75.15c-3.38-1.56-4.3-2.62-4.14-5,1.15,1.86,2.76,0,4.05.65a3.25,3.25,0,0,0,3.59,2.19c.12-.87.23-1.76.39-3,.29.58.39.79.48,1,.27-.71.54-1.35.75-2a1.46,1.46,0,0,0,.1-.95c-.55-1.15-1.18-2.27-1.78-3.4a15.9,15.9,0,0,1,2.78,1c2.37.92,4.18.29,4.48-1.8s.1-4.1-2-5.71c.21,1.63.38,3,.59,4.8-.74-1.37-1.24-2.46-1.9-3.45-1.2-1.83-3.66-2.13-4.79-.62-.11-.21-.2-.41-.22-.45l-2.65,5.54a5.22,5.22,0,0,0,2.77-3.93c.19,1,.06,1.83.22,2.64a1.43,1.43,0,0,1-1.26,1.85c-2.73.49-4.75,2.15-6.65,3.92-.28-.88-.49-1.74-.83-2.55-.44-1-1.27-.67-1.9-.28a2.17,2.17,0,0,0-.74,1.19c1.28,1.25-.18,2.32.08,3.54-1.51-.76-2.66-1.48-2.95-3.08-.06-.31-.83-.71-1.28-.71-1.65,0-3.3.2-4.95.18-4.76-.05-9.51-.18-14.27-.27-1.61,0-3.22,0-4.82-.05-3.8-.13-7.59-.34-11.39-.45-3.56-.11-7.13-.05-10.68-.24-4.75-.24-9.49-.69-14.24-1-3-.18-6.09-.22-9.13-.3-1,0-2.08,0-3.11,0a23.89,23.89,0,0,0,4,.61c3,.25,6.05.44,9.08.73,2.83.28,5.64.8,8.48,1,1.86.09,3.74-.44,5.6-.4,4.85.08,9.69.28,14.53.49,1.49.06,3,.29,4.47.44l0,.34-.59.27,2.69.17a8.62,8.62,0,0,1-2.94.45c-2.59-.12-5.18-.4-7.77-.49-3.1-.1-6.22.1-9.32-.13-6-.47-12-1.52-18.06-1.43-3,0-6-.38-8.95-.59a11.74,11.74,0,0,0-6.1.84,4.39,4.39,0,0,0,3.56,2.47c3,.34,6.07.43,9.11.68,1.38.11,2.74.36,4.45.6-4.09.71-7.81,1.27-11.48,2-2.07.42-4.53.3-5.48,2.93-.06.16-.42.21-.65.31.3,1.28.39,2.66,1.78,3.35A8.47,8.47,0,0,1,261.29,246.58Zm48.89-7.18h20.15l.06.48-2.09.45c0,.09,0,.16,0,.25l4.72.47C325.35,241.91,317.77,240.74,310.18,239.4ZM345,237.17l-3.09,3.5C341.41,238.73,341.41,238.73,345,237.17ZM279.7,243.4l-.05-.52c3.85-.15,7.73-.09,11.56-.51,4.94-.54,9.77.42,14.66.63,1.6.07,3.2,0,4.8.21C300.35,244,290,242.57,279.7,243.4ZM338.29,238l.5.08c-.22,1.36-.43,2.72-.68,4.28l1.24-1.33c-.44,1.68-.56,2.94.49,4.1.35.39.34,1.1.5,1.66l-.46.2,1.73,1.47-.15.26-4-2c-.05-1-.09-1.67-.13-2.37l-.25.36-.29-.06Z" transform="translate(-2.91 -3.03)"/><path class="cls-1" d="M248.13,232.18a6.81,6.81,0,0,0-1.41,1,26.57,26.57,0,0,0-1.75,2.32l.62.54a2.79,2.79,0,0,1,.36-.8c1.62-1.67,5.28-1.26,5.92.93,1.07,3.66,3.68,4.67,6.95,5a10.15,10.15,0,0,1,1.07.33c-.59.31-.87.49-1.17.61a23.8,23.8,0,0,0-3.24,1.36c-.41.23-.52,1-.72,1.54s-.36,1.2-.54,1.8h0a12.1,12.1,0,0,0-.63-2.67,1.75,1.75,0,0,0-2.76-.63c-1.19.81-2.4,1.6-3.5,2.52a4.87,4.87,0,0,0-1.3,2c1-2.33,3.68-1.9,5.28-3.18.15-.13.65-.13.7,0a12.52,12.52,0,0,1,1.26,2.77,1.55,1.55,0,0,1-1,2.08,16.91,16.91,0,0,0-3.21,1.28h1.83a2.69,2.69,0,0,1-4.23-.82l-.56,1a6,6,0,0,1,2.89-7.77,5.85,5.85,0,0,0,1-.43,6.72,6.72,0,0,0,.8-.8,7.9,7.9,0,0,0-.95-.8,4.81,4.81,0,0,1-1.49-1.06,4.74,4.74,0,0,0,4.69.1c-.38-.33-.47-.47-.59-.51-1.6-.42-3.2-.88-4.81-1.24-1.78-.4-3-1.54-3.14-3-.12-1.73.69-2.71,2.75-3.32.28-.08.58-.14.86-.21Z" transform="translate(-2.91 -3.03)"/><path class="cls-1" d="M346.9,251.6c-1.7.84-3.27.35-4.76-.06-3.42-.92-6.77-2.1-10.2-3-1.81-.46-3.74-.5-5.6-.91a16.84,16.84,0,0,1,11.8,1.33l-2.05-.46C339.36,250.5,343,251.09,346.9,251.6Z" transform="translate(-2.91 -3.03)"/><path class="cls-1" d="M275,245.52l22.77-.75v.59l-22.76.72Z" transform="translate(-2.91 -3.03)"/><path class="cls-1" d="M248.08,232.12c1-1.28,1.88-1.55,3.15-.84s2.25,1.29,3.35,2a1.28,1.28,0,0,1,.5.84,3.58,3.58,0,0,1-2.91-1,4.18,4.18,0,0,0-4-.92Z" transform="translate(-2.91 -3.03)"/><path d="M330.39,239.88l-2.09.45,0,.25,4.72.46c-7.71.87-15.29-.3-22.88-1.64h20.15Z" transform="translate(-2.91 -3.03)"/><path d="M279.65,242.88c3.85-.15,7.73-.09,11.56-.51,4.94-.54,9.77.42,14.66.63,1.59.07,3.2,0,4.8.21-10.32.79-20.66-.64-31,.19Z" transform="translate(-2.91 -3.03)"/><path d="M339.35,241c-.44,1.68-.57,2.94.49,4.1.35.39.34,1.1.5,1.66l-.46.2,1.73,1.47-.16.26-4-2-.13-2.37-.25.36-.29-.06,1.53-6.61.5.08-.68,4.27Z" transform="translate(-2.91 -3.03)"/><path d="M345,237.17l-3.09,3.5C341.41,238.73,341.41,238.73,345,237.17Z" transform="translate(-2.91 -3.03)"/></svg>