<svg id="Layer_5" data-name="Layer 5" xmlns="http://www.w3.org/2000/svg" viewBox="0 0 360 360"><defs><style>.cls-1{fill:#fff;}</style></defs><path d="M330,271.39c-17.26-1.48-30.35-11.08-42.85-21.5-10.7-8.9-20.62-18.71-30.78-28.24-15.8-14.84-31.87-29.42-47.15-44.77-15.59-15.67-29.63-33-45.75-48-16.94-15.84-28.61-35.45-42-53.78C111.89,62,104.13,47.45,96.61,33,90.34,21,80.91,15,68,13c-12.35-2-16.35,1-17.07,13.54-.13,2.13.25,4.31-.1,6.4-.27,1.64-1,4.13-2.07,4.53C42,39.84,35.55,44.65,27.86,40a14.76,14.76,0,0,0-16-.13c-1.4.82-3.17,1-4.77,1.54L5.44,43.1C-1.63,52.76.06,63.8.49,74.65c0,1.07,0,2.14,0,3.23l7.46,7.45c5.43-.56,11.76.5,16.11-2,13.54-7.68,26.14-5.25,35.08,7.39,2.59,3.68,7.18,6.16,11.21,8.57,5.44,3.25,12.2,4.85,16.69,9,15.34,14.15,30.15,28.9,44.76,43.8s28.87,30.1,43.06,45.36q27.89,30,55.39,60.29,18.39,20.24,36.39,40.83c9.67,11.08,18.28,22.75,18.1,38.56a14.76,14.76,0,0,0,1.56,6.19c2.51,5.42,19.49,12.55,25.32,10.84,13.68-4,18.34-11.18,16.69-25.63-1-8.32.26-9.8,8.87-10.32,5.11-.31,9.92-.85,13.93-4.77,9.62-9.43,11-15.05,6.25-27.79L355.67,284C347.59,278.87,340,272.25,330,271.39ZM82.61,21.83c6.92,2.35,9.9,8,12.89,13.23,6.82,11.9,12.8,24.3,19.81,36.1C119,77.41,124.21,82.8,128.16,89,114,80.84,105,68.29,99.44,53q2.2,3.45,4.39,6.92C100.24,45.52,91.86,33.93,82.61,21.83Zm186.8,274.9c-8.11-8.58-16.34-17-24.19-25.87-12.26-13.79-24-28-36.39-41.72-9.25-10.25-19.19-19.89-28.65-29.94-10.1-10.74-20-21.72-30-32.49-4.24-4.56-8.76-8.87-13.07-13.35-12.82-13.3-25.52-26.69-38.41-39.89-4.48-4.57-9.6-8.52-14.09-13.08-1.21-1.23-2.25-4.42-1.54-5.45,3.59-5.2,2.41-10.31.33-16.56-2.62,4.1-9.56,3-9.46,9.94,0,.44-3.65,1.62-5.32,1.23-2.79-.63-6-2-4.41-6,1.25-3.14,3.05-6.07,4.69-9.26-10.08-.37-20.14-1.34-29-7.51-2.72-1.89-6-2.07-8.52,1.62-1.81,2.68-4.56,4.73-6.65,7.86C27.68,75,30.5,73,33.58,72.43s6.48.39,9.54.66L20.65,81c.06-.15.35-1,.65-1.84-7.24,1-13.19-6.52-11.46-14.84.93-4.52,2.54-8.89,4.25-14.68C9.85,55.08,6.47,59.41,2.53,64.46,1.2,54.25,6.43,48,12.71,43.29c6.55-4.93,13.22-1.68,17.23,7.33,1.45,3.27,2.36,6.77,4.79,10.45,1.45-4.73,2.78-9.52,4.44-14.2.35-1,1.78-1.76,2.88-2.33,2.39-1.22,4.87-2.25,7.54-3.45-.26.78-.53,1.62-1.35,4l9.34-7.22c5.22,4.51,6.54,10.27,3.83,15.89,1.74,5.33,11.27,4.64,9.32,12.87C77.8,60.5,78.18,55,73.18,41.48c1.28,1.52,2.54,3.05,4.39,5.25.31-3.54,0-6.68,1-9.28,1.26-3.31.36-5.2-2.67-5.05-1.72.09-3.35,2.45-6.15,4.69C63,35.92,57.41,30.75,55.59,22.57c4.54-1.95,11.77-.42,15.32,2.71C73,27.14,75.55,29,78.2,29.62c5.15,1.17,7.92,4.25,10.11,8.73,6.17,12.75,12,25.7,19.15,37.9,3.75,6.41,9.72,11.53,14.85,17.07,3.59,3.9,7.48,7.54,11.24,11.3l-1.17,1.13L111.27,84.63l-1,.76c2.75,3.84,5,8.18,8.35,11.45,18.24,17.94,37.05,35.31,55.06,53.47,15.07,15.2,29.1,31.41,43.94,46.83,12.32,12.83,24.64,25.73,37.9,37.54,10.79,9.62,22.93,17.73,34.54,26.42a152,152,0,0,0,13.54,9.33c7.49,4.41,15.56,6.6,24.34,4.68,1.9,5.7-1.62,9.76-4.3,14.07h0c-.9-.35-2-1.23-2.65-.94-9.8,4.62-16.21-2.47-23-7-12.13-8-23.88-16.66-37-25.94,4,5.32,7.08,9.76,10.55,13.85,7.63,9,15.77,17.63,23.13,26.86,4.22,5.32,4.62,10.44,3,16.53-8-2.78-13.71-8.32-19-14.43-7.6-8.76-14.62-18.14-22.93-26.18C238.7,255.53,225.24,236.28,210,218.5c-7.83-9.13-17-17.13-25.19-25.92-6.86-7.34-13.18-15.21-20-22.64a32.53,32.53,0,0,0-9.28-6.84c2.22,2.52,4.43,5.05,6.87,7.84l-2.34-.89-1,.87c3.69,4.49,7.14,9.2,11.07,13.47,12.71,13.84,25.42,27.69,38.49,41.19,5,5.2,11.64,8.91,16.46,14.27,7.37,8.2,13.66,17.34,20.66,25.87,7.49,9.1,15.29,17.93,22.89,26.92a90.86,90.86,0,0,1,9.3,12.66C275.09,302.45,272.18,299.67,269.41,296.73Zm-4.77-62.57c-.49.53-1,1.07-1.5,1.59l-64.48-60.4c.51-.55,1-1.11,1.55-1.65Zm93.08,65.42A23.23,23.23,0,0,1,328.46,313a22.86,22.86,0,0,0-3.79-1.41,24.87,24.87,0,0,0-4.4,0,29.24,29.24,0,0,0,.45,4.8c.54,2.2,1.41,4.34,1.16,7-1.41-2.74-2.4-5.89-4.41-8.1s-4.9-3.1-8.17-5c.12,1.95,0,2.59.22,3,3.22,5.57,6.36,11.18,9.79,16.6,3.77,6,4.1,12.56.48,16.74-4.41,5-9.35,5.53-16.66,1.56-1-.55-1.95-1.2-2.94-1.81-6.14.91-9.39-.89-10.95-6.31-1.38-4.83-2.61-9.73-3.75-14.63a4.92,4.92,0,0,1,1-3.67c3,3.08,5.35,5.82,5.2,10.72-.17,6,3.72,10.3,8.55,13.61,2.2.44,4.42,1.31,6.58,1.21,3.74-.21,7.45-1,11.16-1.59l-.21-3.18c-1.07.42-2.13,1.18-3.21,1.2-9,.12-17.93-11-13.66-18.81,7.1-13,2.7-22.88-5.29-32.81a34.67,34.67,0,0,1-2.06-3.84c2.48.76,3.74,1.06,4.9,1.54,4.2,1.76,8.26,4,12.62,5.17,1.74.48,4.17-1.31,6.19-2.25,2.18-1,4.27-2.29,6.4-3.44-.23.37-.46.73-.71,1.08s-.52.75-.78,1.11c-.38.55-.78,1.08-1.16,1.62s-.53.77-.78,1.15-.42.63-.61.95-.3.49-.43.75l-.29.52c-.16.31-.3.62-.43.94a6.37,6.37,0,0,0-.36.91c-1.61,4.72,1,8.41,5.83,9.3,5.47,1,11,2.17,16.5,2.68a18.84,18.84,0,0,0,9.1-2c-9.18,3.62-15.33-4.87-23.22-5.72-.77-.09-2.15-1.47-2-1.86,1.18-3.77,2.11-7.76,4.15-11.05,1.64-2.66,4.42-5.14,8.39-3a64.53,64.53,0,0,0,12.33,5.26l-5-5c7.21.95,11.92,7.52,9.32,13.87Z" transform="translate(0)"/><path class="cls-1" d="M303.62,270.43a152,152,0,0,1-13.54-9.33c-11.61-8.69-23.75-16.8-34.54-26.42C242.28,222.87,230,210,217.64,197.14c-14.84-15.42-28.87-31.63-43.94-46.83-18-18.16-36.82-35.53-55.06-53.47-3.33-3.27-5.6-7.61-8.35-11.45l1-.76,21.11,21.12,1.17-1.13c-3.76-3.76-7.65-7.4-11.24-11.3-5.13-5.54-11.1-10.66-14.85-17.07-7.1-12.2-13-25.15-19.15-37.9-2.19-4.48-5-7.56-10.11-8.73-2.65-.6-5.19-2.48-7.29-4.34-3.55-3.13-10.78-4.66-15.32-2.71C57.41,30.75,63,35.92,69.72,37.09c2.8-2.24,4.43-4.6,6.15-4.69,3-.15,3.93,1.74,2.67,5.05-1,2.6-.66,5.74-1,9.28-1.85-2.2-3.11-3.73-4.39-5.25,5,13.56,4.62,19-2.45,25.17,2-8.23-7.58-7.54-9.32-12.87,2.71-5.62,1.39-11.38-3.83-15.89l-9.34,7.22c.82-2.4,1.09-3.24,1.35-4-2.67,1.2-5.15,2.23-7.54,3.45-1.1.57-2.53,1.33-2.88,2.33-1.66,4.68-3,9.47-4.44,14.2-2.43-3.68-3.34-7.18-4.79-10.45-4-9-10.68-12.26-17.23-7.33C6.43,48,1.2,54.25,2.53,64.46c3.94-5,7.32-9.38,11.56-14.79-1.71,5.79-3.32,10.16-4.25,14.68C8.11,72.67,14.06,80.22,21.3,79.19c-.3.87-.59,1.69-.65,1.84l22.47-7.94c-3.06-.27-6.42-1.19-9.54-.66s-5.9,2.52-8.84,3.85c2.09-3.13,4.84-5.18,6.65-7.86,2.52-3.69,5.8-3.51,8.52-1.62,8.85,6.17,18.91,7.14,29,7.51-1.64,3.19-3.44,6.12-4.69,9.26-1.61,4,1.62,5.35,4.41,6,1.67.39,5.33-.79,5.32-1.23-.1-7,6.84-5.84,9.46-9.94,2.08,6.25,3.26,11.36-.33,16.56-.71,1,.33,4.22,1.54,5.45,4.49,4.56,9.61,8.51,14.09,13.08,12.89,13.2,25.59,26.59,38.41,39.89,4.31,4.48,8.83,8.79,13.07,13.35,10,10.77,19.9,21.75,30,32.49,9.46,10.05,19.4,19.69,28.65,29.94,12.35,13.69,24.13,27.93,36.39,41.72,7.85,8.83,16.08,17.29,24.19,25.87,2.77,2.94,5.68,5.72,8.53,8.57a90.86,90.86,0,0,0-9.3-12.66c-7.6-9-15.4-17.82-22.89-26.92-7-8.53-13.29-17.67-20.66-25.87-4.82-5.36-11.43-9.07-16.46-14.27-13.07-13.5-25.78-27.35-38.49-41.19-3.93-4.27-7.38-9-11.07-13.47l1-.87,2.34.89c-2.44-2.79-4.65-5.32-6.87-7.84a32.53,32.53,0,0,1,9.28,6.84c6.79,7.43,13.11,15.3,20,22.64,8.23,8.79,17.36,16.79,25.19,25.92,15.24,17.78,28.7,37,45.63,53.44,8.31,8,15.33,17.42,22.93,26.18,5.32,6.11,11,11.65,19,14.43,1.65-6.09,1.25-11.21-3-16.53-7.36-9.23-15.5-17.85-23.13-26.86-3.47-4.09-6.53-8.53-10.55-13.85,13.15,9.28,24.9,17.92,37,25.94,6.83,4.52,13.24,11.61,23,7,.61-.29,1.75.59,2.65.94,2.68-4.31,6.2-8.37,4.3-14.07C319.18,277,311.11,274.84,303.62,270.43ZM149.86,156,94.57,100.73l1.15-1.47,7,4.49c.2-.25.38-.51.58-.76L91.59,88.74C115.12,107.52,132.7,131.54,149.86,156ZM48.12,66.54l18.1-1.11C62.36,72.18,62.36,72.18,48.12,66.54Zm196.31,162.1-1.3,1.58c-11-10.15-21.46-21-33.09-30.31-15.07-12.08-25.67-28-38.49-41.94-4.19-4.58-8.75-8.81-12.6-13.74C189.4,170.36,213.86,202.62,244.43,228.64ZM68.8,82.87c-.39-.53-.78-1.07-1.15-1.6l13.58-9.86-7,.24c5.8-3.4,9.62-6.53,9.9-12.6.1-2,2.07-3.94,3.19-5.9.6.22,1.2.46,1.81.7-.25-2.93-.48-5.87-.72-8.79l1.14-.28C91.45,50.7,93.38,56.63,95,61.43c-2.5,2.78-4.31,4.82-6.14,6.86L90.5,68l.61,1Z" transform="translate(0)"/><path class="cls-1" d="M300.21,346c2.2.43,4.41,1.32,6.58,1.2,3.74-.2,7.45-1,11.17-1.58-.07-1.06-.15-2.12-.23-3.18-1.06.42-2.12,1.18-3.19,1.2-9,.12-17.94-11-13.67-18.81,7.1-13,2.69-22.88-5.29-32.81a33,33,0,0,1-2.06-3.84c2.48.77,3.73,1.05,4.9,1.54,4.2,1.76,8.26,4,12.62,5.18,1.74.47,4.16-1.32,6.18-2.27,2.21-1,4.3-2.29,6.45-3.45h0c-1.91,3-4.47,5.79-5.59,9.06-1.6,4.72,1,8.41,5.84,9.31,5.48,1,11,2.15,16.5,2.67a18.78,18.78,0,0,0,9.09-2c-9.17,3.62-15.31-4.87-23.21-5.73-.77-.08-2.14-1.46-2-1.86,1.18-3.76,2.11-7.76,4.15-11,1.65-2.66,4.42-5.14,8.39-3a64.83,64.83,0,0,0,12.33,5.27l-5-5c7.21,1,11.92,7.52,9.33,13.88l4.25-1.16A23.21,23.21,0,0,1,328.46,313a23.09,23.09,0,0,0-3.78-1.41,25,25,0,0,0-4.41,0,30.49,30.49,0,0,0,.45,4.8c.54,2.21,1.42,4.34,1.17,7-1.43-2.74-2.4-5.9-4.42-8.09s-4.9-3.11-8.17-5c.12,1.95,0,2.59.22,3,3.22,5.56,6.35,11.18,9.79,16.61,3.78,5.95,4.1,12.55.47,16.73-4.4,5.06-9.33,5.53-16.64,1.55-1-.54-2-1.19-2.94-1.79Z" transform="translate(0)"/><path class="cls-1" d="M82.61,21.83c6.93,2.35,9.9,8,12.88,13.22C102.32,47,108.3,59.37,115.31,71.16,119,77.41,124.2,82.8,128.16,89,114,80.85,105,68.3,99.45,53l4.38,6.92C100.24,45.52,91.86,33.93,82.61,21.83Z" transform="translate(0)"/><path class="cls-1" d="M263.14,235.76l-64.48-60.41,1.55-1.65,64.43,60.46Z" transform="translate(0)"/><path class="cls-1" d="M300.2,346.3c-6.15.9-9.41-.9-11-6.32-1.38-4.84-2.61-9.72-3.75-14.62a5,5,0,0,1,1-3.68c3,3.08,5.36,5.82,5.21,10.73-.17,5.94,3.72,10.29,8.55,13.6Z" transform="translate(0)"/><path d="M95.72,99.26l7,4.49.58-.76L91.59,88.74c23.53,18.78,41.11,42.81,58.26,67.28L122.5,128.67,94.57,100.74Z" transform="translate(0)"/><path d="M243.12,230.23c-11-10.16-21.44-21-33.09-30.32-15.06-12.08-25.66-28-38.48-41.94-4.2-4.57-8.75-8.81-12.61-13.74,30.47,26.12,54.91,58.39,85.49,84.41Z" transform="translate(0)"/><path d="M74.2,71.66c5.81-3.4,9.62-6.54,9.9-12.61.1-2,2.07-3.94,3.18-5.9l1.82.69-.72-8.78,1.14-.28c1.93,5.93,3.87,11.85,5.43,16.65l-6.14,6.86L90.5,68l.61,1L68.8,82.87l-1.16-1.6,13.59-9.86Z" transform="translate(0)"/><path d="M48.11,66.54l18.12-1.11C62.35,72.18,62.35,72.18,48.11,66.54Z" transform="translate(0)"/><path d="M268.51,30C267,47.24,257.43,60.33,247,72.83c-8.9,10.7-18.71,20.62-28.25,30.78-14.84,15.8-29.41,31.87-44.76,47.15-15.67,15.59-33,29.63-48,45.75-15.84,16.94-35.45,28.61-53.78,42-13.08,9.57-27.61,17.33-42,24.85-12,6.27-18,15.7-20.07,28.63-2,12.35,1,16.35,13.54,17.07,2.13.13,4.31-.25,6.4.1,1.64.27,4.13.95,4.53,2.07,2.4,6.71,7.22,13.19,2.59,20.88a14.76,14.76,0,0,0-.12,16c.82,1.4,1,3.17,1.54,4.77l1.65,1.65c9.67,7.07,20.71,5.38,31.56,4.95,1.07,0,2.14,0,3.23,0l7.45-7.46c-.56-5.43.5-11.76-2-16.11-7.68-13.54-5.24-26.14,7.4-35.08,3.68-2.59,6.16-7.18,8.57-11.21,3.25-5.44,4.85-12.2,9-16.69,14.15-15.34,28.9-30.15,43.8-44.76s30.09-28.87,45.36-43.06q30-27.89,60.29-55.39,20.23-18.39,40.83-36.39c11.08-9.67,22.75-18.28,38.56-18.1a14.76,14.76,0,0,0,6.19-1.56C345.9,71.21,353,54.23,351.32,48.4c-4-13.68-11.19-18.34-25.63-16.69-8.32,1-9.8-.26-10.32-8.87-.32-5.11-.85-9.92-4.77-13.93-9.43-9.62-15.05-11-27.79-6.25l-1.66,1.67C276,12.41,269.37,20,268.51,30ZM19,277.39c2.35-6.92,8-9.9,13.22-12.89,11.91-6.82,24.31-12.8,36.11-19.81,6.25-3.73,11.64-8.9,17.87-12.85C78,246,65.41,255,50.12,260.56q3.45-2.21,6.92-4.39C42.64,259.76,31.05,268.14,19,277.39Zm274.9-186.8c-8.58,8.11-17.05,16.34-25.87,24.19-13.79,12.26-28,24-41.72,36.39-10.25,9.25-19.89,19.19-29.94,28.65-10.74,10.1-21.72,20-32.49,30-4.56,4.24-8.87,8.76-13.36,13.07-13.29,12.82-26.68,25.52-39.88,38.41-4.57,4.48-8.52,9.6-13.08,14.09-1.23,1.21-4.42,2.25-5.45,1.54-5.2-3.59-10.31-2.41-16.56-.33,4.1,2.62,3,9.56,9.93,9.46.45,0,1.63,3.65,1.24,5.32-.63,2.79-2,6-6,4.41-3.14-1.25-6.07-3.05-9.26-4.69-.37,10.08-1.35,20.14-7.51,29-1.89,2.72-2.07,6,1.62,8.52,2.68,1.81,4.73,4.56,7.86,6.65-1.33-2.94-3.33-5.76-3.85-8.84s.39-6.48.66-9.54q4.14,11.75,7.94,22.47l-1.84-.65c1,7.24-6.52,13.19-14.84,11.46-4.52-.93-8.89-2.54-14.68-4.25,5.41,4.24,9.74,7.62,14.79,11.56-10.21,1.33-16.44-3.9-21.17-10.18-4.93-6.55-1.68-13.22,7.33-17.23,3.27-1.45,6.77-2.36,10.45-4.79-4.73-1.45-9.52-2.78-14.2-4.44-1-.35-1.76-1.78-2.33-2.88-1.22-2.39-2.25-4.87-3.45-7.54.78.26,1.62.53,4,1.35-3-3.87-5.13-6.63-7.22-9.34,4.5-5.22,10.27-6.54,15.89-3.83,5.33-1.74,4.64-11.27,12.86-9.32-6.15-7.07-11.61-7.45-25.16-2.45,1.52-1.28,3-2.54,5.25-4.39-3.54-.31-6.68,0-9.29-1-3.3-1.26-5.19-.36-5,2.67.09,1.72,2.45,3.35,4.69,6.15C33,297,27.87,302.59,19.69,304.41c-2-4.54-.42-11.77,2.71-15.32,1.86-2.1,3.74-4.64,4.34-7.29,1.16-5.15,4.24-7.92,8.73-10.11,12.75-6.17,25.7-12.05,37.9-19.15,6.41-3.75,11.53-9.72,17.07-14.85,3.9-3.59,7.54-7.48,11.3-11.24.37.39.76.78,1.12,1.17L81.75,248.73l.76,1c3.84-2.75,8.18-5,11.45-8.35,17.93-18.24,35.31-37.05,53.47-55.06,15.2-15.07,31.4-29.1,46.83-43.94C207.09,130,220,117.72,231.8,104.46c9.62-10.79,17.73-22.93,26.41-34.54a150.05,150.05,0,0,0,9.34-13.54c4.41-7.49,6.6-15.56,4.68-24.34,5.7-1.9,9.76,1.62,14.07,4.3h0v0h0c-.35.9-1.23,2-.95,2.65,4.63,9.8-2.46,16.21-7,23-8,12.13-16.66,23.88-25.94,37,5.32-4,9.76-7.08,13.85-10.55,9-7.63,17.63-15.77,26.86-23.13,5.32-4.22,10.44-4.62,16.53-3-2.78,8-8.32,13.71-14.43,19-8.76,7.6-18.14,14.62-26.18,22.93C252.65,121.3,233.4,134.76,215.62,150c-9.14,7.83-17.13,17-25.92,25.19-7.34,6.86-15.21,13.18-22.64,20a32.75,32.75,0,0,0-6.85,9.28l7.85-6.87c-.35.93-.63,1.64-.89,2.34.28.34.57.67.87,1,4.49-3.69,9.2-7.14,13.47-11.07,13.84-12.71,27.69-25.42,41.18-38.49,5.21-5,8.92-11.64,14.28-16.46,8.2-7.37,17.34-13.66,25.87-20.66,9.1-7.49,17.93-15.29,26.92-22.89a91.35,91.35,0,0,1,12.65-9.3C299.57,84.91,296.78,87.82,293.85,90.59Zm-62.57,4.77c.53.49,1.07,1,1.59,1.5l-60.4,64.48c-.55-.51-1.11-1-1.65-1.55ZM296.7,2.28a23.24,23.24,0,0,1,13.37,29.26,22.86,22.86,0,0,0-1.41,3.79,24.87,24.87,0,0,0,0,4.4,29.34,29.34,0,0,0,4.8-.45c2.2-.54,4.33-1.41,7-1.16-2.74,1.41-5.9,2.4-8.1,4.41s-3.1,4.9-5,8.17c1.95-.12,2.59,0,3-.22,5.57-3.22,11.18-6.36,16.6-9.79,6-3.77,12.56-4.1,16.74-.48,5,4.41,5.52,9.35,1.56,16.66-.55,1-1.2,2-1.81,2.94.91,6.14-.89,9.39-6.31,11-4.83,1.38-9.73,2.61-14.63,3.75a5,5,0,0,1-3.68-1c3.08-3,5.82-5.35,10.73-5.2,6,.17,10.3-3.72,13.61-8.55.43-2.2,1.31-4.42,1.21-6.58-.21-3.74-1-7.45-1.59-11.16l-3.18.21c.42,1.07,1.18,2.13,1.2,3.21.12,9-11,17.93-18.81,13.66-13-7.1-22.88-2.7-32.81,5.29a34.67,34.67,0,0,1-3.84,2.06c.76-2.48,1.05-3.74,1.54-4.9,1.76-4.2,4-8.26,5.17-12.62.48-1.74-1.31-4.17-2.25-6.19-1-2.18-2.29-4.27-3.44-6.4.37.23.72.46,1.08.71l1.11.78c.55.38,1.08.78,1.61,1.16l1.16.78c.31.21.63.42.95.61s.49.3.75.43l.52.29c.31.16.62.3.94.43a5.94,5.94,0,0,0,.91.36c4.72,1.61,8.41-1,9.3-5.83,1-5.47,2.17-11,2.68-16.5.28-3-.65-6.08-2-9.1,3.62,9.18-4.87,15.33-5.72,23.22-.09.77-1.47,2.15-1.86,2-3.77-1.18-7.76-2.11-11.05-4.15-2.66-1.64-5.14-4.42-3-8.39A64.53,64.53,0,0,0,289,10.86l-5,5c1-7.21,7.52-11.92,13.88-9.32C297.43,5,297.09,3.73,296.7,2.28Z" transform="translate(0)"/><path class="cls-1" d="M267.55,56.38a150.05,150.05,0,0,1-9.34,13.54c-8.68,11.61-16.79,23.75-26.41,34.54C220,117.72,207.09,130,194.26,142.36c-15.43,14.84-31.63,28.87-46.83,43.94-18.16,18-35.54,36.82-53.47,55.06-3.27,3.33-7.61,5.6-11.45,8.35l-.76-1,21.11-21.11c-.36-.39-.75-.78-1.12-1.17-3.76,3.76-7.4,7.65-11.3,11.24-5.54,5.13-10.66,11.1-17.07,14.85-12.2,7.1-25.15,13-37.9,19.15-4.49,2.19-7.57,5-8.73,10.11-.6,2.65-2.48,5.19-4.34,7.29-3.13,3.55-4.66,10.78-2.71,15.32C27.87,302.59,33,297,34.21,290.28c-2.24-2.8-4.6-4.43-4.69-6.15-.15-3,1.74-3.93,5-2.67,2.61,1,5.75.66,9.29,1-2.2,1.85-3.73,3.11-5.25,4.39,13.55-5,19-4.62,25.16,2.45-8.22-1.95-7.53,7.58-12.86,9.32-5.62-2.71-11.39-1.39-15.89,3.83,2.09,2.71,4.22,5.47,7.22,9.34-2.4-.82-3.24-1.09-4-1.35,1.2,2.67,2.23,5.15,3.45,7.54.57,1.1,1.33,2.53,2.33,2.88,4.68,1.66,9.47,3,14.2,4.44-3.68,2.43-7.18,3.34-10.45,4.79-9,4-12.26,10.68-7.33,17.23,4.73,6.28,11,11.51,21.17,10.18-5-3.94-9.38-7.32-14.79-11.56,5.79,1.71,10.16,3.32,14.68,4.25,8.32,1.73,15.87-4.22,14.84-11.46l1.84.65q-3.78-10.73-7.94-22.47c-.27,3.06-1.19,6.42-.66,9.54s2.52,5.9,3.85,8.84c-3.13-2.09-5.18-4.84-7.86-6.65-3.69-2.52-3.51-5.8-1.62-8.52,6.16-8.85,7.14-18.91,7.51-29,3.19,1.64,6.12,3.44,9.26,4.69,4,1.61,5.35-1.62,6-4.41.39-1.67-.79-5.33-1.24-5.32-7,.1-5.83-6.84-9.93-9.46,6.25-2.08,11.36-3.26,16.56.33,1,.71,4.22-.33,5.45-1.54,4.56-4.49,8.51-9.61,13.08-14.09,13.2-12.89,26.59-25.59,39.88-38.41,4.49-4.31,8.8-8.83,13.36-13.07,10.77-10,21.75-19.9,32.49-30,10.05-9.46,19.69-19.4,29.94-28.65C240,138.82,254.19,127,268,114.78c8.82-7.85,17.29-16.08,25.87-24.19,2.93-2.77,5.72-5.68,8.56-8.53a91.35,91.35,0,0,0-12.65,9.3c-9,7.6-17.82,15.4-26.92,22.89-8.53,7-17.67,13.29-25.87,20.66-5.36,4.82-9.07,11.43-14.28,16.46-13.49,13.07-27.34,25.78-41.18,38.49-4.27,3.93-9,7.38-13.47,11.07-.3-.35-.59-.68-.87-1,.26-.7.54-1.41.89-2.34l-7.85,6.87a32.75,32.75,0,0,1,6.85-9.28c7.43-6.79,15.3-13.11,22.64-20,8.79-8.23,16.78-17.36,25.92-25.19,17.78-15.24,37-28.7,53.44-45.63,8-8.31,17.42-15.33,26.18-22.93,6.11-5.32,11.65-11,14.43-19-6.09-1.65-11.21-1.25-16.53,3-9.23,7.36-17.85,15.5-26.86,23.13C262.19,92,257.75,95,252.43,99.06c9.28-13.15,17.92-24.9,25.94-37,4.52-6.83,11.61-13.24,7-23-.28-.61.6-1.75.95-2.65-4.31-2.68-8.37-6.2-14.07-4.3C274.15,40.82,272,48.89,267.55,56.38ZM153.14,210.14,97.85,265.43l-1.48-1.15c1.51-2.32,3-4.65,4.5-7l-.76-.58L85.86,268.41C104.64,244.88,128.66,227.3,153.14,210.14ZM63.66,311.88c-.44-7.17-.78-12.74-1.11-18.1C69.3,297.64,69.3,297.64,63.66,311.88Zm162.1-196.31,1.58,1.3c-10.15,11-21,21.46-30.31,33.09-12.08,15.07-28,25.67-41.95,38.49-4.57,4.19-8.8,8.75-13.73,12.6C167.48,170.6,199.74,146.14,225.76,115.57ZM80,291.2c-.53.39-1.07.78-1.6,1.15l-9.86-13.58c.08,2.28.14,4,.24,7-3.4-5.8-6.54-9.62-12.6-9.9-2-.1-3.94-2.07-5.9-3.19.22-.6.46-1.2.69-1.81-2.92.25-5.86.48-8.78.72-.1-.38-.19-.76-.28-1.14l16.65-5.43c2.78,2.5,4.82,4.31,6.86,6.14-.11-.55-.21-1.13-.31-1.69l1-.61Q73,280,80,291.2Z" transform="translate(0)"/><path class="cls-1" d="M343.13,59.79c.43-2.2,1.32-4.41,1.2-6.58-.2-3.74-1-7.45-1.58-11.17l-3.18.23c.42,1.06,1.18,2.12,1.19,3.19.13,9-11,17.94-18.8,13.67-13-7.1-22.88-2.69-32.81,5.29a33,33,0,0,1-3.84,2.06c.77-2.48,1.05-3.73,1.54-4.9,1.76-4.2,4-8.26,5.18-12.62.46-1.74-1.32-4.16-2.27-6.18-1-2.21-2.29-4.3-3.46-6.45h0c3,1.91,5.78,4.47,9.06,5.59,4.72,1.6,8.41-1,9.31-5.84,1-5.48,2.15-11,2.67-16.5a18.89,18.89,0,0,0-2-9.09c3.62,9.17-4.88,15.31-5.73,23.21-.08.77-1.46,2.14-1.86,2-3.76-1.18-7.76-2.11-11-4.15-2.66-1.65-5.14-4.42-3-8.39A64.17,64.17,0,0,0,289,10.86l-5,5c1-7.21,7.52-11.92,13.88-9.33-.43-1.59-.77-2.81-1.17-4.25a23.2,23.2,0,0,1,13.38,29.25,22.21,22.21,0,0,0-1.41,3.78,25,25,0,0,0,0,4.41,30.6,30.6,0,0,0,4.8-.45c2.21-.54,4.34-1.42,7-1.17-2.74,1.43-5.9,2.4-8.09,4.42s-3.11,4.9-5.05,8.17c2-.12,2.6,0,3-.22,5.56-3.22,11.18-6.35,16.6-9.79,6-3.78,12.56-4.1,16.74-.47,5.06,4.4,5.53,9.33,1.55,16.64-.54,1-1.19,2-1.79,2.94Z" transform="translate(0)"/><path class="cls-1" d="M19,277.39c2.35-6.93,8-9.9,13.22-12.88,11.91-6.83,24.32-12.81,36.11-19.82,6.25-3.72,11.64-8.89,17.88-12.85C78,246,65.42,255,50.12,260.55L57,256.17C42.64,259.76,31.05,268.14,19,277.39Z" transform="translate(0)"/><path class="cls-1" d="M232.88,96.86l-60.41,64.48-1.65-1.55,60.46-64.43Z" transform="translate(0)"/><path class="cls-1" d="M343.42,59.8c.9,6.15-.9,9.41-6.32,11-4.84,1.38-9.72,2.61-14.63,3.75a5,5,0,0,1-3.67-1c3.08-3,5.82-5.36,10.72-5.21,6,.17,10.3-3.72,13.61-8.55Z" transform="translate(0)"/><path d="M96.38,264.28l4.49-7-.76-.58L85.86,268.41c18.78-23.53,42.81-41.11,67.28-58.26L125.78,237.5,97.85,265.43Z" transform="translate(0)"/><path d="M227.34,116.88c-10.16,11-21,21.44-30.31,33.09-12.08,15.06-28,25.66-41.94,38.48-4.57,4.2-8.81,8.75-13.75,12.61,26.13-30.47,58.4-54.91,84.42-85.49Z" transform="translate(0)"/><path d="M68.78,285.8c-3.41-5.81-6.54-9.62-12.61-9.9-2-.1-3.94-2.07-5.91-3.18l.7-1.82-8.78.72-.28-1.14,16.65-5.43,6.86,6.14-.31-1.69,1-.61L80,291.2l-1.6,1.16-9.86-13.59Z" transform="translate(0)"/><path d="M63.66,311.89l-1.11-18.12C69.3,297.65,69.3,297.65,63.66,311.89Z" transform="translate(0)"/></svg>