<svg id="Layer_15" data-name="Layer 15" xmlns="http://www.w3.org/2000/svg" viewBox="0 0 360 360"><defs><style>.cls-1{fill:#fff;}</style></defs><path d="M330.018,271.392c-17.259-1.483-30.352-11.081-42.85-21.5-10.694-8.9-20.622-18.713-30.778-28.245-15.8-14.841-31.872-29.417-47.148-44.768-15.6-15.671-29.634-32.959-45.75-48.036C146.555,113,134.879,93.389,121.464,75.063,111.9,61.979,104.13,47.45,96.61,33.035,90.338,21.018,80.91,15.01,67.977,12.96c-12.346-1.955-16.352.973-17.07,13.537-.132,2.135.255,4.318-.094,6.405-.274,1.635-.954,4.129-2.069,4.525-6.716,2.409-13.2,7.227-20.886,2.6A14.749,14.749,0,0,0,11.864,39.9c-1.407.822-3.174,1.039-4.77,1.54L5.441,43.1C-1.635,52.759.056,63.8.491,74.647c.037,1.077-.01,2.144-.019,3.231l7.453,7.453c5.432-.557,11.761.5,16.116-1.965,13.537-7.68,26.139-5.243,35.076,7.4,2.6,3.675,7.179,6.159,11.213,8.568,5.441,3.25,12.2,4.846,16.692,9,15.341,14.151,30.144,28.9,44.758,43.794s28.869,30.1,43.058,45.363q27.887,29.983,55.4,60.288,18.393,20.235,36.388,40.829c9.664,11.081,18.279,22.757,18.1,38.561a14.8,14.8,0,0,0,1.559,6.187c2.512,5.423,19.488,12.555,25.317,10.845,13.688-4.034,18.345-11.185,16.692-25.629-.954-8.322.264-9.805,8.87-10.325,5.111-.311,9.919-.85,13.934-4.77,9.617-9.428,11.024-15.049,6.244-27.783l-1.662-1.662C347.588,278.874,340.022,272.252,330.018,271.392ZM82.61,21.831c6.925,2.352,9.9,8.011,12.885,13.225,6.821,11.9,12.8,24.306,19.82,36.105,3.721,6.254,8.9,11.638,12.847,17.873-14.2-8.19-23.144-20.745-28.718-36.029,1.464,2.295,2.929,4.61,4.383,6.915C100.238,45.523,91.859,33.932,82.61,21.831Zm186.8,274.9c-8.105-8.578-16.343-17.042-24.183-25.865-12.262-13.792-24.042-28.028-36.4-41.726-9.249-10.249-19.186-19.885-28.652-29.936-10.1-10.741-19.942-21.718-29.993-32.487-4.242-4.563-8.757-8.871-13.074-13.358-12.819-13.291-25.515-26.686-38.41-39.883-4.478-4.572-9.6-8.521-14.085-13.084-1.209-1.228-2.248-4.421-1.54-5.451,3.59-5.2,2.409-10.306.331-16.56-2.626,4.1-9.56,2.985-9.466,9.938.01.444-3.646,1.625-5.318,1.238-2.787-.633-6.018-1.993-4.412-5.98,1.257-3.146,3.051-6.074,4.7-9.267-10.079-.369-20.14-1.342-28.992-7.51-2.72-1.89-6-2.069-8.52,1.625-1.814,2.682-4.563,4.732-6.651,7.859,2.938-1.332,5.763-3.325,8.842-3.854,3.118-.529,6.481.4,9.541.661Q31.377,77.24,20.65,81.033c.056-.151.349-.973.652-1.842C14.056,80.22,8.114,72.673,9.843,64.35c.926-4.515,2.541-8.889,4.251-14.68C9.852,55.083,6.47,59.41,2.531,64.463,1.2,54.252,6.433,48.017,12.705,43.294c6.556-4.932,13.225-1.682,17.231,7.33,1.455,3.269,2.361,6.764,4.8,10.448,1.445-4.733,2.777-9.522,4.43-14.2.359-1,1.786-1.767,2.881-2.333,2.39-1.219,4.875-2.249,7.548-3.448-.264.774-.538,1.615-1.351,4.014,3.864-2.994,6.623-5.129,9.334-7.217C62.8,42.4,64.123,48.159,61.412,53.779c1.738,5.328,11.27,4.639,9.314,12.867C77.8,60.5,78.18,55.036,73.183,41.48c1.275,1.521,2.541,3.051,4.383,5.252.311-3.542-.029-6.679.973-9.286,1.266-3.306.359-5.195-2.664-5.044-1.729.085-3.354,2.446-6.159,4.685-6.689-1.171-12.309-6.339-14.123-14.519,4.534-1.946,11.77-.416,15.313,2.711,2.107,1.861,4.648,3.741,7.293,4.345,5.148,1.162,7.925,4.242,10.108,8.729,6.168,12.744,12.053,25.7,19.157,37.9,3.741,6.405,9.711,11.525,14.841,17.07,3.6,3.9,7.482,7.538,11.241,11.3-.387.369-.774.756-1.161,1.124L111.271,84.632l-.982.756c2.749,3.845,5.026,8.181,8.351,11.449,18.241,17.939,37.049,35.312,55.064,53.478,15.067,15.2,29.1,31.4,43.936,46.826,12.319,12.829,24.637,25.733,37.9,37.541,10.788,9.617,22.927,17.732,34.537,26.413a149.733,149.733,0,0,0,13.547,9.333c7.491,4.412,15.558,6.6,24.334,4.686,1.9,5.7-1.615,9.758-4.3,14.066l.009.009h-.018l.009-.009c-.9-.35-2.04-1.228-2.645-.945-9.806,4.629-16.22-2.465-23.04-6.981-12.139-8.02-23.881-16.664-37.031-25.94,4.015,5.318,7.075,9.758,10.542,13.849,7.633,9.012,15.776,17.627,23.135,26.856,4.223,5.319,4.619,10.439,2.966,16.532-7.992-2.777-13.707-8.323-19.025-14.435-7.605-8.757-14.624-18.137-22.927-26.176C238.7,255.531,225.245,236.279,210,218.5c-7.831-9.135-16.957-17.126-25.185-25.921-6.867-7.34-13.187-15.209-19.97-22.634a32.508,32.508,0,0,0-9.286-6.849c2.22,2.522,4.431,5.054,6.877,7.841-.935-.35-1.643-.624-2.342-.888-.341.283-.671.576-1.021.869,3.684,4.5,7.142,9.2,11.072,13.47,12.705,13.84,25.421,27.689,38.485,41.188,5.035,5.205,11.639,8.917,16.466,14.274,7.368,8.2,13.66,17.344,20.66,25.874,7.491,9.1,15.284,17.93,22.889,26.914a92.359,92.359,0,0,1,9.3,12.658C275.1,302.453,272.176,299.666,269.408,296.728Zm-4.771-62.565c-.491.529-.992,1.067-1.492,1.587l-64.483-60.4c.51-.548,1.03-1.105,1.549-1.644Zm93.078,65.418a23.222,23.222,0,0,1-29.256,13.367,22.866,22.866,0,0,0-3.788-1.408,25.376,25.376,0,0,0-4.4,0,29.828,29.828,0,0,0,.453,4.8c.539,2.2,1.408,4.336,1.162,6.981-1.417-2.739-2.4-5.895-4.412-8.1-1.908-2.059-4.9-3.108-8.171-5.035.123,1.956-.019,2.589.217,3.014,3.222,5.564,6.358,11.175,9.8,16.6,3.769,5.96,4.1,12.564.472,16.739-4.412,5.054-9.343,5.526-16.655,1.559-1-.548-1.955-1.2-2.937-1.805-6.141.907-9.4-.9-10.959-6.31-1.379-4.837-2.607-9.73-3.75-14.633a4.963,4.963,0,0,1,.973-3.675c2.947,3.08,5.347,5.82,5.2,10.722-.17,5.952,3.713,10.307,8.549,13.613,2.192.434,4.412,1.313,6.575,1.209,3.741-.208,7.454-1.03,11.166-1.587-.075-1.058-.141-2.125-.217-3.183-1.068.425-2.126,1.18-3.2,1.2-9.022.123-17.93-11.033-13.67-18.808,7.1-12.961,2.7-22.88-5.28-32.808a33.109,33.109,0,0,1-2.069-3.845c2.484.765,3.741,1.058,4.9,1.54,4.2,1.766,8.265,4.015,12.62,5.177,1.738.472,4.166-1.313,6.188-2.258,2.182-1.03,4.27-2.286,6.405-3.439-.237.369-.463.728-.709,1.087-.264.378-.519.746-.784,1.1-.378.548-.775,1.077-1.162,1.615-.264.4-.529.775-.774,1.153-.218.312-.426.633-.615.954a8.542,8.542,0,0,0-.425.746c-.1.18-.2.35-.292.52-.161.311-.3.623-.435.944a7.567,7.567,0,0,0-.359.907c-1.606,4.724,1.02,8.408,5.829,9.305,5.479,1.02,10.967,2.164,16.5,2.674a18.845,18.845,0,0,0,9.1-1.956c-9.173,3.618-15.323-4.874-23.22-5.724-.765-.085-2.144-1.465-2.012-1.861,1.181-3.77,2.107-7.756,4.147-11.044,1.644-2.664,4.421-5.139,8.389-3.023a64.836,64.836,0,0,0,12.328,5.262l-5.007-5.006c7.208.954,11.921,7.519,9.324,13.877C355.042,300.308,356.27,299.968,357.715,299.581Z" transform="translate(0)"/><path class="cls-1" d="M303.624,270.428a149.733,149.733,0,0,1-13.547-9.333c-11.61-8.681-23.749-16.8-34.537-26.413-13.263-11.808-25.581-24.712-37.9-37.541-14.84-15.426-28.869-31.627-43.936-46.826-18.015-18.166-36.823-35.539-55.064-53.478-3.325-3.268-5.6-7.6-8.351-11.449l.982-.756,21.114,21.113c.387-.368.774-.755,1.161-1.124-3.759-3.76-7.642-7.4-11.241-11.3-5.13-5.545-11.1-10.665-14.841-17.07-7.1-12.2-12.989-25.156-19.157-37.9-2.183-4.487-4.96-7.567-10.108-8.729-2.645-.6-5.186-2.484-7.293-4.345-3.543-3.127-10.779-4.657-15.313-2.711,1.814,8.18,7.434,13.348,14.123,14.519,2.805-2.239,4.43-4.6,6.159-4.685,3.023-.151,3.93,1.738,2.664,5.044-1,2.607-.662,5.744-.973,9.286-1.842-2.2-3.108-3.731-4.383-5.252,5,13.556,4.619,19.016-2.457,25.166,1.956-8.228-7.576-7.539-9.314-12.867C64.123,48.159,62.8,42.4,57.577,37.89c-2.711,2.088-5.47,4.223-9.334,7.217.813-2.4,1.087-3.24,1.351-4.014-2.673,1.2-5.158,2.229-7.548,3.448-1.095.566-2.522,1.332-2.881,2.333-1.653,4.676-2.985,9.465-4.43,14.2-2.438-3.684-3.344-7.179-4.8-10.448-4.006-9.012-10.675-12.262-17.231-7.33C6.433,48.017,1.2,54.252,2.531,64.463,6.47,59.41,9.852,55.083,14.094,49.67c-1.71,5.791-3.325,10.165-4.251,14.68C8.114,72.673,14.056,80.22,21.3,79.191c-.3.869-.6,1.691-.652,1.842q10.727-3.783,22.473-7.945c-3.06-.264-6.423-1.19-9.541-.661-3.079.529-5.9,2.522-8.842,3.854,2.088-3.127,4.837-5.177,6.651-7.859,2.522-3.694,5.8-3.515,8.52-1.625,8.852,6.168,18.913,7.141,28.992,7.51-1.644,3.193-3.438,6.121-4.7,9.267-1.606,3.987,1.625,5.347,4.412,5.98,1.672.387,5.328-.794,5.318-1.238-.094-6.953,6.84-5.838,9.466-9.938,2.078,6.254,3.259,11.365-.331,16.56-.708,1.03.331,4.223,1.54,5.451C89.1,104.952,94.22,108.9,98.7,113.473c12.9,13.2,25.591,26.592,38.41,39.883,4.317,4.487,8.832,8.8,13.074,13.358,10.051,10.769,19.9,21.746,29.993,32.487,9.466,10.051,19.4,19.687,28.652,29.936,12.356,13.7,24.136,27.934,36.4,41.726,7.84,8.823,16.078,17.287,24.183,25.865,2.768,2.938,5.687,5.725,8.53,8.568a92.359,92.359,0,0,0-9.3-12.658c-7.6-8.984-15.4-17.817-22.889-26.914-7-8.53-13.292-17.675-20.66-25.874-4.827-5.357-11.431-9.069-16.466-14.274-13.064-13.5-25.78-27.348-38.485-41.188-3.93-4.269-7.388-8.974-11.072-13.47.35-.293.68-.586,1.021-.869.7.264,1.407.538,2.342.888-2.446-2.787-4.657-5.319-6.877-7.841a32.508,32.508,0,0,1,9.286,6.849c6.783,7.425,13.1,15.294,19.97,22.634,8.228,8.795,17.354,16.786,25.185,25.921,15.247,17.779,28.7,37.031,45.637,53.44,8.3,8.039,15.322,17.419,22.927,26.176,5.318,6.112,11.033,11.658,19.025,14.435,1.653-6.093,1.257-11.213-2.966-16.532-7.359-9.229-15.5-17.844-23.135-26.856-3.467-4.091-6.527-8.531-10.542-13.849,13.15,9.276,24.892,17.92,37.031,25.94,6.82,4.516,13.234,11.61,23.04,6.981.605-.283,1.748.595,2.645.945,2.683-4.308,6.2-8.37,4.3-14.066C319.182,277.032,311.115,274.84,303.624,270.428ZM149.861,156.02,94.57,100.729c.378-.491.765-.973,1.152-1.474,2.315,1.5,4.648,3.005,6.972,4.5.2-.255.378-.51.576-.765q-5.838-7.113-11.676-14.246C115.116,107.521,132.7,131.544,149.861,156.02ZM48.121,66.542c7.17-.444,12.743-.784,18.1-1.115C62.357,72.181,62.357,72.181,48.121,66.542Zm196.31,162.1-1.3,1.587c-10.986-10.156-21.453-20.981-33.091-30.315-15.067-12.082-25.667-27.971-38.486-41.943-4.194-4.572-8.747-8.8-12.6-13.735C189.4,170.36,213.862,202.621,244.431,228.637ZM68.8,82.875c-.387-.538-.774-1.077-1.152-1.606,4.317-3.127,8.634-6.272,13.584-9.862-2.277.085-3.977.141-7.028.245,5.8-3.4,9.616-6.537,9.9-12.6.094-2.022,2.069-3.94,3.183-5.905.605.227,1.2.463,1.814.7-.246-2.929-.482-5.867-.718-8.786l1.134-.283c1.936,5.923,3.863,11.855,5.432,16.654-2.494,2.777-4.308,4.818-6.141,6.858.558-.1,1.134-.207,1.691-.311.208.321.406.633.614.954Q79.946,75.9,68.8,82.875Z" transform="translate(0)"/><path class="cls-1" d="M300.212,346.011c2.194.433,4.411,1.316,6.575,1.2,3.743-.2,7.452-1.019,11.176-1.578l-.228-3.179c-1.066.415-2.127,1.176-3.2,1.191-9.022.127-17.933-11.027-13.671-18.8,7.1-12.96,2.7-22.883-5.284-32.811a32.557,32.557,0,0,1-2.058-3.842c2.473.769,3.727,1.053,4.9,1.542,4.2,1.759,8.262,4.016,12.618,5.179,1.743.465,4.164-1.315,6.186-2.266,2.2-1.036,4.3-2.3,6.443-3.458h-.007c-1.913,3-4.473,5.781-5.585,9.054-1.6,4.722,1.023,8.41,5.831,9.309,5.479,1.024,10.966,2.157,16.5,2.671a18.923,18.923,0,0,0,9.095-1.954c-9.175,3.614-15.312-4.879-23.216-5.733-.769-.083-2.141-1.464-2.017-1.861,1.179-3.761,2.109-7.757,4.148-11.041,1.649-2.656,4.424-5.135,8.4-3.021a64.209,64.209,0,0,0,12.322,5.266q-2.505-2.5-5.007-5.015c7.213.958,11.917,7.523,9.332,13.883l4.252-1.167a23.208,23.208,0,0,1-29.251,13.372,23.251,23.251,0,0,0-3.785-1.408,25.389,25.389,0,0,0-4.4,0,30.532,30.532,0,0,0,.441,4.8c.546,2.211,1.421,4.34,1.173,6.982-1.43-2.738-2.4-5.9-4.423-8.092-1.9-2.062-4.9-3.107-8.161-5.041.12,1.951-.028,2.594.214,3.011,3.22,5.563,6.355,11.182,9.793,16.609,3.774,5.956,4.1,12.555.469,16.733-4.4,5.06-9.334,5.529-16.645,1.555-1.007-.547-1.959-1.195-2.937-1.8Z" transform="translate(0)"/><path class="cls-1" d="M82.606,21.829c6.935,2.354,9.9,8.008,12.888,13.219,6.826,11.913,12.8,24.321,19.818,36.113,3.719,6.252,8.893,11.638,12.847,17.878C113.961,80.845,105.017,68.3,99.45,53l4.377,6.915C100.244,45.524,91.858,33.93,82.606,21.829Z" transform="translate(0)"/><path class="cls-1" d="M263.144,235.757,198.66,175.351q.775-.826,1.55-1.652l64.428,60.465Z" transform="translate(0)"/><path class="cls-1" d="M300.2,346.3c-6.149.9-9.407-.9-10.955-6.314-1.382-4.839-2.611-9.726-3.756-14.628a4.961,4.961,0,0,1,.968-3.675c2.954,3.077,5.352,5.822,5.209,10.725-.174,5.946,3.718,10.3,8.548,13.605Z" transform="translate(0)"/><path d="M95.719,99.26l6.972,4.493.579-.765L91.591,88.743c23.529,18.775,41.11,42.8,58.262,67.278L122.5,128.666l-27.93-27.931Z" transform="translate(0)"/><path d="M243.124,230.225c-10.987-10.159-21.449-20.975-33.093-30.316-15.061-12.08-25.665-27.967-38.485-41.941-4.192-4.571-8.748-8.808-12.6-13.742,30.464,26.129,54.911,58.4,85.482,84.415Z" transform="translate(0)"/><path d="M74.2,71.659c5.8-3.4,9.616-6.535,9.9-12.61.095-2.013,2.067-3.938,3.181-5.9l1.813.7-.718-8.78,1.14-.279,5.433,16.648-6.144,6.858L90.5,67.98l.614.957L68.8,82.87l-1.151-1.6,13.58-9.86Z" transform="translate(0)"/><path d="M48.112,66.543l18.113-1.112C62.353,72.183,62.353,72.183,48.112,66.543Z" transform="translate(0)"/><path d="M268.511,29.982c-1.484,17.259-11.081,30.352-21.5,42.85-8.9,10.694-18.714,20.622-28.245,30.778-14.841,15.8-29.417,31.872-44.768,47.148-15.672,15.6-32.959,29.634-48.036,45.75-15.842,16.937-35.453,28.613-53.78,42.028C59.1,248.105,44.569,255.87,30.153,263.39c-12.016,6.272-18.024,15.7-20.074,28.633-1.955,12.346.973,16.352,13.537,17.07,2.135.132,4.317-.255,6.405.094,1.634.274,4.128.954,4.525,2.069,2.409,6.716,7.226,13.2,2.6,20.886a14.749,14.749,0,0,0-.123,15.994c.822,1.407,1.039,3.174,1.54,4.77l1.653,1.653c9.664,7.076,20.707,5.385,31.551,4.95,1.077-.037,2.145.01,3.231.019l7.454-7.453c-.558-5.432.5-11.761-1.965-16.116-7.68-13.537-5.243-26.139,7.4-35.076,3.674-2.6,6.159-7.179,8.568-11.213,3.249-5.441,4.846-12.195,9-16.692,14.151-15.341,28.9-30.144,43.8-44.758s30.1-28.869,45.363-43.058q29.983-27.887,60.288-55.4,20.235-18.393,40.828-36.388c11.081-9.664,22.757-18.279,38.561-18.1a14.807,14.807,0,0,0,6.188-1.559C345.9,71.208,353.03,54.232,351.32,48.4c-4.034-13.688-11.185-18.345-25.629-16.692-8.322.954-9.806-.264-10.325-8.87-.312-5.111-.85-9.919-4.771-13.934C301.168-.71,295.547-2.117,282.813,2.663L281.15,4.325C275.992,12.412,269.37,19.978,268.511,29.982ZM18.949,277.39c2.353-6.925,8.011-9.9,13.226-12.885,11.9-6.821,24.306-12.8,36.105-19.82,6.253-3.721,11.638-8.9,17.873-12.847-8.191,14.2-20.745,23.144-36.03,28.718,2.3-1.464,4.61-2.929,6.915-4.383C42.642,259.762,31.051,268.141,18.949,277.39Zm274.9-186.8c-8.577,8.105-17.041,16.343-25.864,24.183-13.793,12.262-28.029,24.042-41.726,36.4-10.25,9.249-19.885,19.186-29.937,28.652-10.74,10.1-21.717,19.942-32.487,29.993-4.562,4.242-8.87,8.757-13.357,13.074-13.292,12.819-26.687,25.515-39.884,38.41-4.572,4.478-8.521,9.6-13.083,14.085-1.228,1.209-4.421,2.248-5.451,1.54-5.2-3.59-10.306-2.409-16.56-.331,4.1,2.626,2.985,9.56,9.938,9.466.444-.01,1.625,3.646,1.237,5.318-.633,2.787-1.993,6.018-5.979,4.412-3.146-1.257-6.075-3.051-9.268-4.695-.368,10.079-1.341,20.14-7.51,28.992-1.889,2.72-2.068,6,1.625,8.52,2.683,1.814,4.733,4.563,7.86,6.651-1.332-2.938-3.325-5.763-3.854-8.842-.529-3.118.4-6.481.661-9.541q4.152,11.747,7.944,22.473c-.151-.056-.973-.349-1.842-.652,1.03,7.246-6.518,13.188-14.84,11.459-4.516-.926-8.89-2.541-14.68-4.251,5.413,4.242,9.739,7.624,14.793,11.563-10.212,1.332-16.447-3.9-21.17-10.174-4.931-6.556-1.681-13.225,7.331-17.231,3.268-1.455,6.763-2.361,10.448-4.8-4.733-1.445-9.522-2.777-14.2-4.43-1-.359-1.766-1.786-2.333-2.881-1.219-2.39-2.248-4.875-3.448-7.548.775.264,1.615.538,4.015,1.351-2.995-3.864-5.13-6.623-7.217-9.334,4.506-5.224,10.268-6.546,15.889-3.835,5.328-1.738,4.638-11.27,12.866-9.314-6.149-7.076-11.61-7.454-25.166-2.457,1.521-1.275,3.052-2.541,5.253-4.383-3.543-.311-6.679.029-9.286-.973-3.307-1.266-5.2-.359-5.045,2.664.085,1.729,2.447,3.354,4.686,6.159-1.172,6.689-6.339,12.309-14.52,14.123-1.946-4.534-.415-11.77,2.711-15.313,1.861-2.107,3.741-4.648,4.346-7.293,1.162-5.148,4.241-7.925,8.729-10.108,12.743-6.168,25.694-12.053,37.9-19.157C79.776,248.8,84.9,242.825,90.442,237.7c3.9-3.6,7.538-7.482,11.3-11.241.368.387.755.774,1.124,1.161L81.751,248.729c.255.33.5.651.755.982,3.845-2.749,8.181-5.026,11.45-8.351,17.939-18.241,35.311-37.049,53.477-55.064,15.2-15.067,31.4-29.1,46.827-43.936,12.829-12.319,25.733-24.637,37.541-37.9,9.617-10.788,17.731-22.927,26.413-34.537a149.938,149.938,0,0,0,9.333-13.547c4.412-7.491,6.6-15.558,4.686-24.334,5.7-1.9,9.758,1.615,14.066,4.3l.009-.009v.018l-.009-.009c-.35.9-1.228,2.04-.945,2.645,4.629,9.806-2.466,16.22-6.981,23.04-8.02,12.139-16.664,23.881-25.941,37.031,5.319-4.015,9.759-7.075,13.849-10.542,9.012-7.633,17.628-15.776,26.857-23.135,5.318-4.223,10.438-4.619,16.532-2.966-2.778,7.992-8.323,13.707-14.435,19.025-8.757,7.605-18.137,14.624-26.177,22.927C252.65,121.3,233.4,134.755,215.619,150c-9.135,7.831-17.127,16.957-25.922,25.185-7.34,6.867-15.209,13.187-22.634,19.97a32.527,32.527,0,0,0-6.849,9.286c2.523-2.22,5.054-4.431,7.841-6.877-.35.935-.623,1.643-.888,2.342.283.341.576.671.869,1.021,4.5-3.684,9.2-7.142,13.471-11.072,13.839-12.705,27.688-25.421,41.187-38.485,5.205-5.035,8.918-11.639,14.274-16.466,8.2-7.368,17.344-13.66,25.875-20.66,9.1-7.491,17.929-15.284,26.913-22.889a92.308,92.308,0,0,1,12.659-9.3C299.571,84.905,296.784,87.824,293.846,90.592Zm-62.565,4.771c.529.491,1.068.992,1.587,1.492l-60.4,64.483c-.548-.51-1.106-1.03-1.644-1.549ZM296.7,2.285a23.222,23.222,0,0,1,13.367,29.256,22.951,22.951,0,0,0-1.407,3.788,25.376,25.376,0,0,0,0,4.4,29.828,29.828,0,0,0,4.8-.453c2.2-.539,4.336-1.408,6.981-1.162-2.74,1.417-5.9,2.4-8.1,4.412-2.059,1.908-3.108,4.9-5.035,8.171,1.955-.123,2.588.019,3.013-.217,5.564-3.222,11.176-6.358,16.6-9.8,5.961-3.769,12.564-4.1,16.739-.472,5.054,4.412,5.527,9.343,1.559,16.655-.548,1-1.2,1.955-1.8,2.937.907,6.141-.9,9.4-6.31,10.959-4.837,1.379-9.73,2.607-14.633,3.75a4.961,4.961,0,0,1-3.675-.973c3.08-2.947,5.819-5.347,10.722-5.2,5.951.17,10.306-3.713,13.612-8.549.435-2.192,1.314-4.412,1.21-6.575-.208-3.741-1.03-7.454-1.587-11.166-1.058.075-2.126.141-3.184.217.425,1.068,1.181,2.126,1.2,3.2.123,9.022-11.034,17.93-18.808,13.67-12.961-7.1-22.88-2.7-32.809,5.28a33.153,33.153,0,0,1-3.844,2.069c.765-2.484,1.058-3.741,1.539-4.9,1.767-4.2,4.015-8.265,5.177-12.62.473-1.738-1.313-4.166-2.258-6.188-1.029-2.182-2.286-4.27-3.438-6.405.368.237.727.463,1.086.709.378.264.747.519,1.1.784.548.378,1.077.775,1.616,1.162.4.264.775.529,1.152.774.312.218.633.426.954.615a8.558,8.558,0,0,0,.747.425c.179.1.349.2.519.292.312.161.624.3.945.435a7.5,7.5,0,0,0,.907.359c4.723,1.606,8.407-1.02,9.305-5.829,1.02-5.479,2.163-10.967,2.673-16.5a18.832,18.832,0,0,0-1.955-9.1c3.618,9.173-4.875,15.323-5.725,23.22-.085.765-1.464,2.144-1.861,2.012-3.769-1.181-7.756-2.107-11.043-4.147-2.664-1.644-5.139-4.421-3.023-8.389a64.9,64.9,0,0,0,5.262-12.328l-5.007,5.007c.954-7.208,7.52-11.921,13.877-9.324C297.427,4.958,297.087,3.73,296.7,2.285Z" transform="translate(0)"/><path class="cls-1" d="M267.547,56.376a149.938,149.938,0,0,1-9.333,13.547c-8.682,11.61-16.8,23.749-26.413,34.537-11.808,13.263-24.712,25.581-37.541,37.9-15.426,14.84-31.627,28.869-46.827,43.936-18.166,18.015-35.538,36.823-53.477,55.064-3.269,3.325-7.605,5.6-11.45,8.351-.255-.331-.5-.652-.755-.982l21.113-21.114c-.369-.387-.756-.774-1.124-1.161-3.76,3.759-7.4,7.642-11.3,11.241-5.546,5.13-10.666,11.1-17.071,14.841-12.2,7.1-25.156,12.989-37.9,19.157-4.488,2.183-7.567,4.96-8.729,10.108-.6,2.645-2.485,5.186-4.346,7.293-3.126,3.543-4.657,10.779-2.711,15.313,8.181-1.814,13.348-7.434,14.52-14.123-2.239-2.805-4.6-4.43-4.686-6.159-.151-3.023,1.738-3.93,5.045-2.664,2.607,1,5.743.662,9.286.973-2.2,1.842-3.732,3.108-5.253,4.383,13.556-5,19.017-4.619,25.166,2.457-8.228-1.956-7.538,7.576-12.866,9.314-5.621-2.711-11.383-1.389-15.889,3.835,2.087,2.711,4.222,5.47,7.217,9.334-2.4-.813-3.24-1.087-4.015-1.351,1.2,2.673,2.229,5.158,3.448,7.548.567,1.095,1.332,2.522,2.333,2.881,4.677,1.653,9.466,2.985,14.2,4.43-3.685,2.438-7.18,3.344-10.448,4.8-9.012,4.006-12.262,10.675-7.331,17.231,4.723,6.272,10.958,11.506,21.17,10.174-5.054-3.939-9.38-7.321-14.793-11.563,5.79,1.71,10.164,3.325,14.68,4.251,8.322,1.729,15.87-4.213,14.84-11.459.869.3,1.691.6,1.842.652q-3.783-10.726-7.944-22.473c-.265,3.06-1.19,6.423-.661,9.541.529,3.079,2.522,5.9,3.854,8.842-3.127-2.088-5.177-4.837-7.86-6.651-3.693-2.522-3.514-5.8-1.625-8.52,6.169-8.852,7.142-18.913,7.51-28.992,3.193,1.644,6.122,3.438,9.268,4.695,3.986,1.606,5.346-1.625,5.979-4.412.388-1.672-.793-5.328-1.237-5.318-6.953.094-5.838-6.84-9.938-9.466,6.254-2.078,11.364-3.259,16.56.331,1.03.708,4.223-.331,5.451-1.54,4.562-4.487,8.511-9.607,13.083-14.085,13.2-12.9,26.592-25.591,39.884-38.41,4.487-4.317,8.8-8.832,13.357-13.074,10.77-10.051,21.747-19.9,32.487-29.993,10.052-9.466,19.687-19.4,29.937-28.652,13.7-12.356,27.933-24.136,41.726-36.4,8.823-7.84,17.287-16.078,25.864-24.183,2.938-2.768,5.725-5.687,8.569-8.53a92.308,92.308,0,0,0-12.659,9.3c-8.984,7.605-17.816,15.4-26.913,22.889-8.531,7-17.675,13.292-25.875,20.66-5.356,4.827-9.069,11.431-14.274,16.466-13.5,13.064-27.348,25.78-41.187,38.485-4.27,3.93-8.974,7.388-13.471,11.072-.293-.35-.586-.68-.869-1.021.265-.7.538-1.407.888-2.342-2.787,2.446-5.318,4.657-7.841,6.877a32.527,32.527,0,0,1,6.849-9.286c7.425-6.783,15.294-13.1,22.634-19.97,8.795-8.228,16.787-17.354,25.922-25.185,17.778-15.247,37.031-28.7,53.439-45.637,8.04-8.3,17.42-15.322,26.177-22.927,6.112-5.318,11.657-11.033,14.435-19.025-6.094-1.653-11.214-1.257-16.532,2.966-9.229,7.359-17.845,15.5-26.857,23.135-4.09,3.467-8.53,6.527-13.849,10.542,9.277-13.15,17.921-24.892,25.941-37.031,4.515-6.82,11.61-13.234,6.981-23.04-.283-.6.6-1.748.945-2.645-4.308-2.683-8.37-6.2-14.066-4.3C274.15,40.818,271.959,48.885,267.547,56.376ZM153.139,210.139,97.848,265.43c-.492-.378-.973-.765-1.474-1.152,1.5-2.315,3-4.648,4.5-6.972-.255-.2-.51-.378-.766-.576q-7.113,5.838-14.245,11.676C104.64,244.884,128.663,227.3,153.139,210.139ZM63.66,311.879c-.444-7.17-.784-12.743-1.114-18.1C69.3,297.643,69.3,297.643,63.66,311.879Zm162.1-196.31,1.587,1.3c-10.155,10.986-20.981,21.453-30.314,33.091-12.082,15.067-27.972,25.667-41.943,38.486-4.572,4.194-8.8,8.747-13.736,12.6C167.479,170.6,199.739,146.138,225.755,115.569ZM79.994,291.2c-.539.387-1.077.774-1.606,1.152-3.127-4.317-6.273-8.634-9.863-13.584.085,2.277.142,3.977.246,7.028-3.4-5.8-6.537-9.616-12.6-9.9-2.021-.094-3.939-2.069-5.9-3.183.227-.605.463-1.2.7-1.814-2.928.246-5.866.482-8.785.718q-.142-.567-.284-1.134c5.923-1.936,11.856-3.863,16.655-5.432,2.777,2.494,4.817,4.308,6.858,6.141-.1-.558-.208-1.134-.312-1.691.321-.208.633-.406.954-.614Q73.022,280.054,79.994,291.2Z" transform="translate(0)"/><path class="cls-1" d="M343.129,59.788c.434-2.194,1.317-4.411,1.2-6.575-.2-3.743-1.018-7.452-1.577-11.176l-3.18.228c.415,1.066,1.176,2.127,1.191,3.2.127,9.022-11.026,17.933-18.8,13.671-12.96-7.1-22.883-2.7-32.811,5.284a32.6,32.6,0,0,1-3.843,2.058c.77-2.473,1.054-3.727,1.543-4.9,1.759-4.2,4.016-8.262,5.178-12.618.466-1.743-1.315-4.164-2.266-6.186-1.036-2.2-2.3-4.3-3.458-6.443v.007c3,1.913,5.782,4.473,9.055,5.585,4.722,1.6,8.409-1.023,9.308-5.831,1.025-5.479,2.157-10.966,2.671-16.5a18.911,18.911,0,0,0-1.954-9.095C309,19.672,300.5,25.809,299.65,33.713c-.083.769-1.463,2.141-1.86,2.017-3.761-1.179-7.757-2.109-11.041-4.148-2.656-1.649-5.136-4.424-3.022-8.4a64.274,64.274,0,0,0,5.267-12.322q-2.5,2.5-5.015,5.007c.958-7.213,7.522-11.917,13.882-9.332-.434-1.584-.77-2.809-1.167-4.252a23.208,23.208,0,0,1,13.372,29.251,23.246,23.246,0,0,0-1.407,3.785,25.29,25.29,0,0,0,0,4.4,30.543,30.543,0,0,0,4.8-.441c2.21-.546,4.34-1.421,6.981-1.173-2.738,1.43-5.9,2.4-8.092,4.423-2.062,1.9-3.106,4.9-5.04,8.161,1.951-.12,2.594.028,3.011-.214,5.563-3.22,11.182-6.355,16.609-9.793,5.956-3.774,12.554-4.1,16.733-.469,5.06,4.4,5.528,9.334,1.555,16.645-.548,1.007-1.2,1.959-1.8,2.937Z" transform="translate(0)"/><path class="cls-1" d="M18.947,277.394c2.354-6.935,8.008-9.9,13.22-12.888,11.912-6.826,24.32-12.8,36.113-19.818,6.251-3.719,11.637-8.893,17.877-12.847-8.193,14.2-20.741,23.142-36.035,28.709l6.915-4.377C42.643,259.756,31.049,268.142,18.947,277.394Z" transform="translate(0)"/><path class="cls-1" d="M232.876,96.856,172.469,161.34l-1.652-1.55,60.466-64.428Z" transform="translate(0)"/><path class="cls-1" d="M343.416,59.8c.9,6.149-.9,9.407-6.313,10.955-4.84,1.382-9.727,2.611-14.628,3.756a4.96,4.96,0,0,1-3.675-.968c3.077-2.954,5.822-5.352,10.725-5.209,5.946.174,10.3-3.718,13.6-8.548Z" transform="translate(0)"/><path d="M96.378,264.281l4.494-6.972-.766-.579L85.861,268.409c18.775-23.529,42.8-41.11,67.279-58.262L125.784,237.5l-27.93,27.93Z" transform="translate(0)"/><path d="M227.344,116.876c-10.16,10.987-20.976,21.449-30.316,33.093-12.08,15.061-27.967,25.665-41.942,38.485-4.57,4.192-8.807,8.748-13.741,12.6,26.128-30.464,58.4-54.911,84.414-85.482Z" transform="translate(0)"/><path d="M68.777,285.8c-3.4-5.8-6.534-9.616-12.61-9.9-2.013-.095-3.938-2.067-5.9-3.181l.7-1.813-8.78.718-.28-1.14,16.648-5.433,6.859,6.144L65.1,269.5l.956-.614L79.989,291.2l-1.6,1.151c-3.136-4.318-6.271-8.636-9.86-13.58Z" transform="translate(0)"/><path d="M63.661,311.888,62.55,293.775C69.3,297.647,69.3,297.647,63.661,311.888Z" transform="translate(0)"/><path d="M263.649,154.441c3.8-13.864,4.172-27.559-1.016-41.29-4.229-11.206-10.518-21.062-17.858-30.4-7.083-9-15.8-15.679-26.685-19.335-4.891-1.642-9.9-2.925-14.787-4.558-12-3.994-24.262-4.123-36.564-2.286-5.436.813-10.753,2.521-16.074,3.995-11.591,3.213-22.606,7.721-30.874,16.841A117.712,117.712,0,0,0,98.05,110.874,58.338,58.338,0,0,0,93.5,135.256c.169,7.26,2.13,14.121,4.189,20.973a51.814,51.814,0,0,1,2.02,22.292,165.686,165.686,0,0,0-1.6,19.815,37.5,37.5,0,0,0,3.737,17.6c2.343,4.66,5.858,7.811,11.241,8.223,5.631.431,7.877,3.759,8.347,8.135.577,5.405.608,10.873.875,16.313-.125,0-.249.009-.369.018,0,2.29,0,4.585,0,6.875.014,11.325,4.008,20.733,13.247,27.647,3.9,2.921,8.184,5.486,11.534,8.947,10.248,10.58,23.166,12.644,36.91,12.457a36.274,36.274,0,0,0,5.459-.865c7.531-1.265,14.649-3.475,20.339-8.938,1.331-1.274,2.622-2.6,4.047-3.759,4.522-3.674,9.3-7.056,13.6-10.97,6.257-5.7,9.852-12.821,9.834-21.5-.017-6.644-.155-13.3.031-19.935a45.861,45.861,0,0,1,1.305-9.16c.555-2.37,2.006-4.38,4.731-4.678a12.251,12.251,0,0,0,7.438-3.6c9.488-9.431,13.393-20.716,10.052-33.87-1.66-6.524-2.3-12.892-.533-19.416C261.151,163.383,262.42,158.919,263.649,154.441ZM122.1,220.117c-.164-.178-.328-.351-.492-.528q3.414-3.2,6.834-6.408c.137.146.275.3.417.448Q125.481,216.871,122.1,220.117Zm112.385,28.8c1.083,8.943-1.216,17.139-4.407,25.216a11.5,11.5,0,0,1-3.306,4.088c-3.582,3.088-7.318,6-11,8.964a1.228,1.228,0,0,1-1.185.191q1.419-1.878,2.827-3.763c-.08-.129-.164-.258-.244-.387a28.838,28.838,0,0,0-3.053,2.344,41.709,41.709,0,0,0-4.305,4.766c-5.032,6.861-11.858,10.167-20.236,10.669-2.574.155-5.148.976-7.687.847a180.166,180.166,0,0,1-18.049-1.615c-6.408-.981-10.837-5.4-15-9.994-1.687-1.86-3.218-3.861-4.886-5.734a19.134,19.134,0,0,0-2.193-1.855l-.461.475c.95,1.313,1.895,2.627,2.884,3.994-.324.075-.51.173-.572.124-4.367-3.634-8.791-7.2-13.034-10.97a10.279,10.279,0,0,1-2.379-3.932,59.458,59.458,0,0,1-3.461-27c.546-6.319,1.22-12.665-1.039-18.843a2.607,2.607,0,0,1-.013-.834l.577-.147c.541,1.842,1.065,3.688,1.633,5.521.213.688.319,1.642.817,1.975,2.8,1.886,3.434,4.819,4.153,7.784.733,3.049,1.58,6.071,2.379,9.106.324-.066.644-.128.963-.195-.839-4.677-1.473-9.4-2.578-14.019-1.128-4.691-2.721-9.266-3.994-13.509,4.992,5.747,6.656,13.012,7.8,20.783.821,5.556,3.581,10.832,5.538,16.211a3.206,3.206,0,0,0,1.549,1.509q-1.731-5.272-3.461-10.553c.191-.067.381-.133.572-.2.639,1.606,1.19,3.257,1.962,4.8a8.8,8.8,0,0,0,1.744,1.864,8.659,8.659,0,0,0,.208-2.458,50.193,50.193,0,0,1-1.158-6.289q2.23,6.444,4.465,12.892c.324-.062.652-.124.976-.191v-7.18c2.3,1.478,4.149,2.667,6,3.856.036-.124.151-.5.333-1.127.7.954,1.287,1.766,2.037,2.8.213-.453.369-.79.528-1.127q2.75,1.83,5.508,3.666v0a.144.144,0,0,0,.04.022l0,0c-.009-.014-.026-.027-.035-.04l1.935,1.486c.186-.434.364-.852.643-1.5.786.981,1.456,1.82,2.215,2.769.2-.594.368-1.1.665-1.988,1.225,1.531,2.25,2.814,3.626,4.527.151-1.23.244-1.971.408-3.244l3.391,3.142c.164-.5.373-1.119.7-2.126.595,1.149,1.061,2.046,1.678,3.24.639-1.487,1.176-2.734,1.709-3.981.208,0,.417,0,.63,0,.466,1.172.932,2.348,1.531,3.852.594-1,1.14-1.917,1.873-3.146.23.918.39,1.54.559,2.2,1.123-1.051,2.165-2.032,3.55-3.328.142,1.238.231,1.993.373,3.226,1.278-1.5,2.356-2.751,3.59-4.193.231.736.373,1.193.577,1.846.857-.946,1.615-1.784,2.272-2.5.586.523,1.056.945,1.522,1.362.342-.381.679-.763,1.021-1.149.573-1.478,1.895-1.624,3.209-2.028,1.02-.315,1.335-2.579,3.106-1.079.542-.71,1.079-1.411,1.7-2.232.169.479.293.839.369,1.052,1.837-1.283,3.67-2.561,5.667-3.959,1.713,2.357.386,5,.381,7.514l.662.106q1.471-6.69,2.942-13.385c.138.027.271.049.408.076-.572,3.124-1.14,6.244-1.713,9.4.963.094,1.491-1.992,2.517-.328.616-.679,1.5-1.26,1.81-2.064,1.074-2.729,1.944-5.538,3.009-8.285-.013,5.205-3.39,9.417-4.029,14.578q1.644-2.55,3.292-5.1a.457.457,0,0,1,.036-.058l-.009,0,0,0c-.018.022-.058.066-.058.066.288-.905.524-1.832.874-2.716a57.685,57.685,0,0,0,4.07-16.93c.43-5.716,3.847-10.065,6.918-14.583a123.408,123.408,0,0,0-6.967,28.185l.688.253c.643-1.784,1.424-3.537,1.9-5.365.479-1.847.461-3.835,1.02-5.65.458-1.5,1.11-3.262,2.264-4.136a7.743,7.743,0,0,0,2.889-4.966c.306-1.4.812-2.751,1.229-4.127.24.062.475.12.71.177a42.742,42.742,0,0,0-1.26,6.71C234.186,238.334,233.858,243.691,234.488,248.914ZM135.2,216.5c6.537,1.141,11.081,11.934,10.926,21.351C144.616,229.729,142.682,221.8,135.2,216.5ZM150,246.553c-1.913-1.93-1.944-3.7-.306-6.026C151.81,242.6,149.29,244.383,150,246.553Zm4.154,2.006a10.6,10.6,0,0,1-2.219-2.5c-.706-1.638-.089-3.147,1.788-4.846.52,2.547.95,4.673,1.381,6.8C154.788,248.2,154.473,248.377,154.158,248.559Zm1.784,1.975a5.091,5.091,0,0,1,.493,1.908,20.588,20.588,0,0,1-.963,3.129c-.209.044-.413.089-.622.129a26.228,26.228,0,0,1-.226-3.9C154.655,251.351,155.48,250.956,155.942,250.534Zm-4.03,3.142c-.341-1.535-.679-3.075-1.087-4.917C153.315,249.624,153.51,250.445,151.912,253.676Zm7.651-3.55a3.266,3.266,0,0,1-2.982-3.2c-.173-1.757.209-3.359,2.117-4.274C160.992,244.911,159.4,247.472,159.563,250.126Zm.213,3.346c-.151,1.349-.515,2.68-.843,4.234-1.531-1.287-2.059-3.764-1.154-4.953.253-.328.972-.679,1.212-.546A1.648,1.648,0,0,1,159.776,253.472Zm6.63-2.4c-.9-2.774,1.394-4.229,2.916-6.191,1.62,2.281,1.931,4.917,1.163,8.938A4.044,4.044,0,0,1,166.406,251.071Zm3.3,11.8c-1.851-1.913-1.727-4.11-1.5-6.373C170.223,257.044,170.618,258.7,169.7,262.876Zm-2.818-1.771c-2.375-1.282-2.912-3.355-1.727-6.2C167.835,256.543,166.313,258.917,166.886,261.105ZM164.76,252c-.2.164-.408.328-.608.492-.87-.874-2.046-1.606-2.534-2.658-.852-1.824.422-4.487,2.7-6.186C166.633,246.469,163.562,249.305,164.76,252Zm-2.609,1.668c.43.284.967.786,1,1.234.115,1.673.049,3.364.049,5.259-2.073-1.087-3.138-4.376-2.073-6.071C161.294,253.818,161.969,253.547,162.151,253.667Zm15.6.706c-.084.377-.959.95-1.216.839-1.087-.457-2.667-.937-2.969-1.793a8,8,0,0,1-.035-4.656c.568-1.921,1.73-3.67,2.906-6.031C178.748,246.877,178.637,250.6,177.754,254.373Zm.431,3.936c.035,1.793-.111,3.586-.191,5.383l-1.23.16c-.381-1.788-.852-3.568-1.065-5.379-.044-.35.857-.967,1.429-1.167C177.35,257.226,178.176,257.945,178.185,258.309Zm-4.394-.368c.289,1.78.364,3.6.541,5.689-2.471-1.491-3.554-3.843-2.818-5.822.169-.457.688-.786,1.048-1.172C172.988,257.067,173.711,257.453,173.791,257.941Zm12.147-5.765c-.214,2.206-1.638,2.836-3.413,3.036a1.751,1.751,0,0,1-1.389-.99c-.453-3.666-.591-7.331,1.247-11.215C184.611,245.968,186.275,248.63,185.938,252.176Zm.834,4.5c1.629,2.281,1.016,4.85-1.633,6.852C184.424,260.968,185.276,257.386,186.772,256.672Zm-3.324,1.992c-.32,1.762-.83,3.484-1.269,5.224-.4-.023-.8-.045-1.194-.062,0-1.9-.067-3.808.071-5.7.022-.288,1.016-.732,1.518-.679A1.512,1.512,0,0,1,183.448,258.664Zm13.961-5.281c1.585,2.969,1.061,5.423-1.739,7.07C196.673,258,194.831,255.34,197.409,253.383Zm.36-4.123a3.276,3.276,0,0,1-3.031,2.978c-.173-1.469-.4-2.858-.484-4.256-.084-1.349-.018-2.711-.018-4.322C196.744,245.084,198.057,247.312,197.769,249.26Zm-4.953,11.77c-1.043-3.142-.812-4.474.985-5.7C195.2,257.124,194.809,259.357,192.816,261.03Zm-.381-9.963c-.3,2.019-1.842,2.671-4.407,2.933.337-3.28.639-6.244.985-9.67C191.849,246.327,192.825,248.439,192.435,251.067Zm-1.367,7.1c-.311,1.66-.835,3.275-1.283,4.9-.235-.062-.47-.125-.71-.187,0-1.673-.093-3.355.062-5.01.045-.462.817-.857,1.252-1.283C190.633,257.115,191.156,257.7,191.068,258.163Zm16.22-12.329c-.151,1.048-1.327,1.944-2.046,2.907l-1.123-.457q.513-3.142,1.021-6.284c.435-.031.87-.058,1.305-.089C206.764,243.225,207.466,244.592,207.288,245.834Zm1.065,3.347c-.484,1.832-.865,3.279-1.251,4.726C205.509,250.388,205.708,249.589,208.353,249.181Zm-4.1,1.193v5.25C202.158,252.176,202.211,251.311,204.257,250.374Zm-1.624-3.213c-.24,1.167-1.5,2.126-2.3,3.182-.205-.137-.409-.279-.608-.417-.111-2.348-1.469-4.793.656-7.087A3.745,3.745,0,0,1,202.633,247.161Zm-2.361,10.78a39.069,39.069,0,0,1-.879-4.039c-.062-.5.4-1.074.617-1.615.484.311,1.216.515,1.407.954A3.571,3.571,0,0,1,200.272,257.941Zm8.387-16.851c2.521,1.6,2.6,3.422.595,5.508C209.023,244.468,208.841,242.777,208.659,241.09Zm15.755-24.71c-6.124,5.188-7.336,7.363-10.877,19.292C212.977,229.068,217.438,218.528,224.414,216.38Zm13.393,4.7q-2.835-2.8-5.68-5.6c.12-.128.24-.253.359-.381q2.943,2.736,5.889,5.467C238.185,220.747,238,220.916,237.807,221.084Zm18.48-74.547q-1.065,4.068-2.135,8.13c-.195-5.166,1.607-9.83,2.92-14.756a45.143,45.143,0,0,0-2.822,5.2,50.212,50.212,0,0,0-2.881,23.743c.577,5.623,1.953,11.161,2.934,16.744a16.92,16.92,0,0,0,1.109,4.553c.085-1.451.169-2.9.28-4.832,2.716,6.19,3.8,12.137,2.321,18.39-1.114,4.709-2.685,9.235-6.035,12.9-4.323,4.726-8.446,4.93-13.23.679a19.919,19.919,0,0,1-2.933-3.12q3.189,1.824,6.373,3.639c.128-.227.261-.453.39-.679-3.51-2.805-6.413-6.573-11.618-6.666a8.4,8.4,0,0,1-3.142-.932c-7.323-3.279-15.378-.568-19.425,7.016,1.283-.63,2.144-1.051,3.435-1.686-1,1.593-1.757,2.809-2.556,4.087,1.9,1.345,2.862-.781,4.38-.909-.1.466-.217,1.038-.47,2.25,1.429-1.527,2.409-2.57,3.386-3.613.128.076.262.151.39.226-1.966,3.506-3.932,7.017-5.751,10.261-2.068-2.627-4.4-5.6-7.088-9.018-.239,3.706,3.111,4.908,4.1,8.068-.839-.781-1.243-1.158-1.651-1.535l-.5.239c2.352,4.638,5.947,8.912,4.833,15.262-1.1-1.558-1.864-2.64-3.009-4.265v5.068c-.239.076-.483.147-.728.222-.8-1.318-1.6-2.631-2.6-4.265-.195,1.137-.359,2.06-.506,2.987-.155.985-.293,1.975-.439,2.965-.191.08-.382.155-.572.235-1.225-1.487-2.45-2.969-3.733-4.522-.306,1.762-.63,3.612-1.078,6.2-1.855-2.108-3.231-3.674-4.642-5.276-.244,1.766-.5,3.581-.759,5.4-.24.066-.484.137-.723.208-1.279-1.873-2.557-3.745-3.879-5.685-.164,1.931-.333,3.914-.546,6.417-2.867-3.093-5.112-5.893-5.893-9.776q-.827,3.861-1.656,7.722c-.359.017-.719.031-1.078.049-.515-2.463-1.034-4.926-1.514-7.216-1.708,2.911-3.457,5.9-5.2,8.889-.275-.058-.55-.111-.821-.165-.178-2.037-.36-4.069-.542-6.159q-1.876,2.909-3.754,5.831c-.257-.013-.515-.031-.772-.044-.284-1.855-.568-3.715-.861-5.628-1.345,1.523-2.734,3.1-4.118,4.669-.227-.075-.453-.155-.675-.231-.3-1.784-.6-3.572-.923-5.489q-1.791,2.3-3.6,4.646c-.213-.035-.422-.066-.63-.1-.311-1.948-.626-3.9-.994-6.19-.941,1.624-1.736,2.991-2.725,4.7v-6.155c-.182-.009-.364-.022-.546-.036q-1.324,2.184-2.645,4.367c-2.09-8.871,4.393-14.831,7.407-21.927-.262-.107-.52-.213-.781-.315-.826,1.509-1.651,3.018-2.552,4.668-.178-.528-.306-.923-.564-1.7-.563,1.07-1.025,1.855-1.407,2.676-1.114,2.388-3.022,2.694-4.5.506a35.272,35.272,0,0,1-3.9-7.637c1.07,1.242,2.14,2.485,3.635,4.224-.319-1.144-.47-1.686-.617-2.218l4.283,1.575c.137-.151.275-.306.417-.457-.808-1.349-1.611-2.7-2.658-4.451,1.216.736,2.09,1.265,2.96,1.793.128-.085.257-.165.386-.244a16.438,16.438,0,0,0-1.363-2.543,14.847,14.847,0,0,0-16.131-4.891c-2.45.75-4.975,1.265-7.474,1.851-3.812.9-6.066,3.941-8.951,6.115.124.209.249.417.377.63l5.636-3.075c-1.943,2.432-4.025,4.779-7.131,5.6-3.342.883-5.925-.746-7.957-3.222a30.923,30.923,0,0,1-6.866-18.573c-.2-3.883.169-7.65,2.667-11.392.293,1.132.5,1.918.653,2.517.63-1.407,1.38-2.92,1.957-4.5.155-.421-.5-1.171-.315-1.544,1.313-2.7,1.54-5.73,2.618-8.45.311-.781,2.232-.919,3.5-1.66-1.083-.066-2.161-.128-3.4-.2.329-11.415.972-22.926-6.106-32.983.741,2.2,1.478,4.407,2.41,7.176-.768-.617-1.1-.878-1.709-1.371-.848,6.346.95,12.24.936,18.573-.421-.475-1.087-.888-1.233-1.438-1.061-3.981-2.228-7.953-2.969-12-1.531-8.317-2.011-16.691-.324-25.119q.139,1.717.271,3.426h.319v-5.911c.262.732.377,1.056.5,1.385,1.695-15.542,8.645-28.318,19.864-39.116q-1.57,1.051-3.142,2.1c5.942-8.933,14.956-13.877,24.413-18.807-.817-.085-1.332-.138-2.419-.253a36.016,36.016,0,0,1,3.4-1.261,64.749,64.749,0,0,0,11.223-3.8c4.642-2.126,9.786-3.187,14.752-4.54,2.769-.759,5.658-1.074,8.441-1.784,3.324-.848,6.457.142,9.563.878,5.805,1.372,11.7,2.6,17.259,4.682,4.74,1.78,9.306,4.008,14.281,5.153a4.277,4.277,0,0,1,1.771,1.011c-.488-.044-.972-.093-1.846-.177,4.744,2.9,9.151,5.525,13.5,8.254s8.184,6.049,10.6,10.833q-1.185-.9-2.37-1.815c-.12.1-.239.2-.359.3a25.735,25.735,0,0,0,2.192,2.637c9.32,8.631,14.432,19.46,16.584,31.815.533,3.044.835,6.128,1.336,9.883.3-1.474.475-2.366.653-3.258,2.374,14.321-.821,27.968-4.8,41.526q.705-10.99,1.411-22C256.793,146.652,256.54,146.6,256.287,146.537Z" transform="translate(0)"/><path class="cls-1" d="M168.945,193.641l0,0,0-.009S168.945,193.636,168.945,193.641Zm86.467-3.489A16.92,16.92,0,0,1,254.3,185.6c-.981-5.583-2.357-11.121-2.934-16.744a50.212,50.212,0,0,1,2.881-23.743,45.143,45.143,0,0,1,2.822-5.2c-1.313,4.926-3.115,9.59-2.92,14.756q1.072-4.067,2.135-8.13c.253.058.506.115.754.173q-.7,11-1.411,22c3.981-13.558,7.176-27.205,4.8-41.526-.178.892-.355,1.784-.653,3.258-.5-3.755-.8-6.839-1.336-9.883-2.152-12.355-7.264-23.184-16.584-31.815a25.735,25.735,0,0,1-2.192-2.637c.12-.1.239-.195.359-.3q1.185.912,2.37,1.815c-2.414-4.784-6.244-8.094-10.6-10.833s-8.751-5.356-13.5-8.254c.874.084,1.358.133,1.846.177a4.277,4.277,0,0,0-1.771-1.011c-4.975-1.145-9.541-3.373-14.281-5.153-5.56-2.086-11.454-3.31-17.259-4.682-3.106-.736-6.239-1.726-9.563-.878-2.783.71-5.672,1.025-8.441,1.784-4.966,1.353-10.11,2.414-14.752,4.54a64.749,64.749,0,0,1-11.223,3.8,36.016,36.016,0,0,0-3.4,1.261c1.087.115,1.6.168,2.419.253-9.457,4.93-18.471,9.874-24.413,18.807q1.57-1.052,3.142-2.1c-11.219,10.8-18.169,23.574-19.864,39.116-.12-.329-.235-.653-.5-1.385v5.911h-.319q-.133-1.71-.271-3.426c-1.687,8.428-1.207,16.8.324,25.119.741,4.047,1.908,8.019,2.969,12,.146.55.812.963,1.233,1.438.014-6.333-1.784-12.227-.936-18.573.613.493.941.754,1.709,1.371-.932-2.769-1.669-4.975-2.41-7.176,7.078,10.057,6.435,21.568,6.106,32.983,1.243.071,2.321.133,3.4.2-1.265.741-3.186.879-3.5,1.66-1.078,2.72-1.305,5.747-2.618,8.45-.182.373.47,1.123.315,1.544-.577,1.576-1.327,3.089-1.957,4.5-.155-.6-.36-1.385-.653-2.517-2.5,3.742-2.862,7.509-2.667,11.392a30.923,30.923,0,0,0,6.866,18.573c2.032,2.476,4.615,4.105,7.957,3.222,3.106-.826,5.188-3.173,7.131-5.6L117.3,217.2c-.128-.213-.253-.421-.377-.63,2.885-2.174,5.139-5.219,8.951-6.115,2.5-.586,5.024-1.1,7.474-1.851A14.847,14.847,0,0,1,149.48,213.5a16.438,16.438,0,0,1,1.363,2.543c-.129.079-.258.159-.386.244-.87-.528-1.744-1.057-2.96-1.793,1.047,1.753,1.85,3.1,2.658,4.451-.142.151-.28.306-.417.457l-4.283-1.575c.147.532.3,1.074.617,2.218-1.5-1.739-2.565-2.982-3.635-4.224a35.272,35.272,0,0,0,3.9,7.637c1.482,2.188,3.39,1.882,4.5-.506.382-.821.844-1.606,1.407-2.676.258.781.386,1.176.564,1.7.9-1.65,1.726-3.159,2.552-4.668.261.1.519.208.781.315-3.014,7.1-9.5,13.056-7.407,21.927q1.324-2.183,2.645-4.367c.182.014.364.027.546.036v6.155c.989-1.708,1.784-3.075,2.725-4.7.368,2.29.683,4.242.994,6.19.208.032.417.063.63.1q1.8-2.337,3.6-4.646c.319,1.917.621,3.7.923,5.489.222.076.448.156.675.231,1.384-1.571,2.773-3.146,4.118-4.669.293,1.913.577,3.773.861,5.628.257.013.515.031.772.044q1.876-2.916,3.754-5.831c.182,2.09.364,4.122.542,6.159.271.054.546.107.821.165,1.748-2.992,3.5-5.978,5.2-8.889.48,2.29,1,4.753,1.514,7.216.359-.018.719-.032,1.078-.049q.826-3.861,1.656-7.722c.781,3.883,3.026,6.683,5.893,9.776.213-2.5.382-4.486.546-6.417,1.322,1.94,2.6,3.812,3.879,5.685.239-.071.483-.142.723-.208.257-1.82.515-3.635.759-5.4,1.411,1.6,2.787,3.168,4.642,5.276.448-2.587.772-4.437,1.078-6.2,1.283,1.553,2.508,3.035,3.733,4.522.19-.08.381-.155.572-.235.146-.99.284-1.98.439-2.965.147-.927.311-1.85.506-2.987.994,1.634,1.8,2.947,2.6,4.265.245-.075.489-.146.728-.222v-5.068c1.145,1.625,1.909,2.707,3.009,4.265,1.114-6.35-2.481-10.624-4.833-15.262l.5-.239c.408.377.812.754,1.651,1.535-.986-3.16-4.336-4.362-4.1-8.068,2.685,3.417,5.02,6.391,7.088,9.018,1.819-3.244,3.785-6.755,5.751-10.261-.128-.075-.262-.15-.39-.226-.977,1.043-1.957,2.086-3.386,3.613.253-1.212.372-1.784.47-2.25-1.518.128-2.476,2.254-4.38.909.8-1.278,1.558-2.494,2.556-4.087-1.291.635-2.152,1.056-3.435,1.686,4.047-7.584,12.1-10.3,19.425-7.016a8.4,8.4,0,0,0,3.142.932c5.2.093,8.108,3.861,11.618,6.666-.129.226-.262.452-.39.679q-3.183-1.818-6.373-3.639a19.919,19.919,0,0,0,2.933,3.12c4.784,4.251,8.907,4.047,13.23-.679,3.35-3.662,4.921-8.188,6.035-12.9,1.478-6.253.4-12.2-2.321-18.39C255.581,187.25,255.5,188.7,255.412,190.152Zm-2.041-50.476c2.587-8.7,1.141-17.317-.595-26.117C255.923,117.491,256.349,134.6,253.371,139.676Zm-1.744-12.7q-2.364-9.766-4.722-19.531C249.6,113.688,252.4,119.91,251.627,126.975Zm-10.473,26.21c3.661,2.135,5.423,5.01,4.952,9.848-.6-1.793-.95-2.983-1.393-4.137-.941-2.445-2.685-3.9-5.059-5.187-5.61-3.027-11.561-3.058-17.623-3.063-2.508,0-5.015-.395-7.527-.612.018-.271.036-.541.049-.812,3.461,0,6.932.208,10.371-.049A27.342,27.342,0,0,1,241.154,153.185ZM224.516,133.3q3.075-5.785,6.142-11.57c.182.1.364.2.546.3C229.588,126.123,228.146,130.317,224.516,133.3Zm3.027-52.056a16.233,16.233,0,0,0,3.235,4.726A18.281,18.281,0,0,1,235.9,101.4c-.489,4.566-1.576,9.071-2.4,13.6-.195-.036-.395-.067-.59-.1a57.5,57.5,0,0,0,.5-7.633c-.279-4.384-.124-9.058-1.642-13.043A78.311,78.311,0,0,0,223.1,78.225,17.709,17.709,0,0,0,208.912,70.3a22.035,22.035,0,0,1-3.008-.608C214.517,68.737,224.813,74.972,227.543,81.243Zm-85.669-7.478c-6.923,5.378-9.874,12.918-13.931,19.544C127.043,87.593,134.795,76.3,141.874,73.765Zm-13.6,29.17c-.213,3.905-.35,7.811-.652,11.707a22.219,22.219,0,0,0,3.279,13.749c.64,1.034,1.159,2.143,1.931,3.581C125.827,127.96,123.745,114.549,128.276,102.935Zm17.943,44.423c.088.178.173.355.261.533a11.413,11.413,0,0,1-2.84.918c-4.269.209-8.538.346-12.812.373a18.923,18.923,0,0,0-9.595,2.893,18.279,18.279,0,0,1-4.73,1.931C125.068,145.969,135.909,147.833,146.219,147.358Zm-39.546-32.521c-.977,8.357-2.588,16.718.04,25.043C103.508,131.5,104.551,123.167,106.673,114.837Zm1.54,10.576q2.063-9.393,4.122-18.8l.919.173q-2.2,9.387-4.393,18.764C108.643,125.506,108.43,125.462,108.213,125.413Zm6.332,29.6c-.5,2.312-1.349,4.678-1.433,7.074-.089,2.432.577,4.891.883,7.132C109.908,164.515,110.108,158.275,114.545,155.013Zm-6.852,59.463c-3.048-4.7-5.445-9.585-4.069-15.559.461-2.015.071-4.225.071-6.346.231-.027.461-.049.688-.075.47,4.318.941,8.631,1.411,12.914.6-.027,1.247-.169,1.305-.049.967,2.161,1.664,4.473,2.831,6.515,1.331,2.312,3.067,4.393,4.695,6.67A8.057,8.057,0,0,1,107.693,214.476Zm22.274-9.639a17.379,17.379,0,0,1-13.309-6.9,6.393,6.393,0,0,0-.976-.829c.008.017.017.04.026.057a.664.664,0,0,0,.036.089c1.686,3.928,3.621,7.589,8.685,7.97-.049.227-.1.449-.151.671q-2.577-.248-5.153-.489c2.321,2.4,5.3,1.576,8.188,1.94a5.647,5.647,0,0,1-1.691.448c-2.418-.138-4.846-.275-7.247-.608-3.111-.431-4.362-2.654-4.864-5.49-.47-2.671-.967-5.338-1.455-8.01-2.61-4.82-1.514-9.666.35-14.547a55.756,55.756,0,0,1,.253,6.5c-.381,5.285,1.332,9.359,6.058,12.075,2.219,1.274,4.167,3.049,6.444,4.181s4.81,1.739,7.225,2.951C131.578,204.842,130.77,204.882,129.967,204.837Zm21.5,26.046c.231-3.546,1.323-6.652,4.518-8.671Q153.725,226.546,151.464,230.883Zm5.263,10.261c-.253-.04-.5-.08-.763-.116-.129-.989-.257-1.979-.3-2.316,1.15-.79,1.918-1.314,2.983-2.046C157.961,238.259,157.344,239.7,156.727,241.144Zm3.209-8.335c-.337-.044-.675-.093-1.016-.137q.506-3.629,1.012-7.261c.341.049.683.1,1.029.142Q160.448,229.182,159.936,232.809Zm2.246,9.373c-.267-.062-.533-.124-.8-.182v-4.669c.1-.022.2-.04.3-.062.248.644.5,1.287.812,2.1.386-.675.692-1.216,1-1.758.151.067.306.138.461.2Q163.067,240,162.182,242.182Zm-1.66-19.744a3.445,3.445,0,0,1-1.123-2.578,61.128,61.128,0,0,1,1-6.267c.213-.031.422-.066.63-.1a10.346,10.346,0,0,1,.209,3.084c-.675,2.805-.44,5.108,2.52,6.444a17.911,17.911,0,0,1,1.682.981c-.213.257-.426.519-.639.781A28.477,28.477,0,0,1,160.522,222.438Zm4.411,12.821q.453-3.075.9-6.155c.213.062.426.128.639.19C167.232,231.527,166.544,233.479,164.933,235.259Zm2.862,8.17c-.35-.044-.7-.084-1.056-.129q-.18-2.436-.364-4.868l.706-.067c.1.6.2,1.212.408,2.53.937-1.149,1.545-1.9,2.153-2.645.137.058.279.115.421.173Q168.932,240.927,167.8,243.429Zm5.033.4-.963-.2c-.084-1.2-.164-2.392-.231-3.421,2.911-.027,2.25-2.738,3.284-4.048l.6.147Zm-.874-6.932c.377-1.442.759-2.885,1.136-4.322.311.124.621.253.932.381q-.66,2.078-1.318,4.159C172.455,237.034,172.2,236.963,171.954,236.892Zm-4.332-9.422c2.974.111,4.784,3.657,8.046,1.989C173.436,232.57,169.509,231.607,167.622,227.47Zm11.628,11.863-.6-.013v-9.764h.568C179.369,232.814,180.75,236.067,179.25,239.333Zm8.019,4.633c-2.885-2.361-2.605-5.5-3.439-8.192,3.035,4.38,3.035,4.38,3.723,3.816C187.46,241.01,187.375,242.275,187.269,243.966Zm.945-13.771c-2.281,2.273-5.019,1.62-6.679-2.023,3.533,2.09,6.484,2.068,8.743-1.243-1.159.462-2.286,1.016-3.475,1.362-2.658.777-4.252-.026-5.268-2.573a13.538,13.538,0,0,0-1.584-3.3q-.319,2.376-.639,4.757c-.151,0-.3,0-.448-.009-.094-.807-.187-1.611-.32-2.747-.5.635-.861,1.043-1.163,1.5-1.935,2.893-3.444,3.421-6.492,1.784-5.1-2.747-9.959-7.371-7.505-15.369,1.292-4.211,2.947-8.316,4.456-12.461.35-.959.785-1.891,1.18-2.831-.8,1.167-1.6,2.334-2.4,3.5-.053-.027-.11-.053-.164-.075q1.252-3.415,2.494-6.826c.733-.608,1.474-1.225,2.69-2.241-.635,1.686-1.043,2.783-1.456,3.879.883-1.083,1.682-2.246,2.663-3.231,2.25-2.272,4.384-1.868,5.742,1.007.338.719.635,1.46,1.154,2.659.559-1.185.928-1.993,1.318-2.787,1.327-2.707,3.244-3.054,5.428-.941.887.861,1.686,1.806,2.525,2.711l-1.034-2.96c2.982,1.913,3.484,4.771,4.544,7.518-.812-.75-1.469-1.358-2.13-1.961,1.775,4.668,3.71,9.284,5.29,14.014,2.064,6.178.422,11.326-4.939,15.173.266.058.537.116.665.142C190.34,227.826,189.341,229.073,188.214,230.2Zm-15.4-39.887c.888-2.783,1.651-3.373,4.5-3.688C175.779,187.876,174.492,188.932,172.81,190.308Zm19.7,52.93c-.359.08-.719.164-1.078.249q-1.152-2.5-2.313-5c.147-.084.289-.173.431-.257.577.785,1.154,1.571,2.108,2.88.253-1.38.359-1.975.47-2.569.222.017.444.039.662.057C192.7,240.145,192.6,241.689,192.51,243.238Zm-.395-14.245c.794,2.636,1.513,5.023,2.232,7.406C192.111,234.358,191.662,231.855,192.115,228.993Zm1.851-4.665c4.85-1.886,4.313-5.826,4.295-9.576a2.248,2.248,0,0,1,.191-.848,1.766,1.766,0,0,1,.413-.457c.373,1.9.75,3.785,1.1,5.671a3.418,3.418,0,0,1-2.21,4.243c-1.066.43-2.122.879-3.182,1.318C194.369,224.564,194.17,224.448,193.966,224.328Zm3.909,17.974c-.257.071-.514.142-.772.217q-1.046-2.608-2.086-5.219l.449-.213c.364.7.727,1.4,1.238,2.379.319-.888.559-1.54.794-2.192l.377.053Zm-.106-16.079c.426-.19.852-.381,1.274-.572q1.483,3.735,2.964,7.464c-.253.111-.506.222-.759.338Q199.511,229.838,197.769,226.223Zm5.423,14.934c-.266.044-.537.093-.8.142-.582-1.509-1.163-3.018-1.886-4.9,1.082,1.008,1.793,1.674,2.507,2.335.217-.133.435-.271.657-.408C203.507,239.271,203.352,240.212,203.192,241.157Zm4.012-9.879c-.249.156-.5.306-.746.457q-2.177-4.312-4.353-8.631c.186-.1.368-.191.55-.289C205.309,225.012,205.6,228.5,207.2,231.278Zm31.189-22.642c.914,1.567,1.815,3.116,2.721,4.664-4.4-3.736-4.4-3.736-7.367-4.588a10,10,0,0,0-.462-2.956,26.425,26.425,0,0,0-2.747-3.9,1.565,1.565,0,0,0-1.318-.311c-4.5,1.029-8.987,2.117-14.143,3.342,1.548.2,2.489.328,3.452.452-.914,1.5-.932,1.491-5.383.546a37.22,37.22,0,0,0-5.969-.865c.533.3,1.07.6,1.727.967-1.416.169-2.725.377-4.039.435-.244.013-.528-.572-.763-.9-.289-.4-.542-1.149-.8-1.149a1.752,1.752,0,0,0-1.389.732c-.142.342.258,1.056.613,1.416a6.835,6.835,0,0,1,1.7,1.855l-2.583-.919c-.182.741-.346,1.4-.51,2.059-.155.009-.315.014-.471.018a13.94,13.94,0,0,0-.213-2.21,3.205,3.205,0,0,0-1.22-1.775c-.053.7-.1,1.407-.155,2.108l-.457.173a15.908,15.908,0,0,1-1.212-2.867c-1.216-5.8-5.015-10.105-8.414-14.623-.417-.554-1.238-1.921-2.441-.563-.089.1-.981-.409-1.416-.741a11.072,11.072,0,0,1-2.551-2.557l3.173,1c-1.562-2.032-2.974-3.861-4.536-5.893h2.068c1.039-2.925-2.654-2.419-3.12-4.545h4.185c-1.335-1.043-2.334-1.819-3.63-2.831,1.15-.089,1.864-.142,3.191-.244-1.385-1.012-2.383-1.74-3.4-2.476,1.442-.773,1.908-1.984.856-3.781a12.846,12.846,0,0,1-.954-3.023c-.949,1.7-2.032,3.626-3.177,5.672l2.627,1.553c-3.253-.337-5.059.675-5.964,3.164l4.344-1.331c-1.8,1.62-3.248,2.929-4.7,4.243.115.164.235.328.35.492,1.522-.306,3.045-.608,5.015-1a23.98,23.98,0,0,0-3.559,2.672c-.173.182.781,1.424,1.54,2.751-1.6,1.847-3.586,3.959-5.352,6.24a39.029,39.029,0,0,0-2.659,4.553l.014-.013.044-.031c-1.158,1.744-2.441,3.413-3.448,5.241-2.485,4.527-4.678,9.191-9.156,12.311-1.091.759-1.371,2.685-2,4.083a2.245,2.245,0,0,1-.9,1.233c.1-1.047.2-2.1.324-3.293-.568.413-1.07.786-1.571,1.154-.165-.16-.324-.315-.484-.475.883-.927,1.828-1.806,2.632-2.8.852-1.057,1.566-2.219,2.343-3.338l-.653-.572c-1.18,1.154-2.361,2.308-3.914,3.821.586-2.312,1.083-4.274,1.527-6.022-4.979.213-10.021.488-15.071.617-2.805.071-5.88-1.287-9.138-4.172q2.244.786,4.491,1.567a29.068,29.068,0,0,0,4.594,1.562,13.119,13.119,0,0,0,5-.324c-5.405-2.17-11.4-2.241-16.536-5.268,7.367.848,14.2,4.85,22.372,2.876-2.809-.915-5.654.448-7.979-1.949,1.278-.062,2.143-.1,3.008-.142,0-.062.009-.124.014-.182-3.511-.5-7.057-.829-10.514-1.566a20.2,20.2,0,0,1-7.016-2.516c-1.948-1.3-4.114-.764-5.991-1.678-.1-.044-.351.222-.87.577,2.321,1.988,4.536,3.892,6.755,5.8l-.426.466c-4.678-2.521-8.912-5.579-11.313-10.562a10.855,10.855,0,0,1-.648-4.1c-.093-1.993.2-4.017-.026-5.987a14.388,14.388,0,0,1,3.643-11.237c.395-.475.733-.994,1.327-1.81-1.313.621-2.254,1.065-3.2,1.508,1.78-3.776,4.993-5.556,8.632-6.612,1.375-.4,2.01-.857,2.25-2.4a12.441,12.441,0,0,1,2.321-5.108c-.293,1.962-.582,3.919-.923,6.235,2.356-.239,4.251-.341,6.1-.683a2.206,2.206,0,0,0,1.269-1.416c.427-1.482.569-3.044.959-4.535a4.139,4.139,0,0,1,1.531-2.206v8.033c2.437.15,4.633.288,7.194.448-1.012-.55-1.753-.954-2.494-1.358,6.333-.755,11.2,2.427,16.256,6.075-.324-1.043-.555-1.8-.843-2.729a50.728,50.728,0,0,0,5.88,4.646,13.559,13.559,0,0,0,5.569,1.722,2.392,2.392,0,0,0,2.792-2.871,4.431,4.431,0,0,1,.4-1.544l.8.2c-.474,1.869-.945,3.737-1.349,5.321a6.961,6.961,0,0,0,1.358-9.617c-2.48-3.306-6.124-4.788-9.909-5.884-2.588-.746-5.268-1.163-8.184-1.784.621-.337,1.065-.577,1.913-1.043-3.062-.732-6.08-1.034-7.438-4.527a20.82,20.82,0,0,1,2.854.879c2.618,1.234,5.232,2.13,8.161,1.074.368-.133.95.266,1.411.462,2.49,1.051,4.97,2.121,7.562,2.955-2.676-4.487-7.624-4.842-12.129-6.421,4.771-1.731,11.069,1.42,17.2,8.613-.648-1.517-1.074-2.52-1.5-3.519.235-.128.466-.262.7-.39,1.26,2.086,2.521,4.171,3.954,6.541.723-1.62,1.38-3.1,2.152-4.819V162.74l.227.053q1.158-4.041,2.308-8.077l.758.226c-.142.746-.279,1.491-.479,2.548,1.331-2.042,2.5-3.826,3.661-5.61.227.129.453.253.679.382-.479.985-.958,1.966-1.176,2.414a72.338,72.338,0,0,1,6.777-5.507,15.652,15.652,0,0,1,9.089-2.086c.062.2.12.4.182.595-1.332.372-2.641.86-3.994,1.1-4.012.688-6.737,3.031-8.534,6.71,1.1-.741,2.156-1.567,3.31-2.215a22.545,22.545,0,0,1,7.94-2.232c2.565-.373,5.192-.3,7.788-.422.071.178.142.355.209.533a16.664,16.664,0,0,1-3.031,1.189c-3.622.675-7.287,1.136-10.9,1.833a12.691,12.691,0,0,0-7.407,4.536c-2.161,2.587-2.512,5.245-1,7.517a5.707,5.707,0,0,0,7.159,1.833c2.174-.927,4.025-2.627,5.991-4.025a4.9,4.9,0,0,1,2.108-1.189c-.533.723-1.065,1.451-1.6,2.174.044.085.093.164.138.244a37.469,37.469,0,0,1,3.346-2.143c.67-.337,1.442-1.806,2.387-.169a13.78,13.78,0,0,0,1.74-.648q4.653-1.53,9.315-3.044c.142.275.28.546.422.816l-1.54,1.447c6.843.613,7.052.431,11.556-9.736a19.689,19.689,0,0,1,.249,3.661c-.382,3.4-.267,3.861,2.849,5.352,3.656,1.748,7.371,3.377,10.611,4.855,1.145,1.322,2.165,2.5,3.186,3.679-.1.16-.2.319-.3.479-.949-.421-1.9-.839-2.947-1.305,1.478,2.406,2.929,4.767,4.372,7.123a.412.412,0,0,1,.035.054c.116-1.137.227-2.277.391-3.9,1.81,2.6,1.642,5.165,1.251,7.832-.559-1.318-1.109-2.645-1.673-3.976.116,1.793.3,3.595.448,5.4,0,.031,0,.062.009.088.031.391.058.781.085,1.167a39.765,39.765,0,0,1,.084,4.35c-.209,4.9-3.089,8.5-6.9,11.329a41.459,41.459,0,0,1-4.713,2.9c-1.753.968-.9,2.242-.493,3.435.466,1.354,1.332,1.447,2.61.892,3.985-1.735,6.825-4.482,7.93-9.062q-2.2,1.4-4.384,2.8c1.926-2.486,5.294-3.719,5.924-7.212.573-3.178,1.07-6.377,1.651-9.883.946,3.519,1.088,6.661-.222,9.923-1.193,2.969-1.983,6.1-2.955,9.155l.745.267c.937-2.419,1.873-4.842,2.88-7.443C248.622,200.923,244.544,206.817,238.393,208.636Zm12.293,7.789a7.785,7.785,0,0,1-6.186,2.534c6.83-7.465,10.846-15.919,10.438-26.246l.63.24c.164,3.435.4,6.87.479,10.309C256.167,208.4,254.054,212.728,250.686,216.425Z" transform="translate(0)"/><path class="cls-1" d="M234.346,233.044a42.742,42.742,0,0,1,1.26-6.71c-.235-.057-.47-.115-.71-.177-.417,1.376-.923,2.729-1.229,4.127a7.743,7.743,0,0,1-2.889,4.966c-1.154.874-1.806,2.641-2.264,4.136-.559,1.815-.541,3.8-1.02,5.65-.471,1.828-1.252,3.581-1.9,5.365l-.688-.253a123.408,123.408,0,0,1,6.967-28.185c-3.071,4.518-6.488,8.867-6.918,14.583a57.685,57.685,0,0,1-4.07,16.93c-.35.884-.586,1.811-.874,2.716a.081.081,0,0,0,.027-.017q-1.638,2.549-3.284,5.1c.639-5.161,4.016-9.373,4.029-14.578-1.065,2.747-1.935,5.556-3.009,8.285-.315.8-1.194,1.385-1.81,2.064-1.026-1.664-1.554.422-2.517.328.573-3.155,1.141-6.275,1.713-9.4-.137-.027-.27-.049-.408-.076q-1.471,6.692-2.942,13.385l-.662-.106c0-2.512,1.332-5.157-.381-7.514-2,1.4-3.83,2.676-5.667,3.959-.076-.213-.2-.573-.369-1.052-.625.821-1.162,1.522-1.7,2.232-1.771-1.5-2.086.764-3.106,1.079-1.314.4-2.636.55-3.209,2.028l1.624-.528c-1,2.494-1.881,4.668-2.756,6.843-.173-.04-.346-.076-.519-.115.213-1.682.422-3.369.63-5.051-.466-.417-.936-.839-1.522-1.362-.657.719-1.415,1.557-2.272,2.5-.2-.653-.346-1.11-.577-1.846-1.234,1.442-2.312,2.7-3.59,4.193-.142-1.233-.231-1.988-.373-3.226-1.385,1.3-2.427,2.277-3.55,3.328-.169-.665-.329-1.287-.559-2.2-.733,1.229-1.279,2.143-1.873,3.146-.6-1.5-1.065-2.68-1.531-3.852-.213,0-.422,0-.63,0-.533,1.247-1.07,2.494-1.709,3.981-.617-1.194-1.083-2.091-1.678-3.24-.332,1.007-.541,1.629-.7,2.126l-3.391-3.142c-.164,1.273-.257,2.014-.408,3.244-1.376-1.713-2.4-3-3.626-4.527-.3.883-.466,1.394-.665,1.988-.759-.949-1.429-1.788-2.215-2.769-.279.652-.457,1.07-.643,1.5l-1.935-1.486-.009-.009c0,.009,0,.018.009.027q-2.757-1.832-5.508-3.666c-.159.337-.315.674-.528,1.127-.75-1.03-1.34-1.842-2.037-2.8-.182.622-.3,1-.333,1.127-1.855-1.189-3.7-2.378-6-3.856v7.18c-.324.067-.652.129-.976.191q-2.231-6.45-4.465-12.892a50.193,50.193,0,0,0,1.158,6.289,8.659,8.659,0,0,1-.208,2.458,8.8,8.8,0,0,1-1.744-1.864c-.772-1.544-1.323-3.195-1.962-4.8-.191.071-.381.137-.572.2q1.731,5.279,3.461,10.553a3.206,3.206,0,0,1-1.549-1.509c-1.957-5.379-4.717-10.655-5.538-16.211-1.141-7.771-2.805-15.036-7.8-20.783,1.273,4.243,2.866,8.818,3.994,13.509,1.105,4.615,1.739,9.342,2.578,14.019-.319.067-.639.129-.963.195-.8-3.035-1.646-6.057-2.379-9.106-.719-2.965-1.358-5.9-4.153-7.784-.5-.333-.6-1.287-.817-1.975-.568-1.833-1.092-3.679-1.633-5.521l-.577.147a2.607,2.607,0,0,0,.013.834c2.259,6.178,1.585,12.524,1.039,18.843a59.458,59.458,0,0,0,3.461,27,10.279,10.279,0,0,0,2.379,3.932c4.243,3.772,8.667,7.336,13.034,10.97.062.049.248-.049.572-.124-.989-1.367-1.934-2.681-2.884-3.994l.461-.475a19.134,19.134,0,0,1,2.193,1.855c1.668,1.873,3.2,3.874,4.886,5.734,4.158,4.589,8.587,9.013,15,9.994a180.166,180.166,0,0,0,18.049,1.615c2.539.129,5.113-.692,7.687-.847,8.378-.5,15.2-3.808,20.236-10.669a41.709,41.709,0,0,1,4.305-4.766,28.838,28.838,0,0,1,3.053-2.344c.08.129.164.258.244.387q-1.41,1.882-2.827,3.763a1.228,1.228,0,0,0,1.185-.191c3.684-2.969,7.42-5.876,11-8.964a11.5,11.5,0,0,0,3.306-4.088c3.191-8.077,5.49-16.273,4.407-25.216C233.858,243.691,234.186,238.334,234.346,233.044Zm-66.6,37.239c-.182.013-.364.031-.546.044-.582-1.993-1.163-3.99-1.891-6.484C167.924,265.8,167.094,268.272,167.747,270.283Zm-5.494-8.814q.951,3.083,1.9,6.164c-.288.093-.577.191-.861.284-.848-2.108-1.691-4.216-2.583-6.444C161.365,261.473,161.813,261.473,162.253,261.469Zm-1.767,6.2c-1.167-2.193-2.405-4.531-3.581-6.741C159.057,261.025,160.455,263.519,160.486,267.669Zm-5.822-3.409c-.861-2.045-1.642-3.909-2.463-5.858C153.985,259.29,154.722,260.959,154.664,264.26Zm-22.917,7.984c.9,1.021,1.433,1.722,2.068,2.317a14.211,14.211,0,0,1,1.837,1.739c-6.115-2.507-8.92-7.575-8.281-13.77.235-2.268-.293-4.616-.484-7.039.3.173.666.391,1.46.861-.541-3.67-1.043-7.069-1.549-10.469a16.8,16.8,0,0,1,3.817,13.154c-.346,2.9-.839,5.827.781,8.663V254.621c.3,0,.6,0,.905.009a36.6,36.6,0,0,1-.044,5.494,16.33,16.33,0,0,0,4.66,14.4c1.034,1.1,1.9,2.352,3.182,3.963C136.424,277.175,135.719,273.025,131.747,272.244ZM140.241,270c-2.983-4.6-2.29-9.737-2.352-14.774l.869-.159q1.2,6.163,2.392,12.332c.08,0,.156,0,.236-.008.057-.87.12-1.744.177-2.614,1.238,6.3,6.009,10.154,9.963,14.662C148.415,278.515,142.384,273.309,140.241,270Zm20.072,25.891c-3.461-1.953-6.084-4.509-7.309-8.428-.532-1.709-1.527-3.271-1.984-5.237.954,1.176,2.25,2.21,2.792,3.551,2.268,5.578,7.047,7.877,12.2,9.71a2.758,2.758,0,0,0,2.206-.444c1.753-1.309,3.368-2.8,5-4.185C171.222,298.694,167.693,300.061,160.313,295.894Zm13.372-21.524c-.409-2.6-.813-5.166-1.2-7.651C174.31,267.469,174.514,268.641,173.685,274.37Zm33.075-15.577q-1.185,2.816-2.547,6.036C204.5,260.346,205.082,259.121,206.76,258.793Zm-4.749,2.348c-1.189,2.245-2.414,4.557-3.545,6.7C198.736,263.408,199.717,261.562,202.011,261.141Zm-8.236,2.645c-.75,2.4-1.42,4.548-2.095,6.692C191.915,268.161,191.161,265.516,193.775,263.786Zm-7.287,2.369c-.413,3.293-.75,5.974-1.083,8.654C185.52,272.089,183.816,269.08,186.488,266.155Zm7.256,31.855c-3.244.617-5.077.009-6.555-2.9-.719-1.416-1.251-2.925-1.868-4.394.1-.053.2-.106.3-.16,1.225,1.327,2.432,2.663,3.671,3.977a3.766,3.766,0,0,0,4.437.932c4.8-1.833,8.969-4.358,11.3-9.271a16.9,16.9,0,0,1,3.257-4.158C205.344,289.121,202.571,296.342,193.744,298.01Zm20.512-22.579a64.61,64.61,0,0,1-6.426,4.171c3.1-4.766,8.383-8.09,9.479-14.237.053.813.1,1.625.155,2.437.111.018.218.04.329.062q1.137-5.851,2.285-11.707l.99-.581C222.048,263.306,220.544,270.243,214.256,275.431Zm16.735-18.018c.31-.528.626-1.052.936-1.576.129.023.258.045.386.062,0,.591.049,1.19-.009,1.771a56.722,56.722,0,0,0-.643,6.506c.093,5.632-2.942,10.416-8.61,12.839,1.465-1.553,2.752-2.916,4.034-4.278-.15-.173-.306-.346-.461-.519a45.891,45.891,0,0,0-3.457,3.031c-1.163,1.224-2.139,2.622-3.195,3.949-.271-.244-.542-.488-.808-.732.874-1.1,1.708-2.237,2.64-3.288a17.99,17.99,0,0,0,4.869-14.206,58.453,58.453,0,0,1-.031-5.862c.333-.027.665-.049,1-.071q.281,1.923.564,3.847c.115-4.606.843-9.022,4.229-13.163-.635,4.234-1.189,7.918-1.74,11.6Z" transform="translate(0)"/><path class="cls-1" d="M176.439,242.731c2.309,4.144,2.2,7.869,1.317,11.641-.088.376-.961.95-1.219.841-1.086-.461-2.668-.938-2.968-1.795a8.022,8.022,0,0,1-.037-4.653C174.1,246.841,175.263,245.093,176.439,242.731Z" transform="translate(0)"/><path class="cls-1" d="M182.383,243.008c2.226,2.958,3.891,5.623,3.553,9.167-.21,2.207-1.638,2.836-3.411,3.037a1.744,1.744,0,0,1-1.389-.992C180.685,250.554,180.545,246.891,182.383,243.008Z" transform="translate(0)"/><path class="cls-1" d="M188.029,254c.334-3.278.637-6.246.986-9.672,2.833,2,3.81,4.111,3.421,6.739C192.138,253.085,190.594,253.738,188.029,254Z" transform="translate(0)"/><path class="cls-1" d="M169.321,244.88c1.62,2.283,1.93,4.92,1.164,8.94a4.045,4.045,0,0,1-4.078-2.748C165.506,248.3,167.8,246.843,169.321,244.88Z" transform="translate(0)"/><path class="cls-1" d="M146.122,237.85c-1.506-8.12-3.442-16.049-10.927-21.35C141.733,217.64,146.275,228.435,146.122,237.85Z" transform="translate(0)"/><path class="cls-1" d="M194.235,243.659c2.51,1.423,3.822,3.654,3.534,5.6a3.275,3.275,0,0,1-3.031,2.978c-.173-1.47-.4-2.859-.485-4.256C194.171,246.631,194.235,245.271,194.235,243.659Z" transform="translate(0)"/><path class="cls-1" d="M164.317,243.648c2.316,2.821-.757,5.655.441,8.352l-.606.489c-.868-.874-2.046-1.6-2.535-2.655C160.768,248.008,162.039,245.345,164.317,243.648Z" transform="translate(0)"/><path class="cls-1" d="M224.416,216.382c-6.127,5.184-7.338,7.361-10.88,19.288C212.976,229.069,217.439,218.526,224.416,216.382Z" transform="translate(0)"/><path class="cls-1" d="M159.564,250.125a3.265,3.265,0,0,1-2.984-3.2c-.173-1.759.208-3.359,2.12-4.272C160.991,244.912,159.4,247.474,159.564,250.125Z" transform="translate(0)"/><path class="cls-1" d="M199.72,249.928c-.108-2.35-1.469-4.8.66-7.091a3.749,3.749,0,0,1,2.251,4.323c-.238,1.168-1.5,2.129-2.3,3.182Z" transform="translate(0)"/><path class="cls-1" d="M206.446,241.912c.319,1.313,1.019,2.681.84,3.922-.151,1.046-1.323,1.944-2.043,2.908l-1.124-.457L205.14,242Z" transform="translate(0)"/><path class="cls-1" d="M153.729,241.216c.517,2.548.947,4.674,1.378,6.8l-.951.542a10.613,10.613,0,0,1-2.218-2.5C151.231,244.425,151.852,242.912,153.729,241.216Z" transform="translate(0)"/><path class="cls-1" d="M176.766,263.852c-.381-1.789-.852-3.568-1.067-5.378-.042-.352.858-.968,1.428-1.168.224-.079,1.048.638,1.056,1,.038,1.792-.107,3.587-.188,5.381Z" transform="translate(0)"/><path class="cls-1" d="M174.334,263.628c-2.471-1.49-3.557-3.839-2.822-5.82.17-.457.689-.784,1.048-1.171.427.431,1.15.815,1.229,1.3C174.079,259.721,174.154,261.537,174.334,263.628Z" transform="translate(0)"/><path class="cls-1" d="M180.985,263.825c0-1.9-.067-3.808.072-5.7.021-.288,1.015-.729,1.518-.679a1.514,1.514,0,0,1,.873,1.219c-.32,1.759-.828,3.484-1.269,5.22Z" transform="translate(0)"/><path class="cls-1" d="M185.137,263.525c-.715-2.558.139-6.137,1.635-6.854C188.4,258.951,187.787,261.523,185.137,263.525Z" transform="translate(0)"/><path class="cls-1" d="M163.2,260.162c-2.074-1.091-3.139-4.38-2.074-6.073.17-.27.845-.543,1.029-.422.431.283.967.786,1,1.232C163.266,256.576,163.2,258.266,163.2,260.162Z" transform="translate(0)"/><path class="cls-1" d="M197.41,253.382c1.584,2.971,1.06,5.426-1.739,7.07C196.674,258,194.831,255.342,197.41,253.382Z" transform="translate(0)"/><path class="cls-1" d="M192.814,261.032c-1.039-3.142-.808-4.476.985-5.7C195.194,257.123,194.808,259.356,192.814,261.032Z" transform="translate(0)"/><path class="cls-1" d="M165.157,254.91c2.679,1.635,1.158,4.005,1.73,6.2C164.51,259.821,163.975,257.749,165.157,254.91Z" transform="translate(0)"/><path class="cls-1" d="M189.077,262.879c0-1.672-.093-3.353.06-5.01.043-.462.815-.856,1.253-1.281.243.529.768,1.111.68,1.577-.315,1.656-.839,3.272-1.283,4.9Z" transform="translate(0)"/><path class="cls-1" d="M158.935,257.706c-1.533-1.285-2.062-3.765-1.154-4.954.25-.328.969-.678,1.21-.544a1.646,1.646,0,0,1,.786,1.263C159.624,254.822,159.263,256.15,158.935,257.706Z" transform="translate(0)"/><path class="cls-1" d="M200.273,257.943a39.744,39.744,0,0,1-.882-4.039c-.06-.509.4-1.078.62-1.619.484.312,1.215.515,1.406.954A3.578,3.578,0,0,1,200.273,257.943Z" transform="translate(0)"/><path class="cls-1" d="M169.705,262.874c-1.854-1.91-1.726-4.109-1.5-6.37C170.222,257.046,170.617,258.7,169.705,262.874Z" transform="translate(0)"/><path d="M196.716,261.915l1.627-.531c-1.007,2.5-1.883,4.67-2.759,6.844l-.517-.116.63-5.049Q196.207,262.489,196.716,261.915Z" transform="translate(0)"/><path class="cls-1" d="M149.7,240.527c2.112,2.074-.41,3.856.3,6.026C148.09,244.624,148.06,242.854,149.7,240.527Z" transform="translate(0)"/><path class="cls-1" d="M154.849,255.7a26.259,26.259,0,0,1-.227-3.9c.034-.454.858-.848,1.321-1.269a5.149,5.149,0,0,1,.491,1.909,20.566,20.566,0,0,1-.962,3.129Z" transform="translate(0)"/><path class="cls-1" d="M209.252,246.6c-.229-2.133-.41-3.822-.591-5.511C211.181,242.689,211.258,244.511,209.252,246.6Z" transform="translate(0)"/><path class="cls-1" d="M204.256,255.626c-2.1-3.449-2.044-4.316,0-5.251Z" transform="translate(0)"/><path class="cls-1" d="M208.355,249.181c-.485,1.831-.869,3.279-1.253,4.727C205.507,250.389,205.706,249.59,208.355,249.181Z" transform="translate(0)"/><path class="cls-1" d="M150.826,248.76c2.49.863,2.682,1.686,1.085,4.915C151.572,252.138,151.232,250.6,150.826,248.76Z" transform="translate(0)"/><path class="cls-1" d="M237.809,221.083l-5.683-5.595.36-.382q2.943,2.736,5.888,5.47Z" transform="translate(0)"/><path class="cls-1" d="M121.609,219.589l6.836-6.41.416.448-6.76,6.489Z" transform="translate(0)"/><path d="M245.068,200.914c.972-3.057,1.762-6.186,2.955-9.155,1.31-3.262,1.168-6.4.222-9.923-.581,3.506-1.078,6.7-1.651,9.883-.63,3.493-4,4.726-5.924,7.212q2.19-1.4,4.384-2.8c-1.1,4.58-3.945,7.327-7.93,9.062-1.278.555-2.144.462-2.61-.892-.408-1.193-1.26-2.467.493-3.435a41.459,41.459,0,0,0,4.713-2.9c3.812-2.831,6.692-6.426,6.9-11.329a39.765,39.765,0,0,0-.084-4.35c-.027-.386-.058-.776-.085-1.167,0-.026,0-.057-.009-.088-.146-1.8-.341-3.608-.457-5.41l.005,0c-1.443-2.356-2.894-4.717-4.372-7.123,1.048.466,2,.884,2.947,1.305.1-.16.2-.319.3-.479-1.021-1.176-2.041-2.357-3.186-3.679-3.24-1.478-6.955-3.107-10.611-4.855-3.116-1.491-3.231-1.953-2.849-5.352a19.689,19.689,0,0,0-.249-3.661c-4.5,10.167-4.713,10.349-11.556,9.736l1.54-1.447c-.142-.27-.28-.541-.422-.816q-4.659,1.524-9.315,3.044a13.78,13.78,0,0,1-1.74.648c-.945-1.637-1.717-.168-2.387.169a37.469,37.469,0,0,0-3.346,2.143c-.045-.08-.094-.159-.138-.244.533-.723,1.065-1.451,1.6-2.174a4.9,4.9,0,0,0-2.108,1.189c-1.966,1.4-3.817,3.1-5.991,4.025a5.707,5.707,0,0,1-7.159-1.833c-1.513-2.272-1.162-4.93,1-7.517a12.691,12.691,0,0,1,7.407-4.536c3.617-.7,7.282-1.158,10.9-1.833a16.664,16.664,0,0,0,3.031-1.189c-.067-.178-.138-.355-.209-.533-2.6.12-5.223.049-7.788.422a22.545,22.545,0,0,0-7.94,2.232c-1.154.648-2.21,1.474-3.31,2.215,1.8-3.679,4.522-6.022,8.534-6.71,1.353-.236,2.662-.724,3.994-1.1-.062-.2-.12-.4-.182-.595a15.652,15.652,0,0,0-9.089,2.086,72.338,72.338,0,0,0-6.777,5.507c.218-.448.7-1.429,1.176-2.414-.226-.129-.452-.253-.679-.382-1.162,1.784-2.33,3.568-3.661,5.61.2-1.057.337-1.8.479-2.548l-.758-.226q-1.152,4.041-2.308,8.077l-.227-.053V152.209c-.772,1.721-1.429,3.2-2.152,4.819-1.433-2.37-2.694-4.455-3.954-6.541-.231.128-.462.262-.7.39.426,1,.852,2,1.5,3.519-6.128-7.193-12.426-10.344-17.2-8.613,4.505,1.579,9.453,1.934,12.129,6.421-2.592-.834-5.072-1.9-7.562-2.955-.461-.2-1.043-.595-1.411-.462-2.929,1.056-5.543.16-8.161-1.074a20.82,20.82,0,0,0-2.854-.879c1.358,3.493,4.376,3.795,7.438,4.527-.848.466-1.292.706-1.913,1.043,2.916.621,5.6,1.038,8.184,1.784,3.785,1.1,7.429,2.578,9.909,5.884a6.961,6.961,0,0,1-1.358,9.617c.4-1.584.875-3.452,1.349-5.321l-.8-.2a4.431,4.431,0,0,0-.4,1.544,2.392,2.392,0,0,1-2.792,2.871,13.559,13.559,0,0,1-5.569-1.722,50.728,50.728,0,0,1-5.88-4.646c.288.932.519,1.686.843,2.729-5.059-3.648-9.923-6.83-16.256-6.075.741.4,1.482.808,2.494,1.358-2.561-.16-4.757-.3-7.194-.448v-8.033a4.139,4.139,0,0,0-1.531,2.206c-.39,1.491-.532,3.053-.959,4.535a2.206,2.206,0,0,1-1.269,1.416c-1.846.342-3.741.444-6.1.683.341-2.316.63-4.273.923-6.235a12.441,12.441,0,0,0-2.321,5.108c-.24,1.544-.875,2-2.25,2.4-3.639,1.056-6.852,2.836-8.632,6.612.941-.443,1.882-.887,3.2-1.508-.594.816-.932,1.335-1.327,1.81a14.388,14.388,0,0,0-3.643,11.237c.231,1.97-.067,3.994.026,5.987a10.855,10.855,0,0,0,.648,4.1c2.4,4.983,6.635,8.041,11.313,10.562l.426-.466c-2.219-1.9-4.434-3.808-6.755-5.8.519-.355.772-.621.87-.577,1.877.914,4.043.377,5.991,1.678a20.2,20.2,0,0,0,7.016,2.516c3.457.737,7,1.065,10.514,1.566,0,.058-.009.12-.014.182-.865.04-1.73.08-3.008.142,2.325,2.4,5.17,1.034,7.979,1.949-8.17,1.974-15-2.028-22.372-2.876,5.135,3.027,11.131,3.1,16.536,5.268a13.119,13.119,0,0,1-5,.324,29.068,29.068,0,0,1-4.594-1.562q-2.243-.786-4.491-1.567c3.258,2.885,6.333,4.243,9.138,4.172,5.05-.129,10.092-.4,15.071-.617-.444,1.748-.941,3.71-1.527,6.022,1.553-1.513,2.734-2.667,3.914-3.821l.653.572c-.777,1.119-1.491,2.281-2.343,3.338-.8,1-1.749,1.877-2.632,2.8.16.16.319.315.484.475.5-.368,1-.741,1.571-1.154-.12,1.194-.222,2.246-.324,3.293a2.245,2.245,0,0,0,.9-1.233c.634-1.4.914-3.324,2-4.083,4.478-3.12,6.671-7.784,9.156-12.311,1.007-1.828,2.29-3.5,3.448-5.241l.009-.013s0-.009.009-.014-.04.036-.062.058l-.014.013a39.029,39.029,0,0,1,2.659-4.553c1.766-2.281,3.75-4.393,5.352-6.24-.759-1.327-1.713-2.569-1.54-2.751a23.98,23.98,0,0,1,3.559-2.672c-1.97.4-3.493.7-5.015,1-.115-.164-.235-.328-.35-.492,1.451-1.314,2.9-2.623,4.7-4.243l-4.344,1.331c.905-2.489,2.711-3.5,5.964-3.164l-2.627-1.553c1.145-2.046,2.228-3.976,3.177-5.672a12.846,12.846,0,0,0,.954,3.023c1.052,1.8.586,3.008-.856,3.781,1.012.736,2.01,1.464,3.4,2.476-1.327.1-2.041.155-3.191.244,1.3,1.012,2.295,1.788,3.63,2.831h-4.185c.466,2.126,4.159,1.62,3.12,4.545h-2.068c1.562,2.032,2.974,3.861,4.536,5.893l-3.173-1a11.072,11.072,0,0,0,2.551,2.557c.435.332,1.327.838,1.416.741,1.2-1.358,2.024.009,2.441.563,3.4,4.518,7.2,8.823,8.414,14.623a15.908,15.908,0,0,0,1.212,2.867l.457-.173c.053-.7.1-1.407.155-2.108a3.205,3.205,0,0,1,1.22,1.775,13.94,13.94,0,0,1,.213,2.21c.156,0,.316-.009.471-.018.164-.657.328-1.318.51-2.059l2.583.919a6.835,6.835,0,0,0-1.7-1.855c-.355-.36-.755-1.074-.613-1.416a1.752,1.752,0,0,1,1.389-.732c.262,0,.515.754.8,1.149.235.329.519.914.763.9,1.314-.058,2.623-.266,4.039-.435-.657-.368-1.194-.666-1.727-.967a37.22,37.22,0,0,1,5.969.865c4.451.945,4.469.954,5.383-.546-.963-.124-1.9-.248-3.452-.452,5.156-1.225,9.643-2.313,14.143-3.342a1.565,1.565,0,0,1,1.318.311,26.425,26.425,0,0,1,2.747,3.9,10,10,0,0,1,.462,2.956c2.964.852,2.964.852,7.367,4.588-.906-1.548-1.807-3.1-2.721-4.664,6.151-1.819,10.229-7.713,10.3-14.9-1.007,2.6-1.943,5.024-2.88,7.443Zm-10.3-4.66c.316-.847.915-1.846,2.446-1.171.767.342,1.961-.3,2.964-.493.116.213.231.426.342.639-1.975,1.682-3.95,3.36-6.4,5.441A22.077,22.077,0,0,1,234.767,196.254ZM210.741,202.3c2.929-.519,5.858.555,8.3-1.739-1.34-.116-2.676-.231-4.238-.364,7.864-1.571,12.151-1.46,14.339.319C222.958,202.459,214.7,203.945,210.741,202.3Zm35.285-26.622a.412.412,0,0,0-.035-.054l0,.009Z" transform="translate(0)"/><path d="M195.683,211.3c-1.58-4.73-3.515-9.346-5.29-14.014q-.685-1.3-1.38-2.6c-.839-.905-1.638-1.85-2.525-2.711-2.184-2.113-4.1-1.766-5.428.941-.39.794-.759,1.6-1.318,2.787-.519-1.2-.816-1.94-1.154-2.659-1.358-2.875-3.492-3.279-5.742-1.007-.981.985-1.78,2.148-2.663,3.231-.386.586-.777,1.171-1.163,1.762-.4.94-.83,1.872-1.18,2.831-1.509,4.145-3.164,8.25-4.456,12.461-2.454,8,2.406,12.622,7.505,15.369,3.048,1.637,4.557,1.109,6.492-1.784.3-.453.666-.861,1.163-1.5.133,1.136.226,1.94.32,2.747.15.005.3.005.448.009q.32-2.383.639-4.757a13.538,13.538,0,0,1,1.584,3.3c1.016,2.547,2.61,3.35,5.268,2.573,1.189-.346,2.316-.9,3.475-1.362l.466-.453C196.105,222.629,197.747,217.481,195.683,211.3Zm-30.364,1.034c-.222,3.173-.865,6.418,1.611,9.12C163.988,219.6,163.611,217.41,165.319,212.337Zm19.234,13.647c-.315.084-1.052-1.385-1.6-2.139.129-.2.258-.4.382-.6,1.868,4.141,3.652-.022,5.481.191.08.2.164.4.244.595A29.457,29.457,0,0,1,184.553,225.984Z" transform="translate(0)"/><path d="M232.908,114.908a56.642,56.642,0,0,0,.5-7.634c-.276-4.386-.124-9.057-1.641-13.042A78.286,78.286,0,0,0,223.1,78.223a17.7,17.7,0,0,0-14.188-7.918,22.889,22.889,0,0,1-3.008-.61c8.616-.959,18.91,5.276,21.641,11.547a16.177,16.177,0,0,0,3.234,4.726,18.286,18.286,0,0,1,5.116,15.436c-.487,4.567-1.574,9.069-2.4,13.6Z" transform="translate(0)"/><path d="M255.569,192.954c.165,3.436.4,6.869.478,10.307.118,5.14-1.991,9.467-5.361,13.165a7.8,7.8,0,0,1-6.186,2.534c6.828-7.465,10.845-15.922,10.437-26.247Z" transform="translate(0)"/><path d="M114.626,218.545a8.058,8.058,0,0,1-6.933-4.067c-3.048-4.7-5.444-9.587-4.07-15.561.463-2.014.073-4.225.073-6.346l.689-.075c.47,4.316.94,8.631,1.407,12.916.605-.031,1.251-.173,1.306-.05.969,2.162,1.664,4.472,2.834,6.512C111.26,214.189,113,216.269,114.626,218.545Z" transform="translate(0)"/><path d="M112.056,193.685c-2.61-4.821-1.515-9.665.349-14.545a55.474,55.474,0,0,1,.256,6.5c-.381,5.286,1.328,9.361,6.058,12.075,2.218,1.273,4.165,3.049,6.442,4.18s4.809,1.74,7.225,2.953c-.806,0-1.615.038-2.419-.006a17.4,17.4,0,0,1-13.31-6.9,6.306,6.306,0,0,0-.977-.832l.057.091-3.3-3.581Z" transform="translate(0)"/><path d="M246.105,163.034c-.6-1.793-.948-2.983-1.392-4.136-.941-2.448-2.685-3.906-5.059-5.188-5.61-3.028-11.563-3.059-17.624-3.063-2.508,0-5.016-.4-7.524-.613.016-.271.033-.542.049-.813,3.458,0,6.931.208,10.37-.046a27.33,27.33,0,0,1,16.227,4.008C244.815,155.322,246.576,158.2,246.105,163.034Z" transform="translate(0)"/><path d="M128.277,102.937c-.212,3.9-.353,7.809-.655,11.7a22.22,22.22,0,0,0,3.281,13.751c.638,1.035,1.159,2.143,1.929,3.58C125.826,127.961,123.745,114.549,128.277,102.937Z" transform="translate(0)"/><path d="M146.481,147.89a11.349,11.349,0,0,1-2.843.917c-4.265.211-8.538.35-12.809.374a18.92,18.92,0,0,0-9.6,2.895,18.2,18.2,0,0,1-4.728,1.93c8.565-8.038,19.4-6.173,29.716-6.65Z" transform="translate(0)"/><path d="M141.872,73.764c-6.921,5.378-9.874,12.918-13.928,19.547C127.044,87.6,134.795,76.3,141.872,73.764Z" transform="translate(0)"/><path d="M112.056,193.685l.377-.07a59.143,59.143,0,0,0,2.4,5.9,62.21,62.21,0,0,0,3.578,5.405l.713.486c2.323,2.4,5.3,1.579,8.188,1.942a5.653,5.653,0,0,1-1.693.448c-2.419-.138-4.846-.276-7.243-.608-3.114-.431-4.365-2.657-4.866-5.491C113.04,199.023,112.542,196.355,112.056,193.685Z" transform="translate(0)"/><path d="M246.905,107.444c2.693,6.244,5.491,12.467,4.72,19.531Z" transform="translate(0)"/><path d="M114,169.217c-4.088-4.7-3.89-10.942.551-14.205-.5,2.313-1.352,4.68-1.438,7.075C113.023,164.52,113.689,166.98,114,169.217Z" transform="translate(0)"/><path d="M253.372,139.676c2.584-8.7,1.141-17.315-.6-26.118C255.922,117.49,256.349,134.6,253.372,139.676Z" transform="translate(0)"/><path d="M106.713,139.88c-3.206-8.38-2.162-16.714-.042-25.043C105.7,123.2,104.086,131.553,106.713,139.88Z" transform="translate(0)"/><path d="M161.031,213.491a10.348,10.348,0,0,1,.21,3.083c-.675,2.806-.441,5.109,2.519,6.444a17.966,17.966,0,0,1,1.682.981l-.638.78a28.42,28.42,0,0,1-4.28-2.339,3.456,3.456,0,0,1-1.126-2.579A60.9,60.9,0,0,1,160.4,213.6Z" transform="translate(0)"/><path d="M193.966,224.33c4.852-1.889,4.315-5.829,4.3-9.578a2.188,2.188,0,0,1,.191-.85,1.844,1.844,0,0,1,.412-.457c.371,1.905.75,3.787,1.1,5.676a3.419,3.419,0,0,1-2.213,4.241c-1.063.431-2.12.878-3.18,1.318Z" transform="translate(0)"/><path d="M113.254,106.793q-2.2,9.381-4.394,18.76l-.647-.139q2.063-9.4,4.124-18.794Z" transform="translate(0)"/><path d="M119.126,205.4l-.713-.486a39.6,39.6,0,0,1-1.99-4.095,22.109,22.109,0,0,1-.686-3.627l-.057-.091c1.7,3.982,3.623,7.731,8.75,8.12l-.153.667Z" transform="translate(0)"/><path d="M190.276,226.931l.466-.456.667.143c-1.068,1.205-2.068,2.457-3.2,3.579-2.281,2.271-5.018,1.617-6.676-2.025C185.068,230.262,188.019,230.242,190.276,226.931Z" transform="translate(0)"/><path d="M224.517,133.3l6.142-11.571.544.3C229.588,126.124,228.146,130.316,224.517,133.3Z" transform="translate(0)"/><path d="M167.621,227.468c2.975.115,4.785,3.66,8.046,1.992C173.434,232.569,169.509,231.606,167.621,227.468Z" transform="translate(0)"/><path d="M178.644,239.32v-9.763h.568c.159,3.258,1.537,6.507.036,9.775Z" transform="translate(0)"/><path d="M206.459,231.735q-2.176-4.316-4.352-8.632l.549-.287c2.654,2.2,2.947,5.689,4.546,8.464Z" transform="translate(0)"/><path d="M183.831,235.773c3.032,4.381,3.032,4.381,3.721,3.818-.093,1.422-.175,2.685-.285,4.376C184.386,241.6,184.662,238.462,183.831,235.773Z" transform="translate(0)"/><path d="M155.982,222.212l-4.516,8.671C151.694,227.335,152.788,224.233,155.982,222.212Z" transform="translate(0)"/><path d="M199.044,225.653l2.963,7.464-.758.334q-1.738-3.613-3.479-7.225Z" transform="translate(0)"/><path d="M175.518,236.3l-2.688,7.521-.967-.2c-.08-1.195-.161-2.391-.23-3.419,2.912-.029,2.25-2.739,3.287-4.05Z" transform="translate(0)"/><path d="M170.183,195.273l-1.164,1.762-2.4,3.5-.166-.079q1.251-3.418,2.5-6.838l-.075.075,2.758-2.3C171.005,193.084,170.594,194.178,170.183,195.273Z" transform="translate(0)"/><path d="M167.08,238.365c.1.6.2,1.211.411,2.53.934-1.15,1.542-1.9,2.15-2.644l.421.171L167.8,243.43l-1.055-.129-.366-4.869Z" transform="translate(0)"/><path d="M191.433,243.485l-2.313-5,.431-.26c.576.787,1.153,1.573,2.109,2.88.25-1.378.359-1.973.467-2.568l.665.059-.281,4.638Z" transform="translate(0)"/><path d="M246.028,175.679c.113-1.137.227-2.274.388-3.9,1.812,2.6,1.642,5.161,1.25,7.833q-.834-1.99-1.674-3.986Z" transform="translate(0)"/><path d="M190.4,197.288l-1.38-2.594c-.3-.867-.606-1.734-1.036-2.962,2.981,1.915,3.486,4.769,4.545,7.516Z" transform="translate(0)"/><path d="M196.7,239.467c.321-.888.558-1.541.794-2.2l.378.054V242.3l-.774.219-2.083-5.217.445-.217C195.828,237.786,196.193,238.486,196.7,239.467Z" transform="translate(0)"/><path d="M160.961,225.554l-1.027,7.253-1.012-.133q.5-3.63,1.007-7.261Z" transform="translate(0)"/><path d="M163.951,237.82l-1.767,4.36-.805-.182V237.33l.3-.06.81,2.1,1-1.755Z" transform="translate(0)"/><path d="M166.473,229.294c.758,2.231.072,4.184-1.538,5.966q.449-3.079.9-6.158Z" transform="translate(0)"/><path d="M200.5,236.4l2.5,2.338.656-.408q-.235,1.413-.472,2.827l-.806.144Z" transform="translate(0)"/><path d="M192.115,228.993l2.23,7.405C192.111,234.359,191.661,231.855,192.115,228.993Z" transform="translate(0)"/><path d="M155.662,238.713l2.983-2.049-1.916,4.48-.764-.117C155.836,240.037,155.706,239.047,155.662,238.713Z" transform="translate(0)"/><path d="M172.809,190.308c.889-2.784,1.651-3.374,4.5-3.687Z" transform="translate(0)"/><path d="M174.024,232.953l-1.32,4.155-.75-.216q.567-2.163,1.135-4.324Z" transform="translate(0)"/><path d="M227.64,255.039l.564,3.849c.115-4.61.841-9.024,4.228-13.164-.635,4.235-1.187,7.916-1.738,11.6l.3.089.938-1.573.385.063c0,.59.048,1.186-.009,1.771a58.117,58.117,0,0,0-.645,6.5c.1,5.631-2.94,10.417-8.608,12.839l4.035-4.279-.46-.517c-1.161,1-2.41,1.922-3.46,3.03-1.16,1.226-2.138,2.625-3.195,3.948l-.809-.73c.878-1.1,1.712-2.237,2.641-3.291a17.966,17.966,0,0,0,4.868-14.2c-.194-1.936-.031-3.909-.031-5.864Z" transform="translate(0)"/><path d="M131.746,272.246c.9,1.02,1.436,1.72,2.068,2.316a14.266,14.266,0,0,1,1.838,1.737c-6.115-2.506-8.92-7.574-8.281-13.771.234-2.266-.294-4.612-.484-7.038l1.461.862c-.542-3.669-1.045-7.07-1.549-10.471a16.8,16.8,0,0,1,3.815,13.155c-.345,2.9-.836,5.828.781,8.664V254.619l.906.01a36.49,36.49,0,0,1-.043,5.5,16.32,16.32,0,0,0,4.658,14.4c1.033,1.1,1.9,2.351,3.181,3.961C136.423,277.174,135.717,273.026,131.746,272.246Z" transform="translate(0)"/><path d="M185.622,290.56c1.223,1.326,2.434,2.663,3.672,3.975a3.758,3.758,0,0,0,4.435.933c4.8-1.831,8.97-4.357,11.294-9.272a16.811,16.811,0,0,1,3.259-4.156c-2.939,7.079-5.711,14.3-14.538,15.972-3.246.615-5.077,0-6.556-2.9-.72-1.415-1.252-2.925-1.869-4.392Z" transform="translate(0)"/><path d="M173.214,290.86c-1.991,7.833-5.519,9.2-12.9,5.034-3.459-1.953-6.082-4.509-7.306-8.426-.534-1.709-1.53-3.273-1.984-5.237.951,1.175,2.247,2.21,2.792,3.55,2.267,5.577,7.046,7.875,12.2,9.709a2.775,2.775,0,0,0,2.2-.442C169.97,293.738,171.585,292.247,173.214,290.86Z" transform="translate(0)"/><path d="M220.017,256.192l1.05-.616c.98,7.732-.523,14.668-6.813,19.857a64.911,64.911,0,0,1-6.423,4.168c3.1-4.765,8.382-8.088,9.478-14.235q.077,1.218.154,2.434l.33.063q1.147-5.875,2.295-11.754Z" transform="translate(0)"/><path d="M138.76,255.07q1.2,6.166,2.393,12.334l.232-.011.18-2.612c1.238,6.294,6.007,10.151,9.959,14.662-3.107-.929-9.138-6.133-11.283-9.441-2.984-4.6-2.291-9.735-2.351-14.773Z" transform="translate(0)"/><path d="M162.237,261.406l1.913,6.228-.86.283c-.845-2.108-1.69-4.215-2.583-6.444.679,0,1.136,0,1.59,0Z" transform="translate(0)"/><path d="M156.9,260.925c2.155.1,3.551,2.594,3.58,6.745C159.321,265.477,158.079,263.138,156.9,260.925Z" transform="translate(0)"/><path d="M185.4,274.81c.118-2.719-1.586-5.728,1.083-8.655C186.075,269.45,185.739,272.13,185.4,274.81Z" transform="translate(0)"/><path d="M202.011,261.142l-3.547,6.7C198.736,263.407,199.717,261.563,202.011,261.142Z" transform="translate(0)"/><path d="M173.686,274.369c-.408-2.6-.812-5.165-1.2-7.651C174.31,267.468,174.516,268.641,173.686,274.369Z" transform="translate(0)"/><path d="M167.2,270.328c-.581-2-1.161-3.991-1.887-6.483,2.612,1.953,1.781,4.425,2.434,6.438Z" transform="translate(0)"/><path d="M191.682,270.48c.233-2.317-.521-4.965,2.093-6.7C193.024,266.185,192.353,268.333,191.682,270.48Z" transform="translate(0)"/><path d="M152.2,258.4c1.786.887,2.524,2.556,2.465,5.86C153.805,262.216,153.02,260.351,152.2,258.4Z" transform="translate(0)"/><path d="M206.759,258.793q-1.185,2.814-2.545,6.038C204.5,260.345,205.084,259.123,206.759,258.793Z" transform="translate(0)"/><path class="cls-1" d="M210.739,202.305c2.932-.521,5.859.554,8.305-1.741l-4.238-.363c7.862-1.57,12.152-1.46,14.34.317C222.958,202.46,214.7,203.944,210.739,202.305Z" transform="translate(0)"/><path class="cls-1" d="M240.521,195.231l-6.4,5.44a22.249,22.249,0,0,1,.649-4.418c.318-.848.914-1.845,2.446-1.168.765.338,1.962-.3,2.963-.493Z" transform="translate(0)"/><path class="cls-1" d="M165.318,212.339c-.22,3.171-.863,6.416,1.611,9.12C163.989,219.6,163.609,217.41,165.318,212.339Z" transform="translate(0)"/><path class="cls-1" d="M183.338,223.239c1.869,4.142,3.651-.021,5.479.195l.244.595a29.5,29.5,0,0,1-4.507,1.954c-.315.086-1.054-1.384-1.6-2.137Z" transform="translate(0)"/><path class="cls-1" d="M115.737,197.2a22.109,22.109,0,0,0,.686,3.627,39.6,39.6,0,0,0,1.99,4.095,62.21,62.21,0,0,1-3.578-5.405,59.143,59.143,0,0,1-2.4-5.9Z" transform="translate(0)"/></svg>